<svg width="226" height="59" viewBox="0 0 226 59" fill="none" xmlns="http://www.w3.org/2000/svg">
<path d="M67.7798 38.6565V18.2273H78.4113C79.8805 18.2273 81.1015 18.5052 82.0743 19.0611C83.067 19.5972 83.8115 20.3615 84.3078 21.3542C84.824 22.327 85.0821 23.4884 85.0821 24.8385C85.0821 26.1885 84.8141 27.3698 84.278 28.3823C83.7618 29.375 82.9975 30.1493 81.9849 30.7052C80.9724 31.2611 79.7316 31.539 78.2624 31.539H72.217V38.6565H67.7798ZM72.217 27.9058H77.6668C78.5999 27.9058 79.3146 27.6378 79.811 27.1018C80.3272 26.5657 80.5853 25.8212 80.5853 24.8683C80.5853 24.2131 80.4761 23.6671 80.2577 23.2303C80.0393 22.7936 79.7117 22.4561 79.2749 22.2178C78.858 21.9796 78.322 21.8604 77.6668 21.8604H72.217V27.9058ZM87.6927 38.6565V17.1254H91.8322V24.7194H92.0407C92.3782 24.3024 92.7752 23.9451 93.2319 23.6473C93.7083 23.3296 94.2345 23.0814 94.8102 22.9028C95.4058 22.7241 96.0511 22.6347 96.7459 22.6347C97.7783 22.6347 98.6816 22.8233 99.4559 23.2006C100.23 23.5778 100.826 24.1734 101.243 24.9874C101.68 25.8014 101.898 26.8635 101.898 28.1739V38.6565H97.7585V28.829C97.7585 28.3327 97.6989 27.9158 97.5798 27.5783C97.4607 27.2209 97.282 26.933 97.0437 26.7146C96.8253 26.4764 96.5474 26.3076 96.2099 26.2084C95.8724 26.1091 95.4952 26.0595 95.0782 26.0595C94.4628 26.0595 93.9069 26.2084 93.4105 26.5062C92.9142 26.804 92.5271 27.211 92.2491 27.7272C91.9712 28.2433 91.8322 28.8389 91.8322 29.514V38.6565H87.6927ZM107.871 44.2552C107.136 44.2552 106.521 44.1956 106.024 44.0765C105.548 43.9772 105.24 43.9077 105.101 43.868V41.0687H106.918C107.414 41.0687 107.861 40.9496 108.258 40.7113C108.655 40.4929 109.002 40.1951 109.3 39.8179C109.598 39.4606 109.816 39.0734 109.955 38.6565L103.821 22.9921H108.198L110.879 30.2287C110.998 30.5662 111.127 30.9931 111.266 31.5092C111.424 32.0056 111.583 32.5317 111.742 33.0876C111.901 33.6236 112.03 34.1001 112.129 34.517H112.278C112.358 34.2391 112.447 33.9115 112.546 33.5343C112.645 33.1571 112.745 32.7699 112.844 32.3729C112.963 31.9758 113.072 31.5986 113.172 31.2412C113.291 30.864 113.39 30.5364 113.469 30.2585L115.703 22.9921H119.872L114.541 37.912C114.244 38.7855 113.896 39.5995 113.499 40.354C113.122 41.1283 112.675 41.8033 112.159 42.379C111.643 42.9746 111.027 43.4313 110.313 43.7489C109.618 44.0864 108.804 44.2552 107.871 44.2552ZM128.237 39.0139C127.145 39.0139 126.162 38.8947 125.288 38.6565C124.415 38.4183 123.67 38.0907 123.055 37.6737C122.439 37.237 121.963 36.7208 121.625 36.1252C121.308 35.5296 121.149 34.8546 121.149 34.1001C121.149 34.0207 121.149 33.9413 121.149 33.8619C121.149 33.7825 121.159 33.7229 121.179 33.6832H125.169C125.169 33.7229 125.169 33.7626 125.169 33.8023C125.169 33.842 125.169 33.8817 125.169 33.9214C125.189 34.4178 125.348 34.8248 125.646 35.1424C125.944 35.4402 126.331 35.6586 126.807 35.7976C127.304 35.9366 127.82 36.0061 128.356 36.0061C128.832 36.0061 129.289 35.9663 129.726 35.8869C130.182 35.7877 130.56 35.6189 130.857 35.3807C131.175 35.1424 131.334 34.8347 131.334 34.4575C131.334 33.981 131.135 33.6137 130.738 33.3556C130.361 33.0975 129.855 32.8891 129.219 32.7302C128.604 32.5714 127.929 32.3927 127.194 32.1942C126.519 32.0354 125.844 31.8567 125.169 31.6581C124.494 31.4398 123.879 31.1618 123.323 30.8243C122.787 30.4868 122.35 30.05 122.013 29.514C121.675 28.9581 121.506 28.2632 121.506 27.4294C121.506 26.6154 121.685 25.9106 122.042 25.315C122.4 24.6995 122.886 24.1932 123.502 23.7962C124.137 23.3991 124.871 23.1112 125.705 22.9325C126.559 22.734 127.472 22.6347 128.445 22.6347C129.358 22.6347 130.212 22.734 131.006 22.9325C131.8 23.1112 132.495 23.3892 133.091 23.7664C133.686 24.1237 134.153 24.5804 134.49 25.1363C134.828 25.6723 134.997 26.2778 134.997 26.9529C134.997 27.0918 134.997 27.2209 134.997 27.34C134.997 27.4591 134.987 27.5385 134.967 27.5783H131.006V27.34C131.006 26.9826 130.897 26.6848 130.679 26.4466C130.46 26.1885 130.143 25.99 129.726 25.851C129.329 25.712 128.842 25.6425 128.266 25.6425C127.869 25.6425 127.502 25.6723 127.165 25.7319C126.847 25.7914 126.569 25.8808 126.331 25.9999C126.092 26.119 125.904 26.2679 125.765 26.4466C125.646 26.6054 125.586 26.804 125.586 27.0422C125.586 27.3797 125.725 27.6577 126.003 27.8761C126.301 28.0746 126.688 28.2433 127.165 28.3823C127.641 28.5213 128.167 28.6702 128.743 28.829C129.458 29.0276 130.202 29.2261 130.976 29.4246C131.771 29.6033 132.505 29.8515 133.18 30.1691C133.855 30.4868 134.401 30.9434 134.818 31.539C135.235 32.1148 135.443 32.899 135.443 33.8917C135.443 34.8446 135.255 35.6487 134.878 36.3039C134.52 36.959 134.014 37.4851 133.359 37.8822C132.704 38.2793 131.939 38.5672 131.066 38.7458C130.192 38.9245 129.249 39.0139 128.237 39.0139ZM138.441 20.699V17.1254H142.581V20.699H138.441ZM138.441 38.6565V22.9921H142.581V38.6565H138.441ZM153.588 39.0139C151.88 39.0139 150.431 38.726 149.24 38.1502C148.048 37.5546 147.145 36.6513 146.53 35.4402C145.914 34.2093 145.606 32.6707 145.606 30.8243C145.606 28.9382 145.914 27.3996 146.53 26.2084C147.145 24.9973 148.048 24.1039 149.24 23.5281C150.431 22.9325 151.88 22.6347 153.588 22.6347C155.335 22.6347 156.794 22.9325 157.965 23.5281C159.156 24.1039 160.06 24.9973 160.675 26.2084C161.291 27.3996 161.598 28.9382 161.598 30.8243C161.598 32.6707 161.291 34.2093 160.675 35.4402C160.06 36.6513 159.156 37.5546 157.965 38.1502C156.794 38.726 155.335 39.0139 153.588 39.0139ZM153.588 35.7976C154.501 35.7976 155.225 35.6288 155.761 35.2913C156.317 34.9538 156.724 34.4376 156.982 33.7428C157.241 33.0479 157.37 32.1942 157.37 31.1817V30.4669C157.37 29.4544 157.241 28.6007 156.982 27.9058C156.724 27.211 156.317 26.6948 155.761 26.3573C155.225 25.9999 154.501 25.8212 153.588 25.8212C152.694 25.8212 151.969 25.9999 151.414 26.3573C150.878 26.6948 150.48 27.211 150.222 27.9058C149.964 28.6007 149.835 29.4544 149.835 30.4669V31.1817C149.835 32.1942 149.964 33.0479 150.222 33.7428C150.48 34.4376 150.878 34.9538 151.414 35.2913C151.969 35.6288 152.694 35.7976 153.588 35.7976Z" fill="white"/>
<path d="M171.524 39.0139C169.856 39.0139 168.456 38.726 167.325 38.1502C166.193 37.5546 165.329 36.6513 164.734 35.4402C164.158 34.2093 163.87 32.6707 163.87 30.8243C163.87 28.9382 164.158 27.3996 164.734 26.2084C165.329 24.9973 166.193 24.094 167.325 23.4984C168.476 22.9028 169.876 22.605 171.524 22.605C172.596 22.605 173.559 22.734 174.412 22.9921C175.286 23.2502 176.04 23.6473 176.676 24.1833C177.311 24.7194 177.787 25.3844 178.105 26.1786C178.443 26.9529 178.611 27.8761 178.611 28.9481H174.472C174.472 28.2334 174.363 27.6477 174.144 27.1911C173.926 26.7345 173.588 26.387 173.132 26.1488C172.695 25.9106 172.139 25.7914 171.464 25.7914C170.67 25.7914 170.025 25.9701 169.528 26.3275C169.032 26.6848 168.665 27.211 168.426 27.9058C168.188 28.6007 168.069 29.4643 168.069 30.4967V31.1817C168.069 32.1942 168.188 33.0479 168.426 33.7428C168.685 34.4376 169.072 34.9637 169.588 35.3211C170.104 35.6586 170.779 35.8274 171.613 35.8274C172.288 35.8274 172.844 35.7083 173.281 35.47C173.737 35.2318 174.085 34.8744 174.323 34.3979C174.561 33.9214 174.68 33.3457 174.68 32.6707H178.611C178.611 33.6832 178.443 34.5865 178.105 35.3807C177.787 36.1748 177.311 36.8399 176.676 37.3759C176.06 37.912 175.316 38.319 174.442 38.5969C173.568 38.8749 172.596 39.0139 171.524 39.0139ZM185.855 39.0139C185.339 39.0139 184.783 38.9543 184.187 38.8352C183.612 38.7161 183.066 38.5076 182.549 38.2098C182.033 37.8921 181.606 37.4454 181.269 36.8697C180.951 36.2741 180.792 35.5196 180.792 34.6064C180.792 33.5144 181.031 32.6111 181.507 31.8964C181.984 31.1817 182.659 30.6258 183.532 30.2287C184.426 29.8118 185.488 29.5239 186.719 29.3651C187.95 29.2062 189.31 29.1268 190.799 29.1268V27.9654C190.799 27.5088 190.719 27.1117 190.56 26.7742C190.421 26.4367 190.163 26.1687 189.786 25.9701C189.429 25.7716 188.922 25.6723 188.267 25.6723C187.612 25.6723 187.076 25.7517 186.659 25.9106C186.262 26.0694 185.974 26.2778 185.796 26.5359C185.637 26.7742 185.557 27.0422 185.557 27.34V27.6974H181.537C181.517 27.5981 181.507 27.5088 181.507 27.4294C181.507 27.3301 181.507 27.211 181.507 27.072C181.507 26.1587 181.785 25.3745 182.341 24.7194C182.897 24.0443 183.681 23.5281 184.694 23.1708C185.706 22.8134 186.887 22.6347 188.238 22.6347C189.687 22.6347 190.898 22.8233 191.871 23.2006C192.863 23.5778 193.618 24.1337 194.134 24.8683C194.67 25.6028 194.938 26.526 194.938 27.6378V34.7553C194.938 35.1126 195.037 35.3807 195.236 35.5594C195.454 35.7182 195.692 35.7976 195.951 35.7976H196.933V38.5076C196.735 38.6069 196.427 38.7061 196.01 38.8054C195.593 38.9245 195.087 38.9841 194.491 38.9841C193.916 38.9841 193.399 38.8947 192.943 38.7161C192.506 38.5572 192.139 38.3289 191.841 38.0311C191.543 37.7135 191.335 37.3362 191.216 36.8995H191.007C190.67 37.3164 190.253 37.6837 189.756 38.0013C189.28 38.319 188.714 38.5672 188.059 38.7458C187.424 38.9245 186.689 39.0139 185.855 39.0139ZM187.255 35.8869C187.811 35.8869 188.307 35.8075 188.744 35.6487C189.181 35.47 189.548 35.2417 189.846 34.9637C190.143 34.6659 190.372 34.3086 190.531 33.8917C190.709 33.4747 190.799 33.028 190.799 32.5515V31.6879C189.687 31.6879 188.694 31.7673 187.821 31.9262C186.947 32.0651 186.252 32.3133 185.736 32.6707C185.24 33.028 184.991 33.5244 184.991 34.1597C184.991 34.517 185.081 34.8248 185.259 35.0829C185.438 35.341 185.696 35.5395 186.034 35.6785C186.371 35.8174 186.778 35.8869 187.255 35.8869ZM198.99 38.6565V22.9921H202.415L202.743 25.4341H202.951C203.15 24.9179 203.408 24.4513 203.726 24.0344C204.043 23.5976 204.44 23.2502 204.917 22.9921C205.393 22.734 205.949 22.605 206.584 22.605C206.922 22.605 207.23 22.6447 207.508 22.7241C207.786 22.7836 207.994 22.8432 208.133 22.9028V26.6551H206.852C206.237 26.6551 205.691 26.7444 205.215 26.9231C204.758 27.0819 204.371 27.34 204.053 27.6974C203.735 28.0547 203.497 28.4915 203.338 29.0077C203.199 29.5239 203.13 30.1294 203.13 30.8243V38.6565H198.99ZM217.13 39.0139C215.403 39.0139 213.954 38.726 212.782 38.1502C211.611 37.5546 210.727 36.6513 210.132 35.4402C209.536 34.2292 209.238 32.6905 209.238 30.8243C209.238 28.9382 209.536 27.3996 210.132 26.2084C210.727 24.9973 211.601 24.1039 212.752 23.5281C213.924 22.9325 215.353 22.6347 217.041 22.6347C218.629 22.6347 219.969 22.9226 221.061 23.4984C222.153 24.0543 222.977 24.9278 223.533 26.119C224.089 27.2904 224.367 28.8092 224.367 30.6754V31.7475H213.437C213.477 32.6607 213.616 33.435 213.854 34.0703C214.112 34.7057 214.5 35.1821 215.016 35.4998C215.552 35.7976 216.257 35.9465 217.13 35.9465C217.607 35.9465 218.033 35.8869 218.411 35.7678C218.808 35.6487 219.145 35.47 219.423 35.2318C219.701 34.9935 219.92 34.6957 220.078 34.3384C220.237 33.981 220.317 33.574 220.317 33.1174H224.367C224.367 34.11 224.188 34.9737 223.831 35.7083C223.473 36.4428 222.977 37.0583 222.342 37.5546C221.706 38.0311 220.942 38.3984 220.049 38.6565C219.175 38.8947 218.202 39.0139 217.13 39.0139ZM213.497 29.1268H220.108C220.108 28.5312 220.029 28.015 219.87 27.5783C219.731 27.1415 219.532 26.7841 219.274 26.5062C219.016 26.2282 218.699 26.0297 218.321 25.9106C217.964 25.7716 217.557 25.7021 217.1 25.7021C216.346 25.7021 215.711 25.8311 215.194 26.0892C214.698 26.3275 214.311 26.7047 214.033 27.2209C213.775 27.7172 213.596 28.3525 213.497 29.1268Z" fill="#619E90"/>
<g clip-path="url(#clip0_178_44)">
<path d="M29.0443 52.7266C26.1196 52.7266 23.3056 51.5745 21.245 49.4917L6.17812 34.447C5.92701 34.1959 5.69066 33.93 5.46909 33.6493C4.93732 33.0068 4.47202 32.2977 4.09535 31.5444C3.342 29.9934 2.96533 28.3094 2.96533 26.6255C2.96533 23.8115 4.02888 20.9754 6.20028 18.8262C10.4988 14.5055 17.5004 14.5055 21.8211 18.8262L29.0443 26.0716L36.2897 18.8262C40.6104 14.5055 47.612 14.5055 51.9105 18.8262C55.3449 22.2605 56.0539 27.4232 53.9933 31.5444C53.6388 32.2977 53.1735 33.0068 52.6195 33.6715C52.398 33.9374 52.1616 34.1959 51.9105 34.447L51.3123 35.0452L36.8658 49.4917C34.783 51.5745 31.9912 52.7266 29.0443 52.7266Z" fill="#619E90"/>
<path d="M18.8741 53.6351C19.8268 49.8905 20.6466 32.4971 17.3452 26.271C14.8858 21.618 12.2269 16.8542 10.6094 11.7802C10.0777 10.0962 9.25785 7.74758 10.1441 5.99716C11.252 3.8036 12.9138 6.21873 13.9773 7.50385C17.5446 11.8023 20.8239 18.3165 26.6291 19.934C31.8803 21.4185 34.7829 17.8069 40.012 14.9265C41.5408 14.0624 46.0387 10.4064 47.9886 12.9545C49.7168 15.2589 43.4464 19.225 41.3414 22.7037C39.9234 25.0302 38.7269 27.7333 38.173 29.7275C35.8243 38.5904 40.0785 44.7722 41.2971 53.4356" fill="white"/>
<path d="M33.52 11.9351C33.52 15.3473 30.7504 18.0948 27.3603 18.0948C23.9703 18.0948 21.2228 15.3473 21.2228 11.9351C21.2228 8.5451 23.9703 5.79761 27.3603 5.79761C30.7504 5.79761 33.52 8.5451 33.52 11.9351Z" fill="white"/>
<path d="M30.0414 24.011C30.0414 25.3847 28.9335 26.4926 27.5598 26.4926C26.2082 26.4926 25.1003 25.3847 25.1003 24.011C25.1003 22.6594 26.2082 21.5515 27.5598 21.5515C28.9335 21.5515 30.0414 22.6594 30.0414 24.011Z" fill="#619E90"/>
<path d="M29.7754 31.633C29.7754 32.8517 28.7784 33.8487 27.5597 33.8487C26.3411 33.8487 25.344 32.8517 25.344 31.633C25.344 30.4144 26.3411 29.4395 27.5597 29.4395C28.7784 29.4395 29.7754 30.4144 29.7754 31.633Z" fill="#619E90"/>
<path d="M29.5095 38.6566C29.5095 39.7423 28.6454 40.6064 27.5597 40.6064C26.4962 40.6064 25.6099 39.7423 25.6099 38.6566C25.6099 37.5931 26.4962 36.7068 27.5597 36.7068C28.6454 36.7068 29.5095 37.5931 29.5095 38.6566Z" fill="#619E90"/>
<path d="M30.0634 45.1043C30.0634 45.9906 29.3544 46.6997 28.4681 46.6997C27.5818 46.6997 26.8728 45.9906 26.8728 45.1043C26.8728 44.2181 27.5818 43.509 28.4681 43.509C29.3544 43.509 30.0634 44.2181 30.0634 45.1043Z" fill="#619E90"/>
<path d="M32.0576 50.3558C32.0576 51.1313 31.4151 51.7739 30.6174 51.7739C29.8419 51.7739 29.1993 51.1313 29.1993 50.3558C29.1993 49.5581 29.8419 48.9377 30.6174 48.9377C31.4151 48.9377 32.0576 49.5581 32.0576 50.3558Z" fill="#619E90"/>
</g>
<defs>
<clipPath id="clip0_178_44">
<rect width="52.2909" height="48.7458" fill="white" transform="translate(2.85449 5)"/>
</clipPath>
</defs>
</svg>
