<svg width="31" height="31" viewBox="0 0 31 31" fill="none" xmlns="http://www.w3.org/2000/svg">
<g clip-path="url(#clip0_106_270)">
<path fill-rule="evenodd" clip-rule="evenodd" d="M6.79833 0.863905C6.59302 0.923202 6.417 0.979745 6.40722 0.98953C6.39116 1.00564 7.34114 4.77867 7.40255 4.94262C7.43413 5.02699 8.4021 4.78992 8.4021 4.69781C8.4021 4.66559 8.17845 3.76254 7.90505 2.69098C7.34308 0.488143 7.45563 0.673944 6.79833 0.863905ZM21.5277 0.991757C21.387 1.11351 21.3625 1.21101 21.2078 2.26406C21.062 3.2557 21.0233 3.41818 20.9109 3.50918C20.7661 3.62643 20.5509 3.6443 20.3807 3.55318C20.3184 3.51984 19.9914 3.12644 19.6541 2.67902C19.3168 2.23154 18.9814 1.82379 18.9087 1.77287C18.649 1.591 18.4973 1.65223 17.6531 2.27976L16.8466 2.87924L16.0228 2.86201C13.6629 2.81256 11.4768 3.60404 9.65776 5.16656C7.89052 6.68455 6.64036 9.09604 6.46071 11.3336L6.42192 11.817H6.25212C5.97761 11.817 5.81993 12.0305 5.70679 12.5555C5.652 12.8099 5.56815 13.196 5.52052 13.4133L5.43386 13.8084L4.8672 13.4169C4.55554 13.2015 4.23767 12.9775 4.16079 12.9192C4.07929 12.8572 3.92231 12.813 3.78403 12.813C3.55675 12.813 3.51116 12.8488 2.67866 13.6814C1.58261 14.7774 1.59603 14.7082 2.2855 15.7084C2.54683 16.0876 2.73802 16.4177 2.7103 16.4419C2.68259 16.4661 2.35669 16.5463 1.98608 16.6202C1.1953 16.7776 0.963799 16.8617 0.87749 17.023C0.838291 17.0963 0.814209 17.5832 0.814209 18.304C0.814209 19.2582 0.830439 19.4899 0.904854 19.596C1.00399 19.7377 1.31776 19.8413 2.11036 19.9942C2.38815 20.0478 2.64878 20.1122 2.68944 20.1374C2.74288 20.1704 2.63132 20.3763 2.28685 20.8806C1.6006 21.8851 1.58583 21.8089 2.67866 22.9017C3.77806 24.0012 3.7027 23.9873 4.72645 23.2767L5.4372 22.7833L5.53394 23.2328C5.89558 24.9129 5.73028 24.7662 7.26069 24.7662C7.99276 24.7662 8.4839 24.7422 8.55737 24.7029C8.71868 24.6166 8.80276 24.3851 8.96021 23.5943C9.03403 23.2237 9.11448 22.8976 9.13903 22.8695C9.16358 22.8415 9.49464 23.0326 9.87474 23.2943C10.7897 23.9243 10.8447 23.9263 11.4488 23.3525L11.8884 22.9349V23.7897C11.8884 24.8913 11.9748 25.1556 12.5098 25.6911L12.8778 26.0593L12.8958 27.6833C12.9135 29.2808 12.9162 29.3119 13.0603 29.6002C13.2498 29.9792 13.6573 30.3877 14.0271 30.5695C14.3109 30.7089 14.366 30.714 15.7878 30.7317C17.1853 30.749 17.2723 30.7436 17.6038 30.6196C18.076 30.4429 18.5562 29.9647 18.7456 29.4826C18.8758 29.1509 18.8848 29.0429 18.9071 27.5347C18.9201 26.6565 18.9514 25.938 18.9767 25.938C19.1018 25.938 19.5376 25.4141 19.6984 25.0704L19.88 24.6823L19.9135 23.1862C19.9463 21.7257 19.9508 21.682 20.102 21.3575C20.3069 20.9173 20.6304 20.5767 21.3143 20.0807C21.6247 19.8555 21.9552 19.6071 22.0489 19.5287L22.219 19.386L22.0396 19.161C21.9409 19.0373 21.78 18.86 21.6821 18.7669L21.504 18.5978L21.2225 18.8293C21.0678 18.9566 20.7104 19.2257 20.4284 19.4273C19.8483 19.8419 19.4471 20.2961 19.206 20.8111C18.9077 21.4482 18.8611 21.7522 18.8607 23.0646C18.8606 23.7265 18.8328 24.3677 18.799 24.4894C18.7159 24.7885 18.4281 25.1026 18.1672 25.179C18.0265 25.2202 17.1965 25.2356 15.751 25.2237L13.5491 25.2056L13.3339 25.0414C12.9727 24.7659 12.96 24.7068 12.9272 23.1548C12.8945 21.6058 12.847 21.3213 12.5176 20.7032C12.2524 20.2058 11.8435 19.7834 11.1608 19.3016C10.3944 18.7608 9.8854 18.3083 9.41366 17.748C7.23286 15.1583 6.78931 11.6361 8.26341 8.61363C8.82304 7.46619 9.76153 6.32889 10.7713 5.57455C12.019 4.6425 13.6777 4.02562 15.2065 3.92519C15.7453 3.8898 15.7556 3.89156 15.7556 4.019C15.7556 4.20287 15.812 4.2934 16.4999 5.21455C17.0461 5.94586 17.11 6.05643 17.0791 6.2168C17.0327 6.45709 16.8454 6.6024 16.5841 6.60076C16.4668 6.6 16.0281 6.54791 15.6091 6.48492C14.5671 6.3283 14.3449 6.33193 14.1791 6.50836C14.0635 6.63141 14.018 6.85002 13.8164 8.25152C13.5772 9.91377 13.576 10.0551 13.7993 10.2404C13.8445 10.2778 14.3887 10.383 15.0089 10.4741C16.0491 10.627 16.1467 10.6516 16.2683 10.7922C16.5472 11.1145 16.4339 11.2811 15.4193 12.0399C14.9383 12.3997 14.5139 12.7618 14.4761 12.8447C14.4383 12.9277 14.4247 13.0643 14.4458 13.1484C14.4668 13.2325 14.9158 13.8778 15.4434 14.5825C16.4162 15.8819 16.5612 16.0229 16.8496 15.9506C16.922 15.9323 17.3558 15.6378 17.8134 15.296C18.2712 14.9541 18.7141 14.6548 18.7979 14.6308C18.9958 14.574 19.1825 14.6462 19.2997 14.8249C19.3867 14.9578 19.3818 15.0509 19.2327 16.1096C19.0783 17.2067 19.0761 17.2571 19.1747 17.4077C19.2312 17.4939 19.3353 17.5861 19.4061 17.6126C19.477 17.6391 20.2277 17.7595 21.0745 17.8802C22.7311 18.1162 22.8683 18.1129 23.0136 17.8336C23.0502 17.7632 23.1463 17.2442 23.2271 16.6802C23.3825 15.5957 23.4541 15.4034 23.73 15.3296C23.8093 15.3084 23.9314 15.3122 24.0015 15.3381C24.0714 15.364 24.4135 15.7671 24.7615 16.2339C25.4529 17.1612 25.6593 17.3356 25.9398 17.2297C26.1226 17.1607 28.4388 15.4482 28.6023 15.2612C28.8251 15.0062 28.7485 14.8127 28.0578 13.8861C27.7021 13.4087 27.3947 12.954 27.375 12.8757C27.3547 12.7949 27.3756 12.6681 27.4236 12.5827C27.5839 12.2967 27.7002 12.2858 28.8513 12.4492C29.4388 12.5327 29.9771 12.5811 30.0664 12.5586C30.1546 12.5364 30.2648 12.4593 30.3114 12.3873C30.3953 12.2573 30.8142 9.54047 30.8142 9.12592C30.8142 8.86922 30.6923 8.67908 30.496 8.62986C30.4162 8.60982 29.9132 8.52979 29.3782 8.45203C28.3468 8.30215 28.1467 8.22738 28.0815 7.96775C28.0175 7.71275 28.1624 7.546 28.9992 6.91213C29.4335 6.58312 29.835 6.25723 29.8914 6.18785C30.1234 5.9025 30.0588 5.76996 28.9994 4.35861C28.1087 3.17209 27.984 3.02988 27.8044 2.99619C27.551 2.94867 27.5172 2.96748 26.5211 3.71144C25.7966 4.2525 25.6782 4.32111 25.4954 4.30541C25.3502 4.29293 25.2528 4.23932 25.1679 4.12512L25.047 3.96252L25.2012 2.86652C25.3369 1.90131 25.3458 1.74762 25.2751 1.57851C25.231 1.47293 25.1304 1.36201 25.0515 1.33201C24.8906 1.27084 22.0987 0.859921 21.8439 0.859921C21.7538 0.859921 21.6115 0.919218 21.5277 0.991757ZM22.292 2.1566C22.2733 2.26523 22.2186 2.62576 22.1703 2.95781C22.1221 3.28986 22.0466 3.64775 22.0026 3.7531C21.7888 4.26498 21.1936 4.66687 20.6478 4.66793C19.9828 4.66922 19.6723 4.46531 19.0311 3.60609C18.7697 3.25588 18.5416 2.9693 18.5243 2.9693C18.5069 2.9693 18.1531 3.22307 17.738 3.53326L16.9833 4.09723L17.1209 4.28033C18.0072 5.46029 18.068 5.56213 18.1288 5.96736C18.2557 6.81346 17.5212 7.65662 16.657 7.65686C16.5319 7.65691 16.1195 7.61309 15.7406 7.55953C15.3618 7.50598 15.0367 7.47732 15.0182 7.49584C14.9996 7.51435 14.925 7.94109 14.8525 8.44412L14.7205 9.35871L14.8425 9.38508C14.9097 9.39961 15.2678 9.45387 15.6384 9.50572C16.009 9.55752 16.418 9.64623 16.5473 9.70283C17.2125 9.99422 17.5766 10.7822 17.3717 11.487C17.2506 11.9035 17.0488 12.1319 16.3144 12.6834C15.9909 12.9264 15.7174 13.132 15.7065 13.1404C15.69 13.1529 16.6673 14.4862 16.8133 14.6504C16.8379 14.678 17.1258 14.4978 17.453 14.2499C18.1921 13.6903 18.4723 13.5608 18.9307 13.5673C19.6898 13.578 20.2735 14.0889 20.4119 14.8638C20.432 14.9766 20.3959 15.424 20.3316 15.858C20.2673 16.292 20.2266 16.6591 20.2413 16.6737C20.2683 16.7007 22.1024 16.9754 22.12 16.955C22.1252 16.9489 22.1841 16.5657 22.2508 16.1034C22.4118 14.9876 22.5919 14.6697 23.2202 14.3917C23.6209 14.2145 24.1182 14.2275 24.5235 14.4258C24.7826 14.5526 24.9142 14.6856 25.3646 15.2766C25.6582 15.6619 25.9058 15.9771 25.9147 15.9771C25.9236 15.9771 26.2738 15.7201 26.693 15.4058L27.4552 14.8345L26.9679 14.19C26.4062 13.4471 26.2734 13.13 26.318 12.6387C26.3684 12.0832 26.6625 11.6552 27.1497 11.4283C27.5031 11.2637 27.9366 11.2501 28.7634 11.3775C29.0696 11.4247 29.3488 11.4637 29.384 11.4643C29.4424 11.4653 29.7438 9.60996 29.6925 9.56502C29.681 9.55494 29.3552 9.50262 28.9685 9.44865C28.0638 9.32244 27.7673 9.22336 27.4902 8.95441C27.1444 8.61885 27.0349 8.34797 27.0349 7.82795C27.0349 7.19807 27.1952 6.95555 28.0329 6.31822C28.3863 6.04928 28.6755 5.79732 28.6755 5.7583C28.6755 5.68517 27.6453 4.26434 27.5895 4.26053C27.5723 4.25935 27.2598 4.47908 26.8951 4.74891C26.5305 5.01867 26.1328 5.26916 26.0115 5.30555C25.124 5.57144 24.2479 5.06543 24.063 4.18014C24.0125 3.93791 24.0224 3.71279 24.1128 3.05209L24.2257 2.22674L23.4623 2.12291C23.0425 2.06578 22.6151 2.0056 22.5125 1.98908C22.3386 1.96119 22.3238 1.97244 22.292 2.1566ZM2.43069 3.81475C2.2828 4.02193 2.16187 4.21717 2.16187 4.24857C2.16187 4.29779 5.56599 6.77789 5.63354 6.77789C5.6472 6.77789 5.78624 6.59238 5.94257 6.36568C6.22224 5.96004 6.22499 5.95178 6.11325 5.84666C5.98645 5.72736 2.76661 3.43805 2.7256 3.43805C2.71124 3.43805 2.57853 3.60756 2.43069 3.81475ZM21.7615 5.49574C20.4167 5.64562 19.2573 6.45603 18.6617 7.66242C18.3078 8.37914 18.1955 8.91064 18.2356 9.67828C18.365 12.1562 20.6498 13.8897 23.1016 13.3702C23.3231 13.3233 23.7294 13.176 24.0046 13.0428C24.4065 12.8482 24.6053 12.701 25.0156 12.2941C25.452 11.8614 25.565 11.7066 25.7916 11.231C26.18 10.4158 26.2976 9.75568 26.1909 8.98875C25.881 6.7609 23.9652 5.25012 21.7615 5.49574ZM11.7449 6.674C10.9703 7.21131 10.089 8.26365 9.60802 9.22576C8.28913 11.8643 8.84144 15.1794 10.9483 17.2709C11.5707 17.8887 12.125 18.2633 13.1562 18.7631C13.9196 19.1331 14.0951 19.2449 14.4162 19.566C14.9473 20.0972 15.3455 20.9623 15.3455 21.5851V21.7779H15.8804H16.4153L16.375 21.4117C16.3116 20.8355 16.1786 20.3824 15.9152 19.8456C15.7226 19.4531 15.5659 19.2422 15.1679 18.8401C14.6988 18.366 14.6085 18.3042 13.8477 17.9355C12.8116 17.4336 12.3159 17.1157 11.8096 16.6287C10.8344 15.6907 10.2163 14.5346 10.0117 13.2658C9.898 12.5602 9.96538 11.3873 10.1569 10.7388C10.5419 9.43547 11.2554 8.37914 12.2693 7.61115C12.4626 7.46467 12.6436 7.32498 12.6716 7.30072C12.7305 7.24939 12.2395 6.42609 12.1521 6.42978C12.1199 6.43113 11.9367 6.54105 11.7449 6.674ZM21.8787 6.52383C20.6708 6.6975 19.6622 7.58654 19.3609 8.74324C18.8861 10.5663 20.3083 12.4029 22.1948 12.4029C22.4425 12.4029 22.7952 12.3638 22.9788 12.3159C24.3905 11.9483 25.3877 10.4202 25.1358 9.01084C24.9346 7.88484 24.0366 6.8809 22.9905 6.61254C22.6979 6.53748 22.1099 6.4906 21.8787 6.52383ZM3.18726 8.84156C2.15601 9.10189 1.30763 9.31775 1.30206 9.32127C1.29644 9.32478 1.34794 9.55822 1.41661 9.84C1.51435 10.2414 1.56099 10.3465 1.63188 10.3252C1.68169 10.3103 2.58591 10.0828 3.64136 9.81973C4.74878 9.54369 5.55972 9.31353 5.55895 9.27545C5.55825 9.23918 5.51056 9.02496 5.45302 8.79937C5.36097 8.43844 5.33126 8.38799 5.20534 8.37873C5.12665 8.37299 4.21851 8.58129 3.18726 8.84156ZM6.45304 14.0675C6.3219 14.5577 5.93325 14.8638 5.44206 14.8638C5.16087 14.8638 4.98374 14.7792 4.38075 14.3568C4.13483 14.1845 3.9113 14.0435 3.88405 14.0435C3.85681 14.0435 3.64563 14.2312 3.41472 14.4605L2.99489 14.8776L3.4003 15.4713C3.82071 16.087 3.90679 16.3303 3.83659 16.7046C3.79171 16.9437 3.56712 17.2334 3.33251 17.3547C3.2428 17.4011 2.90976 17.494 2.59241 17.5613C2.27507 17.6285 1.96927 17.6969 1.91284 17.7132C1.8246 17.7387 1.8103 17.8193 1.8103 18.2916C1.8103 18.7629 1.82478 18.8448 1.91284 18.8723C1.96927 18.89 2.27272 18.9571 2.58726 19.0216C3.37446 19.1829 3.64716 19.3459 3.79856 19.7456C3.95724 20.1642 3.86489 20.4629 3.34903 21.1997L2.99489 21.7056L3.41472 22.1226C3.64563 22.3519 3.85581 22.5396 3.88183 22.5396C3.90778 22.5396 4.15769 22.3832 4.43706 22.192C5.00776 21.8014 5.18759 21.7193 5.47241 21.7193C5.84923 21.7193 6.18239 21.923 6.35812 22.2607C6.40405 22.349 6.49435 22.6786 6.5588 22.9931C6.62325 23.3077 6.6904 23.6112 6.70804 23.6675C6.73558 23.7557 6.81761 23.7701 7.29163 23.7701C7.81569 23.7701 7.8447 23.7635 7.87323 23.6382C7.88976 23.5657 7.95685 23.26 8.02224 22.9588C8.08769 22.6577 8.17915 22.3378 8.22562 22.248C8.34702 22.0133 8.63665 21.7887 8.87583 21.7438C9.24655 21.6742 9.49282 21.7608 10.1105 22.1779L10.7071 22.5807L11.2167 22.0688C11.7252 21.5578 11.7261 21.5566 11.6607 21.3586C11.5542 21.0359 11.1558 20.6101 10.5302 20.1503C10.2074 19.9131 9.93825 19.7275 9.9321 19.7377C9.78597 19.9799 9.37229 20.4676 9.17794 20.6269C8.67497 21.039 7.91337 21.3091 7.25442 21.3091C5.93636 21.3091 4.69728 20.3421 4.36095 19.0508C4.25823 18.6565 4.24616 18.0027 4.33446 17.6194C4.57511 16.5752 5.52339 15.6185 6.55358 15.3807C6.86724 15.3083 6.88552 15.2781 6.78685 14.995C6.75245 14.8963 6.67862 14.5899 6.62278 14.314L6.52124 13.8124L6.45304 14.0675ZM6.72415 16.4205C5.86229 16.6859 5.26235 17.5648 5.34216 18.445C5.40526 19.1412 5.84911 19.7699 6.48913 20.07C6.95835 20.29 7.61595 20.2872 8.0806 20.0633C8.44599 19.8871 8.81442 19.5483 9.0004 19.2174L9.12614 18.9936L8.74399 18.5547C8.30524 18.0507 7.69687 17.1573 7.45763 16.6656C7.27376 16.2877 7.2171 16.2687 6.72415 16.4205ZM25.3064 19.7857V20.313H27.0642H28.822V19.7857V19.2584H27.0642H25.3064V19.7857ZM24.7898 22.2795L24.4783 22.6579L24.6433 22.7965C24.7341 22.8729 25.4148 23.4412 26.156 24.0595L27.5037 25.1836L27.7266 24.9309C27.8493 24.792 28.0011 24.608 28.0641 24.522L28.1785 24.3657L26.7131 23.1451C25.907 22.4737 25.2146 21.9192 25.1744 21.9127C25.1342 21.9063 24.9612 22.0714 24.7898 22.2795ZM15.3455 23.5357V24.2974H15.8728H16.4001V23.5357V22.774H15.8728H15.3455V23.5357ZM22.3181 25.0005V26.7584H22.8455H23.3728V25.0005V23.2427H22.8455H22.3181V25.0005ZM13.9392 26.7584V27.2271H15.9021H17.865V26.7584V26.2896H15.9021H13.9392V26.7584ZM13.9392 28.64C13.9392 29.0823 14.0941 29.3874 14.4082 29.5639C14.6138 29.6795 14.7145 29.688 15.8719 29.688C16.9075 29.688 17.149 29.6719 17.3194 29.591C17.6247 29.4461 17.8021 29.1363 17.8455 28.6725L17.8819 28.2818H15.9106H13.9392V28.64Z" fill="#619E90"/>
</g>
<defs>
<clipPath id="clip0_106_270">
<rect width="30" height="30" fill="white" transform="translate(0.814209 0.742737)"/>
</clipPath>
</defs>
</svg>
