<svg width="32" height="32" viewBox="0 0 32 32" fill="none" xmlns="http://www.w3.org/2000/svg">
<g clip-path="url(#clip0_106_343)">
<path fill-rule="evenodd" clip-rule="evenodd" d="M18.6877 0.801946C17.7045 0.937372 16.7923 1.39842 16.031 2.14474C15.5998 2.56748 15.4271 2.8089 14.7761 3.8999C13.6661 5.7599 13.5379 6.11098 13.5438 7.27624C13.5466 7.8466 13.5781 8.10249 13.6923 8.48271C13.8496 9.00667 13.8734 9.41409 13.762 9.67318L13.6911 9.83817L13.5358 9.68826C13.3631 9.52159 13.2669 9.50591 13.0371 9.60701C12.75 9.73326 12.7356 9.94427 12.9701 10.594C13.0857 10.9146 13.2105 11.2119 13.2473 11.2547C13.2841 11.2976 13.5232 11.4061 13.7786 11.496C14.2291 11.6546 14.4363 11.7913 14.351 11.8737C14.3281 11.8958 14.0094 11.8204 13.6428 11.7063L12.9762 11.4989L12.5973 11.0471C11.8972 10.2121 11.7493 10.1269 11.4317 10.3751C11.2501 10.517 11.2353 10.8643 11.4032 11.0434C11.4669 11.1115 11.4937 11.1674 11.4626 11.1677C11.4314 11.168 9.80463 11.491 7.84738 11.8853C4.02663 12.6551 4.12476 12.6255 4.12476 13.0091C4.12476 13.2409 4.31051 13.42 4.54744 13.4168C4.64151 13.4156 6.35638 13.0853 8.35825 12.6829C10.3601 12.2805 12.0313 11.9513 12.0718 11.9513C12.1124 11.9513 12.2186 12.0217 12.3077 12.1078C12.4239 12.22 12.7678 12.3564 13.5235 12.5903C14.1031 12.7697 14.6329 12.9165 14.7009 12.9165C14.9057 12.9165 15.1718 12.5827 15.2558 12.2205C15.3891 11.6456 15.1321 11.1171 14.5978 10.8675L14.3175 10.7365L14.4297 10.4541C14.4914 10.2988 14.7215 9.6613 14.9411 9.03744C15.3191 7.96369 15.3354 7.8945 15.2463 7.74127C15.1089 7.50511 14.8504 7.43387 14.6113 7.56634L14.4204 7.67208L14.4511 7.08206C14.4934 6.26903 14.6587 5.85395 15.5093 4.42568C16.1189 3.40193 16.2899 3.16462 16.7266 2.73639C17.1456 2.32565 17.3266 2.1971 17.7579 2.00382C18.3428 1.74172 18.7804 1.63603 19.281 1.63603C20.1474 1.63603 20.8914 1.94254 21.5368 2.56549C22.2363 3.24057 22.5289 3.96354 22.5176 4.98795C22.5085 5.80738 22.3137 6.29443 21.379 7.83387C20.3386 9.54747 20.0194 9.92829 19.4207 10.1697L19.1922 10.2619L19.2053 9.95519C19.2164 9.69695 19.1952 9.63023 19.0709 9.53311C18.7307 9.26703 18.3565 9.49095 18.2834 10.0044C18.2108 10.5133 18.4311 11.007 18.8164 11.1993C18.9164 11.2492 19.9899 11.4532 21.2021 11.6526C23.555 12.0395 23.8498 12.1228 24.3849 12.552C24.6681 12.7791 30.4113 20.0201 30.5351 20.3062C30.7456 20.7924 30.5903 21.4594 30.1809 21.8278C30.0641 21.9329 28.4216 23.0679 26.531 24.3499C24.6404 25.6319 23.0731 26.7155 23.0481 26.758C23.0232 26.8004 22.9848 26.9948 22.9628 27.19C22.9216 27.5551 22.6525 28.2385 22.55 28.2385C22.5163 28.2385 22.4978 27.7735 22.5054 27.1223C22.5171 26.1349 22.5061 25.9927 22.4099 25.89C22.3139 25.7877 22.1946 25.7717 21.4014 25.7545L20.5018 25.7351L20.3009 25.541C20.1903 25.4342 20.1141 25.3332 20.1313 25.3165C20.1486 25.2999 20.6335 25.2676 21.2088 25.2449L22.2548 25.2035L24.8929 23.2166C26.3439 22.1238 27.6084 21.1593 27.7029 21.0733C27.8223 20.9646 27.8748 20.8567 27.8748 20.7197C27.8748 20.539 27.704 20.3666 25.8393 18.6649C24.7198 17.6432 23.7143 16.7581 23.6049 16.698C23.3593 16.5632 22.9334 16.5919 22.6958 16.7593C22.3611 16.9952 22.3454 17.0848 21.9889 20.8188L21.6521 24.3477L20.5603 24.3786C19.9598 24.3956 19.4171 24.4332 19.3543 24.4622C18.9826 24.6339 19.0872 25.5501 19.5363 26.0565C19.8955 26.4615 20.1721 26.5704 20.9373 26.6079L21.5935 26.64L21.6099 28.6721L21.6264 30.7043L21.7903 30.8287C21.9972 30.9858 22.1275 30.9856 22.3351 30.828C22.4923 30.7086 22.4998 30.6772 22.4998 30.1298V29.5565L22.9274 29.1539C23.4161 28.6938 23.7103 28.181 23.8239 27.5913L23.8963 27.2155L27.2137 24.9703C29.1271 23.6752 30.6794 22.5815 30.8817 22.386C31.4995 21.7887 31.7087 20.9243 31.4289 20.1245C31.2948 19.741 31.0001 19.347 28.2619 15.8891C25.6112 12.5418 25.1916 12.0395 24.8244 11.7734C24.1939 11.3167 23.7979 11.1913 22.1302 10.9195C21.3194 10.7874 20.6101 10.6661 20.5539 10.6499C20.4746 10.6271 20.5281 10.5438 20.7922 10.2785C21.3747 9.69333 22.8922 7.20024 23.1943 6.33201C24.085 3.77183 22.4601 1.12576 19.7917 0.791088C19.2758 0.726422 19.2333 0.726844 18.6877 0.801946ZM9.35569 0.918852C9.08588 1.07038 9.10269 1.21944 9.53682 2.5214C9.76557 3.20751 10.0025 3.81032 10.0684 3.8739C10.2163 4.01669 10.3076 4.01662 10.7966 3.87306C11.0115 3.81002 11.1875 3.76272 11.1878 3.76797C11.1973 3.93591 11.6423 5.95861 11.6879 6.04077C11.7698 6.18856 12.0292 6.25509 12.2418 6.18295C12.5494 6.07853 12.5506 5.9118 12.253 4.45306C12.1028 3.71652 11.9523 3.05423 11.9187 2.98124C11.8181 2.76293 11.5775 2.72143 11.1535 2.84913C10.9486 2.91084 10.7507 2.96175 10.7136 2.96224C10.6766 2.96272 10.4997 2.5296 10.3206 1.99972C9.98682 1.01265 9.88357 0.849481 9.59519 0.853643C9.52551 0.854669 9.41776 0.883986 9.35569 0.918852ZM4.98769 4.57679C4.66732 4.93685 4.77369 5.07837 5.97001 5.88356C6.54232 6.26873 7.06701 6.61299 7.13601 6.64864C7.34951 6.75897 7.55282 6.6548 7.85369 6.28079L8.14269 5.92163L8.76225 6.47829C9.92844 7.5261 10.0823 7.61285 10.3652 7.38181C10.4363 7.32378 10.5137 7.19794 10.5373 7.10221C10.5766 6.94211 10.5328 6.88414 9.99057 6.37833C8.83082 5.29662 8.26013 4.83316 8.08782 4.83316C7.92013 4.83316 7.67769 5.03548 7.36963 5.43241L7.20882 5.63956L6.33869 5.05617C5.42401 4.44293 5.18288 4.35739 4.98769 4.57679ZM10.4076 8.85194L9.90051 9.37199L9.3095 9.48184C4.46644 10.382 2.31313 10.8219 1.95232 10.9847C1.42207 11.224 0.922443 11.6922 0.670631 12.1858C0.479818 12.5598 0.468506 12.6192 0.468506 13.2479C0.468506 13.877 0.479756 13.9359 0.671068 14.3113C0.986881 14.9307 1.64344 15.4398 2.43726 15.6808C2.55757 15.7174 4.13213 15.9929 5.93632 16.2933C9.02063 16.8067 9.22982 16.8494 9.43632 17.0082C9.89226 17.3585 9.84657 16.9478 10.2198 24.0499C10.5837 30.977 10.5565 30.7122 10.9134 30.7987C11.2012 30.8684 11.4021 30.6736 11.4248 30.3028C11.4531 29.839 10.8269 17.8801 10.7549 17.5125C10.6315 16.8816 10.2655 16.3983 9.70025 16.12C9.42032 15.9821 9.35482 15.9698 5.53982 15.3329C2.46038 14.8189 2.25201 14.7636 1.80132 14.3412C1.47157 14.0321 1.35044 13.7393 1.34857 13.2465C1.34644 12.6831 1.57644 12.2646 2.06794 11.9374C2.48419 11.6603 2.35219 11.6906 6.74976 10.863L10.3435 10.1867L10.8185 9.71173L11.2935 9.23674H12.1494C12.9749 9.23674 13.0109 9.2315 13.1588 9.08865C13.2432 9.00722 13.3123 8.87028 13.3123 8.78432C13.3123 8.69836 13.2432 8.56143 13.1588 8.47999C13.0082 8.33455 12.9866 8.3319 11.96 8.3319H10.9146L10.4076 8.85194ZM23.2239 17.6308C23.1846 17.7504 22.6191 23.7289 22.6448 23.7537C22.6743 23.7822 26.6487 20.7797 26.6724 20.7109C26.6828 20.6808 26.0224 20.0463 25.2049 19.3008C23.3182 17.5803 23.2573 17.5289 23.2239 17.6308ZM15.0487 23.0357C14.9963 23.0937 14.9041 23.2905 14.8439 23.473C14.7836 23.6555 14.7131 23.8273 14.687 23.8549C14.6609 23.8825 14.189 23.7668 13.6383 23.5978C12.837 23.352 12.6052 23.3022 12.4784 23.3487C12.1684 23.4625 12.0857 23.8697 12.3343 24.0584C12.4151 24.1198 13.0521 24.3436 13.7498 24.5558C15.2553 25.0137 15.2515 25.0141 15.487 24.3779C15.5659 24.1647 15.6371 23.9839 15.6452 23.9761C15.6533 23.9683 16.1198 24.1641 16.6819 24.4111C17.7478 24.8797 18.0288 24.9421 18.2088 24.7501C18.3311 24.6197 18.3444 24.3203 18.2341 24.1832C18.1212 24.0429 15.5364 22.9301 15.3234 22.9301C15.2248 22.9301 15.1012 22.9776 15.0487 23.0357ZM16.2233 26.5865C15.5041 26.7335 14.8751 26.8861 14.8257 26.9257C14.6541 27.0632 14.6406 27.2358 14.7668 27.6838C14.8375 27.9346 14.8675 28.1463 14.8362 28.1729C14.8058 28.1986 14.3484 28.3662 13.8198 28.5451C12.9446 28.8413 12.8502 28.8874 12.7654 29.059C12.6856 29.2205 12.6845 29.2719 12.7579 29.4172C12.9264 29.7511 13.0633 29.7381 14.4756 29.2538C16.0079 28.7283 16.0161 28.7218 15.8609 28.1554C15.8052 27.9523 15.7424 27.7436 15.7212 27.6916C15.6889 27.6125 15.8679 27.5605 16.8256 27.3708C18.0608 27.126 18.2081 27.0582 18.2081 26.7345C18.2081 26.4725 18.0301 26.307 17.7557 26.3137C17.6321 26.3167 16.9425 26.4395 16.2233 26.5865Z" fill="white"/>
</g>
<defs>
<clipPath id="clip0_106_343">
<rect width="32" height="30.8854" fill="white" transform="translate(0 0.369263)"/>
</clipPath>
</defs>
</svg>
