<svg width="30" height="31" viewBox="0 0 30 31" fill="none" xmlns="http://www.w3.org/2000/svg">
<g clip-path="url(#clip0_129_629)">
<path fill-rule="evenodd" clip-rule="evenodd" d="M16.1507 0.18822C15.6125 0.516287 15.5896 1.29031 16.108 1.62992C16.192 1.685 16.5954 1.8057 17.0043 1.89816C19.8015 2.53051 22.0416 3.73449 24.0666 5.69381C26.1412 7.70094 27.6467 10.4568 28.1493 13.167C28.2487 13.7032 28.3401 13.9118 28.5542 14.092C28.9752 14.4462 29.6084 14.3054 29.8513 13.8037L29.9794 13.5392L29.8514 12.897C29.2217 9.73625 27.731 6.94607 25.4433 4.64592C23.1804 2.37078 20.488 0.892048 17.377 0.215642C16.5743 0.04115 16.3983 0.0372242 16.1507 0.18822ZM5.35528 1.83388C4.98503 1.87871 4.54071 2.03926 4.13975 2.27316C3.82716 2.45545 1.95292 4.27261 1.24446 5.08015C0.686766 5.7159 0.309305 6.41422 0.13077 7.14054C-0.0322382 7.80388 -0.0447772 9.13109 0.103992 9.97367C1.00458 15.0744 5.39583 21.4556 10.7752 25.4809C13.0509 27.1838 15.7609 28.6579 17.9652 29.392C19.444 29.8845 20.3074 30.0393 21.5565 30.0361C22.4064 30.0338 22.5432 30.0187 23.0213 29.8733C23.6093 29.6945 24.1677 29.4095 24.5936 29.0706C24.7494 28.9466 25.4787 28.226 26.2143 27.4693C27.4079 26.2414 27.5769 26.0432 27.785 25.6274C28.2355 24.7274 28.2439 23.9278 27.8121 23.0401C27.6124 22.6293 27.4547 22.4567 25.3977 20.3954C23.334 18.3274 23.1697 18.1769 22.7576 17.9768C21.9205 17.5703 21.1097 17.573 20.2861 17.985C19.945 18.1556 19.653 18.4024 18.6008 19.4094L17.328 20.6274L16.7075 20.2886C14.1285 18.8811 10.9847 15.7102 9.60163 13.1216L9.34552 12.6423L10.4756 11.4984C11.9771 9.97859 12.2471 9.55543 12.3124 8.61957C12.3509 8.06832 12.2642 7.67386 11.9855 7.13187C11.8074 6.78553 11.5509 6.49426 10.3374 5.26015C7.58653 2.4626 7.22237 2.14642 6.49786 1.92605C6.12731 1.81338 5.76567 1.7842 5.35528 1.83388ZM5.20206 3.67455C4.98942 3.78054 4.54569 4.18783 3.5902 5.15404C1.82243 6.94162 1.75018 7.07721 1.75434 8.59672C1.75663 9.41029 1.77848 9.62598 1.9197 10.2284C2.49016 12.6615 3.98149 15.6303 5.91251 18.1768C8.85444 22.0565 12.2092 24.8534 16.283 26.8228C18.2375 27.7676 19.7412 28.2318 21.2056 28.3423C21.9292 28.3969 22.4458 28.3058 23.0213 28.0222C23.4547 27.8087 23.5898 27.6905 24.8118 26.4557C25.7081 25.5501 26.1749 25.034 26.262 24.8526C26.4126 24.5388 26.4267 24.178 26.2999 23.8732C26.1874 23.6028 22.3045 19.6868 21.9836 19.5202C21.7213 19.384 21.3659 19.3752 21.0728 19.4976C20.9355 19.555 20.3747 20.0669 19.5359 20.9005C17.7061 22.7189 17.6669 22.7328 16.3256 22.0368C14.5734 21.1277 13.0428 19.9556 11.39 18.2575C9.77829 16.6016 8.65681 15.1101 7.96868 13.7074C7.57024 12.8952 7.49149 12.5783 7.58741 12.1735C7.65315 11.8963 7.74526 11.789 9.07323 10.4424C10.2356 9.26375 10.5015 8.96369 10.5588 8.7657C10.7507 8.10359 10.6999 8.0317 8.44241 5.76752C6.41097 3.73015 6.16446 3.52836 5.70684 3.52836C5.59059 3.52836 5.36343 3.59416 5.20206 3.67455ZM15.9868 5.57674C15.9206 5.60357 15.7822 5.72146 15.6792 5.83871C15.5182 6.02211 15.492 6.09617 15.492 6.36769C15.492 6.62281 15.5215 6.71844 15.6455 6.8658C15.8469 7.10521 16.0117 7.18332 16.576 7.30695C18.0818 7.63683 19.4012 8.36832 20.5345 9.50152C21.6963 10.6634 22.3783 11.9345 22.7822 13.6911C22.9142 14.2652 23.2072 14.5442 23.6775 14.5437C24.0992 14.5433 24.5147 14.1457 24.5152 13.7421C24.5156 13.4504 24.355 12.7587 24.1323 12.0934C23.0564 8.8782 20.3434 6.4117 17.0278 5.63439C16.5154 5.51428 16.1861 5.49605 15.9868 5.57674Z" fill="#619E90"/>
</g>
<defs>
<clipPath id="clip0_129_629">
<rect width="30" height="30" fill="white" transform="translate(0 0.0712891)"/>
</clipPath>
</defs>
</svg>
