<svg width="135" height="23" viewBox="0 0 135 23" fill="none" xmlns="http://www.w3.org/2000/svg">
<g clip-path="url(#clip0_109_2607)">
<path d="M0.27333 9.80239C1.53041 8.81668 2.84215 7.88573 4.20854 7.0643L5.35632 8.98096C4.04459 9.74763 2.84215 10.6238 1.63972 11.5L0.27333 9.80239ZM8.8543 4.70953C10.3847 3.99763 12.0243 3.39525 13.7187 2.90239L14.3745 4.98334C12.7895 5.4762 11.2045 6.07858 9.7288 6.73573L8.8543 4.70953ZM18.747 1.58811C20.4413 1.25953 22.1357 1.04049 23.8847 0.821439L24.1033 3.01192C22.4636 3.23096 20.7693 3.45001 19.1843 3.77858L18.747 1.58811ZM29.0223 0.492868C29.5689 0.45636 30.1337 0.438106 30.7166 0.438106C31.8826 0.438106 33.0486 0.474614 34.2146 0.54763L34.1053 2.73811C32.9758 2.7016 31.8462 2.68334 30.7166 2.68334C30.1701 2.68334 29.6235 2.68334 29.077 2.68334L29.0223 0.492868ZM39.079 3.1762L39.3523 0.985725C40.992 1.20477 42.7409 1.42382 44.4353 1.75239L44.0527 3.88811C42.3584 3.6143 40.7187 3.39525 39.079 3.1762ZM48.9717 4.92858L49.4636 2.73811C51.1033 3.10319 52.7612 3.50477 54.4373 3.94287L53.8361 6.07858C52.2328 5.677 50.6114 5.29366 48.9717 4.92858ZM58.7005 7.44763L59.3563 5.31192C60.9596 5.78652 62.581 6.27938 64.2207 6.79049L63.5648 8.9262C61.9616 8.41509 60.3401 7.92224 58.7005 7.44763ZM68.4292 10.4048L69.0851 8.32382L73.8948 9.8024L73.2389 11.9381L68.4292 10.4048ZM78.158 13.4167L78.8138 11.281C80.4171 11.7556 82.0385 12.2119 83.6782 12.65L83.077 14.7857C81.4373 14.3476 79.7976 13.8913 78.158 13.4167ZM88.0507 16.0453L88.5426 13.9095C89.1256 14.0191 89.6903 14.1468 90.2369 14.2929C91.2936 14.5119 92.3685 14.731 93.4616 14.95L93.079 17.1405C91.9495 16.9214 90.8381 16.6841 89.745 16.4286C89.1984 16.3191 88.6337 16.1913 88.0507 16.0453ZM98.162 17.9072L98.4353 15.7167C100.13 15.9357 101.769 16.1 103.409 16.2095L103.3 18.4C101.605 18.2905 99.8563 18.1262 98.162 17.9072ZM108.437 16.3738C110.132 16.3191 111.771 16.2643 113.411 16.1548L113.575 18.3453C111.935 18.5095 110.186 18.5643 108.437 18.5643L108.437 16.3738ZM118.33 15.4976C120.024 15.2238 121.664 14.8405 123.194 14.4024L123.796 16.5381C122.156 16.9762 120.462 17.4143 118.713 17.6881L118.33 15.4976ZM127.84 12.7595C129.425 12.1572 130.901 11.3905 132.322 10.6238L133.415 12.5405C131.885 13.3619 130.354 14.1286 128.715 14.8405L127.84 12.7595Z" fill="#619E90"/>
<path d="M122.101 6.57141L121.445 8.70713L131.939 11.719L128.113 21.9595L130.19 22.7262L134.836 10.2952L122.101 6.57141Z" fill="#619E90"/>
</g>
<defs>
<clipPath id="clip0_109_2607">
<rect width="23" height="135" fill="white" transform="translate(135) rotate(90)"/>
</clipPath>
</defs>
</svg>
