<svg width="49" height="49" viewBox="0 0 49 49" fill="none" xmlns="http://www.w3.org/2000/svg">
<g clip-path="url(#clip0_106_253)">
<path fill-rule="evenodd" clip-rule="evenodd" d="M35.7516 5.79959C34.1526 5.96562 32.5377 7.03034 31.7182 8.4589C31.2003 9.36162 31.0268 10.0444 31.0269 11.1791C31.027 12.7741 31.4905 13.8943 32.6182 15.025C33.331 15.7395 34.2463 16.2584 35.1968 16.4866C35.9084 16.6574 37.1857 16.6327 37.8687 16.4348C39.7382 15.8931 41.2708 14.2926 41.712 12.4216C42.3583 9.68018 40.7304 6.83215 38.0562 6.02571C37.1924 5.76537 36.621 5.70921 35.7516 5.79959ZM35.5819 6.91521C34.5043 7.14228 33.2257 8.04481 32.6925 8.95456C31.3219 11.2932 32.4355 14.377 34.9726 15.2687C37.0774 16.0085 39.3158 15.0765 40.3214 13.0416C40.6784 12.3193 40.6812 12.3051 40.6812 11.1839C40.6812 10.0731 40.6753 10.0422 40.3372 9.35065C39.9761 8.61209 39.3533 7.89781 38.7243 7.50078C37.8972 6.97859 36.5087 6.71984 35.5819 6.91521ZM15.9775 7.08912C15.5117 7.24193 15.1611 7.4704 14.8302 7.83659C14.2661 8.46106 14.2473 8.5295 14.1968 10.1478L14.1499 11.6478L12.6968 11.6986C11.8976 11.7265 11.1298 11.7985 10.9907 11.8585C10.6034 12.0255 9.986 12.624 9.77571 13.0362C9.188 14.1882 9.68468 15.6885 10.8623 16.3185C11.1924 16.4952 11.4391 16.5289 12.6968 16.5696L14.1499 16.6166L14.1968 18.0697C14.2508 19.7438 14.3342 20.0009 15.0192 20.6038C15.4393 20.9737 16.1402 21.2572 16.6343 21.2572C17.4905 21.2572 18.4197 20.654 18.8292 19.8323C19.0573 19.3744 19.0718 19.2626 19.0718 17.9576V16.5697L20.3608 16.5691C21.8366 16.5686 22.1906 16.4946 22.7491 16.0701C23.8798 15.2107 24.0437 13.5825 23.1068 12.5181C22.4887 11.8159 22.0733 11.6755 20.4546 11.6216L19.0718 11.5754L19.0697 10.2522C19.0679 9.12518 19.0394 8.86653 18.8769 8.50718C18.6411 7.98547 18.2046 7.5199 17.7151 7.26781C17.3111 7.05959 16.3641 6.96228 15.9775 7.08912ZM15.9023 8.32193C15.3434 8.66272 15.2324 9.0829 15.2301 10.8677C15.2284 12.1622 15.2027 12.4567 15.0807 12.5787C14.9585 12.7008 14.6659 12.7259 13.3662 12.7259C11.9274 12.7259 11.7647 12.7432 11.3807 12.9369C10.8482 13.2054 10.6095 13.6359 10.6608 14.2351C10.6985 14.6742 10.907 15.0451 11.2437 15.2716C11.3769 15.3613 11.9357 15.4114 13.1749 15.4447C14.4587 15.4792 14.9594 15.5255 15.0733 15.6202C15.206 15.7306 15.228 15.9763 15.228 17.3485C15.228 18.772 15.2493 18.9919 15.4212 19.3469C15.5614 19.6366 15.7236 19.7988 16.0133 19.9391C16.481 20.1655 16.7175 20.1792 17.1295 20.0037C17.8801 19.6838 18.035 19.2007 18.0383 17.1671C18.0402 15.9654 18.0642 15.7292 18.1952 15.6202C18.3093 15.5254 18.8123 15.4793 20.1099 15.4447C21.8262 15.3989 21.8759 15.392 22.1234 15.1634C22.8783 14.4662 22.7464 13.3535 21.8578 12.9233C21.4938 12.7471 21.2843 12.7259 19.9038 12.7259C18.8098 12.7259 18.3135 12.6916 18.2067 12.6087C18.0803 12.5105 18.0507 12.2184 18.0238 10.8041C17.9942 9.24697 17.9755 9.09012 17.7803 8.77493C17.3975 8.15665 16.5204 7.94506 15.9023 8.32193ZM31.3022 16.6562C29.5918 17.7143 28.4154 18.9945 27.5479 20.7416C26.7374 22.3737 26.5578 23.2209 26.5019 25.6757C26.457 27.6477 26.4612 27.7092 26.6544 27.9023L26.853 28.1009H36.4155C45.8531 28.1009 45.9805 28.0985 46.1655 27.9134C46.3387 27.7403 46.353 27.601 46.353 26.0921C46.353 24.0856 46.2486 23.2827 45.818 21.9793C45.0767 19.7357 43.4435 17.7272 41.4177 16.5681C40.5936 16.0966 40.3882 16.1142 39.9921 16.6898C39.1636 17.894 37.9168 18.5384 36.4155 18.5384C34.9251 18.5384 33.7581 17.9355 32.838 16.6901C32.584 16.3461 32.4073 16.1947 32.2602 16.1947C32.1437 16.1947 31.7126 16.4023 31.3022 16.6562ZM31.4659 17.8399C30.2342 18.6693 29.0427 20.0806 28.4009 21.4703C27.8419 22.6807 27.6862 23.4566 27.6301 25.3119L27.5798 26.9759H36.4039H45.228V25.5189C45.228 23.4105 44.9054 22.1076 44.0102 20.6009C43.3599 19.5062 42.1963 18.3047 41.2337 17.7336L40.8488 17.5052L40.2185 18.1141C38.085 20.1753 34.8589 20.1865 32.7015 18.14C32.3346 17.7919 32.0176 17.5072 31.9971 17.5072C31.9767 17.5072 31.7376 17.6569 31.4659 17.8399ZM3.97803 23.0528C2.25068 23.5183 0.784715 23.9427 0.720215 23.9959C0.655809 24.0492 0.603027 24.2053 0.603027 24.3431C0.603027 24.701 5.27487 42.0738 5.43931 42.3275C5.51459 42.4436 5.67003 42.5383 5.78487 42.5382C5.89971 42.5381 7.40675 42.1573 9.13381 41.6922C11.3146 41.105 12.3308 40.7898 12.4598 40.6608C12.645 40.4756 12.6447 40.4714 12.3402 39.3037C12.1722 38.6593 12.0126 38.0746 11.9856 38.0042C11.8962 37.7713 13.4877 37.5223 15.0405 37.5263C17.5861 37.5327 19.5145 38.1711 21.8374 39.7763C24.0066 41.2752 26.2984 41.9313 28.552 41.6984C29.4764 41.6029 45.2712 37.4133 45.9756 37.0768C46.552 36.8014 47.1628 36.1639 47.4621 35.5256C47.6718 35.0781 47.7124 34.8624 47.7124 34.1947C47.7124 33.5316 47.6715 33.3113 47.4689 32.8822C46.9472 31.7774 45.9565 31.0996 44.7593 31.0284C44.004 30.9835 44.0844 30.9639 35.0125 33.4074C33.5963 33.7888 32.3886 34.1009 32.3288 34.1009C32.2651 34.1009 32.2029 33.8946 32.1787 33.6032C32.1237 32.9389 31.653 31.9579 31.1492 31.4571C30.9262 31.2355 30.3218 30.804 29.8062 30.4984C29.2905 30.1927 27.7929 29.2594 26.478 28.4243C22.9309 26.1714 21.6161 25.4401 19.848 24.7371C16.3617 23.3509 12.8548 23.3424 9.215 24.7111L8.49893 24.9805L8.16218 23.7049C7.82084 22.4116 7.69493 22.1889 7.31168 22.2005C7.20546 22.2038 5.70537 22.5873 3.97803 23.0528ZM4.28271 24.1013C2.92925 24.4675 1.82178 24.7894 1.82178 24.8168C1.82187 24.9252 6.203 41.2321 6.24275 41.2719C6.27621 41.3053 11.2648 40.026 11.3622 39.959C11.3758 39.9496 10.4349 36.3812 9.27106 32.0292C8.10725 27.6773 7.11359 23.9584 7.06296 23.765C7.01225 23.5717 6.91971 23.4184 6.85718 23.4244C6.79475 23.4305 5.63628 23.7351 4.28271 24.1013ZM12.8843 24.8767C11.654 25.099 10.3964 25.4418 9.26637 25.8629L8.78909 26.0408L10.222 31.3936C11.01 34.3377 11.6697 36.7614 11.6879 36.7796C11.706 36.7977 12.1197 36.7332 12.6072 36.636C14.8976 36.1799 17.0134 36.3465 19.2825 37.1615C20.2919 37.5241 21.0975 37.9534 22.2732 38.7552C24.3046 40.1407 25.683 40.6074 27.7437 40.6075H28.9624L37.0249 38.439C41.4593 37.2464 45.1988 36.2282 45.3348 36.1765C45.4708 36.1246 45.7411 35.9427 45.9355 35.7721C47.3644 34.5175 46.4759 32.1322 44.5797 32.1322C44.2359 32.1322 42.2445 32.6217 38.0719 33.732C34.7652 34.612 32.0547 35.3397 32.0488 35.3492C32.0428 35.3588 31.9188 35.589 31.7731 35.861C31.4205 36.5192 30.7388 37.1402 29.9677 37.5055C29.3961 37.7763 29.2545 37.804 28.4468 37.8031C27.6824 37.8023 27.483 37.7675 27.0405 37.5576C26.1837 37.1514 18.8461 32.8841 18.7202 32.7189C18.5473 32.492 18.5757 32.3385 18.839 32.0752C19.0034 31.9107 19.1325 31.8576 19.2651 31.8997C19.3696 31.9329 21.2138 32.9773 23.3632 34.2207C25.5125 35.4642 27.4196 36.5347 27.6011 36.5997C27.7827 36.6645 28.1881 36.7196 28.5021 36.7218C30.4144 36.7356 31.6917 34.6668 30.8426 32.9312C30.5436 32.3202 30.2273 32.032 29.1389 31.3788C28.681 31.1039 27.2093 30.1843 25.8687 29.3352C21.6255 26.6477 19.8814 25.7631 17.6655 25.1745C16.6784 24.9123 16.441 24.8859 14.853 24.8613C13.8991 24.8465 13.0132 24.8534 12.8843 24.8767Z" fill="#619E90"/>
</g>
<defs>
<clipPath id="clip0_106_253">
<rect width="48" height="48" fill="white" transform="translate(0.134277 0.0697021)"/>
</clipPath>
</defs>
</svg>
