<svg width="21" height="21" viewBox="0 0 21 21" fill="none" xmlns="http://www.w3.org/2000/svg">
<g clip-path="url(#clip0_239_811)">
<path fill-rule="evenodd" clip-rule="evenodd" d="M3.10727 3.73741C2.02023 4.0221 1.21691 4.87081 1.00977 5.95342C0.927734 6.3821 0.927734 15.1517 1.00977 15.5804C1.20211 16.5857 1.93156 17.4113 2.92711 17.7503L3.23961 17.8567L10.4857 17.8676C18.6254 17.8798 18.0108 17.9012 18.6693 17.5834C19.5306 17.1677 20.1117 16.3629 20.25 15.3939C20.2817 15.1723 20.2909 13.7851 20.2821 10.5521C20.2685 5.51288 20.2881 5.881 20.0016 5.27862C19.6329 4.50323 18.9589 3.9496 18.1237 3.73596C17.8218 3.65878 17.7025 3.65757 10.6064 3.65967C3.60602 3.66178 3.38746 3.66405 3.10727 3.73741ZM3.24984 4.78807C2.6641 4.9753 2.18738 5.49038 2.05059 6.08378C2.02516 6.19393 2.0107 7.86745 2.01008 10.7685C2.00926 14.7235 2.01664 15.3105 2.06977 15.5146C2.17953 15.9361 2.44676 16.2963 2.83809 16.5501C3.29406 16.846 2.70949 16.8264 10.7201 16.8135L17.888 16.8021L18.1045 16.7144C18.5432 16.5368 18.9345 16.1324 19.1256 15.659L19.2162 15.4349L19.2267 10.8844C19.2339 7.80971 19.2239 6.26956 19.1962 6.13573C19.0661 5.50924 18.6112 5.00108 17.9946 4.79335C17.7542 4.71237 17.7411 4.71221 10.6139 4.71432C3.79973 4.71632 3.46375 4.71967 3.24984 4.78807ZM3.63023 6.87487C3.42691 6.96725 3.3568 7.07952 3.3568 7.31284C3.3568 7.51823 3.36191 7.52764 3.6107 7.78116C3.93187 8.10842 4.86805 8.96862 5.97398 9.95264C6.44664 10.3732 6.86387 10.7515 6.90121 10.7934C6.96703 10.8673 6.92301 10.9154 5.40328 12.4294C4.54215 13.2873 3.82168 14.0189 3.80227 14.0552C3.78285 14.0915 3.76695 14.1856 3.76695 14.2643C3.76695 14.3751 3.79703 14.4376 3.89977 14.5403C4.04875 14.6893 4.17176 14.7082 4.35969 14.611C4.42574 14.5769 4.96539 14.0715 5.55891 13.4879C6.15242 12.9044 6.86141 12.2089 7.13441 11.9424L7.63074 11.4578L7.79848 11.5988C7.8907 11.6763 8.15074 11.8996 8.37633 12.095C9.00902 12.6432 9.50609 12.8631 10.3166 12.9535C11.0457 13.0349 11.7973 12.8312 12.4779 12.3677C12.5961 12.2873 12.8818 12.0524 13.113 11.8457C13.3441 11.6391 13.5463 11.4703 13.5622 11.4705C13.5781 11.4708 14.3031 12.1676 15.1732 13.0189C16.0896 13.9155 16.81 14.5899 16.8855 14.6219C17.2245 14.7653 17.5732 14.3722 17.3978 14.0444C17.3752 14.0022 16.6543 13.2711 15.7957 12.4197C14.2712 10.908 14.2364 10.8699 14.3036 10.7942C14.3414 10.7516 14.7591 10.373 15.2318 9.95299C16.2171 9.07733 17.3234 8.05924 17.6273 7.7485C17.7888 7.58339 17.8401 7.50096 17.8563 7.38034C17.88 7.20346 17.8026 7.01819 17.6647 6.92163C17.5206 6.82065 17.2412 6.84288 17.0803 6.96807C17.0043 7.02717 15.9772 7.94589 14.7979 9.00967C12.0703 11.4701 11.9688 11.5577 11.6605 11.7194C11.2634 11.9275 10.9691 11.9895 10.4857 11.9669C9.84039 11.9366 9.51254 11.786 8.8773 11.2283C8.69844 11.0712 7.58742 10.0726 6.40832 9.00913C5.22926 7.94561 4.20094 7.02745 4.12316 6.9687C3.94836 6.83663 3.78344 6.80522 3.63023 6.87487Z" fill="white"/>
</g>
<defs>
<clipPath id="clip0_239_811">
<rect width="20" height="20" fill="white" transform="translate(0.602539 0.76709)"/>
</clipPath>
</defs>
</svg>
