<svg width="31" height="31" viewBox="0 0 31 31" fill="none" xmlns="http://www.w3.org/2000/svg">
<path fill-rule="evenodd" clip-rule="evenodd" d="M15.525 4.31497C12.6279 4.57091 9.73924 6.03095 7.83711 8.20073C6.84794 9.32907 5.91917 10.9428 5.47409 12.3063C5.35842 12.6608 5.19465 13.3068 5.11016 13.7419C5.02573 14.1769 4.94774 14.5444 4.9369 14.5585C4.92606 14.5726 4.52686 14.1969 4.04973 13.7235C3.20733 12.8879 3.1751 12.863 2.93469 12.863C2.60622 12.863 2.3784 12.989 2.26145 13.2355C2.14356 13.4839 2.13963 13.6985 2.2492 13.9059C2.39264 14.1775 5.22465 16.9522 5.40336 16.9962C5.83151 17.1018 5.91665 17.0405 7.42555 15.54C8.99475 13.9795 9.1444 13.7786 9.0278 13.3895C8.89754 12.9549 8.39821 12.7292 8.00651 12.9279C7.93614 12.9636 7.55733 13.3108 7.16475 13.6995L6.4509 14.406L6.56862 13.8543C7.57848 9.12077 11.7833 5.70657 16.5921 5.71554C19.9347 5.72181 23.164 7.41792 25.0125 10.1384C25.7836 11.2731 26.184 12.1502 26.5109 13.4196C26.7825 14.4747 26.8568 15.2058 26.8146 16.4079C26.7452 18.3812 26.2142 19.9999 25.0619 21.7509C24.5063 22.5954 23.2497 23.8593 22.4092 24.4194C21.2734 25.1762 20.3172 25.602 19.0159 25.9307C18.1005 26.1619 17.2551 26.244 16.1989 26.2045C12.8899 26.0806 9.8668 24.3861 8.07958 21.6537C7.50448 20.7745 7.46077 20.7249 7.19797 20.6541C6.76655 20.5379 6.31708 20.8856 6.30501 21.3447C6.29803 21.6104 6.62358 22.1918 7.25897 23.0483C7.76147 23.7257 8.9804 24.9249 9.67555 25.4258C12.8155 27.6884 16.7524 28.2824 20.3942 27.0431C23.3557 26.0352 25.7881 23.8582 27.1514 20.9954C27.8983 19.4271 28.2137 18.136 28.2795 16.3786C28.455 11.6897 25.817 7.38206 21.5309 5.35823C19.7261 4.50605 17.5807 4.13339 15.525 4.31497ZM16.2207 10.032C15.8696 10.2499 15.8766 10.1829 15.8766 13.2997C15.8766 15.6586 15.8911 16.1773 15.9604 16.3083C16.0065 16.3953 17.1073 17.5252 18.4067 18.8192C20.8899 21.2921 20.9056 21.3049 21.3233 21.2131C21.4187 21.1922 21.5769 21.0837 21.6749 20.9721C21.8193 20.8076 21.8531 20.7168 21.8531 20.4945V20.22L19.5973 17.9614L17.3414 15.7028V13.1384C17.3414 10.3559 17.3367 10.3107 17.0183 10.0603C16.8226 9.9064 16.4447 9.89292 16.2207 10.032Z" fill="#619E90"/>
</svg>
