<svg width="54" height="54" viewBox="0 0 54 54" fill="none" xmlns="http://www.w3.org/2000/svg">
<path d="M9.80921 11.4434L11.3807 14.6919L14.9455 15.177C15.6522 15.2719 15.9053 16.1473 15.4201 16.6114L12.8151 19.111L13.4584 22.6547C13.585 23.3508 12.8467 23.8782 12.235 23.5407L9.06038 21.8321L5.88577 23.5407C5.27406 23.8676 4.50413 23.3614 4.67288 22.602L5.3057 19.1004L2.70062 16.6008C2.19437 16.1157 2.46859 15.2508 3.18577 15.1559L6.74007 14.6708L8.31156 11.4223C8.60687 10.8001 9.5139 10.8106 9.80921 11.4434ZM10.0623 15.8309L9.06038 13.7426L8.04788 15.8309C7.93187 16.0735 7.68929 16.2633 7.40452 16.3055L5.11585 16.6114L6.79281 18.2145C6.98265 18.4044 7.08812 18.6786 7.03538 18.9633L6.62406 21.2415L8.64906 20.1551C8.89163 20.0286 9.19749 20.0075 9.45062 20.1551L11.4862 21.252L11.0854 19.0161C11.0221 18.7419 11.0959 18.436 11.3174 18.2145L12.9944 16.6114L10.7268 16.3055C10.4526 16.2739 10.1889 16.0946 10.0623 15.8309ZM27.76 3.79693L29.3315 7.04537L32.9069 7.53053C33.6135 7.62545 33.8666 8.50084 33.3815 8.97545L30.7764 11.4751L31.4198 15.0188C31.5463 15.7149 30.808 16.2422 30.1963 15.9047L27.0006 14.1962L23.826 15.9047C23.2143 16.2317 22.4444 15.7254 22.6131 14.9661L23.2459 11.4645L20.6303 8.9649C20.1241 8.47974 20.3983 7.6149 21.1155 7.51998L24.6698 7.03482L26.2412 3.79693C26.5576 3.15357 27.4541 3.16412 27.76 3.79693ZM28.0131 8.18443L27.0006 6.09615L25.9987 8.18443C25.8826 8.42701 25.6401 8.61685 25.3553 8.65904L23.0561 8.9649L24.733 10.568C24.9334 10.7579 25.0284 11.0321 24.9756 11.3169L24.5643 13.595L26.5998 12.5087C26.8424 12.3821 27.1377 12.361 27.4014 12.5087L29.4369 13.6055L29.0362 11.3696C28.9729 11.0954 29.0467 10.7895 29.2682 10.568L30.9452 8.9649L28.6776 8.64849C28.3928 8.6274 28.1397 8.4481 28.0131 8.18443ZM45.7002 11.4434L47.2717 14.6919L50.8366 15.177C51.5432 15.2719 51.8069 16.1473 51.3112 16.6114L48.7061 19.111L49.3494 22.6547C49.476 23.3508 48.7377 23.8782 48.126 23.5407L44.9514 21.8321L41.7768 23.5407C41.1651 23.8676 40.3952 23.3614 40.5534 22.602L41.1862 19.1004L38.5811 16.6008C38.0748 16.1157 38.3491 15.2508 39.0662 15.1559L42.6205 14.6708L44.192 11.4223C44.4979 10.8001 45.4049 10.8106 45.7002 11.4434ZM45.9534 15.8309L44.9514 13.7426L43.9389 15.8309C43.8229 16.0735 43.5909 16.2633 43.2955 16.3055L41.0069 16.6114L42.6733 18.2145C42.8631 18.4044 42.9686 18.6786 42.9159 18.9633L42.5045 21.2415L44.5401 20.1551C44.7826 20.0286 45.0885 20.0075 45.3416 20.1551L47.3877 21.252L46.9869 19.0161C46.9237 18.7419 46.9975 18.436 47.219 18.2145L48.8854 16.6114L46.6178 16.3055C46.3436 16.2739 46.0799 16.0946 45.9534 15.8309ZM23.0877 32.9801C22.8557 32.5794 22.9928 32.0626 23.3936 31.8305C23.7944 31.5985 24.3112 31.7356 24.5432 32.1364L25.6506 34.0559L29.5846 30.1219C29.9116 29.795 30.4494 29.795 30.7764 30.1219C31.1034 30.4489 31.1034 30.9868 30.7764 31.3137L26.0619 36.0282C25.6717 36.4184 25.0178 36.334 24.7436 35.8594L23.0877 32.9801ZM27.0006 24.068C31.5885 24.068 35.3116 27.7911 35.3116 32.379C35.3116 36.9669 31.5885 40.6899 27.0006 40.6899C22.4127 40.6899 18.6897 36.9669 18.6897 32.379C18.6897 27.7911 22.4127 24.068 27.0006 24.068ZM31.6834 27.6962C29.0994 25.1122 24.9018 25.1122 22.3178 27.6962C19.7338 30.2801 19.7338 34.4778 22.3178 37.0618C24.9018 39.6458 29.0994 39.6458 31.6834 37.0618C34.2674 34.4672 34.2674 30.2801 31.6834 27.6962ZM27.0006 18.8473C34.4678 18.8473 40.5217 24.9012 40.5217 32.3684C40.5217 35.195 39.6569 37.8212 38.1698 39.9938L42.2092 46.9864C42.5994 47.6403 42.0616 48.3786 41.3655 48.2731L37.2311 47.6192L35.0162 50.3403C34.626 50.8465 33.8983 50.7622 33.6135 50.2559L30.7869 45.3622C28.319 46.0794 25.6717 46.0794 23.2143 45.3622L20.3877 50.2559C20.103 50.7622 19.3752 50.8465 18.985 50.3403L16.7701 47.6192L12.6358 48.2731C11.9291 48.3891 11.4334 47.6192 11.7709 47.018L15.8315 39.9938C12.1612 34.6254 12.8467 27.4008 17.4451 22.8024C19.8815 20.3661 23.267 18.8473 27.0006 18.8473ZM37.0518 41.4176C35.7651 42.852 34.183 44.0016 32.3901 44.7821L34.4573 48.3575L36.2291 46.1848C36.4295 45.9317 36.7354 45.8368 37.0307 45.8895L39.8784 46.343L37.0518 41.4176ZM21.6006 44.7821C19.8182 44.0016 18.2362 42.852 16.9494 41.4282L14.1123 46.343L16.96 45.8895C17.2448 45.8368 17.5612 45.9422 17.7616 46.1848L19.5334 48.3575L21.6006 44.7821ZM35.3748 24.0047C30.7553 19.3852 23.2565 19.3852 18.6369 24.0047C14.0174 28.6243 14.0174 36.1231 18.6369 40.7426C23.267 45.3622 30.7553 45.3622 35.3748 40.7426C39.9944 36.1231 39.9944 28.6243 35.3748 24.0047Z" fill="#619E90"/>
</svg>
