<svg width="32" height="32" viewBox="0 0 32 32" fill="none" xmlns="http://www.w3.org/2000/svg">
<g clip-path="url(#clip0_106_338)">
<path fill-rule="evenodd" clip-rule="evenodd" d="M15.6562 0.805119C12.6301 1.08134 9.8784 2.40549 8.35446 4.31882C7.41383 5.49976 6.9149 6.55699 6.58896 8.06C6.37333 9.05412 6.31571 10.7785 6.45858 11.9576C6.66408 13.6528 7.10546 15.318 7.87121 17.287C8.70058 19.4196 8.89533 20.6343 8.65596 22.1824C8.47746 23.3366 8.1169 24.3568 7.04608 26.7368C6.3424 28.3008 5.86083 29.5208 5.59402 30.4154C5.33921 31.2699 5.33302 31.3412 5.49996 31.5023C5.6234 31.6214 5.70827 31.6229 12.363 31.6229C17.7428 31.6229 19.1231 31.6074 19.2106 31.5457C19.2754 31.4999 19.5826 30.7425 19.963 29.6907C21.0227 26.76 21.5821 25.634 21.9268 25.7376C22.2063 25.8215 23.0425 25.8966 24.4062 25.96C26.1182 26.0395 26.4362 26.0056 26.9194 25.692C27.5191 25.3028 27.75 24.6814 27.75 23.4559V22.6736L28.2187 22.2087C28.4765 21.953 28.6875 21.7042 28.6875 21.6557C28.6875 21.6073 28.573 21.3968 28.4331 21.1879L28.1788 20.808L28.4258 20.5602C28.8803 20.1042 28.8822 20.1909 28.3933 19.0305C28.3693 18.9734 28.5034 18.955 28.9464 18.9547C29.6518 18.9543 29.935 18.8858 30.2163 18.6474C30.512 18.3969 30.6512 18.0206 30.5984 17.6154C30.5523 17.2618 30.3996 16.9391 29.8336 15.9992C29.0368 14.6761 28.9186 13.9667 29.2201 12.3195C29.6293 10.0847 29.4431 8.41458 28.598 6.73965C27.8615 5.27989 26.7446 4.08591 25.1562 3.06054C22.4953 1.34266 18.9607 0.503504 15.6562 0.805119ZM15.6875 1.58492C14.2517 1.73494 13.0729 2.05688 11.8418 2.63532C9.75183 3.6172 8.38265 5.11436 7.65496 7.21354C7.29121 8.2628 7.21902 8.78906 7.21958 10.3892C7.22008 11.9624 7.28252 12.4726 7.66233 14.0074C7.94252 15.1397 8.17465 15.8591 8.66071 17.1011C9.37258 18.9203 9.52933 19.6457 9.52383 21.0965C9.5174 22.7987 9.21771 23.829 7.79546 27.0384C7.05533 28.7084 6.48058 30.1551 6.3514 30.6731L6.3099 30.8393L12.5061 30.8239L18.7022 30.8086L19.2485 29.3005C19.8572 27.62 20.2881 26.5706 20.5736 26.0732C20.8865 25.5281 21.2238 25.1337 21.4761 25.0182C21.6835 24.9232 21.7596 24.9185 22.0908 24.9799C22.674 25.0882 23.5433 25.1589 24.8518 25.2047C25.9943 25.2446 26.0598 25.2407 26.3247 25.1169C26.5144 25.0283 26.65 24.9064 26.7541 24.731C26.8953 24.493 26.9085 24.3982 26.9375 23.4055L26.9687 22.3362L27.3584 21.957L27.748 21.5777L27.4992 21.2165C27.3623 21.0178 27.2503 20.7926 27.2501 20.7159C27.25 20.6313 27.3726 20.4514 27.5625 20.2577C27.7343 20.0823 27.875 19.9193 27.875 19.8955C27.875 19.8717 27.7484 19.5663 27.5937 19.2168C27.439 18.8672 27.3125 18.5556 27.3125 18.5241C27.3125 18.4927 27.3815 18.4004 27.4659 18.319C27.6156 18.1744 27.6426 18.1709 28.5909 18.1709C29.496 18.1709 29.5715 18.1622 29.6943 18.0436C29.8848 17.8597 29.8122 17.5264 29.4528 16.9343C28.9346 16.0809 28.5777 15.3772 28.4276 14.9134C28.2226 14.28 28.2243 13.0666 28.4314 12.1084C28.6096 11.2835 28.6722 9.9428 28.5654 9.23744C28.4503 8.47822 28.2179 7.77105 27.8436 7.04126C26.4383 4.30187 23.07 2.24292 19.0625 1.67359C18.214 1.55307 16.4388 1.50644 15.6875 1.58492ZM15.9375 2.34263C14.1095 2.55889 12.834 2.92644 11.7073 3.56146C10.1448 4.4423 8.9784 5.80048 8.43408 7.37304C8.1444 8.21008 8.05271 8.80161 8.01808 10.0575C7.97977 11.4488 8.09283 12.4202 8.46883 13.929C8.6929 14.8284 9.19283 16.338 9.4589 16.9186C9.63108 17.2944 9.81721 17.3986 10.0966 17.2757C10.35 17.1643 10.3407 16.9831 10.042 16.2075C9.48096 14.7508 9.03352 13.05 8.87702 11.7793C8.78865 11.0617 8.7869 9.59438 8.87371 9.00743C9.09821 7.48946 9.66496 6.32583 10.6562 5.34745C11.8035 4.21506 13.2855 3.53112 15.3125 3.19862C15.8862 3.10445 18.2495 3.10071 18.7812 3.19313C19.2884 3.2812 19.497 3.17956 19.499 2.84307C19.5004 2.61499 19.3318 2.50273 18.8742 2.42709C18.4561 2.35796 16.3258 2.29667 15.9375 2.34263ZM2.47227 17.0985C2.27552 17.3695 2.33521 17.4598 3.56871 18.7561C4.22527 19.4462 4.81902 20.0583 4.88815 20.1163C5.05477 20.2562 5.28333 20.25 5.43746 20.1012C5.6909 19.8566 5.62433 19.7514 4.40002 18.461C3.76065 17.7872 3.16846 17.1748 3.08402 17.1001C2.8839 16.9232 2.60002 16.9224 2.47227 17.0985ZM1.49996 22.3935C1.33277 22.5549 1.3424 22.7295 1.5284 22.909L1.68177 23.057H3.45746C5.15921 23.057 5.23996 23.0519 5.39777 22.932C5.59571 22.7818 5.6119 22.5619 5.43746 22.3935C5.31808 22.2783 5.22915 22.2728 3.46871 22.2728C1.70827 22.2728 1.61933 22.2783 1.49996 22.3935ZM3.66546 26.465C2.30333 27.8973 2.24002 27.9939 2.49996 28.2448C2.72002 28.4572 2.88877 28.3988 3.32802 27.9583C4.36365 26.9196 5.50752 25.673 5.54015 25.5474C5.59777 25.326 5.41121 25.108 5.16402 25.108C4.97265 25.108 4.85221 25.2171 3.66546 26.465Z" fill="white"/>
</g>
<defs>
<clipPath id="clip0_106_338">
<rect width="32" height="30.8854" fill="white" transform="translate(0 0.737732)"/>
</clipPath>
</defs>
</svg>
