<svg width="32" height="32" viewBox="0 0 32 32" fill="none" xmlns="http://www.w3.org/2000/svg">
<g clip-path="url(#clip0_106_382)">
<path fill-rule="evenodd" clip-rule="evenodd" d="M17.2643 0.902034C17.2206 0.919045 17.1449 1.0076 17.0959 1.09887C16.9958 1.28587 16.9924 1.26524 17.8178 5.50656C18.304 8.00442 19.0041 12.0879 19.1628 13.3509C19.2193 13.7997 19.2656 14.6216 19.2664 15.1884C19.2689 16.8982 18.9969 17.772 18.2051 18.5975C17.9856 18.8263 17.6176 19.1566 17.3873 19.3315C16.8858 19.7124 16.8772 19.723 16.8759 19.9585C16.8749 20.1698 17.0929 20.4064 17.2887 20.4064C17.5618 20.4064 18.4603 19.716 19.0461 19.056C20.1908 17.7664 20.4688 15.8623 19.9938 12.5644C19.7684 10.9995 19.1404 7.3972 18.695 5.11446C18.4555 3.88688 18.1863 2.48889 18.0968 2.00782C17.9569 1.25589 17.9119 1.11407 17.776 0.997405C17.6261 0.868615 17.4398 0.833869 17.2643 0.902034ZM29.9851 0.926404C29.9254 0.960004 29.8478 1.03927 29.8127 1.10255C29.706 1.2951 29.3403 5.51554 29.1228 9.06562C29.012 10.874 28.9729 15.7338 29.0573 17.2092C29.2192 20.0403 29.5016 21.8307 30.0611 23.573C30.3337 24.422 30.4375 25.0719 30.4375 25.9299C30.4375 27.428 30.0525 28.3836 29.065 29.3365C28.0019 30.3623 26.6291 30.9073 25.3149 30.8251C24.6204 30.7817 24.0216 30.6308 22.6151 30.1448C20.8196 29.5244 19.9184 29.3273 18.3614 29.2143C17.7723 29.1715 17.1856 29.1715 16.4864 29.2143C14.8857 29.3121 13.979 29.4583 11.0625 30.0889C7.45712 30.8684 6.10644 30.9877 4.55894 30.6632C3.29731 30.3987 2.10294 29.6893 1.722 28.9783C1.44694 28.465 1.49744 27.871 1.84994 27.4736C2.20631 27.0717 2.695 26.8825 3.75 26.7378C7.39644 26.2379 10.2937 25.0638 14.4686 22.3944C15.2369 21.9032 15.8958 21.4468 15.9327 21.38C15.9697 21.3134 16 21.2015 16 21.1314C16 20.964 15.7303 20.708 15.5539 20.708C15.4773 20.708 14.7799 21.1115 14.0042 21.6047C12.3354 22.6658 11.5665 23.1147 10.4688 23.6687C8.16681 24.8305 6.02938 25.5121 3.67062 25.8365C2.30969 26.0236 1.75125 26.2474 1.19675 26.8281C0.736438 27.31 0.65625 27.5252 0.65625 28.2785C0.65625 28.9342 0.659125 28.9473 0.899688 29.3819C1.17194 29.8737 1.74975 30.4343 2.33212 30.7717C3.63337 31.5255 5.22194 31.839 7.00875 31.6945C8.16762 31.6008 8.95719 31.4653 11.4375 30.9344C13.7913 30.4306 14.287 30.3384 15.3125 30.2145C16.4636 30.0755 17.5231 30.0421 18.4062 30.1169C19.8321 30.2378 20.5675 30.4079 22.5802 31.0826C24.2254 31.6341 25.5199 31.8402 26.4049 31.6914C28.2032 31.3892 29.9891 30.1286 30.7879 28.5976C31.1862 27.8342 31.3254 27.2463 31.3594 26.1851C31.3956 25.0569 31.3008 24.4001 30.9303 23.2114C30.4959 21.8182 30.2425 20.4046 30.049 18.2951C29.9406 17.1139 29.9414 10.9481 30.0502 9.15611C30.1697 7.18668 30.3587 4.72199 30.5326 2.86278C30.641 1.70306 30.6679 1.1803 30.6232 1.09971C30.5029 0.88273 30.2061 0.802139 29.9851 0.926404ZM9.83337 3.17899C7.12506 3.6772 5.04531 5.68481 4.532 8.2965C4.41094 8.91252 4.41094 10.0029 4.532 10.6189C5.2815 14.4324 9.34737 16.7127 13.1562 15.4556L13.5312 15.3318L14.7424 15.8181C16.1568 16.386 16.3376 16.4129 16.6588 16.1029C16.7737 15.992 16.8866 15.8282 16.9099 15.7389C16.9356 15.6399 16.8553 15.0787 16.7043 14.3028L16.4564 13.029L16.6981 12.6308C17.2719 11.6848 17.5604 10.6191 17.5617 9.43993C17.5624 8.73234 17.5554 8.69138 17.4091 8.55016C17.2136 8.36141 16.9739 8.36141 16.7784 8.55016C16.6332 8.69029 16.625 8.73547 16.625 9.39722C16.625 10.5104 16.3748 11.3966 15.8011 12.3153C15.6691 12.5267 15.5453 12.7603 15.526 12.8345C15.5067 12.9087 15.5917 13.4797 15.7148 14.1035C15.8379 14.7272 15.9254 15.2503 15.9094 15.2659C15.8933 15.2814 15.3923 15.1007 14.7962 14.8642C14.2001 14.6278 13.6323 14.4344 13.5345 14.4344C13.4367 14.4344 13.0965 14.5148 12.7784 14.6132C11.9489 14.8696 11.2339 14.9461 10.4422 14.863C8.09825 14.6169 6.20375 13.084 5.55094 10.9055C5.42663 10.4907 5.40631 10.2873 5.40631 9.45772C5.40631 8.39959 5.49388 7.96702 5.87031 7.1658C6.54344 5.73295 7.89837 4.62059 9.51087 4.17716C10.1739 3.9948 11.3047 3.95396 12.0297 4.08613C13.569 4.36681 14.8997 5.23402 15.7411 6.5046C16.2491 7.27197 16.2335 7.25593 16.4717 7.25593C16.7302 7.25593 16.9375 7.08033 16.9375 6.86141C16.9375 6.50593 16.2702 5.54046 15.5772 4.89325C14.7262 4.09862 13.7721 3.57978 12.6379 3.29493C11.8833 3.1054 10.5361 3.04972 9.83337 3.17899ZM11.8621 6.18519C11.7696 6.25553 11.2971 6.87016 10.0681 8.51891C9.64469 9.08697 9.5625 9.23495 9.5625 9.42967C9.5625 9.80874 9.74931 9.95985 10.3438 10.0616C10.6187 10.1087 10.9194 10.1482 11.0119 10.1493C11.1044 10.1505 11.1954 10.1754 11.2142 10.2047C11.2329 10.234 10.8415 10.7973 10.3442 11.4564C9.62544 12.4093 9.43994 12.695 9.43888 12.8509C9.43625 13.2254 9.88475 13.4282 10.1722 13.1827C10.2772 13.093 11.8514 11.0277 12.2936 10.3994C12.4831 10.1301 12.4844 9.78853 12.2969 9.57831C12.1766 9.44348 12.0599 9.4059 11.489 9.31801C11.1221 9.26155 10.8059 9.20002 10.7865 9.18126C10.7671 9.16256 11.1587 8.60656 11.6569 7.94572C12.6287 6.65638 12.705 6.48862 12.4375 6.23043C12.2966 6.09441 12.0112 6.07197 11.8621 6.18519ZM12.5764 16.3678C11.8101 16.5138 11.7631 16.5306 11.6491 16.6986C11.5087 16.9053 11.5874 17.1874 11.8174 17.3021C11.9833 17.385 12.0715 17.3801 12.8147 17.248C13.3359 17.1552 13.6742 17.0643 13.7525 16.9959C13.9152 16.8538 13.9139 16.5229 13.75 16.3647C13.5966 16.2167 13.3664 16.2173 12.5764 16.3678ZM13.9521 17.4087C13.8742 17.4512 13.5839 17.8078 13.3071 18.2011C12.8962 18.7848 12.8107 18.9452 12.842 19.0732C12.918 19.3841 13.3233 19.5467 13.5665 19.3639C13.7689 19.2118 14.625 17.9433 14.625 17.7955C14.625 17.4776 14.2358 17.2538 13.9521 17.4087ZM15.1534 17.7796C14.9677 17.9588 14.9676 18.0138 15.1509 18.9233C15.3109 19.7178 15.3815 19.821 15.7438 19.7908C15.8872 19.7788 15.9963 19.7212 16.079 19.6137C16.2012 19.455 16.2011 19.4516 16.0562 18.6787C15.9432 18.0758 15.8797 17.8727 15.7708 17.7672C15.5879 17.59 15.3448 17.5949 15.1534 17.7796ZM25.7701 18.5464C25.5041 18.6731 25.4779 18.8832 25.6549 19.4725C25.9534 20.4667 25.9283 21.4977 25.5889 22.1902C25.4044 22.5667 24.9171 23.0224 24.5136 23.1959C24.1111 23.369 23.5459 23.3633 23.1588 23.1824C23.0002 23.1083 22.7148 22.9104 22.5244 22.7425C22.2744 22.5219 22.1279 22.4373 21.9963 22.4373C21.7321 22.4373 21.5625 22.6113 21.5625 22.8824C21.5625 23.0815 21.6081 23.1487 21.9519 23.4558C22.6134 24.047 23.4615 24.3251 24.235 24.2046C24.9892 24.0871 25.8276 23.5429 26.254 22.894C26.6904 22.23 26.8908 21.1293 26.7547 20.1431C26.6741 19.5583 26.4198 18.7077 26.2961 18.6086C26.169 18.5067 25.9161 18.4769 25.7701 18.5464Z" fill="white"/>
</g>
<defs>
<clipPath id="clip0_106_382">
<rect width="32" height="30.8854" fill="white" transform="translate(0 0.861511)"/>
</clipPath>
</defs>
</svg>
