<svg width="48" height="49" viewBox="0 0 48 49" fill="none" xmlns="http://www.w3.org/2000/svg">
<path fill-rule="evenodd" clip-rule="evenodd" d="M23.4644 1.79584C23.3685 1.91772 22.8698 2.88981 22.356 3.95603C21.6672 5.38562 21.3728 5.90537 21.2345 5.93566C21.1314 5.95816 20.1204 6.10731 18.9878 6.26725C17.8553 6.42709 16.8578 6.59584 16.7712 6.64225C16.5772 6.74603 16.3946 7.24094 16.4697 7.45966C16.5001 7.54844 17.2542 8.35937 18.1456 9.26172L19.7662 10.9023L19.4002 13.0586C19.1989 14.2445 19.0336 15.2863 19.0328 15.3737C19.0302 15.6534 19.4453 16.0431 19.7431 16.0409C19.9057 16.0397 20.8216 15.6158 22.0128 14.9907L24.0099 13.9426L25.9972 14.991C27.1909 15.6208 28.0933 16.0401 28.2571 16.0413C28.555 16.0431 28.97 15.6531 28.9675 15.3737C28.9666 15.2863 28.8013 14.2445 28.6001 13.0586L28.2341 10.9023L29.8546 9.26172C30.746 8.35937 31.5015 7.54487 31.5336 7.45178C31.6195 7.20278 31.362 6.66503 31.1202 6.58825C31.0049 6.55169 29.9448 6.38434 28.7644 6.21644C27.584 6.04844 26.6037 5.89497 26.5859 5.87547C26.5682 5.85587 26.1262 4.95644 25.6035 3.87681C25.0809 2.79709 24.5842 1.83728 24.4997 1.744C24.2677 1.48759 23.6839 1.51684 23.4644 1.79584ZM23.2625 5.45791C22.8837 6.25328 22.4815 6.99091 22.3685 7.09703C22.2041 7.25144 21.8391 7.33712 20.5417 7.52584C19.6498 7.65559 18.8733 7.76172 18.816 7.76172C18.7587 7.76172 19.29 8.34522 19.9966 9.05828C20.7637 9.83247 21.2804 10.4274 21.2791 10.5348C21.2778 10.6338 21.1586 11.4426 21.0142 12.332C20.8698 13.2215 20.7673 13.9492 20.7866 13.9492C20.8058 13.9492 21.5364 13.5801 22.4101 13.1289L23.9988 12.3086L25.5502 13.1055C26.4034 13.5437 27.1345 13.9139 27.1747 13.928C27.2149 13.9421 27.1294 13.2249 26.9847 12.3343C26.84 11.4436 26.7209 10.6338 26.7202 10.5348C26.7194 10.4282 27.2418 9.82712 28.0036 9.05828C28.7102 8.34522 29.2415 7.76172 29.1842 7.76172C29.1269 7.76172 28.3504 7.65559 27.4586 7.52584C26.1612 7.33712 25.7961 7.25144 25.6317 7.09703C25.5188 6.99091 25.1165 6.25328 24.7377 5.45791C24.3591 4.66253 24.0271 4.01172 24.0001 4.01172C23.9731 4.01172 23.6412 4.66253 23.2625 5.45791ZM10.943 6.55187C10.8514 6.60512 10.4564 7.28941 10.0652 8.07241C9.67399 8.85541 9.34043 9.51091 9.32384 9.52891C9.30734 9.547 8.56587 9.66316 7.67627 9.78691C5.87693 10.0374 5.62512 10.1506 5.62512 10.7091C5.62512 10.9555 5.80521 11.1785 6.82952 12.2005L8.03384 13.4022L7.75896 15.0019C7.4854 16.5936 7.48493 16.6029 7.66568 16.8457C8.04312 17.3528 8.18618 17.3291 9.78152 16.4945C10.5849 16.0743 11.28 15.7305 11.3263 15.7305C11.3727 15.7305 12.0267 16.068 12.7797 16.4805C13.5327 16.893 14.2292 17.2305 14.3275 17.2305C14.4257 17.2305 14.6172 17.143 14.7531 17.0361C15.068 16.7885 15.0688 16.5841 14.763 14.7769L14.5259 13.376L15.7493 12.1861C17.0812 10.8904 17.1705 10.7191 16.7579 10.2523C16.5659 10.0351 16.4014 9.99344 14.9234 9.78756C14.0305 9.66325 13.2841 9.54578 13.2649 9.52656C13.2457 9.50734 12.9551 8.902 12.6191 8.18134C12.2831 7.46069 11.9253 6.77612 11.8238 6.66016C11.6264 6.4345 11.2286 6.38556 10.943 6.55187ZM36.1765 6.66016C36.0749 6.77612 35.7171 7.46069 35.3811 8.18134C35.0452 8.902 34.7546 9.50734 34.7353 9.52656C34.7161 9.54578 33.9698 9.66325 33.0768 9.78756C31.5988 9.99344 31.4343 10.0351 31.2423 10.2523C30.8297 10.7191 30.9191 10.8904 32.251 12.1861L33.4743 13.376L33.2372 14.7769C32.9314 16.5841 32.9322 16.7885 33.2472 17.0361C33.383 17.143 33.5745 17.2305 33.6728 17.2305C33.771 17.2305 34.4675 16.893 35.2205 16.4805C35.9735 16.068 36.6275 15.7305 36.6739 15.7305C36.7202 15.7305 37.4154 16.0743 38.2187 16.4945C39.8141 17.3291 39.9571 17.3528 40.3346 16.8457C40.5153 16.6029 40.5148 16.5936 40.2413 15.0019L39.9664 13.4022L41.1707 12.2005C42.195 11.1785 42.3751 10.9555 42.3751 10.7091C42.3751 10.1502 42.1216 10.0358 40.3178 9.78072C39.4258 9.65462 38.6849 9.53903 38.6712 9.52375C38.6575 9.50856 38.3258 8.85456 37.934 8.07044C37.5423 7.28641 37.1396 6.60081 37.039 6.547C36.7387 6.38631 36.3741 6.43412 36.1765 6.66016ZM10.8763 9.72803C10.6464 10.1971 10.3714 10.6624 10.2651 10.7623C10.1254 10.8935 9.78931 10.9835 9.05177 11.087C8.49068 11.1658 8.01556 11.2462 7.99606 11.2658C7.97646 11.2854 8.30074 11.6087 8.71671 11.9842C9.13259 12.3598 9.49737 12.7647 9.52737 12.8839C9.55727 13.0032 9.51415 13.4973 9.43155 13.9819C9.34896 14.4665 9.28137 14.9124 9.28137 14.9728C9.28137 15.0331 9.69565 14.8697 10.2019 14.6096C10.7082 14.3495 11.2198 14.1367 11.3388 14.1367C11.4577 14.1367 11.9505 14.3506 12.4338 14.6118C12.9172 14.8732 13.3125 15.0736 13.3125 15.0572C13.3124 15.0408 13.2491 14.6688 13.172 14.2305C12.9271 12.8401 12.9206 12.8627 13.8173 12.0017L14.6033 11.2472L14.3095 11.1963C14.1479 11.1684 13.6695 11.0967 13.2462 11.0372C12.8231 10.9775 12.4132 10.8807 12.3354 10.8218C12.2576 10.763 11.9915 10.3009 11.7441 9.79506L11.2943 8.87528L10.8763 9.72803ZM36.2322 9.83022C35.9757 10.3524 35.6931 10.8186 35.6042 10.8663C35.4804 10.9328 33.7837 11.2192 33.4569 11.2288C33.4245 11.2297 33.7514 11.5755 34.1834 11.9971C35.0788 12.8711 35.0719 12.8471 34.8282 14.2305C34.7511 14.6688 34.6878 15.0408 34.6877 15.0572C34.6877 15.0736 35.0831 14.8732 35.5664 14.6118C36.0497 14.3506 36.55 14.1367 36.6779 14.1367C36.8059 14.1367 37.3175 14.3509 37.8147 14.6127C38.3892 14.915 38.7189 15.0433 38.7188 14.9643C38.7187 14.8958 38.6554 14.4813 38.5782 14.043C38.3631 12.8212 38.342 12.8851 39.2362 12.0459C39.6755 11.6337 40.021 11.2826 40.0041 11.2657C39.9872 11.2487 39.5118 11.1668 38.9476 11.0836C38.3058 10.9889 37.8567 10.874 37.7474 10.7766C37.6514 10.6911 37.3762 10.2296 37.1357 9.751L36.6986 8.881L36.2322 9.83022ZM5.06262 16.6928C4.90334 16.7715 4.64974 17.1578 4.27137 17.898L3.7144 18.9873L2.60562 19.1514C1.29743 19.345 1.03184 19.4926 1.03052 20.0264C1.02977 20.3398 1.10805 20.4453 1.89134 21.1865L2.7529 22.002L2.53905 23.182C2.4214 23.8309 2.35155 24.4672 2.3839 24.5958C2.42027 24.7409 2.57009 24.8904 2.77868 24.9899L3.11487 25.1502L4.24774 24.5509L5.38071 23.9516L6.52109 24.5495C7.54971 25.0888 7.68527 25.1366 7.90399 25.0369C8.0373 24.9762 8.21477 24.8223 8.29821 24.6949C8.43959 24.4791 8.43462 24.3793 8.22499 23.2359L8.00009 22.0084L8.87665 21.2367C9.76465 20.4547 9.91109 20.2298 9.80571 19.8098C9.71299 19.4406 9.40812 19.316 8.17249 19.1422L7.01674 18.9797L6.47037 17.8897C6.0693 17.0898 5.85818 16.7699 5.6764 16.687C5.37284 16.5487 5.3539 16.5489 5.06262 16.6928ZM42.2965 16.6903C42.1534 16.7605 41.8874 17.1765 41.5306 17.8881L40.9841 18.9785L39.7837 19.1524C38.435 19.3478 38.1564 19.5012 38.1564 20.0479C38.1564 20.3607 38.1955 20.4058 39.3827 21.462L39.9997 22.0109L39.775 23.237C39.5656 24.3794 39.5607 24.4791 39.702 24.6949C39.7855 24.8223 39.9631 24.9764 40.0968 25.0372C40.3162 25.1372 40.4513 25.0898 41.4827 24.5514L42.6256 23.9548L43.7555 24.5525L44.8854 25.1502L45.2216 24.9899C45.4302 24.8904 45.58 24.7409 45.6163 24.5958C45.6487 24.4672 45.5788 23.8309 45.4612 23.182L45.2473 22.002L46.1089 21.1865C46.8922 20.4453 46.9705 20.3398 46.9697 20.0264C46.9684 19.4901 46.6982 19.3399 45.3863 19.1463L44.2757 18.9824L43.771 17.9593C43.4933 17.3966 43.2028 16.8791 43.1253 16.8093C42.9169 16.6217 42.5453 16.5683 42.2965 16.6903ZM22.2657 18.2266C22.1111 18.2498 21.5712 18.3508 21.0662 18.4509C15.1494 19.6248 10.4909 24.4239 9.46962 30.3978C9.2164 31.8793 9.21452 33.8833 9.46502 35.3487C9.91352 37.9718 11.0107 40.3313 12.7451 42.4023C13.0905 42.8148 13.4127 43.2239 13.461 43.3113C13.6079 43.5774 14.81 44.5818 15.7002 45.1824C17.2532 46.2301 19.2088 47.0483 21.1876 47.4785C22.3335 47.7277 25.6667 47.7277 26.8126 47.4785C30.9518 46.5786 34.081 44.4124 36.4153 40.8311C38.7663 37.2243 39.3741 32.4862 38.0179 28.3378C37.2918 26.1168 36.0844 24.1585 34.4064 22.4805C32.3456 20.4197 29.8907 19.084 26.9786 18.4391C26.3142 18.292 25.6901 18.2393 24.3282 18.2155C23.3486 18.1984 22.4204 18.2034 22.2657 18.2266ZM5.08202 19.5357C4.92509 19.8467 4.73459 20.1526 4.65874 20.2155C4.58299 20.2785 4.26152 20.3756 3.94446 20.4315L3.36809 20.533L3.84996 21.0425C4.27587 21.4929 4.32555 21.5868 4.27784 21.8522C4.24821 22.0173 4.19515 22.3384 4.16009 22.5659L4.09634 22.9795L4.6143 22.6831C5.26343 22.3117 5.49565 22.3121 6.15743 22.6855L6.68684 22.9843L6.62102 22.6621C6.39874 21.5734 6.39893 21.5729 6.93668 21.0284L7.43177 20.527L6.97371 20.4657C6.16352 20.3572 6.01624 20.2573 5.67818 19.5867L5.3674 18.9704L5.08202 19.5357ZM42.3097 19.6064C41.99 20.2545 41.8366 20.3573 41.0265 20.4657L40.5685 20.527L41.0636 21.0284C41.6012 21.5727 41.6014 21.5739 41.3797 22.6595L41.3144 22.9792L41.8615 22.683C42.5424 22.3142 42.7454 22.3133 43.3887 22.6763L43.9017 22.9658L43.839 22.5591C43.8045 22.3353 43.752 22.0173 43.7224 21.8522C43.6747 21.5868 43.7244 21.4929 44.1503 21.0425L44.6322 20.533L44.0558 20.4315C43.3558 20.3082 43.2774 20.2473 42.9286 19.5564C42.7774 19.2568 42.6422 19.0117 42.6283 19.0117C42.6143 19.0117 42.4709 19.2793 42.3097 19.6064ZM22.9212 19.6712C18.6982 20.0159 14.8817 22.367 12.6546 25.9961C11.8387 27.3256 11.2073 29.0136 10.9166 30.643C10.7064 31.8201 10.7064 33.9533 10.9166 35.1304C11.2507 37.0027 12.1476 39.1774 13.1411 40.5245L13.6231 41.1779L13.784 40.5903C14.286 38.7563 15.4542 37.3553 17.1346 36.572C18.1563 36.0959 19.898 35.7058 21.0236 35.7011L21.4689 35.6992V35.3711C21.4689 35.1906 21.4328 35.043 21.3887 35.043C21.3446 35.043 21.0267 34.7847 20.6821 34.469C19.3485 33.247 18.5415 31.7013 18.2408 29.793C18.1718 29.3547 18.001 28.4477 17.8613 27.7773C17.5362 26.2178 17.5605 25.3851 17.9545 24.5768C18.4915 23.4753 19.6193 22.6736 21.1843 22.281C21.8794 22.1067 22.159 22.0878 23.4343 22.1298C25.1093 22.185 25.8207 22.3591 26.5815 22.9C26.8372 23.0818 27.1347 23.2305 27.2427 23.2305C27.6027 23.2305 28.5663 23.7909 28.9958 24.2501C29.5246 24.8155 29.7734 25.2973 30.0059 26.2062C30.2394 27.119 30.2343 27.9157 29.9909 28.5742C29.886 28.8578 29.7374 29.4273 29.6607 29.8398C29.4646 30.8926 29.0601 32.0192 28.5998 32.7939C28.1803 33.4999 27.2955 34.5056 26.7875 34.8538C26.5212 35.0362 26.4831 35.1101 26.5149 35.3825C26.5352 35.5567 26.5662 35.6992 26.5837 35.6992C26.6012 35.6992 27.098 35.7625 27.6877 35.8398C31.3842 36.3243 33.4187 37.8252 34.1771 40.627L34.3414 41.234L34.8406 40.5526C35.8575 39.1644 36.7479 37.0124 37.0837 35.1304C37.2939 33.9533 37.2939 31.8201 37.0837 30.643C35.8697 23.8409 29.7663 19.1125 22.9212 19.6712ZM22.0749 23.6094C20.4701 23.8194 19.3261 24.6259 19.1414 25.6774C19.0763 26.0481 19.2432 27.5986 19.361 27.7163C19.3843 27.7398 19.6069 27.5686 19.8554 27.3361C20.3714 26.8534 20.8634 26.6562 21.379 26.7254C21.5754 26.7517 22.1789 26.9464 22.7203 27.1581C23.2617 27.3698 23.8167 27.543 23.9533 27.543C24.0901 27.543 24.6875 27.3531 25.2809 27.1211C25.8744 26.8891 26.5053 26.6992 26.683 26.6992C27.1609 26.6992 27.6288 26.9293 28.1641 27.4275L28.6407 27.8711L28.6725 27.4961C28.7112 27.0389 28.5372 26.2056 28.3101 25.7617C27.9926 25.1407 27.2578 24.6367 26.6703 24.6367C26.3878 24.6367 25.8751 24.3925 25.8751 24.258C25.8751 23.8132 23.5497 23.4164 22.0749 23.6094ZM20.407 28.8836L19.6731 29.5606L19.8169 30.1803C20.1957 31.8138 21.4966 33.6419 22.4719 33.9111C22.6543 33.9616 22.8874 34.0786 22.9898 34.1713C23.1392 34.3065 23.3272 34.338 23.9396 34.3304C24.6298 34.3218 24.7663 34.2875 25.3595 33.9742C26.4977 33.373 27.3237 32.3652 27.8324 30.957C28.3262 29.59 28.3354 29.6437 27.4724 28.8644L26.723 28.1877L25.599 28.6154C24.1092 29.1822 23.7987 29.1828 22.3227 28.6211C21.7128 28.3891 21.1974 28.2009 21.1773 28.203C21.1572 28.2049 20.8106 28.5113 20.407 28.8836ZM23.894 35.7691L22.8973 35.7991L22.8393 36.089C22.6931 36.82 22.974 38.0907 23.3691 38.4858C23.6697 38.7864 24.2069 38.8154 24.4767 38.5455C24.8212 38.201 25.2941 35.6684 25.0044 35.7191C24.9419 35.7301 24.4422 35.7526 23.894 35.7691ZM20.0157 37.2641C19.337 37.3629 18.1877 37.6947 17.645 37.9484C16.9053 38.2942 16.0494 39.1011 15.6727 39.8077C15.3786 40.3596 15.0571 41.4125 14.9503 42.1739L14.8903 42.6017L15.6524 43.2051C18.4152 45.3929 21.8067 46.4293 25.1486 46.1071C27.8481 45.8467 30.1943 44.9088 32.2935 43.2504C33.097 42.6157 33.0954 42.6211 32.8517 41.4418C32.6444 40.4381 32.2547 39.6357 31.6785 39.0265C31.0931 38.4075 30.4895 38.0457 29.5076 37.7253C28.9205 37.5337 27.1611 37.1992 26.7403 37.1992C26.6881 37.1992 26.5716 37.505 26.4814 37.8789C26.2815 38.7076 26.069 39.1472 25.6804 39.5358C24.5681 40.6481 22.6338 40.5094 21.8056 39.258C21.6686 39.0509 21.4589 38.5134 21.3399 38.0637L21.1232 37.2461L20.7101 37.2347C20.4829 37.2283 20.1704 37.2416 20.0157 37.2641Z" fill="#619E90"/>
</svg>
