<svg width="48" height="49" viewBox="0 0 48 49" fill="none" xmlns="http://www.w3.org/2000/svg">
<path fill-rule="evenodd" clip-rule="evenodd" d="M22.9687 2.09499C22.1385 2.2733 20.9694 2.8702 20.3298 3.44227C19.8431 3.87764 19.7462 3.92358 19.1311 4.01086C16.5902 4.37124 14.8411 5.92927 14.1837 8.41796C13.7586 10.0269 14.1965 12.6363 15.2127 14.55L15.5335 15.1541L15.2891 15.3348C15.1546 15.4342 14.9202 15.7431 14.7679 16.0214C14.5284 16.4595 14.4864 16.6469 14.4555 17.418C14.4262 18.1506 14.4543 18.4001 14.6143 18.8242C14.8783 19.5246 15.2795 19.9825 15.8917 20.282C16.3463 20.5044 16.4158 20.5771 16.5018 20.9207C16.9151 22.5707 17.6793 24.0061 18.7265 25.0992C19.2385 25.6336 19.4061 25.8732 19.4062 26.0703C19.4062 26.4611 19.1363 27.6931 18.9297 28.2454L18.7481 28.7309L16.5316 29.4009C15.3125 29.7694 14.2372 30.1415 14.142 30.2278C14.0467 30.3139 13.9687 30.4771 13.9687 30.5903C13.9687 30.7821 13.9127 30.8001 13.1484 30.8546C9.35714 31.1249 6.27145 33.7643 5.32251 37.5485C5.12526 38.335 5.11607 38.5591 5.11279 42.6573C5.10942 46.8456 5.11364 46.9479 5.30011 47.1346C5.49089 47.3255 5.5012 47.3256 24 47.3256C42.4984 47.3256 42.5091 47.3255 42.6998 47.1346C42.8862 46.9479 42.8905 46.8455 42.8871 42.6573C42.8838 38.5591 42.8746 38.335 42.6774 37.5485C41.9754 34.749 40.1147 32.5555 37.5288 31.479C36.6826 31.1267 35.3354 30.8272 34.5891 30.8254C34.082 30.8242 34.0659 30.816 33.9525 30.5024C33.8134 30.1177 33.7855 30.1059 31.1724 29.3261C29.9895 28.973 29.2533 28.7056 29.1771 28.6014C28.9983 28.3569 28.6935 27.3117 28.57 26.5198L28.4615 25.8247L28.8885 25.4416C29.9407 24.4977 30.8814 22.9016 31.3416 21.2794C31.5627 20.5004 31.5627 20.5003 32.0287 20.2844C32.5876 20.0254 33.1235 19.4289 33.323 18.8434C33.4152 18.5728 33.4683 18.0864 33.4678 17.5185C33.467 16.7733 33.4293 16.5405 33.2455 16.1457C33.0271 15.6766 32.4233 15.0742 32.1717 15.0742C32.0855 15.0742 32.0647 15.0195 32.1094 14.9101C32.3611 14.2942 32.8275 12.792 32.9681 12.1443C33.2032 11.0608 33.2016 8.70933 32.9651 7.85545C32.604 6.55205 32.0779 5.60274 31.233 4.73011C30.0129 3.4702 28.1717 2.50889 26.1631 2.08308C25.3847 1.91808 23.7642 1.92417 22.9687 2.09499ZM23.1741 3.45155C22.2457 3.69474 21.6829 4.01977 20.9645 4.72777L20.3592 5.3242H19.7617C17.6971 5.3242 16.0502 6.62274 15.5235 8.66583C15.2548 9.70786 15.3849 11.308 15.852 12.706L16.0637 13.3398L16.186 12.6211C16.4046 11.3348 16.9286 10.1604 17.7551 9.10402C18.3555 8.33658 19.4256 7.48271 19.7886 7.48139C19.9387 7.48083 20.2764 7.67114 20.6792 7.98324C21.5117 8.62824 22.1968 9.01083 23.127 9.35039C24.214 9.74705 24.9045 9.85074 26.5312 9.86152C27.9641 9.87099 27.9932 9.8753 28.621 10.1727C28.9711 10.3385 29.4461 10.6286 29.6763 10.8173C30.1395 11.1969 30.8299 12.176 31.0861 12.8168L31.2519 13.2312L31.3751 12.8752C31.8035 11.6377 31.9389 9.36492 31.6539 8.19417C31.0898 5.87724 29.2007 4.25414 26.1746 3.48652C25.095 3.21267 24.1289 3.20142 23.1741 3.45155ZM19.2077 9.49008C18.231 10.4835 17.6538 11.7685 17.4303 13.4462C17.3695 13.9034 17.3445 14.6007 17.375 14.9957C17.4236 15.6265 17.4071 15.7439 17.2395 15.9567C17.1342 16.0907 16.9533 16.1992 16.8353 16.1992C16.0931 16.1992 15.7945 16.6058 15.8005 17.6085C15.8065 18.6378 16.0503 18.9896 16.9074 19.2053C17.4604 19.3446 17.6047 19.5188 17.7238 20.1913C18.0072 21.7918 18.6899 23.1765 19.6847 24.1689C20.8868 25.368 22.1908 25.8958 23.9531 25.8968C25.1147 25.8975 25.8465 25.7385 26.7671 25.2853C28.5078 24.4283 29.7858 22.5647 30.1918 20.2916C30.3289 19.5237 30.48 19.3083 30.9321 19.236C31.4514 19.153 31.8642 18.873 32.0212 18.497C32.1814 18.1136 32.1982 17.1915 32.0526 16.7737C31.9263 16.4114 31.709 16.2856 31.1432 16.2475C30.5775 16.2093 30.4196 16.0071 30.3386 15.2161C30.1543 13.4177 29.3204 11.9918 28.128 11.4367C27.6523 11.2152 27.528 11.1995 26.3937 11.2175C24.0587 11.2547 22.0697 10.6609 20.2824 9.39305L19.7054 8.98383L19.2077 9.49008ZM20.7187 26.6462C20.7187 26.9561 20.3638 28.2918 20.135 28.843L19.8483 29.5337L20.1592 31.6274L20.4702 33.7211L20.9928 33.7954C21.6733 33.8924 26.2352 33.892 26.9171 33.795L27.4435 33.7201L27.5902 32.7644C27.6709 32.2387 27.8108 31.2997 27.9011 30.6777L28.0651 29.5468L27.8047 28.8964C27.6615 28.5388 27.4674 27.8944 27.3734 27.4645C27.2793 27.0346 27.1886 26.6697 27.1715 26.6534C27.1545 26.6371 26.7609 26.7556 26.2968 26.9166C25.4921 27.1959 25.386 27.2094 24 27.2086C22.699 27.2077 22.4683 27.1824 21.7968 26.9671C21.3843 26.8348 20.973 26.6948 20.8828 26.656C20.7925 26.6172 20.7187 26.6128 20.7187 26.6462ZM17.0625 30.6483C16.2632 30.8935 15.5985 31.0966 15.5854 31.0998C15.5722 31.1029 15.9414 31.8644 16.4057 32.7919C16.8701 33.7196 17.25 34.5833 17.25 34.7115C17.25 34.8613 17.0475 35.1796 16.6824 35.6039C16.3329 36.0099 16.1411 36.308 16.1831 36.3796C16.5574 37.0182 20.4855 43.3629 20.5502 43.4336C20.6047 43.493 20.6189 43.4759 20.589 43.3867C20.5631 43.3094 20.1148 40.3773 19.5927 36.8711C19.0706 33.3648 18.6146 30.43 18.5794 30.3493C18.5243 30.2224 18.3179 30.2631 17.0625 30.6483ZM29.3073 30.4806C29.1441 31.3733 27.3768 43.2518 27.3979 43.3149C27.4235 43.3917 31.7154 36.5028 31.7576 36.3172C31.7704 36.2609 31.5278 35.9277 31.2185 35.5766C30.9092 35.2256 30.6562 34.8561 30.6562 34.7554C30.6562 34.6548 31.0337 33.7903 31.4952 32.8342C32.0332 31.7195 32.2939 31.083 32.2217 31.0597C32.16 31.0398 31.6031 30.871 30.9843 30.6846C30.3656 30.4982 29.7473 30.3093 29.6104 30.2649C29.3818 30.1906 29.3572 30.2081 29.3073 30.4806ZM13.0575 32.2043C12.7055 32.2482 12.1858 32.7875 11.7838 33.5262C11.4676 34.1071 11.1854 35.1826 11.099 36.1353C11.0345 36.8467 11.0359 36.853 11.2441 36.7985C11.5819 36.7102 12.5439 36.9054 13.0601 37.167C13.6755 37.4789 14.5279 38.2944 14.8425 38.8725C15.1901 39.511 15.4043 40.4974 15.3442 41.1826C15.3038 41.6426 15.2491 41.7834 15.0413 41.9621C14.7824 42.1849 14.6695 42.1894 13.7546 42.0142C13.132 41.8949 13.0609 41.0661 13.6493 40.7855C14.0096 40.6138 14.0302 40.5068 13.821 39.893C13.5019 38.9566 12.4351 38.139 11.5312 38.1381C10.8681 38.1376 10.458 38.2959 9.9577 38.7456C9.30398 39.3334 9.05733 39.9377 9.11704 40.8048C9.14208 41.1678 9.21492 41.576 9.27886 41.7119C9.37682 41.9198 9.43429 41.9481 9.64289 41.8908C10.2448 41.7256 10.7771 42.3016 10.4919 42.8095C10.3081 43.137 9.26404 43.5436 8.91886 43.4222C8.46529 43.2627 7.87589 42.0927 7.73836 41.079C7.56782 39.8216 8.2582 38.2589 9.3217 37.4951L9.72351 37.2066L9.77686 36.1482C9.83358 35.0239 10.0127 34.1859 10.3707 33.3709L10.5904 32.8709L10.1467 33.1283C8.52801 34.0679 7.36786 35.5335 6.73898 37.4336C6.52804 38.0708 6.52082 38.2048 6.4897 42.0508L6.45764 46.0117H13.5C19.1092 46.0117 20.5278 45.9879 20.4711 45.8945C20.432 45.8301 19.1007 43.6764 17.5125 41.1086C15.42 37.7251 14.625 36.3631 14.625 36.1611C14.625 35.9664 14.7438 35.749 15.0196 35.4393C15.2368 35.1955 15.4985 34.8998 15.6013 34.7822L15.7882 34.5683L15.186 33.3526L14.5838 32.1367L13.9716 32.1517C13.6349 32.16 13.2236 32.1837 13.0575 32.2043ZM32.7609 33.3648L32.1455 34.5929L32.729 35.2494C33.1411 35.7131 33.3124 35.9809 33.3124 36.1614C33.3124 36.3828 31.4718 39.4442 27.827 45.2851L27.3736 46.0117H34.458H41.5423L41.5102 42.0508C41.4791 38.1953 41.4723 38.0724 41.2595 37.4336C40.7498 35.9041 39.9309 34.6817 38.8295 33.8065C38.1845 33.294 37.362 32.8116 36.8767 32.6612C36.6767 32.5994 36.677 32.6029 36.9145 33.1881C37.2559 34.0293 37.4792 34.9455 37.6123 36.0502L37.728 37.0106L38.0325 37.1111C38.2002 37.1664 38.5472 37.4005 38.8039 37.6312C40.1467 38.8385 39.8546 40.9763 38.2363 41.785C36.9652 42.4201 35.5023 41.9786 34.8281 40.756C34.5809 40.3078 34.547 40.1553 34.5484 39.4961C34.5497 38.91 34.5941 38.6641 34.7515 38.3711C35.0153 37.8797 35.5823 37.3394 36.0297 37.153L36.3875 37.0039L36.3243 36.4688C36.1142 34.6887 35.5618 33.0671 34.9362 32.3945C34.7184 32.1604 34.6358 32.1367 34.0364 32.1367H33.3763L32.7609 33.3648ZM20.7187 35.2488C20.7187 35.2847 21.0773 37.6836 21.5156 40.5797C21.9539 43.4758 22.3125 45.8827 22.3125 45.9286C22.3125 45.9743 23.046 46.0117 23.9427 46.0117H25.5728L25.6277 45.707C25.7335 45.1194 27.1875 35.4208 27.1875 35.3028C27.1875 35.2086 26.5078 35.1836 23.9531 35.1836C22.1742 35.1836 20.7187 35.2129 20.7187 35.2488ZM36.2324 38.6356C35.8248 39.0431 35.7334 39.5068 35.9669 39.9829C36.1786 40.4151 36.6733 40.7617 37.0781 40.7617C37.4798 40.7617 37.977 40.416 38.1849 39.9922C38.4143 39.5246 38.3169 39.0299 37.9167 38.6289C37.6445 38.3564 37.5561 38.3242 37.0781 38.3242C36.5979 38.3242 36.5122 38.3557 36.2324 38.6356Z" fill="#619E90"/>
</svg>
