<svg width="31" height="31" viewBox="0 0 31 31" fill="none" xmlns="http://www.w3.org/2000/svg">
<g clip-path="url(#clip0_106_298)">
<path fill-rule="evenodd" clip-rule="evenodd" d="M15.341 6.41708C14.3259 6.57406 13.6066 6.93991 12.8754 7.67105C11.9893 8.55722 11.5953 9.50146 11.6032 10.7203C11.6084 11.5123 11.7469 12.0815 12.0991 12.7586C12.3622 13.2645 12.9427 13.9357 13.3777 14.2372C13.508 14.3275 13.5938 14.4202 13.5685 14.4433C13.5431 14.4663 13.371 14.5406 13.186 14.6084C12.5453 14.8435 11.8152 15.2561 11.1142 15.7792L10.9327 15.9147L10.5371 15.6152C10.3195 15.4505 9.87923 15.189 9.55872 15.0341L8.97607 14.7523L9.23874 14.5371C9.57572 14.261 10.0428 13.5624 10.2098 13.085C10.3876 12.5767 10.431 11.7334 10.3065 11.2041C9.9465 9.67279 8.51271 8.52505 6.9598 8.52505C5.0374 8.52505 3.41722 10.2509 3.55175 12.1553C3.61421 13.0393 3.9032 13.6872 4.52916 14.3461L4.93703 14.7755L4.55763 14.9367C3.59324 15.3467 2.56041 16.2241 1.94781 17.154C1.32232 18.1034 1.02484 19.0212 0.970757 20.1685L0.93689 20.8863H4.5714H8.20591L8.17568 21.6334C8.15699 22.0941 8.17269 22.5421 8.21658 22.8022C8.40531 23.9207 9.27331 24.9196 10.3833 25.2959C10.7678 25.4262 10.776 25.4264 15.7275 25.4437C21.0634 25.4623 21.1114 25.46 21.8115 25.1588C22.4175 24.8981 23.0737 24.2697 23.3666 23.6695C23.6345 23.1205 23.7026 22.7039 23.6794 21.7549L23.6583 20.8872L27.3207 20.872L30.9832 20.857L30.9983 20.271C31.0087 19.8681 30.9952 19.7125 30.9553 19.773C30.9101 19.8413 30.8969 19.8216 30.8958 19.6851C30.8936 19.3888 30.6804 18.5976 30.4657 18.0885C29.8995 16.7468 28.6201 15.4555 27.3437 14.9375L26.9403 14.7738L27.3575 14.3526C28.7052 12.992 28.7024 10.8992 27.351 9.54781C26.2525 8.44929 24.7258 8.23009 23.2769 8.96281C22.8188 9.19437 22.1137 9.9204 21.8828 10.398C21.2175 11.7741 21.4784 13.3601 22.5422 14.4057L22.9017 14.7591L22.2843 15.0672C21.9447 15.2366 21.5377 15.4748 21.3799 15.5966C21.2221 15.7183 21.0583 15.8435 21.0159 15.8749C20.9618 15.9147 20.8895 15.8932 20.7754 15.8034C20.1855 15.3391 19.3197 14.8493 18.6633 14.6084C18.225 14.4476 18.2018 14.4202 18.3972 14.2927C18.6872 14.1036 19.2428 13.5423 19.4685 13.2105C20.0273 12.3891 20.2412 11.7011 20.2431 10.7203C20.2453 9.4823 19.8604 8.55757 18.9739 7.67105C18.5679 7.26511 18.3317 7.08329 17.9629 6.89281C17.162 6.47925 16.1392 6.29363 15.341 6.41708ZM15.1102 7.44452C14.5095 7.5899 14.0309 7.86622 13.5476 8.34663C12.8671 9.02322 12.5555 9.76876 12.5555 10.7203C12.5555 11.6666 12.8659 12.4055 13.5519 13.0924C15.0199 14.5622 17.3243 14.398 18.6089 12.7321C18.9141 12.3364 19.0973 11.9306 19.2093 11.4022C19.5263 9.90675 18.7723 8.36286 17.4065 7.71077C17.1393 7.58322 16.781 7.45015 16.6102 7.41499C16.1934 7.32927 15.5329 7.34228 15.1102 7.44452ZM6.22187 9.60488C5.01531 10.0491 4.34412 11.131 4.53115 12.33C4.83964 14.3077 7.26291 15.0991 8.67777 13.6842C9.16638 13.1956 9.39015 12.651 9.39015 11.9507C9.39015 10.843 8.70712 9.9262 7.6406 9.60247C7.30351 9.50023 6.50253 9.50158 6.22187 9.60488ZM24.0788 9.66247C23.1819 10.0313 22.6552 10.6852 22.5152 11.6036C22.3998 12.3605 22.6301 13.0831 23.1678 13.6517C24.2341 14.7791 26.1018 14.6133 26.9693 13.3142C27.8855 11.9421 27.2152 10.0839 25.6306 9.603C25.1903 9.46941 24.4824 9.49654 24.0788 9.66247ZM14.7491 15.174C14.0661 15.2991 13.5266 15.4835 12.8627 15.8186C12.0788 16.2144 11.5961 16.5773 10.9666 17.2441C9.8831 18.3917 9.29312 19.7424 9.15126 21.4C9.02195 22.9108 9.38669 23.7508 10.3862 24.2439L10.7658 24.4312L15.7183 24.4495C20.9015 24.4686 21.0531 24.4624 21.5431 24.2139C21.8816 24.0421 22.3269 23.5662 22.5054 23.1853C22.6479 22.8813 22.6647 22.7729 22.6819 22.0504C22.7122 20.7727 22.5051 19.8509 21.9401 18.7487C20.9792 16.8745 19.1627 15.5416 17.0672 15.1732C16.4701 15.0683 15.3242 15.0686 14.7491 15.174ZM6.25667 15.4395C4.47039 15.7171 3.0063 16.845 2.3047 18.4839C2.15025 18.8449 1.95255 19.5571 1.95103 19.7584L1.95003 19.8902H5.16537H8.38064L8.56896 19.3509C8.86351 18.5074 9.32101 17.6777 9.85474 17.0191C9.97222 16.8741 10.1007 16.7131 10.1402 16.6614C10.2016 16.581 10.1617 16.5322 9.86406 16.3234C8.84775 15.6105 7.41519 15.2595 6.25667 15.4395ZM24.2157 15.4433C23.7371 15.5165 22.8838 15.7999 22.5257 16.0047C22.1306 16.2305 21.6961 16.5513 21.6961 16.6171C21.6961 16.6483 21.8359 16.8503 22.0066 17.0661C22.5611 17.7669 22.9982 18.565 23.2804 19.3921L23.4403 19.8609L26.6999 19.876L29.9594 19.8912L29.9228 19.6416C29.866 19.2538 29.5603 18.3741 29.358 18.0164C28.6584 16.7789 27.5185 15.8953 26.1821 15.5548C25.6261 15.413 24.7415 15.3629 24.2157 15.4433ZM0.975327 20.3296C0.975503 20.6519 0.985347 20.7762 0.997183 20.606C1.00908 20.4358 1.00896 20.1721 0.996948 20.02C0.984878 19.868 0.97521 20.0074 0.975327 20.3296Z" fill="#619E90"/>
</g>
<defs>
<clipPath id="clip0_106_298">
<rect width="30" height="30" fill="white" transform="translate(0.953979 0.905823)"/>
</clipPath>
</defs>
</svg>
