<svg width="35" height="35" viewBox="0 0 35 35" fill="none" xmlns="http://www.w3.org/2000/svg">
<path fill-rule="evenodd" clip-rule="evenodd" d="M11.4183 4.88C10.9469 5.10073 10.5905 5.63849 10.5893 6.13083C10.5884 6.45356 10.87 7.15176 11.1767 7.58692C11.6163 8.21087 12.6225 9.26666 12.8262 9.31786C12.9663 9.35299 13.0632 9.28898 13.4556 8.90243C14.9178 7.46201 15.4537 6.29485 15.0221 5.49034C14.934 5.32598 14.7346 5.10186 14.579 4.99229C14.3325 4.81864 14.2388 4.79307 13.8486 4.79307C13.4774 4.79307 13.3564 4.82262 13.1406 4.9658L12.8803 5.13852L12.6271 4.97091C12.2899 4.74778 11.7823 4.7096 11.4183 4.88ZM11.5389 5.65071C11.2713 5.88101 11.2849 6.31185 11.5771 6.86017C11.8022 7.28238 12.7148 8.364 12.8759 8.39946C13.0113 8.42921 14.014 7.25057 14.2439 6.79124C14.5053 6.26928 14.506 5.94409 14.2463 5.68444C14.1138 5.55196 13.9857 5.49034 13.8428 5.49034C13.6372 5.49034 13.5789 5.53682 13.1142 6.07139C12.8925 6.32633 12.7789 6.275 12.3624 5.73212C12.1322 5.43197 11.8279 5.40195 11.5389 5.65071ZM23.092 6.51851C22.5764 6.66268 21.8741 7.03774 21.4343 7.40377C20.2286 8.40717 19.9486 9.86771 20.6807 11.3341C20.781 11.535 20.9292 11.9064 21.01 12.1595C21.1767 12.6816 21.3463 13.0362 21.6214 13.4378C21.7513 13.6276 21.8115 13.7981 21.8115 13.9765V14.2376L21.306 14.2835C20.2302 14.3809 19.3025 14.8188 18.6454 15.5394C18.2031 16.0243 17.9749 16.513 17.8888 17.1597C17.7846 17.9418 17.8348 21.6425 17.9515 21.783C18.0349 21.8835 18.5255 21.8927 23.7653 21.8927C28.1278 21.8927 29.507 21.8738 29.5678 21.813C29.6268 21.754 29.6475 21.1096 29.6475 19.3253C29.6475 17.0257 29.641 16.8999 29.5049 16.5329C29.0416 15.2843 27.7918 14.4245 26.235 14.2835L25.7295 14.2376V13.9941C25.7295 13.8356 25.7894 13.6706 25.9008 13.5218C26.1523 13.1861 26.4262 12.6226 26.5795 12.1256C26.6537 11.8853 26.7885 11.5793 26.8792 11.4457C27.1323 11.0728 27.2136 10.6175 27.1709 9.81365C27.1213 8.88098 26.9299 8.21857 26.5784 7.76276C26.2283 7.30894 25.7385 6.91814 25.1982 6.66168C24.8187 6.48145 24.6864 6.45462 24.1025 6.43915C23.6721 6.4278 23.3166 6.45575 23.092 6.51851ZM6.43848 6.71275C5.66697 7.05467 5.43109 7.91815 5.85921 8.83303C6.1103 9.36959 6.47068 9.84626 7.21078 10.6208C7.54713 10.9728 7.81906 11.2024 7.89941 11.2024C8.07048 11.2025 9.27123 9.97349 9.64072 9.42013C10.1699 8.6277 10.3153 7.92977 10.0656 7.38019C9.7388 6.66068 8.80373 6.39911 8.13668 6.84058C7.9637 6.95506 7.85725 6.99046 7.82803 6.94317C7.74256 6.80492 7.23323 6.62217 6.93652 6.6233C6.77217 6.62396 6.54805 6.6642 6.43848 6.71275ZM23.0286 7.30668C21.9382 7.72013 21.1348 8.57 21.0346 9.41581C20.9958 9.74346 20.9968 9.74572 21.1544 9.68217C21.2419 9.64691 21.6266 9.58329 22.0095 9.54072C22.9489 9.43633 24.0704 9.14428 24.6472 8.85382C24.9083 8.72233 25.1409 8.58414 25.164 8.54669C25.2265 8.44562 25.5755 8.46428 25.8005 8.58062C25.909 8.63673 26.0868 8.80554 26.1957 8.95582C26.4302 9.27961 26.4309 9.27742 26.2615 8.72937C26.1496 8.36686 26.0666 8.24182 25.7137 7.90487C25.1204 7.33823 24.778 7.18768 24.0361 7.1675C23.544 7.15408 23.3661 7.17865 23.0286 7.30668ZM6.58537 7.48332C6.24165 7.75373 6.29086 8.24467 6.7298 8.92381C6.9931 9.33114 7.83633 10.2716 7.93833 10.2716C7.96907 10.2716 8.22693 10.002 8.51128 9.67241C9.42669 8.61157 9.67691 7.91682 9.28491 7.52476C9.02852 7.26837 8.66641 7.28085 8.43657 7.55405C8.34201 7.66641 8.26465 7.78527 8.26465 7.81814C8.26465 7.85101 8.1914 7.92592 8.10189 7.98456C7.89038 8.12315 7.69322 8.05787 7.56313 7.80632C7.32254 7.34101 6.93075 7.21166 6.58537 7.48332ZM25.0986 9.44583C24.5983 9.74618 23.4802 10.0675 22.3397 10.2389C21.9617 10.2956 21.6442 10.3503 21.634 10.3605C21.6239 10.3707 21.5963 10.5866 21.5727 10.8402C21.4702 11.9437 22.1549 13.321 23.0206 13.7523C23.4277 13.9552 24.0402 13.9848 24.4333 13.8205C25.2656 13.4728 25.9966 12.2019 25.994 11.1073C25.9919 10.2653 25.7154 9.32796 25.4603 9.29774C25.4075 9.2915 25.2447 9.35817 25.0986 9.44583ZM13.2113 10.1257C12.7396 10.3473 12.3835 10.8847 12.3822 11.3769C12.3814 11.7029 12.6635 12.3985 12.9784 12.847C13.4542 13.5245 14.4866 14.588 14.6685 14.588C14.7652 14.588 15.0164 14.3806 15.4128 13.9737C16.5438 12.8128 16.9283 12.1508 16.9298 11.3624C16.9305 10.9578 16.9048 10.8536 16.7438 10.6103C16.3371 9.9958 15.3528 9.82003 14.8681 10.2753L14.7193 10.4151L14.4543 10.2396C14.096 10.0026 13.5752 9.95483 13.2113 10.1257ZM13.3318 10.8968C13.0648 11.1266 13.0779 11.558 13.3686 12.1034C13.6108 12.5577 14.6216 13.7437 14.7166 13.685C14.7508 13.6639 15.0177 13.3728 15.3096 13.0382C16.208 12.0086 16.4418 11.3331 16.0393 10.9305C15.6898 10.581 15.3614 10.6901 14.952 11.2916C14.8 11.515 14.6026 11.5148 14.4188 11.2912C13.9149 10.678 13.6836 10.5941 13.3318 10.8968ZM7.01694 12.6009C6.69441 12.6991 6.31171 13.115 6.21011 13.4777C6.03214 14.1135 6.29212 14.8383 7.02537 15.7501C7.56539 16.4217 8.28245 17.1112 8.44149 17.112C8.61428 17.1128 9.77154 15.8988 10.1797 15.2886C10.8986 14.2137 10.8803 13.2925 10.1293 12.7621C9.8839 12.5887 9.79013 12.5631 9.39993 12.5629C9.02852 12.5627 8.90779 12.592 8.69164 12.7353L8.43113 12.908L8.17786 12.7404C7.8937 12.5524 7.37932 12.4906 7.01694 12.6009ZM7.06422 13.454C6.76486 13.7533 6.8156 14.159 7.23515 14.8213C7.48756 15.2197 8.33491 16.1817 8.43345 16.1817C8.47184 16.1817 8.68354 15.9801 8.90387 15.7335C9.94845 14.565 10.2186 13.8755 9.79711 13.454C9.52331 13.1802 9.19513 13.1843 8.98356 13.4642C8.46925 14.1445 8.40802 14.1467 7.91316 13.5017C7.66859 13.1827 7.35316 13.165 7.06422 13.454ZM22.542 14.4203C22.542 14.5699 23.7479 16.3977 23.8052 16.3351C23.9311 16.1976 24.999 14.5066 24.999 14.4446C24.999 14.4041 24.9499 14.3946 24.8828 14.4219C24.3666 14.6322 24.1601 14.6687 23.649 14.6407C23.2659 14.6197 23.0235 14.5681 22.8242 14.4653C22.5919 14.3454 22.542 14.3374 22.542 14.4203ZM20.8486 15.0841C19.9115 15.2887 19.174 15.8246 18.8087 16.5663L18.5908 17.0086L18.5692 19.0854L18.5476 21.1622H19.1171H19.6865V19.643C19.6865 17.9856 19.696 17.9441 20.0628 17.9865C20.3805 18.0233 20.4149 18.1954 20.416 19.7511L20.417 21.1622H21.2471C21.7036 21.1622 22.0771 21.143 22.0771 21.1196C22.0771 21.0962 21.8242 20.3487 21.5152 19.4586C21.1892 18.5201 20.9707 17.7916 20.9949 17.7248C21.0179 17.6613 21.1265 17.5324 21.2364 17.4384L21.4362 17.2672L21.1258 16.6838C20.9551 16.3629 20.8154 16.0339 20.8154 15.9526C20.8154 15.8714 20.935 15.638 21.0811 15.434C21.2271 15.2299 21.3467 15.0458 21.3467 15.0247C21.3467 14.9767 21.3323 14.9784 20.8486 15.0841ZM26.4252 15.3972C26.5904 15.6241 26.7256 15.8695 26.7256 15.9424C26.7256 16.0153 26.5876 16.3421 26.4189 16.6687L26.1123 17.2624L26.3193 17.4559C26.6335 17.7495 26.6474 17.6611 25.9925 19.5387C25.7017 20.3723 25.4639 21.0785 25.4639 21.1082C25.4639 21.1379 25.8374 21.1622 26.2939 21.1622H27.124V19.7161C27.124 18.1176 27.1559 17.9747 27.513 17.9747C27.8449 17.9747 27.8545 18.0216 27.8545 19.6482V21.1622H28.4247H28.9948L28.9725 19.087C28.9502 17.0122 28.9502 17.0118 28.7775 16.6435C28.3738 15.7829 27.5061 15.1906 26.4086 15.0267L26.1249 14.9844L26.4252 15.3972ZM13.0217 15.4651C12.6585 15.5633 12.2149 16.01 12.1169 16.3762C11.9024 17.1782 12.3426 18.061 13.6009 19.3526C14.0486 19.8122 14.2421 19.9669 14.3696 19.9669C14.6754 19.9669 16.0506 18.407 16.4047 17.6588C16.7312 16.9685 16.688 16.3352 16.2829 15.8738C15.8263 15.3537 15.0866 15.2605 14.5521 15.6556C14.3955 15.7714 14.3307 15.7867 14.2474 15.7275C13.8482 15.4434 13.4316 15.3543 13.0217 15.4651ZM21.7445 15.7512L21.5863 16.007L21.9438 16.6847C22.293 17.3468 22.2987 17.3664 22.1902 17.5319C22.1291 17.6252 22.0078 17.7552 21.9205 17.8211L21.7619 17.9406L22.3096 19.5349L22.8572 21.129L23.0649 21.1498C23.179 21.1613 23.2725 21.1397 23.2725 21.102C23.2725 20.9917 22.0173 15.763 21.9572 15.6227C21.9085 15.5093 21.8852 15.5234 21.7445 15.7512ZM25.5685 15.5903C25.509 15.7636 24.2686 21.007 24.2686 21.085C24.2686 21.1275 24.3542 21.1622 24.4587 21.1622C24.6797 21.1622 24.6307 21.2705 25.3165 19.2696L25.7717 17.9415L25.5182 17.718C25.3787 17.5951 25.2646 17.4483 25.2646 17.3919C25.2646 17.3356 25.4141 17.0122 25.5967 16.6735C25.7793 16.3347 25.9287 16.0315 25.9287 15.9997C25.9287 15.9679 25.8549 15.8418 25.7646 15.7194C25.6511 15.5656 25.5906 15.5258 25.5685 15.5903ZM13.1439 16.2065C12.9394 16.2972 12.7803 16.549 12.7803 16.7818C12.7803 17.1992 13.2059 17.8981 13.9481 18.6999L14.3267 19.1088L14.4923 18.9568C14.8794 18.6014 15.517 17.793 15.7019 17.4231C16.0158 16.7949 15.9581 16.387 15.5302 16.2082C15.2035 16.0717 15.0075 16.1493 14.7407 16.5207C14.4674 16.901 14.2535 16.9496 14.0617 16.675C13.696 16.1514 13.4972 16.0499 13.1439 16.2065ZM22.9554 16.5968C22.9715 16.6425 23.1605 17.4223 23.3755 18.3297C23.5904 19.2372 23.774 19.9544 23.7833 19.9235C23.8609 19.6682 24.5844 16.5425 24.5694 16.5273C24.5588 16.5164 24.4279 16.7008 24.2787 16.9371C23.8633 17.5949 23.6521 17.5898 23.2337 16.9119C23.0024 16.5372 22.8894 16.4093 22.9554 16.5968ZM4.47949 19.9669C4.34927 20.0971 4.34668 20.1882 4.34668 24.605C4.34668 28.8854 4.35272 29.1159 4.46814 29.2203C4.56994 29.3124 4.75289 29.3302 5.59917 29.3302C6.73677 29.3302 6.99928 29.2648 7.18707 28.9349C7.29472 28.7457 7.32626 28.7333 7.7002 28.7326C8.48618 28.731 8.81702 28.527 8.96245 27.9542L9.043 27.6368L9.69969 27.4892C10.4759 27.3148 11.2655 27.2967 11.8186 27.4407C12.0356 27.4972 13.6929 28.1446 15.5015 28.8795C17.3102 29.6143 18.9693 30.2723 19.1885 30.3417C19.7851 30.5307 20.6087 30.5657 21.2826 30.4307C21.899 30.3072 22.1078 30.2122 27.6468 27.5327C30.9766 25.9219 31.1337 25.8239 31.3354 25.232C31.4817 24.8026 31.4656 24.4398 31.2828 24.0472C30.9846 23.4069 30.3252 23.0254 29.6625 23.1098C29.4899 23.1318 27.8997 23.5554 26.1287 24.0511C23.7668 24.7122 22.9016 24.9296 22.8815 24.8668C22.8665 24.8198 22.7316 24.6602 22.5819 24.5123C22.3384 24.2717 21.9685 24.1047 19.0889 22.9365C15.4497 21.46 15.133 21.3445 14.208 21.1556C13.175 20.9445 12.1725 20.9263 10.5164 21.0883C9.72778 21.1655 9.06325 21.2286 9.03974 21.2286C9.01617 21.2286 8.95348 21.1247 8.90042 20.9977C8.75001 20.6378 8.45882 20.4987 7.85505 20.4984C7.34784 20.4982 7.34525 20.4972 7.20653 20.2728C6.97298 19.895 6.75218 19.8341 5.61497 19.8341C4.70082 19.8341 4.60055 19.8458 4.47949 19.9669ZM5.07715 24.5821V28.6041L5.82422 28.5853L6.57129 28.5665V24.5821V20.5978L5.82422 20.579L5.07715 20.5602V24.5821ZM7.33496 24.6123V28.0021L7.7168 28.0011C7.92677 28.0005 8.13629 27.9762 8.18224 27.9469C8.24805 27.9052 8.26226 27.1866 8.24864 24.5778L8.23145 21.2618L7.7832 21.2422L7.33496 21.2226V24.6123ZM10.3564 21.8301C9.73555 21.8957 9.17528 21.9517 9.11133 21.9542C9.00282 21.9588 8.99512 22.1222 8.99512 24.4161C8.99512 26.3384 9.01318 26.8728 9.07812 26.8714C9.12381 26.8705 9.41514 26.8115 9.72559 26.7403C10.4076 26.584 11.3216 26.5709 11.9077 26.7091C12.1399 26.7638 13.9064 27.4491 15.8332 28.2319C18.2007 29.1938 19.4828 29.6807 19.7881 29.7339C20.3537 29.8323 21.0608 29.7819 21.5791 29.6062C21.9271 29.4882 29.7698 25.7279 30.2668 25.4408C30.6657 25.2103 30.8189 24.6865 30.6071 24.2771C30.4797 24.0306 30.1439 23.819 29.8799 23.8188C29.725 23.8187 25.9647 24.8347 23.3555 25.5817C23.1233 25.6482 23.0068 25.7168 23.0068 25.7869C23.0068 25.9916 22.6536 26.5377 22.4168 26.6992C22.1115 26.9075 21.6613 27.0265 21.3909 26.9706C20.9636 26.8822 16.0096 25.3417 15.9238 25.2705C15.8134 25.1788 15.8077 24.8683 15.9146 24.7614C15.9585 24.7176 16.0665 24.6817 16.1545 24.6817C16.2426 24.6817 17.4926 25.0424 18.9322 25.4831C21.3389 26.22 21.5681 26.2785 21.7792 26.2088C22.1015 26.1024 22.2764 25.8554 22.2764 25.5066C22.2764 25.0665 22.1188 24.9454 20.915 24.4607C20.3307 24.2253 18.8216 23.6139 17.5615 23.1019C16.3015 22.5899 15.0453 22.1086 14.77 22.0323C13.4937 21.6788 12.3033 21.6242 10.3564 21.8301Z" fill="#619E90"/>
</svg>
