<svg width="30" height="30" viewBox="0 0 30 30" fill="none" xmlns="http://www.w3.org/2000/svg">
<path fill-rule="evenodd" clip-rule="evenodd" d="M7.11166 1.353C6.21602 1.67309 5.83325 2.2959 5.83325 3.4332V3.99128L4.41207 4.01001L2.9909 4.02875L2.55817 4.24273C2.03699 4.50043 1.71209 4.83238 1.45989 5.36479L1.27856 5.7475V15.4614V25.1753L1.49467 25.6126C1.82295 26.2768 2.36716 26.7027 3.08325 26.8559C3.31723 26.9059 5.0974 26.9188 9.99916 26.9057C16.2143 26.8892 16.6059 26.8822 16.701 26.7871C16.8554 26.6327 16.8366 26.2451 16.668 26.1086C16.5384 26.0035 16.3248 26.0001 9.94421 26.0001C4.93773 26.0001 3.29769 25.9834 3.11854 25.9304C2.80384 25.8374 2.32924 25.3628 2.23625 25.0481C2.1832 24.8685 2.16659 23.0983 2.16659 17.6145V10.4168H14.9999H27.8332V14.3922C27.8332 18.2075 27.8376 18.373 27.9417 18.5015C28.0782 18.6701 28.4658 18.6889 28.6203 18.5345C28.7153 18.4395 28.7223 18.0683 28.7389 12.291C28.7517 7.78714 28.7387 6.06449 28.6899 5.83343C28.5373 5.11036 28.0772 4.5379 27.3852 4.21007L27.0025 4.02875L25.5905 4.01007L24.1784 3.99139L24.1568 3.32257C24.1383 2.75068 24.1137 2.60734 23.9865 2.33372C23.4674 1.21676 22.0467 0.921476 21.089 1.73147C20.9876 1.81723 20.8201 2.05923 20.7166 2.26932C20.5422 2.62355 20.5271 2.70004 20.5082 3.32566L20.4878 4.0001H18.6666H16.8453L16.8236 3.32692C16.805 2.75046 16.7805 2.6078 16.6532 2.33372C16.1341 1.21676 14.7133 0.921476 13.7557 1.73147C13.6543 1.81723 13.4867 2.05923 13.3833 2.26932C13.2089 2.62355 13.1937 2.70004 13.1749 3.32566L13.1545 4.0001H11.3333H9.51201L9.49029 3.32692C9.47167 2.75046 9.44721 2.6078 9.31985 2.33372C8.93055 1.49605 7.94107 1.05663 7.11166 1.353ZM7.29132 2.24417C7.05975 2.3493 6.81993 2.64154 6.77765 2.87025C6.75891 2.97177 6.75141 3.75552 6.76103 4.61192C6.77759 6.08048 6.78527 6.17804 6.8967 6.32712C7.12128 6.62773 7.30433 6.72146 7.66658 6.72146C8.0289 6.72146 8.212 6.62761 8.43647 6.327C8.54962 6.17547 8.55461 6.09652 8.55461 4.45843C8.55461 2.82035 8.54962 2.7414 8.43647 2.58987C8.3715 2.50284 8.25096 2.38132 8.16863 2.31985C7.979 2.17828 7.52324 2.13898 7.29132 2.24417ZM14.6247 2.24417C14.3931 2.3493 14.1533 2.64154 14.111 2.87025C14.0922 2.97177 14.0847 3.75552 14.0944 4.61192C14.1109 6.08048 14.1186 6.17804 14.23 6.32712C14.4546 6.62773 14.6377 6.72146 14.9999 6.72146C15.3622 6.72146 15.5453 6.62761 15.7698 6.327C15.883 6.17547 15.8879 6.09652 15.8879 4.45843C15.8879 2.82035 15.883 2.7414 15.7698 2.58987C15.7048 2.50284 15.5843 2.38132 15.502 2.31985C15.3123 2.17828 14.8566 2.13898 14.6247 2.24417ZM21.958 2.24417C21.7264 2.3493 21.4866 2.64154 21.4443 2.87025C21.4256 2.97177 21.4181 3.75552 21.4277 4.61192C21.4443 6.08048 21.4519 6.17804 21.5634 6.32712C21.7879 6.62773 21.971 6.72146 22.3333 6.72146C22.6956 6.72146 22.8787 6.62761 23.1031 6.327C23.2163 6.17547 23.2213 6.09652 23.2213 4.45843C23.2213 2.82035 23.2163 2.7414 23.1031 2.58987C23.0382 2.50284 22.9176 2.38132 22.8353 2.31985C22.6457 2.17828 22.1899 2.13898 21.958 2.24417ZM3.09316 4.98947C2.98826 5.02304 2.77789 5.16249 2.62566 5.29942C2.18394 5.69651 2.16659 5.79081 2.16659 7.79155V9.5001H14.9999H27.8332V7.80232C27.8332 6.65637 27.8111 6.03063 27.7651 5.8772C27.7277 5.75219 27.5856 5.52595 27.4493 5.37441C27.0711 4.95366 26.9076 4.91677 25.4228 4.91677H24.1787L24.157 5.58994C24.1383 6.16641 24.1139 6.30907 23.9865 6.58315C23.674 7.25553 23.0752 7.63738 22.3333 7.63738C21.5913 7.63738 20.9925 7.25553 20.68 6.58315C20.5526 6.30907 20.5282 6.16641 20.5095 5.58994L20.4878 4.91677H18.6666H16.8453L16.8236 5.58994C16.805 6.16641 16.7805 6.30907 16.6532 6.58315C16.3407 7.25553 15.7418 7.63738 14.9999 7.63738C14.258 7.63738 13.6591 7.25553 13.3467 6.58315C13.2193 6.30907 13.1948 6.16641 13.1762 5.58994L13.1545 4.91677H11.3333H9.51201L9.49029 5.58994C9.47167 6.16641 9.44721 6.30907 9.31985 6.58315C9.00738 7.25553 8.40851 7.63738 7.66658 7.63738C6.92466 7.63738 6.32579 7.25553 6.01332 6.58315C5.88596 6.30907 5.8615 6.16641 5.84288 5.58994L5.82116 4.91677L4.5525 4.92261C3.83039 4.92593 3.20162 4.95475 3.09316 4.98947ZM5.44252 12.8048C5.33785 12.8564 5.18316 12.9891 5.09877 13.0998C4.94563 13.3005 4.94523 13.3038 4.94523 14.3126C4.94523 15.3227 4.94546 15.3244 5.09957 15.5264C5.37177 15.8833 5.51322 15.9168 6.74992 15.9168C7.98662 15.9168 8.12807 15.8833 8.40026 15.5264C8.55438 15.3244 8.55461 15.3227 8.55461 14.3126C8.55461 13.3025 8.55438 13.3008 8.40026 13.0988C8.12744 12.741 7.98776 12.7083 6.74127 12.7098C5.83251 12.7108 5.59847 12.7279 5.44252 12.8048ZM10.9425 12.8048C10.8378 12.8564 10.6832 12.9891 10.5988 13.0998C10.4456 13.3005 10.4452 13.3038 10.4452 14.3126C10.4452 15.3227 10.4455 15.3244 10.5996 15.5264C10.8718 15.8833 11.0132 15.9168 12.2499 15.9168C13.4866 15.9168 13.6281 15.8833 13.9003 15.5264C14.0544 15.3244 14.0546 15.3227 14.0546 14.3126C14.0546 13.3025 14.0544 13.3008 13.9003 13.0988C13.6274 12.741 13.4878 12.7083 12.2413 12.7098C11.3325 12.7108 11.0985 12.7279 10.9425 12.8048ZM16.4425 12.8048C16.3378 12.8564 16.1832 12.9891 16.0988 13.0998C15.9456 13.3005 15.9452 13.3038 15.9452 14.3126C15.9452 15.3227 15.9455 15.3244 16.0996 15.5264C16.3718 15.8833 16.5132 15.9168 17.7499 15.9168C18.9866 15.9168 19.1281 15.8833 19.4003 15.5264C19.5544 15.3244 19.5546 15.3227 19.5546 14.3126C19.5546 13.3025 19.5544 13.3008 19.4003 13.0988C19.1274 12.741 18.9878 12.7083 17.7413 12.7098C16.8325 12.7108 16.5985 12.7279 16.4425 12.8048ZM21.9425 12.8048C21.8378 12.8564 21.6832 12.9891 21.5988 13.0998C21.4456 13.3005 21.4452 13.3038 21.4452 14.3126C21.4452 15.3227 21.4455 15.3244 21.5996 15.5264C21.8718 15.8833 22.0132 15.9168 23.2499 15.9168C24.4866 15.9168 24.6281 15.8833 24.9003 15.5264C25.0544 15.3244 25.0546 15.3227 25.0546 14.3126C25.0546 13.3025 25.0544 13.3008 24.9003 13.0988C24.6274 12.741 24.4878 12.7083 23.2413 12.7098C22.3325 12.7108 22.0985 12.7279 21.9425 12.8048ZM5.83325 14.3126V15.0001H6.74992H7.66658V14.3126V13.6251H6.74992H5.83325V14.3126ZM11.3333 14.3126V15.0001H12.2499H13.1666V14.3126V13.6251H12.2499H11.3333V14.3126ZM16.8333 14.3126V15.0001H17.7499H18.6666V14.3126V13.6251H17.7499H16.8333V14.3126ZM22.3333 14.3126V15.0001H23.2499H24.1666V14.3126V13.6251H23.2499H22.3333V14.3126ZM5.44252 16.9298C5.33785 16.9814 5.18316 17.1141 5.09877 17.2248C4.94563 17.4255 4.94523 17.4288 4.94523 18.4376C4.94523 19.4477 4.94546 19.4494 5.09957 19.6514C5.37177 20.0083 5.51322 20.0418 6.74992 20.0418C7.98662 20.0418 8.12807 20.0083 8.40026 19.6514C8.55438 19.4494 8.55461 19.4477 8.55461 18.4376C8.55461 17.4275 8.55438 17.4258 8.40026 17.2238C8.12744 16.866 7.98776 16.8333 6.74127 16.8348C5.83251 16.8358 5.59847 16.8529 5.44252 16.9298ZM10.9425 16.9298C10.8378 16.9814 10.6832 17.1141 10.5988 17.2248C10.4456 17.4255 10.4452 17.4288 10.4452 18.4376C10.4452 19.4477 10.4455 19.4494 10.5996 19.6514C10.8718 20.0083 11.0132 20.0418 12.2499 20.0418C13.4866 20.0418 13.6281 20.0083 13.9003 19.6514C14.0544 19.4494 14.0546 19.4477 14.0546 18.4376C14.0546 17.4275 14.0544 17.4258 13.9003 17.2238C13.6274 16.866 13.4878 16.8333 12.2413 16.8348C11.3325 16.8358 11.0985 16.8529 10.9425 16.9298ZM16.4425 16.9298C16.3378 16.9814 16.1832 17.114 16.0988 17.2246C15.9489 17.4208 15.9448 17.448 15.9271 18.3589C15.9118 19.146 15.9243 19.3245 16.0068 19.4984C16.2787 20.0715 17.1084 20.2233 17.2508 19.7259C17.32 19.4842 17.2146 19.2439 17.0046 19.1646L16.8333 19.1V18.4287V17.7573L17.8626 17.7394C19.0398 17.7189 19.0937 17.699 19.0937 17.2849C19.0937 17.1082 19.0606 17.0236 18.9597 16.9419C18.8386 16.8438 18.721 16.8335 17.7292 16.8348C16.8316 16.8358 16.5982 16.853 16.4425 16.9298ZM21.9609 16.8929C20.6264 17.1009 19.4549 17.7069 18.5274 18.6691C17.77 19.4548 17.306 20.2762 17.0239 21.3308C16.8885 21.8369 16.8707 22.0074 16.8719 22.7918C16.8731 23.5677 16.8925 23.7519 17.0252 24.2514C17.2075 24.9379 17.6348 25.8341 18.0229 26.3438C18.3762 26.8081 19.0484 27.4487 19.4864 27.7384C19.987 28.0697 20.7257 28.3967 21.3475 28.5624C21.8319 28.6914 22.018 28.7106 22.7916 28.7106C23.5707 28.7106 23.7498 28.6919 24.2525 28.5584C24.8573 28.3978 25.549 28.0934 26.0775 27.7553C26.4926 27.4898 27.2037 26.8126 27.5597 26.3438C27.9534 25.8254 28.3808 24.9315 28.5595 24.2527C28.6913 23.7521 28.7104 23.5676 28.7104 22.7918C28.7104 22.0127 28.6917 21.8335 28.5582 21.3308C28.29 20.3211 27.82 19.4729 27.1171 18.7302C26.0035 17.5536 24.5931 16.9148 22.9921 16.862C22.614 16.8495 22.1499 16.8635 21.9609 16.8929ZM5.83325 18.4376V19.1251H6.74992H7.66658V18.4376V17.7501H6.74992H5.83325V18.4376ZM11.3333 18.4376V19.1251H12.2499H13.1666V18.4376V17.7501H12.2499H11.3333V18.4376ZM21.7603 17.862C20.46 18.1393 19.347 18.8908 18.6144 19.986C17.2749 21.9887 17.5211 24.6104 19.2095 26.3221C21.1818 28.3215 24.3598 28.3322 26.3458 26.346C27.5277 25.1642 28.0342 23.5583 27.7462 21.9065C27.3896 19.8617 25.773 18.2308 23.7163 17.8409C23.0977 17.7236 22.3724 17.7315 21.7603 17.862ZM25.5702 20.795C25.5072 20.8292 24.6505 21.6592 23.6664 22.6395L21.877 24.4218L21.031 23.5827C20.1339 22.6931 19.9765 22.594 19.7234 22.7599C19.5103 22.8995 19.4372 23.0931 19.5211 23.2956C19.5588 23.3866 20.0603 23.9292 20.6355 24.5013C21.5811 25.442 21.7002 25.5418 21.8765 25.5418C22.0564 25.5418 22.2273 25.3866 24.0685 23.5509C25.1667 22.4559 26.1022 21.4904 26.1472 21.4053C26.2658 21.1811 26.2496 21.0847 26.0616 20.8967C25.8844 20.7195 25.7575 20.6933 25.5702 20.795ZM5.44252 21.0548C5.33785 21.1064 5.18316 21.2391 5.09877 21.3498C4.94563 21.5505 4.94523 21.5538 4.94523 22.5626C4.94523 23.5727 4.94546 23.5744 5.09957 23.7764C5.37177 24.1333 5.51322 24.1668 6.74992 24.1668C7.98662 24.1668 8.12807 24.1333 8.40026 23.7764C8.55438 23.5744 8.55461 23.5727 8.55461 22.5626C8.55461 21.5525 8.55438 21.5508 8.40026 21.3488C8.12744 20.991 7.98776 20.9583 6.74127 20.9598C5.83251 20.9608 5.59847 20.9779 5.44252 21.0548ZM10.9425 21.0548C10.8378 21.1064 10.6832 21.2391 10.5988 21.3498C10.4456 21.5505 10.4452 21.5538 10.4452 22.5626C10.4452 23.5727 10.4455 23.5744 10.5996 23.7764C10.8718 24.1333 11.0132 24.1668 12.2499 24.1668C13.4866 24.1668 13.6281 24.1333 13.9003 23.7764C14.0544 23.5744 14.0546 23.5727 14.0546 22.5626C14.0546 21.5525 14.0544 21.5508 13.9003 21.3488C13.6274 20.991 13.4878 20.9583 12.2413 20.9598C11.3325 20.9608 11.0985 20.9779 10.9425 21.0548ZM5.83325 22.5626V23.2501H6.74992H7.66658V22.5626V21.8751H6.74992H5.83325V22.5626ZM11.3333 22.5626V23.2501H12.2499H13.1666V22.5626V21.8751H12.2499H11.3333V22.5626Z" fill="#619E90"/>
</svg>
