<svg width="34" height="34" viewBox="0 0 34 34" fill="none" xmlns="http://www.w3.org/2000/svg">
<path fill-rule="evenodd" clip-rule="evenodd" d="M19.6562 1.52757C19.5354 1.64843 19.5234 1.7489 19.5234 2.64167C19.5234 3.7399 19.5781 3.9182 19.9154 3.9182C20.2777 3.9182 20.3203 3.78366 20.3203 2.63842C20.3203 1.64219 20.3145 1.59743 20.1727 1.49815C19.9741 1.35903 19.8158 1.368 19.6562 1.52757ZM14.2485 3.74076C14.182 3.78937 14.1279 3.91182 14.1279 4.01356C14.1279 4.28104 15.4859 5.64476 15.7522 5.64476C15.9747 5.64476 16.1692 5.38498 16.1133 5.16232C16.0924 5.07905 15.7648 4.70524 15.3852 4.33171C14.6719 3.62986 14.5131 3.54725 14.2485 3.74076ZM24.4585 4.33171C24.079 4.70524 23.7513 5.07905 23.7304 5.16232C23.6741 5.38631 23.8689 5.64476 24.094 5.64476C24.2417 5.64476 24.4294 5.49216 25.028 4.88534C25.6693 4.23542 25.7707 4.1038 25.7315 3.97225C25.672 3.77217 25.5149 3.65257 25.3117 3.65257C25.1943 3.65257 24.9557 3.84249 24.4585 4.33171ZM18.8711 4.97857C17.3621 5.38637 16.2824 6.38101 15.7499 7.8539L15.5762 8.33421L15.5537 11.0315L15.531 13.7288L15.2031 13.7676C14.5499 13.845 13.9779 14.2391 13.6625 14.8291C13.524 15.0883 13.5122 15.2063 13.4923 16.5249C13.4732 17.7929 13.483 17.9554 13.5856 18.0688C13.6969 18.1918 13.8836 18.1955 19.8887 18.1955C25.7995 18.1955 26.082 18.1901 26.187 18.0741C26.2815 17.9697 26.2969 17.7681 26.2969 16.6375C26.2969 15.8521 26.2666 15.2214 26.2218 15.0719C26.0332 14.4425 25.3146 13.8475 24.6475 13.7684L24.3115 13.7287L24.2899 11.0314C24.2693 8.46158 24.2614 8.31376 24.1226 7.90158C23.6819 6.59251 22.5792 5.48897 21.2975 5.074C20.5468 4.83102 19.5606 4.79224 18.8711 4.97857ZM19.1391 5.74112C17.9123 6.03808 16.9684 6.88051 16.52 8.07848C16.3809 8.44983 16.3735 8.5839 16.3511 11.1067L16.3276 13.7463H19.9177H23.5078V11.2925C23.5078 9.77961 23.48 8.7039 23.4354 8.48688C23.0446 6.58886 21.0095 5.28822 19.1391 5.74112ZM19.3832 6.66483C18.2406 7.0031 17.6012 7.69824 17.3996 8.8213C17.3043 9.35249 17.4057 9.56273 17.7571 9.56273C18.0473 9.56273 18.1041 9.48357 18.1972 8.94874C18.3541 8.04767 18.94 7.5301 20.0235 7.33546C20.1684 7.30943 20.3394 7.24243 20.4033 7.18658C20.5547 7.05437 20.552 6.7572 20.3981 6.61794C20.2376 6.47271 19.9941 6.48394 19.3832 6.66483ZM5.45028 7.76677C4.94479 7.89427 3.48811 8.73816 2.81601 9.29279C1.99908 9.96694 1.56923 10.6441 1.27459 11.7209C1.12438 12.2698 1.13029 14.0629 1.28535 14.9748C1.93892 18.8197 4.37496 23.8998 7.3576 27.6379C8.27201 28.784 9.80467 30.3165 10.7107 30.991C11.989 31.9423 13.2919 32.5087 14.3795 32.5856C15.4025 32.6581 16.5393 32.3195 17.9146 31.5328C19.2528 30.7674 19.6594 30.2295 19.7094 29.158C19.7306 28.7055 19.7093 28.5179 19.606 28.2475C19.3831 27.6641 17.5939 24.6964 17.2813 24.3918C16.7271 23.8516 15.8796 23.5816 15.1239 23.7045C14.7258 23.7694 14.4529 23.8817 13.7531 24.2691C13.2639 24.5398 12.8986 24.574 12.5788 24.379C12.4229 24.2839 11.9104 23.4673 10.4222 20.9427C7.79867 16.4919 7.90233 16.6788 7.90233 16.3974C7.90233 16.0367 8.13495 15.7573 8.6992 15.4401C9.95103 14.7364 10.4918 13.7878 10.2872 12.6542C10.2004 12.173 10.1693 12.1113 9.08602 10.2721C8.12439 8.63928 7.81945 8.26787 7.18215 7.95331C6.83133 7.78012 6.66996 7.74227 6.21926 7.72733C5.92143 7.71743 5.57539 7.73523 5.45028 7.76677ZM5.5117 8.6003C5.34735 8.65469 5.14986 8.75158 5.07289 8.81553C4.93324 8.93154 4.93756 8.93951 6.64798 11.7541C7.59128 13.3064 8.37288 14.603 8.38484 14.6356C8.41685 14.7224 8.91416 14.3902 9.12221 14.1429C9.22096 14.0256 9.34547 13.8249 9.39893 13.697C9.52205 13.4023 9.5243 12.7471 9.40318 12.4572C9.22979 12.0422 7.55848 9.2651 7.34804 9.04224C6.90391 8.57208 6.14741 8.39 5.5117 8.6003ZM3.78514 9.55768C3.58426 9.69733 3.19207 10.0502 2.91356 10.3418C2.38981 10.8903 2.22088 11.207 2.04005 11.9802C1.92696 12.4635 1.9512 14.0528 2.08362 14.842C3.05687 20.6412 8.00161 28.59 12.1366 31.0025C12.9749 31.4915 13.9826 31.8088 14.6977 31.8088C15.3683 31.8088 17.27 31.1508 17.2635 30.921C17.2624 30.8797 16.4895 29.5759 15.5462 28.0237C14.4087 26.1521 13.7999 25.21 13.7387 25.2269C13.688 25.2409 13.4223 25.2662 13.1484 25.283C12.6973 25.3108 12.6166 25.2958 12.2923 25.1247C12.0954 25.0208 11.8508 24.8312 11.7488 24.7034C11.4958 24.3862 7.27984 17.2151 7.18295 16.9371C6.99828 16.4074 7.15951 15.6692 7.54892 15.2618L7.71885 15.0839L5.97336 12.1906C5.01326 10.5991 4.21041 9.29863 4.18909 9.30049C4.16778 9.30235 3.98602 9.4181 3.78514 9.55768ZM15.0479 14.6121C14.799 14.6866 14.4846 14.9841 14.3688 15.2549C14.3052 15.4037 14.2773 15.762 14.2773 16.4337V17.3987H19.8887H25.5L25.4989 16.386C25.4979 15.462 25.4848 15.35 25.3492 15.1077C25.2513 14.9326 25.0996 14.7911 24.9046 14.6926L24.6085 14.5432L19.9244 14.5489C17.3481 14.552 15.1537 14.5805 15.0479 14.6121ZM30.9752 17.617C30.8286 17.7431 30.7829 17.8667 30.7066 18.3432C30.598 19.0216 30.4289 19.4783 30.1065 19.964C29.8311 20.379 29.3051 20.8703 28.9234 21.069C28.2254 21.4325 25.6857 22.6532 25.6681 22.6336C25.6571 22.6215 25.5094 22.3341 25.3398 21.995C25.01 21.3356 24.834 21.1755 24.5849 21.3088C24.3782 21.4194 20.6298 26.9563 20.6 27.1949C20.5475 27.6158 20.4769 27.6034 24.3103 27.8481C26.7888 28.0063 27.8345 28.0507 27.942 28.0023C28.2349 27.8707 28.2055 27.6624 27.771 26.7902L27.3659 25.9769L27.6116 25.8777C28.4822 25.5266 30.8968 24.2651 31.2584 23.9725C31.9966 23.3752 32.59 22.3754 32.7725 21.4215C32.8968 20.7719 32.8967 20.4002 32.7719 19.7453C32.6524 19.1187 32.069 17.8604 31.7883 17.6242C31.5426 17.4175 31.2107 17.4145 30.9752 17.617ZM31.355 19.1666C31.1569 19.8435 30.8331 20.4182 30.3649 20.9239C29.877 21.451 29.4306 21.7483 28.3459 22.269C27.8581 22.5033 27.0476 22.8928 26.5448 23.1346C26.0419 23.3766 25.561 23.5744 25.4759 23.5744C25.2802 23.5744 25.1688 23.4467 24.9047 22.9188C24.7882 22.686 24.6684 22.5216 24.6385 22.5536C24.5233 22.6763 21.7061 26.8416 21.7264 26.859C21.7383 26.8691 22.779 26.9415 24.039 27.0198C25.2991 27.0982 26.5037 27.1799 26.716 27.2015L27.102 27.2408L26.7658 26.571C26.3996 25.8411 26.3706 25.7064 26.5459 25.5499C26.6098 25.4929 27.4241 25.0797 28.3555 24.6318C30.2935 23.6998 30.6347 23.4993 31.0888 23.0255C31.6305 22.4606 32.0719 21.3653 32.0719 20.5862C32.0719 20.2051 31.8906 19.4656 31.693 19.041L31.5082 18.6435L31.355 19.1666ZM14.7888 24.6204C14.6088 24.6942 14.5479 24.7532 14.576 24.8263C14.5975 24.8827 15.3793 26.1922 16.3131 27.7363C18.1836 30.8291 18.0225 30.6433 18.4569 30.2089C18.5708 30.0949 18.7119 29.9091 18.7704 29.796C18.909 29.528 18.9638 28.826 18.8677 28.5502C18.7371 28.1756 16.9773 25.2246 16.7411 24.9842C16.4031 24.6401 16.0526 24.5062 15.5058 24.512C15.2491 24.5148 14.9281 24.5633 14.7888 24.6204Z" fill="#619E90"/>
</svg>
