<svg width="34" height="34" viewBox="0 0 34 34" fill="none" xmlns="http://www.w3.org/2000/svg">
<path fill-rule="evenodd" clip-rule="evenodd" d="M14.8906 2.0564C14.564 2.13536 14.1676 2.42522 13.9625 2.735L13.7793 3.01165L13.7589 4.92289L13.7386 6.83413L11.2023 6.85372C8.97736 6.87085 8.64101 6.88692 8.46271 6.98467C8.15439 7.15368 7.84069 7.50523 7.76425 7.7674C7.72016 7.91854 7.70303 9.1278 7.71604 11.1622L7.7363 14.3222L7.92642 14.5965C8.04515 14.7678 8.24324 14.934 8.45408 15.039C8.74633 15.1846 8.87908 15.2072 9.44267 15.2072H10.0937V16.1734C10.0937 17.3984 10.1759 17.5981 10.6802 17.5977C10.8102 17.5976 11.2558 17.2789 12.3515 16.4025L13.8457 15.2076L15.539 15.207C16.574 15.2067 17.3356 15.1778 17.4978 15.1328C17.8443 15.0366 18.2903 14.5906 18.3865 14.2441C18.427 14.0982 18.4603 13.4782 18.4605 12.8664L18.4609 11.7541H18.8098H19.1587L20.9031 13.1506C21.9535 13.9915 22.7251 14.5626 22.8426 14.5861C23.0003 14.6177 23.0762 14.5865 23.2395 14.4232L23.4414 14.2214V12.9966V11.7717L24.2937 11.741C25.0018 11.7154 25.1984 11.6848 25.4559 11.5601C25.8198 11.384 26.1149 11.0511 26.2211 10.6968C26.3392 10.3023 26.3267 3.25463 26.2073 2.96975C26.0749 2.65379 25.7848 2.33776 25.475 2.17208L25.2011 2.02559L20.1543 2.01476C17.3785 2.00885 15.0098 2.02758 14.8906 2.0564ZM14.9414 3.2541C14.8119 3.38353 14.8086 3.47543 14.8086 6.87324C14.8086 10.2711 14.8119 10.363 14.9414 10.4924C15.0687 10.6198 15.1627 10.6252 17.2368 10.6252C18.7466 10.6252 19.4427 10.6484 19.5428 10.702C19.6218 10.7443 20.2763 11.2523 20.9973 11.8309C21.7183 12.4095 22.3242 12.883 22.3435 12.883C22.363 12.883 22.3789 12.4484 22.3789 11.9171C22.3789 10.9801 22.3837 10.9463 22.5419 10.7882C22.7022 10.6279 22.7235 10.6252 23.8368 10.6252C24.8802 10.6252 24.9791 10.6148 25.1015 10.4924C25.231 10.363 25.2343 10.2711 25.2343 6.87324C25.2343 3.47543 25.231 3.38353 25.1015 3.2541C24.9711 3.12368 24.8802 3.12129 20.0215 3.12129C15.1627 3.12129 15.0718 3.12368 14.9414 3.2541ZM8.84528 8.04863C8.73066 8.16325 8.73066 13.884 8.84528 13.9986C8.89887 14.0522 9.20022 14.0783 9.76507 14.0783C11.105 14.0783 11.2226 14.1718 11.2226 15.2371C11.2226 15.5859 11.2388 15.8713 11.2586 15.8713C11.2784 15.8713 11.749 15.5079 12.3045 15.0637C12.8599 14.6196 13.3563 14.2236 13.4075 14.1838C13.4672 14.1374 14.181 14.0996 15.3996 14.0783L17.2988 14.0451L17.3169 12.9069L17.3351 11.7687L16.1216 11.7435C15.0161 11.7206 14.8801 11.7047 14.5927 11.5642C14.223 11.3837 13.9283 11.0521 13.8218 10.6968C13.7768 10.5464 13.7461 9.94148 13.7461 9.20636V7.96895H11.3355C9.54919 7.96895 8.90431 7.9896 8.84528 8.04863ZM8.52899 18.9276C7.28121 19.1753 6.20191 20.1262 5.77379 21.3551C5.33153 22.6245 5.68912 24.1397 6.66025 25.1108C6.8776 25.3281 7.04428 25.5137 7.0306 25.5232C7.01698 25.5327 6.87135 25.5976 6.707 25.6674C5.28318 26.272 3.93925 27.6636 3.38084 29.1117C3.20752 29.5611 3.17824 29.7175 3.19929 30.0807C3.24424 30.8561 3.66128 31.4652 4.37707 31.8008L4.74801 31.9748H9.26364C13.736 31.9748 13.7822 31.9735 14.0862 31.8329C14.5095 31.6372 14.9187 31.2502 15.1255 30.8501C15.3845 30.3492 15.3725 29.6896 15.0926 29.0342C14.7766 28.2944 14.314 27.6023 13.755 27.0333C12.6494 25.9077 11.3394 25.2935 9.76169 25.1611C9.34167 25.1259 8.80378 25.0524 8.56637 24.9976C7.3945 24.7278 6.64172 23.6627 6.7232 22.39C6.78762 21.3833 7.25253 20.6507 8.08785 20.2396C8.50296 20.0352 8.57368 20.0217 9.22904 20.0217C9.84456 20.0217 9.97113 20.0423 10.2929 20.195C11.426 20.7327 12.0305 21.9872 11.727 23.1715C11.6669 23.4063 11.524 23.7499 11.4097 23.9351C11.1611 24.3374 11.1461 24.5801 11.356 24.8035C11.5787 25.0405 11.9103 25.0288 12.1469 24.7755C12.38 24.5259 12.7107 23.8409 12.8227 23.3752C12.9425 22.8773 12.9258 22.0305 12.7868 21.5487C12.2571 19.7144 10.3819 18.5599 8.52899 18.9276ZM23.8525 18.994C23.1576 19.1761 22.7476 19.4186 22.1733 19.9871C21.4123 20.7407 21.0938 21.519 21.1006 22.6089C21.1058 23.4496 21.5095 24.5481 21.9209 24.841C22.2518 25.0767 22.6362 24.9749 22.7728 24.6155C22.8473 24.4196 22.8243 24.3403 22.5667 23.9064C21.7737 22.5706 22.2831 20.8481 23.6591 20.2125C24.0311 20.0407 24.1416 20.0217 24.7695 20.0217C25.4066 20.0217 25.501 20.0385 25.8643 20.2169C27.8079 21.1711 27.7978 23.9351 25.8474 24.8531C25.5066 25.0135 25.296 25.0595 24.6853 25.1073C23.7103 25.1834 23.5108 25.2175 22.8769 25.4159C21.0934 25.9742 19.6514 27.2887 18.9078 29.0342C18.6259 29.6961 18.6166 30.2878 18.8798 30.8257C19.0904 31.2562 19.4735 31.6293 19.9137 31.8329C20.2177 31.9735 20.264 31.9748 24.7363 31.9748H29.2519L29.6274 31.7988C30.3529 31.4586 30.8141 30.7564 30.8111 29.9967C30.8069 28.9579 29.6772 27.1973 28.4603 26.3329C28.0443 26.0374 27.1694 25.5666 27.0361 25.5666C26.9109 25.5666 26.9444 25.5191 27.376 25.0864C27.8561 24.6048 28.1812 24.0019 28.324 23.3278C28.445 22.7569 28.4445 22.3985 28.322 21.8146C27.8857 19.7367 25.871 18.4653 23.8525 18.994ZM8.02231 26.3617C6.37165 26.7811 5.04691 27.9194 4.41153 29.4645C4.32441 29.6764 4.25242 29.925 4.25156 30.0169C4.2491 30.2752 4.46897 30.6237 4.71893 30.7578C4.93136 30.8717 5.20761 30.8791 9.2493 30.8791C13.9315 30.8791 13.769 30.8917 14.0722 30.5062C14.3033 30.2125 14.2592 29.8217 13.9163 29.1224C13.2778 27.8206 12.1714 26.8868 10.7246 26.4288C10.049 26.2149 8.72914 26.1822 8.02231 26.3617ZM23.7784 26.3028C22.5746 26.5391 21.3222 27.3058 20.6139 28.2404C20.4413 28.4682 20.1851 28.8979 20.0446 29.1955C19.7435 29.8329 19.7083 30.2274 19.9277 30.5062C20.2309 30.8917 20.0684 30.8791 24.7506 30.8791C28.7923 30.8791 29.0686 30.8717 29.281 30.7578C29.5306 30.624 29.7504 30.2759 29.7492 30.0169C29.7479 29.7596 29.3365 28.8757 29.0008 28.4094C28.2262 27.3329 27.1069 26.5985 25.8325 26.3304C25.3233 26.2233 24.257 26.209 23.7784 26.3028Z" fill="#619E90"/>
</svg>
