<svg width="34" height="35" viewBox="0 0 34 35" fill="none" xmlns="http://www.w3.org/2000/svg">
<path fill-rule="evenodd" clip-rule="evenodd" d="M16.2695 1.10325C15.6814 1.22955 14.8533 1.65236 14.4003 2.05757C14.0555 2.36596 13.9869 2.3985 13.5512 2.46032C11.7514 2.71559 10.5124 3.8192 10.0467 5.58202C9.74564 6.72168 10.0558 8.57003 10.7756 9.92552L11.0028 10.3534L10.8297 10.4815C10.7345 10.5519 10.5684 10.7707 10.4606 10.9678C10.2909 11.2781 10.2612 11.4108 10.2393 11.957C10.2185 12.476 10.2384 12.6527 10.3517 12.9531C10.5387 13.4492 10.823 13.7736 11.2566 13.9857C11.5786 14.1432 11.6278 14.1948 11.6888 14.4382C11.9815 15.6069 12.5228 16.6236 13.2646 17.3979C13.6272 17.7764 13.746 17.9461 13.746 18.0858C13.746 18.3626 13.5548 19.2353 13.4085 19.6265L13.2799 19.9703L11.7099 20.4449C10.8463 20.706 10.0846 20.9695 10.0172 21.0306C9.94971 21.0917 9.89446 21.2073 9.89446 21.2874C9.89446 21.4233 9.85482 21.436 9.31341 21.4746C6.62794 21.6661 4.44224 23.5357 3.77008 26.2162C3.63036 26.7732 3.62385 26.932 3.62153 29.8349C3.61914 32.8016 3.62212 32.8741 3.75421 33.0063C3.88934 33.1415 3.89665 33.1416 16.9999 33.1416C30.103 33.1416 30.1106 33.1415 30.2457 33.0063C30.3777 32.8741 30.3807 32.8015 30.3783 29.8349C30.376 26.932 30.3695 26.7732 30.2298 26.2162C29.7325 24.2331 28.4146 22.6794 26.5829 21.917C25.9835 21.6674 25.0292 21.4552 24.5006 21.454C24.1414 21.4531 24.13 21.4473 24.0496 21.2251C23.9511 20.9527 23.9313 20.9443 22.0804 20.3919C21.2426 20.1419 20.7211 19.9525 20.6671 19.8786C20.5404 19.7054 20.3245 18.9651 20.237 18.4041L20.1602 17.9118L20.4627 17.6405C21.208 16.9718 21.8743 15.8412 22.2003 14.6922C22.3569 14.1404 22.3569 14.1403 22.687 13.9874C23.0829 13.804 23.4625 13.3814 23.6038 12.9667C23.669 12.775 23.7067 12.4305 23.7063 12.0282C23.7058 11.5004 23.6791 11.3355 23.5488 11.0558C23.3942 10.7236 22.9665 10.2969 22.7882 10.2969C22.7272 10.2969 22.7125 10.2581 22.7441 10.1806C22.9224 9.74436 23.2527 8.68033 23.3524 8.22153C23.5189 7.45401 23.5178 5.78841 23.3502 5.18358C23.0945 4.26033 22.7218 3.5879 22.1233 2.96979C21.2591 2.07736 19.9549 1.39643 18.5322 1.09481C17.9808 0.977938 16.8329 0.982254 16.2695 1.10325ZM16.415 2.06415C15.7573 2.2364 15.3587 2.46663 14.8498 2.96813L14.421 3.39061H13.9978C12.5354 3.39061 11.3689 4.3104 10.9957 5.75759C10.8054 6.4957 10.8976 7.62912 11.2284 8.61937L11.3784 9.06834L11.465 8.55927C11.6199 7.64811 11.991 6.81624 12.5765 6.06798C13.0018 5.52438 13.7598 4.91955 14.0169 4.91862C14.1232 4.91822 14.3624 5.05302 14.6478 5.27409C15.2374 5.73097 15.7227 6.00197 16.3816 6.24249C17.1515 6.52346 17.6407 6.5969 18.7929 6.60454C19.8079 6.61125 19.8285 6.6143 20.2732 6.82494C20.5212 6.94241 20.8576 7.14788 21.0207 7.28155C21.3488 7.55043 21.8378 8.24398 22.0193 8.69786L22.1367 8.99138L22.224 8.73924C22.5275 7.86267 22.6233 6.25279 22.4215 5.4235C22.0219 3.78234 20.6838 2.63265 18.5403 2.08891C17.7756 1.89494 17.0912 1.88697 16.415 2.06415ZM13.6054 6.34144C12.9136 7.04515 12.5048 7.95531 12.3464 9.14371C12.3033 9.46751 12.2857 9.96144 12.3073 10.2413C12.3417 10.6881 12.33 10.7712 12.2113 10.9219C12.1367 11.0169 12.0086 11.0937 11.925 11.0937C11.3992 11.0937 11.1877 11.3817 11.192 12.092C11.1962 12.8211 11.3689 13.0703 11.976 13.2231C12.3678 13.3217 12.47 13.4451 12.5543 13.9214C12.755 15.0551 13.2386 16.036 13.9433 16.7389C14.7948 17.5883 15.7184 17.9621 16.9667 17.9629C17.7896 17.9633 18.3079 17.8507 18.96 17.5297C20.193 16.9227 21.0983 15.6027 21.3858 13.9925C21.483 13.4486 21.5899 13.296 21.9102 13.2448C22.278 13.186 22.5704 12.9876 22.6817 12.7214C22.7951 12.4497 22.807 11.7966 22.7039 11.5007C22.6144 11.244 22.4605 11.155 22.0598 11.1279C21.659 11.1009 21.5472 10.9577 21.4898 10.3974C21.3592 9.12353 20.7686 8.11349 19.924 7.7203C19.587 7.56338 19.499 7.55229 18.6955 7.56504C17.0416 7.5914 15.6327 7.17079 14.3667 6.27271L13.9579 5.98284L13.6054 6.34144ZM14.6757 18.4937C14.6757 18.7132 14.4243 19.6593 14.2623 20.0497L14.0592 20.539L14.2794 22.022L14.4997 23.5051L14.8699 23.5577C15.3519 23.6264 18.5833 23.6261 19.0662 23.5574L19.4391 23.5044L19.543 22.8274C19.6002 22.455 19.6993 21.7899 19.7632 21.3493L19.8794 20.5483L19.695 20.0876C19.5935 19.8343 19.456 19.3778 19.3894 19.0733C19.3228 18.7688 19.2585 18.5103 19.2465 18.4988C19.2344 18.4873 18.9556 18.5711 18.6269 18.6852C18.0569 18.8831 17.9817 18.8926 16.9999 18.892C16.0784 18.8914 15.915 18.8735 15.4394 18.721C15.1472 18.6273 14.8559 18.5281 14.7919 18.5006C14.728 18.4731 14.6757 18.47 14.6757 18.4937ZM12.0859 21.3285C11.5198 21.5022 11.0489 21.6461 11.0396 21.6483C11.0303 21.6505 11.2918 22.1899 11.6207 22.8469C11.9496 23.504 12.2187 24.1158 12.2187 24.2066C12.2187 24.3127 12.0752 24.5382 11.8167 24.8387C11.5691 25.1263 11.4332 25.3375 11.463 25.3882C11.7281 25.8405 14.5106 30.3347 14.5564 30.3848C14.595 30.4269 14.605 30.4147 14.5838 30.3515C14.5655 30.2968 14.2479 28.2199 13.8781 25.7363C13.5083 23.2527 13.1853 21.1739 13.1604 21.1167C13.1213 21.0268 12.9751 21.0557 12.0859 21.3285ZM20.7593 21.2097C20.6437 21.8421 19.3919 30.256 19.4068 30.3007C19.425 30.3551 22.465 25.4755 22.4949 25.344C22.504 25.3041 22.3322 25.0681 22.1131 24.8194C21.894 24.5707 21.7148 24.309 21.7148 24.2377C21.7148 24.1665 21.9822 23.5541 22.309 22.8769C22.6901 22.0873 22.8748 21.6364 22.8237 21.6199C22.7799 21.6058 22.3855 21.4862 21.9472 21.3542C21.5089 21.2222 21.071 21.0884 20.974 21.0569C20.812 21.0043 20.7946 21.0167 20.7593 21.2097ZM9.24906 22.4307C8.9997 22.4618 8.63155 22.8438 8.3468 23.367C8.12287 23.7785 7.92292 24.5403 7.86176 25.2152C7.81608 25.719 7.81707 25.7235 7.96456 25.6849C8.20382 25.6224 8.88522 25.7606 9.25085 25.9459C9.68681 26.1668 10.2906 26.7445 10.5134 27.154C10.7596 27.6062 10.9113 28.305 10.8688 28.7903C10.8402 29.1161 10.8014 29.2159 10.6542 29.3424C10.4708 29.5003 10.3908 29.5035 9.74279 29.3794C9.30178 29.2948 9.25145 28.7078 9.66821 28.509C9.92341 28.3874 9.93802 28.3116 9.78987 27.8769C9.56382 27.2135 8.80819 26.6344 8.1679 26.6338C7.69821 26.6334 7.40768 26.7456 7.05334 27.0641C6.59028 27.4805 6.41557 27.9085 6.45787 28.5227C6.4756 28.7798 6.5272 29.069 6.57249 29.1652C6.64188 29.3125 6.68259 29.3325 6.83034 29.292C7.25667 29.1749 7.63373 29.5829 7.43172 29.9427C7.30156 30.1746 6.562 30.4626 6.31749 30.3767C5.99621 30.2637 5.57872 29.4349 5.4813 28.7169C5.36051 27.8263 5.84952 26.7193 6.60284 26.1783L6.88745 25.974L6.92524 25.2243C6.96541 24.4279 7.09232 23.8343 7.34585 23.257L7.50151 22.9028L7.18721 23.0852C6.04064 23.7507 5.21886 24.7888 4.77341 26.1348C4.624 26.5861 4.61888 26.681 4.59683 29.4053L4.57412 32.2109H9.56243C13.5356 32.2109 14.5405 32.1941 14.5003 32.1279C14.4726 32.0823 13.5296 30.5567 12.4046 28.7379C10.9224 26.3413 10.3593 25.3765 10.3593 25.2334C10.3593 25.0955 10.4435 24.9415 10.6389 24.7222C10.7927 24.5494 10.9781 24.34 11.0509 24.2567L11.1833 24.1052L10.7567 23.244L10.3302 22.3828L9.89652 22.3934C9.65799 22.3993 9.36666 22.4161 9.24906 22.4307ZM23.2056 23.2527L22.7697 24.1226L23.183 24.5876C23.4749 24.9161 23.5963 25.1058 23.5963 25.2336C23.5963 25.3905 22.2925 27.559 19.7108 31.6963L19.3896 32.2109H24.4077H29.4257L29.403 29.4053C29.381 26.6743 29.3762 26.5872 29.2255 26.1348C28.8644 25.0513 28.2843 24.1855 27.5042 23.5656C27.0473 23.2025 26.4647 22.8609 26.121 22.7543C25.9793 22.7105 25.9795 22.713 26.1477 23.1275C26.3896 23.7234 26.5478 24.3724 26.642 25.1549L26.7239 25.8351L26.9397 25.9063C27.0584 25.9455 27.3043 26.1113 27.4861 26.2747C28.4372 27.1299 28.2303 28.6442 27.084 29.217C26.1837 29.6669 25.1474 29.3541 24.6699 28.4881C24.4947 28.1706 24.4708 28.0627 24.4718 27.5957C24.4727 27.1805 24.5041 27.0064 24.6156 26.7988C24.8025 26.4508 25.2041 26.068 25.521 25.936L25.7745 25.8304L25.7297 25.4514C25.5809 24.1904 25.1895 23.0418 24.7464 22.5654C24.5922 22.3996 24.5337 22.3828 24.1091 22.3828H23.6415L23.2056 23.2527ZM14.6757 24.5872C14.6757 24.6127 14.9297 26.3119 15.2402 28.3633C15.5506 30.4146 15.8046 32.1195 15.8046 32.152C15.8046 32.1844 16.3242 32.2109 16.9594 32.2109H18.114L18.1529 31.9951C18.2278 31.5789 19.2577 24.709 19.2577 24.6255C19.2577 24.5587 18.7763 24.541 16.9667 24.541C15.7067 24.541 14.6757 24.5618 14.6757 24.5872ZM25.6646 26.9861C25.3759 27.2748 25.3111 27.6033 25.4765 27.9405C25.6265 28.2467 25.9769 28.4922 26.2636 28.4922C26.5482 28.4922 26.9003 28.2473 27.0476 27.9471C27.2101 27.6159 27.1411 27.2654 26.8576 26.9814C26.6648 26.7884 26.6022 26.7656 26.2636 26.7656C25.9235 26.7656 25.8628 26.7879 25.6646 26.9861Z" fill="#619E90"/>
</svg>
