<svg width="20" height="20" viewBox="0 0 20 20" fill="none" xmlns="http://www.w3.org/2000/svg">
<path fill-rule="evenodd" clip-rule="evenodd" d="M9.33583 1.07744C9.28212 1.08689 9.1327 1.11287 9.0038 1.13521C7.32169 1.42658 5.7779 2.58967 4.98884 4.1601C4.57102 4.99166 4.40224 5.69974 4.39759 6.64056C4.39423 7.32326 4.42985 7.5706 4.63227 8.27053C5.14438 10.0414 6.64446 12.5966 8.73579 15.2604C9.60532 16.3679 9.68763 16.4449 10.0039 16.4451C10.3147 16.4454 10.429 16.3344 11.3915 15.0976C12.4073 13.7924 13.4141 12.3103 14.0718 11.1519C14.825 9.82545 15.2527 8.81338 15.4932 7.78834C15.5903 7.37443 15.602 7.25224 15.6009 6.6601C15.5999 6.12834 15.5827 5.91674 15.5144 5.59806C15.141 3.85599 14.0319 2.40822 12.4713 1.62595C11.6898 1.2342 11.094 1.09345 10.1366 1.07431C9.74989 1.06662 9.38954 1.06799 9.33583 1.07744ZM9.23169 2.36248C7.61794 2.65529 6.26735 3.88162 5.80622 5.47283C5.44997 6.7022 5.62903 7.79939 6.4654 9.51166C7.08259 10.7751 8.11415 12.3863 9.31302 13.959C9.57263 14.2996 9.82899 14.6375 9.8827 14.7099C9.93642 14.7824 9.98915 14.8412 9.99989 14.8404C10.0106 14.8398 10.0821 14.7567 10.1587 14.6559C10.2354 14.5551 10.4919 14.2177 10.7288 13.9062C11.8995 12.3667 13.0536 10.5485 13.605 9.37494C14.237 8.02978 14.4516 7.09537 14.3372 6.18666C14.0925 4.24263 12.6393 2.69178 10.7545 2.36306C10.3517 2.29283 9.61708 2.29256 9.23169 2.36248ZM9.42661 4.45271C9.09364 4.53998 8.96751 4.60092 8.64099 4.83209C8.07657 5.23174 7.72231 5.92658 7.71895 6.64056C7.71591 7.28392 7.93142 7.81443 8.37825 8.26361C9.29138 9.1815 10.7084 9.1815 11.6215 8.26361C12.0684 7.81443 12.2839 7.28392 12.2808 6.64056C12.2739 5.1692 10.8518 4.07916 9.42661 4.45271ZM9.72622 5.65908C8.99384 5.89939 8.73618 6.72068 9.20165 7.33095C9.42321 7.62146 9.90712 7.76607 10.301 7.65947C10.8374 7.51431 11.1661 6.86111 10.9791 6.31181C10.9137 6.11955 10.6574 5.83842 10.452 5.73365C10.2818 5.64681 9.88712 5.60631 9.72622 5.65908ZM5.35145 13.3822C4.42641 13.7022 3.65809 14.1452 3.24364 14.5975C2.56419 15.339 2.53954 16.22 3.17653 16.998C3.8561 17.8281 5.56083 18.5074 7.71474 18.8065C9.13321 19.0035 10.9704 18.9953 12.4413 18.7855C15.2495 18.3849 17.0312 17.3858 17.2688 16.0783C17.3926 15.397 16.9791 14.6442 16.1947 14.1222C15.5536 13.6956 14.3644 13.2112 14.0862 13.2634C13.6553 13.3443 13.4324 13.7735 13.618 14.1647C13.7046 14.3472 13.8241 14.4226 14.2577 14.568C15.114 14.8553 15.8555 15.3242 15.9917 15.6646C16.0854 15.8988 16.0288 16.0357 15.7186 16.326C15.0258 16.974 13.352 17.4827 11.3475 17.6543C10.7444 17.706 9.25536 17.706 8.65224 17.6543C6.64782 17.4827 4.97395 16.974 4.28122 16.326C3.97095 16.0357 3.91438 15.8988 4.00809 15.6646C4.14462 15.3235 4.88231 14.858 5.73599 14.5744C6.16126 14.4331 6.29454 14.3486 6.38181 14.1647C6.52313 13.8669 6.42204 13.5103 6.15212 13.3546C5.9279 13.2253 5.79149 13.23 5.35145 13.3822Z" fill="white"/>
</svg>
