<svg width="30" height="31" viewBox="0 0 30 31" fill="none" xmlns="http://www.w3.org/2000/svg">
<path fill-rule="evenodd" clip-rule="evenodd" d="M14.0062 1.68745C13.9256 1.70163 13.7015 1.74059 13.5081 1.77411C10.985 2.21116 8.66929 3.95579 7.4857 6.31143C6.85898 7.55878 6.60579 8.62091 6.59882 10.0321C6.59378 11.0562 6.64722 11.4272 6.95085 12.4771C7.71902 15.1334 9.96914 18.9662 13.1061 22.9619C14.4104 24.6232 14.5339 24.7386 15.0083 24.7389C15.4744 24.7393 15.6459 24.5728 17.0897 22.7177C18.6134 20.7598 20.1236 18.5367 21.1102 16.7991C22.24 14.8095 22.8814 13.2914 23.2422 11.7538C23.3879 11.1329 23.4054 10.9497 23.4037 10.0614C23.4023 9.2638 23.3764 8.94639 23.274 8.46839C22.714 5.85528 21.0503 3.68362 18.7094 2.51022C17.5372 1.92258 16.6435 1.71147 15.2074 1.68276C14.6273 1.67122 14.0868 1.67327 14.0062 1.68745ZM13.85 3.61501C11.4294 4.05423 9.40347 5.89372 8.71177 8.28053C8.1774 10.1246 8.44599 11.7704 9.70054 14.3388C10.6263 16.234 12.1737 18.6507 13.972 21.0098C14.3614 21.5207 14.7459 22.0276 14.8265 22.1362C14.9071 22.2449 14.9862 22.333 15.0023 22.332C15.0184 22.331 15.1256 22.2064 15.2405 22.0552C15.3555 21.9039 15.7403 21.3979 16.0956 20.9306C17.8516 18.6213 19.5828 15.894 20.4099 14.1337C21.3579 12.116 21.6799 10.7143 21.5083 9.35128C21.1413 6.43524 18.9615 4.10895 16.1341 3.61589C15.53 3.51053 14.4281 3.51012 13.85 3.61501ZM14.1424 6.75036C13.6429 6.88126 13.4537 6.97266 12.9639 7.31942C12.1173 7.91889 11.5859 8.96116 11.5809 10.0321C11.5763 10.9972 11.8996 11.7929 12.5698 12.4667C13.9395 13.8435 16.0651 13.8435 17.4347 12.4667C18.105 11.7929 18.4283 10.9972 18.4237 10.0321C18.4133 7.82509 16.2802 6.19003 14.1424 6.75036ZM14.5918 8.55991C13.4932 8.92038 13.1067 10.1523 13.8049 11.0677C14.1373 11.5035 14.8631 11.7204 15.4539 11.5605C16.2585 11.3428 16.7515 10.363 16.4711 9.53901C16.373 9.25061 15.9885 8.82891 15.6804 8.67177C15.4252 8.54151 14.8331 8.48075 14.5918 8.55991ZM8.02962 20.1446C6.64206 20.6246 5.48958 21.2891 4.8679 21.9675C3.84872 23.0798 3.81175 24.4013 4.76724 25.5683C5.7866 26.8134 8.34369 27.8323 11.5745 28.281C13.7023 28.5765 16.458 28.5642 18.6644 28.2495C22.8768 27.6487 25.5492 26.15 25.9056 24.1887C26.0913 23.1668 25.4712 22.0375 24.2944 21.2545C23.3328 20.6146 21.549 19.8881 21.1318 19.9664C20.4854 20.0877 20.151 20.7315 20.4294 21.3184C20.5593 21.5921 20.7387 21.7052 21.389 21.9233C22.6734 22.3543 23.7857 23.0576 23.99 23.5682C24.1305 23.9195 24.0457 24.1249 23.5803 24.5603C22.5412 25.5322 20.0304 26.2953 17.0238 26.5528C16.1191 26.6302 13.8855 26.6302 12.9808 26.5528C9.97417 26.2953 7.46337 25.5322 6.42427 24.5603C5.95886 24.1249 5.87402 23.9195 6.01458 23.5682C6.21937 23.0565 7.32591 22.3583 8.60642 21.9329C9.24433 21.7209 9.44425 21.5941 9.57515 21.3184C9.78714 20.8716 9.6355 20.3368 9.23062 20.1032C8.89429 19.9092 8.68968 19.9163 8.02962 20.1446Z" fill="#619E90"/>
</svg>
