<svg width="31" height="31" viewBox="0 0 31 31" fill="none" xmlns="http://www.w3.org/2000/svg">
<g clip-path="url(#clip0_106_316)">
<path fill-rule="evenodd" clip-rule="evenodd" d="M17.4169 0.534993C17.1985 0.632493 16.9463 0.897044 16.864 1.11495C16.7979 1.28974 16.7762 3.01292 16.838 3.17394C16.8922 3.31515 17.1886 3.44833 17.3554 3.40644C17.6217 3.33958 17.6495 3.24284 17.6805 2.27429L17.7098 1.36017L18.0496 1.37183C18.735 1.39533 19.406 1.86238 19.746 2.55273L19.9364 2.93933L19.9657 4.49347C19.9979 6.20388 19.9993 6.21056 20.3759 6.44652C20.5683 6.5671 20.6614 6.57618 21.8893 6.59376C23.0883 6.61087 23.1943 6.62072 23.1559 6.71095C22.9811 7.12187 22.9444 7.30626 22.9707 7.64464C23.0021 8.04958 23.2131 8.54781 23.4457 8.76636L23.5884 8.90042L23.3645 9.19632C23.0651 9.59183 22.9298 10.033 22.9705 10.4815C23.0057 10.8692 23.2235 11.37 23.4492 11.5821L23.5954 11.7194L23.4127 11.9274C23.1011 12.2823 22.9852 12.6097 22.9842 13.1375C22.983 13.7288 23.1707 14.1531 23.5993 14.528L23.8858 14.7786L23.7036 15.1462C23.5608 15.4342 23.5202 15.5945 23.516 15.8864L23.5106 16.259L23.247 16.126C22.1217 15.5582 20.4291 15.4121 19.1454 15.7718C18.8392 15.8576 18.536 15.9408 18.4716 15.9565C18.3253 15.9923 18.0388 15.5884 17.8438 15.0711L17.7112 14.7195L17.6812 9.76269C17.6491 4.45521 17.6623 4.66439 17.3554 4.58734C17.1886 4.54544 16.8922 4.67863 16.838 4.81984C16.818 4.87199 16.8016 5.36077 16.8016 5.90599C16.8016 6.78419 16.7907 6.89728 16.7059 6.89728C16.3582 6.89728 16.1091 7.05812 15.4156 7.73036C14.6335 8.48851 14.6007 8.50322 14.1451 8.30171C13.7177 8.11263 13.6965 8.05363 13.6936 7.04534C13.6919 6.46439 13.6644 6.09009 13.6126 5.94501C13.4875 5.59445 13.2362 5.31402 12.912 5.16302C12.6227 5.02831 12.5637 5.02345 11.2352 5.02415C9.69779 5.02491 9.57123 5.05081 9.20209 5.43993C8.88486 5.77427 8.83324 5.97794 8.82961 6.91005C8.82527 7.99831 8.78719 8.10894 8.35348 8.29363C8.1198 8.39312 7.97162 8.42312 7.85648 8.39423C7.76016 8.37009 7.42599 8.09025 7.04683 7.71618C6.68765 7.36181 6.30463 7.0389 6.1834 6.98827C5.88029 6.86165 5.40146 6.87495 5.08435 7.0188C4.75025 7.17033 3.20566 8.68579 2.96871 9.09454C2.77019 9.43691 2.73762 9.92118 2.88873 10.2829C2.93935 10.4042 3.26226 10.7872 3.61664 11.1464C3.98232 11.5171 4.27072 11.8605 4.29387 11.9527C4.32123 12.0617 4.29123 12.2194 4.20088 12.4421C4.01766 12.8935 3.90861 12.9324 2.82703 12.9324C1.87623 12.9324 1.67748 12.9818 1.34039 13.3016C0.950741 13.6713 0.925429 13.7957 0.924022 15.3513C0.922616 16.8543 0.938788 16.9535 1.24348 17.3149C1.5682 17.7 1.77439 17.7597 2.89887 17.7941C3.80953 17.822 3.91898 17.8364 4.01848 17.9422C4.14697 18.0788 4.32117 18.505 4.32117 18.6829C4.32117 18.7609 4.07426 19.0585 3.64728 19.495C3.27668 19.8739 2.93391 20.2786 2.88557 20.3942C2.77201 20.666 2.77312 21.197 2.88785 21.4743C2.99894 21.7429 4.72506 23.4972 5.03877 23.6603C5.37492 23.8351 5.7218 23.8616 6.08672 23.7405C6.34928 23.6532 6.51334 23.5262 7.07988 22.9717C7.83281 22.2347 7.91613 22.1995 8.39344 22.4166C8.79351 22.5986 8.80031 22.6198 8.83289 23.7764L8.86219 24.8172L9.03978 25.0697C9.13746 25.2086 9.34635 25.4019 9.50396 25.4994L9.79049 25.6766H11.2307C12.803 25.6766 12.856 25.6668 13.2475 25.3037C13.6065 24.9706 13.6608 24.7739 13.6946 23.6844C13.7116 23.1365 13.7481 22.6531 13.7759 22.6102C13.8462 22.5012 14.3174 22.3074 14.5122 22.3074C14.6687 22.3074 14.6772 22.324 14.7734 22.8136C14.8281 23.092 14.9517 23.5243 15.048 23.7741C15.2372 24.2645 15.7485 25.1621 15.9064 25.2811C16.162 25.4735 16.6259 25.2623 16.6259 24.9535C16.6259 24.8822 16.4808 24.5832 16.3034 24.289C15.1043 22.2999 15.3642 19.7626 16.9367 18.1072C17.6508 17.3554 18.4364 16.8811 19.4091 16.6143C20.0729 16.4324 21.3122 16.4331 21.9872 16.6159C23.8949 17.1327 25.3403 18.6551 25.7486 20.5779C25.8114 20.8734 25.8287 21.2199 25.8103 21.8094C25.7873 22.5419 25.7641 22.6906 25.5929 23.1992C25.342 23.9451 24.9785 24.5551 24.4595 25.1014C23.3457 26.274 21.9372 26.8402 20.3803 26.7414C19.658 26.6955 19.0947 26.5377 18.3062 26.1601C17.7037 25.8717 17.6642 25.8609 17.5165 25.9438C17.4311 25.9918 17.3237 26.0978 17.2779 26.1794C17.2063 26.3068 17.2062 26.3522 17.2764 26.5002C17.3834 26.7256 18.499 27.2917 19.204 27.4783C19.8812 27.6576 21.47 27.6693 22.1044 27.4997C25.1023 26.6982 27.0435 23.958 26.7104 20.9979C26.5948 19.9708 26.2745 19.0724 25.7379 18.2709L25.4256 17.8042L26.6068 17.7853C27.7393 17.7672 27.8013 17.7601 28.1102 17.6133C28.7884 17.2912 29.1898 16.6719 29.1883 15.95C29.1877 15.6552 29.1514 15.4595 29.059 15.2541C28.9884 15.0969 28.9305 14.959 28.9305 14.9475C28.9305 14.936 29.0586 14.8617 29.2152 14.7824C29.5784 14.5983 30.0063 14.1234 30.1263 13.7713C30.2449 13.4233 30.2459 12.8547 30.1286 12.5103C30.0785 12.3633 29.9445 12.1343 29.8308 12.0015L29.6241 11.76L29.8344 11.4736C30.1143 11.0922 30.2197 10.7714 30.219 10.303C30.2184 9.87074 30.0386 9.39542 29.7688 9.11265L29.6184 8.95497L29.7937 8.73179C30.1004 8.34167 30.18 8.12792 30.2077 7.62103C30.2303 7.20472 30.2152 7.10347 30.0895 6.83001C29.8173 6.23781 29.4356 5.91161 28.8303 5.75394C28.5507 5.68111 27.867 5.66681 24.6702 5.66681H20.8446V4.36075C20.8446 3.37702 20.8225 2.96968 20.7549 2.71029C20.4823 1.66368 19.6329 0.81431 18.5863 0.541673C18.1663 0.432278 17.6535 0.429349 17.4169 0.534993ZM9.87943 6.01304C9.74613 6.12079 9.73998 6.16169 9.71021 7.14097C9.67641 8.25191 9.62508 8.44046 9.26308 8.78359C9.03375 9.00097 8.45625 9.25503 8.11746 9.28755C7.56316 9.34081 7.35182 9.22902 6.56795 8.46782C5.60607 7.53372 5.72226 7.52183 4.5723 8.67185C3.42252 9.82158 3.43447 9.7055 4.36699 10.6675C5.0983 11.4219 5.20008 11.598 5.20008 12.1084C5.20008 12.4397 4.89351 13.1597 4.65691 13.3843C4.27945 13.7424 4.15043 13.7764 3.04142 13.8099C1.70074 13.8504 1.80164 13.7261 1.80164 15.338C1.80164 16.5436 1.8034 16.5607 1.94291 16.7231L2.08424 16.8875L3.10014 16.9168C4.07771 16.945 4.12646 16.9522 4.3906 17.1075C4.72336 17.3031 4.86416 17.4919 5.05471 17.998C5.22855 18.4601 5.23851 18.848 5.085 19.1861C5.02166 19.3257 4.68973 19.7264 4.32457 20.104C3.45105 21.0075 3.44361 20.9198 4.4823 21.9704C4.92545 22.4186 5.33959 22.8135 5.40269 22.848C5.68676 23.0029 5.82668 22.9269 6.5485 22.226C7.16133 21.6309 7.28226 21.5399 7.5716 21.4558C7.98416 21.3358 8.26025 21.3763 8.80992 21.6373C9.5567 21.9919 9.7118 22.3388 9.7118 23.6542C9.7118 24.5021 9.71385 24.5155 9.86285 24.6556C10.0099 24.7938 10.0436 24.7982 11.108 24.8172C11.8171 24.8298 12.281 24.8131 12.4263 24.7695C12.7624 24.6689 12.817 24.4833 12.8186 23.4372C12.82 22.4627 12.877 22.2547 13.2364 21.9132C13.4534 21.707 14.0171 21.4535 14.392 21.3936C14.6225 21.3568 14.6295 21.3488 14.6616 21.0845C14.8254 19.7342 15.2752 18.6638 16.0802 17.7078C16.3862 17.3444 17.047 16.7593 17.4386 16.5048L17.5767 16.4151L17.3958 16.147C17.2962 15.9996 17.1591 15.7499 17.0909 15.5922C16.8172 14.959 16.8037 14.7516 16.8026 11.16C16.8019 8.77017 16.783 7.77618 16.7382 7.77618C16.7033 7.77618 16.3731 8.06775 16.0045 8.42411C15.2662 9.13796 14.9989 9.2964 14.53 9.29833C14.1819 9.2998 13.6221 9.09812 13.3068 8.85765C12.9153 8.559 12.8501 8.33827 12.8173 7.19974L12.788 6.1839L12.6236 6.04251C12.4612 5.90288 12.4443 5.90118 11.2385 5.90118C10.1246 5.90118 10.0056 5.91097 9.87943 6.01304ZM24.2988 6.73632C23.6965 7.14226 23.7347 8.04302 24.368 8.36605C24.5876 8.47814 24.694 8.48283 26.6723 8.46677C28.6619 8.45072 28.7529 8.44509 28.908 8.32919C29.1735 8.13091 29.2968 7.91904 29.3265 7.61042C29.362 7.24152 29.1895 6.907 28.8717 6.72841C28.6584 6.60847 28.5809 6.60431 26.5728 6.60431C24.5139 6.60431 24.4929 6.60554 24.2988 6.73632ZM24.5175 9.4413C24.2181 9.55046 24.0728 9.68874 23.9362 9.99408C23.7352 10.4434 23.929 10.9517 24.3854 11.1726C24.6323 11.2922 24.7073 11.2956 26.6877 11.2793L28.7348 11.2625L28.956 11.0936C29.4902 10.6861 29.4554 9.87771 28.8884 9.52527C28.6687 9.38863 28.6511 9.3874 26.704 9.37363C25.1457 9.36255 24.695 9.3765 24.5175 9.4413ZM10.6587 10.7686C9.36023 10.9265 8.10756 11.7174 7.37267 12.8431C7.05779 13.3255 6.7616 14.0685 6.76975 14.3556C6.77637 14.5879 6.96018 14.7488 7.21898 14.7488C7.46584 14.7488 7.55859 14.636 7.7373 14.1181C8.06771 13.1609 8.78092 12.3827 9.72803 11.9461C10.1564 11.7486 10.6832 11.6452 11.2657 11.6443C12.2901 11.6426 13.1188 11.9939 13.8775 12.7517C15.491 14.3631 15.2775 17.038 13.4303 18.3561C12.4132 19.0819 11.2001 19.2614 10.0315 18.8591C8.9301 18.48 8.15332 17.6985 7.71791 16.5314C7.54476 16.0673 7.49666 16.0047 7.2651 15.943C7.10514 15.9004 6.85353 16.0516 6.78762 16.2298C6.6317 16.6513 7.36693 18.0526 8.09139 18.7147C8.95728 19.5061 9.85266 19.8847 11.0036 19.9462C13.7362 20.092 15.9993 17.8425 15.8466 15.1321C15.8047 14.3895 15.6963 13.9769 15.3687 13.3133C14.4899 11.5332 12.6308 10.5287 10.6587 10.7686ZM24.5122 12.2317C24.094 12.3568 23.7848 12.8804 23.8679 13.3231C23.9204 13.6029 24.2547 13.9685 24.5271 14.0443C24.652 14.0789 25.5345 14.1033 26.6454 14.1027C28.7776 14.1016 28.8874 14.0835 29.1707 13.6864C29.3705 13.4062 29.3705 12.8689 29.1707 12.5887C28.8861 12.1896 28.7819 12.1728 26.6161 12.177C25.5526 12.1791 24.6059 12.2037 24.5122 12.2317ZM10.512 12.9858C9.50672 13.318 8.85357 14.1508 8.78924 15.1822C8.73873 15.9913 8.97451 16.5873 9.56648 17.1471C10.5402 18.068 12.0459 18.0453 12.9959 17.0954C14.213 15.8782 13.8356 13.8366 12.2566 13.0978C11.7468 12.8591 11.0334 12.8134 10.512 12.9858ZM10.7176 13.861C10.0628 14.0945 9.61119 14.7822 9.67014 15.4557C9.74519 16.3128 10.3893 16.9134 11.2352 16.9149C12.3489 16.917 13.0908 15.8656 12.7277 14.7999C12.4586 14.0101 11.5236 13.5734 10.7176 13.861ZM25.0048 15.0474C24.2769 15.3458 24.2074 16.3674 24.8878 16.7672C25.0773 16.8785 25.1872 16.8875 26.3524 16.8875C27.5177 16.8875 27.6275 16.8785 27.8171 16.7672C28.4354 16.4039 28.4556 15.579 27.8571 15.1351C27.7027 15.0206 27.608 15.0117 26.4216 15C25.6582 14.9924 25.0928 15.0113 25.0048 15.0474ZM28.5651 18.9421C28.3344 19.0673 28.3189 19.228 28.472 19.9119C28.588 20.4298 28.6082 20.6816 28.6076 21.6043C28.6068 22.7871 28.5414 23.2241 28.2259 24.1576C26.9492 27.9346 23.0363 30.1902 19.1388 29.3959C17.5937 29.081 16.3406 28.4195 15.1325 27.2806C14.7578 26.9273 14.471 26.702 14.396 26.702C14.2413 26.702 13.9305 27.0069 13.9305 27.1585C13.9305 27.332 14.3439 27.8143 14.8825 28.2695C16.1302 29.3239 17.3866 29.9435 18.9696 30.2853C19.8448 30.4742 21.5958 30.4762 22.4418 30.2891C25.9587 29.5115 28.5963 26.9042 29.3474 23.4629C29.5857 22.3709 29.595 20.9228 29.3706 19.8447C29.2304 19.1715 29.1718 19.0327 28.9871 18.9373C28.7838 18.8321 28.7675 18.8323 28.5651 18.9421ZM23.2001 19.5389C23.135 19.5952 22.4566 20.3533 21.6927 21.2234C20.9288 22.0936 20.2455 22.8662 20.1742 22.9405L20.0446 23.0755L19.121 22.0218C18.6129 21.4424 18.158 20.9532 18.1099 20.9347C17.7982 20.8151 17.5048 21.0079 17.5048 21.3323C17.5048 21.5041 17.6473 21.6921 18.6263 22.8118C19.2432 23.5173 19.7771 24.1139 19.8128 24.1376C19.8486 24.1613 19.9579 24.181 20.0558 24.1816C20.2706 24.1826 20.336 24.1173 21.9032 22.3367C22.5272 21.6277 23.2298 20.8306 23.4646 20.5654C23.8188 20.1652 23.8915 20.0488 23.8915 19.8812C23.8915 19.5216 23.4643 19.3101 23.2001 19.5389Z" fill="#619E90"/>
</g>
<defs>
<clipPath id="clip0_106_316">
<rect width="30" height="30" fill="white" transform="translate(0.571167 0.451965)"/>
</clipPath>
</defs>
</svg>
