<svg width="31" height="31" viewBox="0 0 31 31" fill="none" xmlns="http://www.w3.org/2000/svg">
<path fill-rule="evenodd" clip-rule="evenodd" d="M18.5062 3.44999C17.0104 3.78304 16.1594 5.43011 16.7605 6.82862C16.7945 6.90767 16.6538 6.88235 15.9924 6.69058C14.8887 6.37054 14.6476 6.38624 13.7343 6.83765C12.8673 7.2662 11.1031 8.39589 10.7202 8.76772C10.1561 9.31546 9.91237 9.96169 9.91893 10.8921C9.92245 11.3949 9.97014 11.6731 10.2549 12.8528C10.4375 13.6089 10.6327 14.3076 10.6889 14.4055C10.7449 14.5034 10.9089 14.6445 11.0532 14.7191C11.6356 15.0201 12.4441 14.7645 12.7423 14.1852L12.8864 13.9053L12.7523 12.4465C12.6787 11.6441 12.6323 10.9514 12.6493 10.9072C12.6777 10.8331 14.3761 10.1791 14.4165 10.2266C14.4729 10.293 14.8603 11.2225 14.9135 11.4194C14.9992 11.7359 14.9929 12.1774 14.8975 12.5354C14.7922 12.9306 14.7284 13.0429 14.3166 13.5581C14.1234 13.7998 13.8833 14.169 13.783 14.3784C13.6113 14.737 13.6007 14.7991 13.6007 15.4384V16.1176L12.9854 16.6735C12.1364 17.4406 11.1636 18.4869 10.378 19.478C10.3136 19.5593 10.0357 19.7256 9.76055 19.8476C8.58393 20.3694 7.28567 21.308 6.2369 22.395C5.40844 23.2537 4.33577 24.4781 4.22614 24.69C4.04473 25.0408 4.06471 25.308 4.36184 26.5073L4.64491 27.6499L3.55641 27.6825C2.9577 27.7004 2.46001 27.7202 2.4504 27.7264C2.44079 27.7327 2.39766 27.8216 2.35454 27.9241C2.25422 28.1628 2.33784 28.4278 2.53747 28.5037C2.76088 28.5886 27.725 28.5759 27.8868 28.4907C28.0607 28.3992 28.1007 28.3273 28.1017 28.104C28.1023 27.9907 28.0552 27.8661 27.9854 27.7964C27.8698 27.6808 27.7874 27.6791 21.877 27.6753C17.0632 27.6721 15.9377 27.6573 16.1498 27.6C16.4939 27.5072 16.9073 27.2194 17.1018 26.9372C17.3109 26.6338 17.3769 26.304 17.3786 25.5513C17.3793 25.2028 17.4065 24.8681 17.4389 24.8075C17.4713 24.7469 17.9393 24.3602 18.479 23.9481C21.1938 21.8746 21.7249 21.1724 21.3075 20.2085C21.1247 19.7865 20.5168 18.894 19.693 17.8382C18.9335 16.865 18.7862 16.6341 18.7863 16.4175C18.7863 16.3434 18.9129 15.8393 19.0675 15.2973L19.3486 14.3118L19.9258 14.961C20.2433 15.318 20.5856 15.6612 20.6865 15.7236C21.13 15.9977 21.7709 15.9865 22.3897 15.6938C23.0037 15.4035 25.9933 12.6026 26.3619 11.9724C26.7877 11.2444 26.6392 10.5795 25.9734 10.2337C25.7163 10.1001 25.5962 10.0762 25.1717 10.0742C24.7214 10.072 24.6334 10.091 24.2746 10.2677C23.8269 10.488 23.5686 10.784 23.4558 11.2058C23.397 11.4255 23.2981 11.539 22.7484 12.0169L22.1094 12.5724L21.5097 11.3431C20.8585 10.0084 20.4173 9.22534 19.9897 8.6452C19.8389 8.44065 19.724 8.26774 19.7343 8.26095C19.7446 8.25421 19.9289 8.16386 20.144 8.06015C21.0877 7.60517 21.6262 6.55054 21.4654 5.47218C21.2593 4.09007 19.8763 3.14489 18.5062 3.44999ZM18.4536 4.33769C17.5975 4.64102 17.1577 5.74692 17.5713 6.55616C17.8805 7.16097 18.3716 7.46179 19.0499 7.46179C19.7054 7.46179 20.2002 7.16694 20.487 6.60556C20.6853 6.21731 20.692 5.50399 20.5007 5.14206C20.1084 4.39927 19.2413 4.0586 18.4536 4.33769ZM14.5675 7.37249C13.9585 7.59708 11.7125 8.96126 11.2983 9.35811C10.9548 9.68735 10.7944 10.1074 10.7688 10.7451C10.7481 11.2605 10.7709 11.4076 11.055 12.5927C11.2248 13.3009 11.3961 13.9161 11.4357 13.9597C11.5362 14.0706 11.8557 13.9914 11.9538 13.8313C12.0193 13.7245 12.0096 13.4805 11.892 12.2801C11.74 10.7284 11.7522 10.53 12.0158 10.2664C12.1088 10.1733 12.592 9.96538 13.3922 9.67388C14.4181 9.30022 14.6506 9.23436 14.7759 9.28206C14.8914 9.32595 14.9958 9.48684 15.222 9.96925C15.8224 11.2498 15.9108 11.6499 15.7709 12.4517C15.6687 13.0369 15.4427 13.5089 15.0026 14.0562C14.392 14.8154 14.2811 15.2291 14.5076 15.9019C14.8004 16.7715 15.3926 17.543 17.1 19.279C18.5815 20.7853 18.5745 20.7718 18.0993 21.1933C17.947 21.3285 17.6669 21.584 17.4768 21.7612C17.0627 22.1471 15.3749 24.0228 15.2804 24.2019C15.2262 24.3048 15.2694 24.554 15.5139 25.5496C15.679 26.2213 15.8227 26.7811 15.8334 26.7936C15.8759 26.843 16.203 26.6654 16.3413 26.5177C16.4799 26.3698 16.4897 26.316 16.514 25.5698C16.5346 24.9363 16.5636 24.7263 16.6596 24.5151C16.8188 24.1652 16.8969 24.09 17.8478 23.3733C19.2956 22.2819 20.1432 21.5293 20.468 21.047C20.5791 20.8819 20.6043 20.7888 20.5744 20.653C20.5175 20.3939 19.7319 19.2347 18.8832 18.1577C18.4393 17.5944 18.1088 17.1167 18.0551 16.9608C17.8976 16.5027 17.9408 16.1948 18.3761 14.6714C18.6016 13.8819 18.7862 13.23 18.7862 13.2228C18.7862 13.2155 18.8639 13.1694 18.9587 13.1204C19.0804 13.0574 19.1725 13.0469 19.2712 13.0844C19.3482 13.1137 19.7487 13.5157 20.1611 13.9778C20.5734 14.4398 20.9748 14.8772 21.053 14.9497C21.242 15.1251 21.5974 15.1223 21.9796 14.9427C22.5057 14.6953 24.9819 12.4197 25.5473 11.664C25.9144 11.1732 25.7821 10.9214 25.157 10.9214C24.6043 10.9214 24.3295 11.1227 24.2419 11.5918C24.1832 11.9056 24.2244 11.8593 23.284 12.6691C22.3274 13.4929 22.1738 13.5574 21.7192 13.3254C21.5071 13.2172 21.4444 13.1124 20.7296 11.6702C20.3098 10.8233 19.8062 9.88476 19.6103 9.58452C19.2295 9.00069 18.7356 8.43931 18.4919 8.31327C18.2891 8.20845 15.0401 7.28753 14.8912 7.29268C14.8259 7.29497 14.6803 7.33089 14.5675 7.37249ZM13.321 17.5053C12.6554 18.1198 11.8469 18.9978 11.1524 19.8605C10.7898 20.3109 10.748 20.3428 10.2528 20.5483C9.64501 20.8006 8.89618 21.2383 8.22786 21.7319C7.2634 22.4443 4.95897 24.894 4.95721 25.2087C4.95651 25.3427 5.47776 27.6095 5.52381 27.6725C5.55821 27.7195 5.89846 27.5432 6.03311 27.4086C6.16331 27.2783 6.17672 27.2069 6.21616 26.4336C6.26174 25.5409 6.32549 25.2983 6.58717 25.0223C6.83807 24.7577 9.19372 22.8235 9.75305 22.4229C10.4801 21.9021 10.9882 21.6244 11.9366 21.2294C12.3954 21.0384 13.0366 20.7338 13.3615 20.5527C13.9188 20.242 15.09 19.4705 15.475 19.1605L15.65 19.0195L15.2952 18.6179C14.8156 18.0751 14.3844 17.5128 14.1899 17.1763C14.1014 17.0232 14.0177 16.898 14.0039 16.898C13.9901 16.898 13.6828 17.1712 13.321 17.5053ZM16.003 19.8035C15.6945 20.0624 14.6142 20.7958 14.0803 21.109C13.385 21.5168 12.8881 21.7617 12.2281 22.0212C11.5017 22.3069 11.1724 22.4752 10.6417 22.8317C9.61489 23.5217 7.14053 25.5694 7.09969 25.763C7.08475 25.834 7.06336 26.2349 7.05229 26.6538C7.04022 27.1094 7.00307 27.4685 6.95983 27.5474L6.88758 27.6792L11.2988 27.6739C13.9729 27.6707 15.6396 27.6482 15.531 27.6166C15.1688 27.5113 15.1044 27.3714 14.7362 25.8882C14.5467 25.125 14.3917 24.4146 14.3917 24.3095C14.3917 24.2044 14.4642 23.9843 14.5528 23.8206C14.7343 23.4852 16.044 21.9948 16.8362 21.2222L17.3588 20.7125L16.8263 20.1822C16.5334 19.8905 16.2679 19.6528 16.2363 19.654C16.2047 19.6551 16.0997 19.7224 16.003 19.8035Z" fill="#619E90"/>
</svg>
