<svg width="31" height="31" viewBox="0 0 31 31" fill="none" xmlns="http://www.w3.org/2000/svg">
<g clip-path="url(#clip0_106_753)">
<path fill-rule="evenodd" clip-rule="evenodd" d="M23.9885 3.19624C23.1258 3.3177 22.5217 3.67788 21.4241 4.72518L20.5901 5.52094L20.4143 5.41395C20.032 5.18127 19.6957 5.2861 19.1576 5.80559C18.8456 6.10682 18.7267 6.18528 18.5824 6.18528C18.2731 6.18528 18.086 6.29344 17.6513 6.7234C17.2402 7.12999 17.2283 7.13684 17.0432 7.07227C16.6659 6.94079 16.3358 7.2709 16.4673 7.64819C16.5267 7.81858 16.5183 7.85198 16.3824 7.98797C16.2586 8.11178 16.2159 8.12579 16.1442 8.06626C15.9993 7.94596 15.694 8.01188 15.5598 8.19241C15.4514 8.33825 15.4473 8.3744 15.5166 8.56618L15.5934 8.77858L14.4302 9.94284C13.7904 10.5832 13.2404 11.1059 13.2078 11.1043C13.1753 11.1028 12.8982 10.7297 12.592 10.2753C11.423 8.54022 10.0873 7.47745 8.34282 6.89432C7.30518 6.54745 7.07403 6.52583 4.07749 6.49536C2.56881 6.48 1.26956 6.48375 1.19028 6.50362C0.837428 6.59221 0.716842 6.92397 0.936158 7.20276L1.05756 7.35715L3.55823 7.35815C4.93354 7.35874 6.30932 7.38551 6.61547 7.41768C8.20518 7.58485 9.6385 8.27028 10.7763 9.40752C11.1913 9.82237 12.0381 10.9499 12.48 11.6763C12.5541 11.798 12.5282 11.8374 12.0566 12.3208C11.7281 12.6576 11.5288 12.9141 11.4804 13.0624C11.3711 13.3976 11.4344 13.7715 11.6531 14.0818L11.8403 14.3474L11.1571 15.0323C10.529 15.6621 10.4754 15.733 10.4929 15.9114C10.5182 16.169 10.7571 16.354 10.9892 16.2958C11.0871 16.2713 11.42 15.9923 11.8067 15.6107L12.459 14.9671L12.68 15.1171C13.2391 15.4965 13.7535 15.4322 14.3176 14.9122L14.5649 14.6842L17.8998 19.5288C19.734 22.1933 21.2963 24.447 21.3717 24.5371C21.5599 24.7621 21.8506 24.7637 22.026 24.5407C22.1032 24.4426 22.1432 24.3232 22.1292 24.233C22.1166 24.152 20.5589 21.8395 18.6676 19.0943C16.7762 16.3491 15.2288 14.0807 15.2288 14.0535C15.2288 14.0264 15.4021 13.8335 15.614 13.625C15.8259 13.4165 16.0374 13.1735 16.084 13.0852C16.1874 12.8892 16.1395 12.6596 15.9707 12.5414C15.696 12.3489 15.6056 12.4075 14.5223 13.4802C13.9427 14.0542 13.4399 14.5056 13.3801 14.5056C13.2364 14.5056 12.2991 13.5622 12.2991 13.4175C12.2991 13.3462 13.0318 12.5713 14.262 11.3415L16.2248 9.37934L16.823 9.97747L17.4211 10.5756L16.9695 11.0397C16.7147 11.3016 16.5178 11.5544 16.5178 11.6198C16.5178 11.8344 16.7402 12.0447 16.9672 12.0447C17.1427 12.0447 17.2355 11.9851 17.5837 11.6491C17.9792 11.2676 18.0041 11.2536 18.2885 11.2536C18.5422 11.2536 18.6003 11.231 18.7055 11.0913C18.8126 10.949 18.819 10.9058 18.7573 10.7423C18.693 10.5719 18.7003 10.5418 18.8414 10.3945C18.9613 10.2693 19.0193 10.2458 19.1006 10.2894C19.4736 10.489 19.9068 10.0545 19.6848 9.70348C19.6443 9.63961 19.7368 9.50719 20.0529 9.17614C20.4661 8.74348 20.6194 8.45743 20.6194 8.11887C20.6194 8.03467 20.7683 7.82918 21.0263 7.55766C21.3122 7.25666 21.4446 7.06852 21.4715 6.92479C21.5139 6.69891 21.4217 6.35051 21.2909 6.24194C21.2445 6.20344 21.2207 6.14924 21.2378 6.12147C21.362 5.92061 23.0197 4.4594 23.2637 4.33571C23.9183 4.00407 24.6939 3.95198 25.3937 4.19268C27.0188 4.75184 27.7066 6.71784 26.7918 8.18883C26.6535 8.4112 26.4567 8.62407 24.0337 11.172C23.2555 11.9903 22.5344 12.7767 22.4313 12.9195C22.1814 13.2657 21.9347 13.805 21.813 14.2712C21.6809 14.7771 21.6791 15.704 21.8092 16.2048C22.1016 17.3306 22.895 18.3148 23.9026 18.8016C24.9115 19.289 25.9097 19.3709 26.9264 19.0498C27.5153 18.8637 27.7663 18.7097 29.262 17.6162C30.606 16.6337 30.8147 16.4486 30.8147 16.2397C30.8147 16.016 30.6248 15.8298 30.3974 15.8304C30.2335 15.8309 29.9584 16.0084 28.7972 16.8632C28.026 17.4309 27.2564 17.9633 27.0871 18.0462C25.633 18.7582 23.8131 18.2153 22.9994 16.8267C22.419 15.8363 22.4487 14.486 23.0716 13.5477C23.1892 13.3706 24.1809 12.2851 25.2755 11.1355C26.37 9.98579 27.329 8.96198 27.4065 8.86038C27.6039 8.60133 27.9154 7.91338 28.0007 7.54752C28.0924 7.15477 28.093 6.33364 28.0021 5.93631C27.9633 5.76709 27.8278 5.41049 27.7008 5.14383C27.0609 3.79928 25.5046 2.98278 23.9885 3.19624ZM19.7979 6.45018L19.598 6.65643L19.8742 6.9327L20.1504 7.20891L20.3685 6.99083L20.5866 6.77268L20.3271 6.50831C20.1844 6.36288 20.052 6.24387 20.0327 6.24387C20.0135 6.24387 19.9079 6.33668 19.7979 6.45018ZM17.996 7.60706L17.8085 7.80047L18.38 8.36983C18.6944 8.68295 18.9795 8.93918 19.0136 8.93918C19.0889 8.93918 19.3303 8.68993 19.3303 8.61206C19.3303 8.58129 19.0723 8.29905 18.7569 7.98487L18.1835 7.41364L17.996 7.60706ZM17.0292 8.57374L16.8715 8.73833L17.4738 9.33856L18.0761 9.93879L18.2051 9.80145C18.2762 9.72586 18.3342 9.63891 18.3342 9.60815C18.3342 9.57739 18.0761 9.29502 17.7605 8.98067L17.1868 8.40914L17.0292 8.57374ZM0.936158 13.1951C0.727916 13.4598 0.809127 13.7364 1.13092 13.8588C1.22831 13.8958 1.95364 13.9197 2.98126 13.9197C4.86387 13.9197 5.09297 13.9545 5.67628 14.3287C6.30118 14.7297 6.50497 15.0956 6.70419 16.1743C7.10163 18.3263 8.06684 20.1676 9.69516 21.8801C10.6371 22.8707 12.3374 24.2322 12.6328 24.2322C12.8023 24.2322 13.0608 23.9889 13.0608 23.8294C13.0608 23.6094 12.9846 23.5218 12.4461 23.1223C11.3073 22.2775 10.2731 21.3006 9.55788 20.3943C8.59202 19.1702 7.85444 17.5685 7.58813 16.1169C7.53493 15.8269 7.44938 15.424 7.39799 15.2217C7.15671 14.2706 6.22442 13.4186 5.1129 13.1331C4.82227 13.0586 4.39671 13.0407 2.9052 13.0407H1.05756L0.936158 13.1951ZM14.0167 24.4083C13.7823 24.5028 13.6868 24.8583 13.8413 25.0614C13.9712 25.2321 15.32 25.9708 17.3674 26.9927C18.8954 27.7552 19.3938 27.9789 19.5061 27.9527C19.7801 27.8888 19.9282 27.5895 19.8222 27.3133C19.8026 27.2624 18.9391 26.801 17.9032 26.2877C16.8673 25.7746 15.6243 25.1289 15.1409 24.853C14.6575 24.5771 14.2356 24.3526 14.2034 24.3541C14.1711 24.3556 14.0872 24.38 14.0167 24.4083Z" fill="#619E90"/>
</g>
<defs>
<clipPath id="clip0_106_753">
<rect width="30" height="30" fill="white" transform="translate(0.814697 0.560303)"/>
</clipPath>
</defs>
</svg>
