<svg width="32" height="32" viewBox="0 0 32 32" fill="none" xmlns="http://www.w3.org/2000/svg">
<g clip-path="url(#clip0_106_360)">
<path fill-rule="evenodd" clip-rule="evenodd" d="M10.0349 0.470203C9.90475 0.581137 9.85318 0.72163 9.75243 1.23932C9.32537 3.43502 8.93318 6.04738 9.00381 6.22666C9.08037 6.42096 9.3305 6.56073 9.51968 6.51494C9.81668 6.44298 9.86443 6.31895 10.0309 5.18729C10.1682 4.25427 10.5693 1.90782 10.7369 1.05727C10.8036 0.718614 10.731 0.49379 10.5257 0.403486C10.3016 0.304918 10.2149 0.316681 10.0349 0.470203ZM14.4768 0.459526C14.3758 0.536136 14.3121 0.643994 14.3121 0.738279C14.3121 0.822912 14.4382 1.54703 14.5924 2.34758C14.9163 4.02951 15.2356 5.97028 15.4805 7.74595C15.6337 8.85638 15.6524 9.17983 15.6537 10.7402C15.6551 12.283 15.5964 13.2646 15.4641 13.9108C15.4403 14.0266 15.3432 14.1072 15.0754 14.2332C14.6101 14.4521 13.796 14.9816 13.4234 15.3078C13.0336 15.649 12.9886 15.8362 13.2384 16.0773C13.3424 16.1777 13.4834 16.2598 13.5516 16.2598C13.6198 16.2598 13.9072 16.0823 14.1902 15.8653C15.382 14.9517 16.4435 14.5338 18.9258 14.001C22.8974 13.1487 26.6117 12.9405 30.6539 13.3438L31.7035 13.4485L31.8516 13.2824C32.028 13.0844 32.0406 12.8836 31.888 12.7017C31.7622 12.5517 31.1655 12.4575 29.6246 12.3443C25.3641 12.0314 21.2236 12.42 17.2023 13.5101C16.7986 13.6196 16.4615 13.704 16.4531 13.6979C16.4447 13.6917 16.4664 13.4852 16.5012 13.2389C16.6087 12.4787 16.6482 10.0365 16.5678 9.11149C16.3932 7.102 15.4321 1.23196 15.1774 0.618719C15.0524 0.318008 14.7529 0.249903 14.4768 0.459526ZM8.8275 7.8999C8.73787 8.00981 8.69043 8.22824 8.63418 8.78966C8.36425 11.483 8.25175 13.3058 8.21012 15.6565C8.17931 17.401 8.18893 17.8077 8.26968 18.1707C8.76143 20.3809 10.5347 21.7052 13.8699 22.353C15.7735 22.7227 19.8757 23.1121 23.3434 23.2522C25.8211 23.3523 31.4392 23.3981 31.6508 23.3199C31.9974 23.1918 32.1092 22.8506 31.8817 22.615C31.7687 22.4979 31.6649 22.4912 29.3661 22.4529C28.0474 22.4309 26.3582 22.4129 25.6124 22.4128C22.5984 22.4126 16.8475 21.9636 14.4371 21.5402C11.2426 20.9792 9.63562 19.9126 9.21006 18.0711C9.01825 17.2412 9.15906 13.1376 9.50137 9.58032C9.56918 8.87599 9.62462 8.23131 9.62462 8.14764C9.62462 7.78064 9.06612 7.60709 8.8275 7.8999ZM6.58181 16.1396C6.42081 16.2022 6.31187 16.3775 6.31275 16.5725C6.314 16.8327 6.73818 18.0782 6.85462 18.1634C7.10156 18.3441 7.51137 18.2126 7.58506 17.9291C7.60681 17.8455 7.53325 17.4875 7.40812 17.0681C7.246 16.5247 7.15431 16.3173 7.03081 16.2145C6.85481 16.0681 6.79231 16.0577 6.58181 16.1396ZM4.46556 17.6143C4.28531 17.7882 4.26843 18.0059 4.4215 18.1817C4.555 18.3349 5.84068 19.0308 6.07362 19.076C6.19881 19.1002 6.282 19.0692 6.40175 18.9536C6.60412 18.7583 6.61237 18.4965 6.4215 18.3293C6.20018 18.1354 4.90925 17.4662 4.75656 17.4662C4.68087 17.4662 4.54993 17.5329 4.46556 17.6143ZM5.03212 19.729C4.18031 19.9789 4.03112 20.1166 4.186 20.5097C4.29887 20.7963 4.51325 20.815 5.28087 20.6053C6.19856 20.3546 6.28412 20.3182 6.3665 20.1437C6.46537 19.9343 6.45575 19.858 6.30756 19.6762C6.13456 19.4638 5.90337 19.4734 5.03212 19.729ZM7.16425 21.0314L6.30087 21.5201L5.69712 21.4494C4.44606 21.3029 3.19337 21.6125 2.14993 22.326C1.24318 22.946 0.489309 23.9821 0.177559 25.0368C-0.0231283 25.7158 -0.0258783 26.8826 0.171747 27.5497C0.530622 28.7612 1.17193 29.6546 2.15231 30.3088C3.09243 30.936 3.92737 31.1791 5.15587 31.1832C6.0955 31.1864 6.50968 31.1011 7.28087 30.7456C7.88406 30.4675 8.73081 29.8353 8.78637 29.6216C8.8515 29.3712 8.76306 29.1686 8.55106 29.0825C8.28968 28.9764 8.19831 29.0089 7.7715 29.3595C7.07037 29.9354 5.98356 30.3165 5.04912 30.314C3.85331 30.3108 2.58687 29.7141 1.84706 28.8053C0.837809 27.5654 0.666559 25.9565 1.39137 24.524C1.59556 24.1206 1.75793 23.9081 2.15337 23.5272C3.11956 22.5965 4.33075 22.184 5.58962 22.3571C6.47018 22.4781 6.47931 22.4763 7.24956 22.0314C7.63312 21.8098 7.95918 21.6285 7.97418 21.6285C7.98912 21.6285 7.98381 22.0018 7.96225 22.458C7.92325 23.2838 7.92381 23.2883 8.08562 23.4985C8.86987 24.5172 9.15487 25.1539 9.22593 26.0459C9.256 26.4233 9.23781 26.679 9.15381 27.0604C9.017 27.6815 9.01781 27.8152 9.15918 27.966C9.30212 28.1185 9.692 28.1239 9.83131 27.9753C9.95912 27.839 10.1106 27.224 10.1632 26.6278C10.2591 25.5407 9.857 24.2654 9.12343 23.3306L8.87331 23.0118L8.91487 21.9917L8.95637 20.9715L8.73425 20.7571C8.37937 20.4146 8.19812 20.4463 7.16425 21.0314ZM5.67518 23.6946C5.62112 23.7361 5.42318 23.9736 5.23531 24.2224C4.03675 25.8096 3.87462 26.048 3.87462 26.2225C3.87462 26.6019 4.1025 26.7726 4.70275 26.8432C4.90037 26.8663 5.06162 26.9037 5.061 26.9262C5.06037 26.9487 4.78081 27.3359 4.43975 27.7866C4.09875 28.2373 3.80106 28.6778 3.77825 28.7654C3.74525 28.8924 3.77512 28.9615 3.92593 29.1071C4.12525 29.2995 4.2455 29.3282 4.43693 29.2294C4.54643 29.1728 6.08537 27.1816 6.24062 26.8957C6.36143 26.6731 6.32431 26.4569 6.13356 26.2727C5.99131 26.1355 5.87662 26.0918 5.56962 26.0583C5.35775 26.0351 5.16968 25.9934 5.15181 25.9655C5.13393 25.9375 5.38962 25.558 5.71993 25.1221C6.05031 24.6862 6.34387 24.2703 6.37237 24.1979C6.436 24.0365 6.30762 23.7139 6.15768 23.6584C5.99118 23.5967 5.78243 23.6124 5.67518 23.6946Z" fill="white"/>
</g>
<defs>
<clipPath id="clip0_106_360">
<rect width="32" height="30.8854" fill="white" transform="translate(0 0.334473)"/>
</clipPath>
</defs>
</svg>
