<svg width="31" height="31" viewBox="0 0 31 31" fill="none" xmlns="http://www.w3.org/2000/svg">
<g clip-path="url(#clip0_106_716)">
<path fill-rule="evenodd" clip-rule="evenodd" d="M7.94324 0.317694C7.38173 0.567245 7.1657 1.32351 7.35126 2.39027C7.51082 3.3075 7.8298 3.94799 8.45459 4.60564L8.79378 4.96271L8.73572 5.51385C8.65123 6.31635 8.66423 7.40777 8.7639 7.87834C8.84593 8.26541 8.84459 8.29137 8.73642 8.4065C8.5021 8.65588 8.43138 8.95166 8.42142 9.72305C8.40976 10.6343 8.48359 10.9202 8.83017 11.3057C9.1556 11.6677 9.43187 11.7754 10.1468 11.8189L10.7219 11.8539L10.7611 12.1236C10.8741 12.8994 11.2939 13.8108 11.8329 14.4504C12.1214 14.7928 12.3635 14.9999 12.9988 15.4474C13.0979 15.5172 13.0901 15.5565 12.6525 17.1824L12.5305 17.6356L11.1743 18.071L9.81824 18.5062L8.85144 18.5333C7.70306 18.5653 7.24697 18.669 6.36121 19.0996C5.10062 19.7122 4.17472 20.6565 3.57068 21.9454C3.07837 22.9959 3.08599 22.925 3.06437 26.6824C3.04673 29.7537 3.053 30.0233 3.14494 30.1248C3.24185 30.2319 3.5766 30.235 15.3553 30.235C27.1341 30.235 27.4688 30.2319 27.5658 30.1248C27.6577 30.0233 27.664 29.7538 27.6461 26.6824C27.6241 22.8749 27.6361 22.9778 27.0767 21.8268C26.464 20.5662 25.5197 19.6403 24.2308 19.0362C23.4335 18.6626 22.9682 18.5638 21.8593 18.5329L20.8925 18.5059L19.5302 18.0679C18.7809 17.827 18.1678 17.621 18.1678 17.6101C18.1678 17.5992 18.0493 17.146 17.9043 16.6031C17.7593 16.0601 17.6407 15.5895 17.6407 15.5572C17.6407 15.525 17.7628 15.4215 17.9121 15.3272C18.5873 14.9006 19.2374 14.1384 19.5979 13.3506C19.8001 12.9087 19.9843 12.2661 19.9843 12.0025C19.9843 11.855 19.9901 11.8532 20.5733 11.8211C21.0488 11.7949 21.2236 11.7587 21.4803 11.6331C21.8741 11.4404 22.1281 11.1417 22.2488 10.7293C22.3739 10.3018 22.3366 9.04453 22.1885 8.70176C22.0715 8.43058 21.841 8.17101 21.6101 8.05037L21.4487 7.96611L21.5887 7.68943C21.9204 7.03371 22.2007 5.74002 22.2516 4.62949C22.2808 3.99217 22.2686 3.83619 22.1576 3.42832C21.7196 1.81992 20.5647 0.657011 19.1552 0.405116C18.6672 0.317929 16.9182 0.397499 15.0917 0.58998C12.6755 0.844628 11.3145 0.807362 9.50892 0.436991C8.43894 0.217558 8.20814 0.199921 7.94324 0.317694ZM8.094 1.09248C7.94728 1.27898 7.93615 1.67771 8.05849 2.36437C8.28941 3.65965 9.11054 4.54019 10.7264 5.22527C11.0487 5.36191 11.0487 5.36191 14.4764 5.39121L17.9042 5.42051L18.2557 5.58498C18.8703 5.87244 19.1535 6.22969 19.5841 7.26082C19.7393 7.63248 19.9304 8.00068 20.0087 8.07908C20.1389 8.20928 20.1668 8.21514 20.3317 8.14682C20.8837 7.91818 21.2785 6.99504 21.4792 5.46357C21.6068 4.49033 21.5932 3.95701 21.4276 3.43541C21.0452 2.23137 20.1887 1.35486 19.1639 1.11885C18.6471 0.999843 17.4178 1.05603 14.7478 1.32088C12.3933 1.55443 11.0245 1.50211 9.27396 1.11176C8.31853 0.898651 8.24734 0.89748 8.094 1.09248ZM9.40644 5.88861C9.34216 6.66035 9.40046 7.71814 9.52363 8.01551C9.68376 8.40217 9.99865 8.51754 10.5079 8.37609L10.7288 8.31474L10.713 7.14357L10.6971 5.9724L10.2281 5.78045C9.97011 5.67486 9.68916 5.54268 9.60373 5.48672L9.44839 5.38494L9.40644 5.88861ZM11.4423 9.18275L11.4607 12.276L11.6168 12.7058C12.1412 14.15 13.3337 15.1152 14.8923 15.357C16.4355 15.5964 18.1009 14.7183 18.8536 13.2683C19.2729 12.4604 19.2935 12.3292 19.324 10.2625L19.351 8.42467L19.2061 8.15308C19.1264 8.00367 19.004 7.70648 18.9343 7.49267C18.7381 6.89174 18.4277 6.5015 17.9335 6.23443C17.7408 6.13031 17.5383 6.12258 14.5761 6.10658L11.4238 6.08953L11.4423 9.18275ZM0.448862 6.86578C0.397417 6.93926 0.355347 7.04156 0.355347 7.09318C0.355347 7.1448 0.752319 7.6974 1.23748 8.32113C1.87744 9.14396 2.0981 9.46723 2.04132 9.49904C1.99826 9.52312 1.68701 9.61242 1.34962 9.6975C0.636128 9.87744 0.472534 9.96533 0.472534 10.1687C0.472534 10.3483 2.52156 13.0399 2.70191 13.0972C2.8488 13.1438 3.1065 12.9875 3.11617 12.8459C3.1307 12.6346 3.07896 12.5533 2.28431 11.5397C1.83566 10.9675 1.46863 10.4744 1.46863 10.444C1.46863 10.4137 1.80056 10.3014 2.20621 10.1945C2.79765 10.0387 2.96201 9.97242 3.03566 9.86004C3.1191 9.73266 3.11904 9.70283 3.0346 9.53308C2.98351 9.43037 2.4847 8.76621 1.92619 8.05723C1.02589 6.91435 0.889839 6.76611 0.726538 6.75023C0.588726 6.73682 0.518882 6.76588 0.448862 6.86578ZM29.2853 7.42734C27.5241 9.65373 27.532 9.64178 27.6759 9.86127C27.7485 9.97213 27.9159 10.0395 28.5045 10.1945C28.9101 10.3014 29.2421 10.4137 29.2421 10.444C29.2421 10.4744 28.8777 10.9649 28.4325 11.5341C27.9872 12.1032 27.605 12.617 27.583 12.6757C27.5021 12.8931 27.785 13.1682 28.0146 13.0954C28.0783 13.0751 28.6046 12.4496 29.1842 11.7054C30.3036 10.2682 30.3832 10.1156 30.1063 9.93849C30.0338 9.89215 29.6976 9.78269 29.3593 9.69527C29.0209 9.60785 28.7096 9.51808 28.6676 9.49582C28.6139 9.46734 28.8543 9.11695 29.4732 8.32113C29.9584 7.6974 30.3553 7.1448 30.3553 7.09318C30.3553 6.9143 30.1801 6.73887 30.0014 6.73887C29.8525 6.73887 29.7584 6.82934 29.2853 7.42734ZM20.8136 8.67363C20.6562 8.80488 20.2457 8.92975 20.1246 8.88328C20.0564 8.85709 20.0428 9.04189 20.0428 10V11.1481L20.5262 11.1217C21.4149 11.0733 21.584 10.8903 21.6164 9.94189C21.6421 9.19201 21.5777 8.91756 21.3263 8.70609C21.1134 8.52691 20.9985 8.51965 20.8136 8.67363ZM9.18865 9.01031C9.14775 9.10488 9.12033 9.45328 9.12167 9.86068C9.12373 10.4555 9.14013 10.5724 9.24039 10.7067C9.48449 11.0336 9.6264 11.0927 10.1814 11.0986L10.6971 11.1041L10.7131 10.1023L10.7291 9.10043L10.2151 9.10617C9.78179 9.11103 9.66624 9.09135 9.47951 8.98102L9.25802 8.85006L9.18865 9.01031ZM4.93873 11.1074C4.67769 11.2903 4.75468 11.4481 5.68064 12.6288C6.16035 13.2404 6.53605 13.7582 6.5156 13.7794C6.49515 13.8006 6.15343 13.9035 5.75628 14.0078C5.18488 14.158 5.01542 14.2263 4.94417 14.335C4.89466 14.4105 4.86712 14.5055 4.883 14.546C4.92712 14.6589 6.91556 17.2464 7.02226 17.3297C7.24029 17.5 7.56238 17.3357 7.56238 17.0542C7.56238 16.9702 7.24333 16.5118 6.71136 15.8314C6.12185 15.0775 5.88332 14.7305 5.935 14.702C5.97607 14.6794 6.2865 14.5894 6.62488 14.502C7.79523 14.1995 7.7957 14.2132 6.55966 12.6166C5.24681 10.9208 5.22894 10.9041 4.93873 11.1074ZM25.3968 11.061C25.3605 11.0847 24.8529 11.7184 24.2689 12.4692C22.8982 14.2311 22.9013 14.1959 24.0858 14.502C24.4242 14.5894 24.7346 14.6794 24.7757 14.702C24.8274 14.7305 24.5888 15.0775 23.9993 15.8314C23.4277 16.5626 23.1483 16.9673 23.1483 17.0644C23.1483 17.3363 23.4747 17.4966 23.6885 17.3297C23.818 17.2286 25.728 14.7674 25.8011 14.6075C25.8454 14.5106 25.8371 14.4428 25.7684 14.3378C25.6949 14.2256 25.5322 14.1597 24.9544 14.0078C24.5573 13.9035 24.2155 13.8006 24.1951 13.7794C24.1746 13.7582 24.5503 13.2404 25.0301 12.6288C25.956 11.4481 26.033 11.2903 25.772 11.1074C25.6313 11.0089 25.5014 10.9928 25.3968 11.061ZM0.510913 13.8187C0.315562 14.0345 0.389272 14.1778 1.29332 15.3392C1.82751 16.0254 2.14369 16.4787 2.09892 16.4941C2.05843 16.5081 1.72515 16.5987 1.3583 16.6955C0.689448 16.8721 0.472534 16.987 0.472534 17.1651C0.472534 17.2619 2.45218 19.89 2.62679 20.025C2.67888 20.0653 2.76917 20.0982 2.82748 20.0982C2.97033 20.0982 3.16785 19.8922 3.16785 19.7432C3.16785 19.6769 2.78511 19.1315 2.3173 18.5313C1.84949 17.9311 1.48691 17.422 1.51164 17.4001C1.5363 17.3782 1.87292 17.2767 2.25964 17.1745C2.97548 16.9853 3.10925 16.9048 3.10925 16.663C3.10925 16.5421 1.49406 14.389 1.03802 13.902C0.837925 13.6883 0.655112 13.6594 0.510913 13.8187ZM29.7934 13.7563C29.7582 13.78 29.2507 14.4142 28.6654 15.1655C28.0077 16.01 27.6014 16.5818 27.6014 16.6631C27.6014 16.9048 27.7353 16.9853 28.451 17.1745C28.8378 17.2767 29.1744 17.3782 29.1991 17.4001C29.2238 17.422 28.8612 17.9311 28.3934 18.5313C27.9256 19.1315 27.5428 19.6769 27.5428 19.7432C27.5428 19.8922 27.7404 20.0982 27.8832 20.0982C27.9415 20.0982 28.0318 20.0653 28.0839 20.025C28.2148 19.9237 30.1202 17.4688 30.1945 17.3056C30.2644 17.1523 30.1369 16.9053 29.9614 16.854C29.9041 16.8373 29.5936 16.7546 29.2714 16.6703C28.9491 16.5861 28.6523 16.5062 28.6118 16.493C28.5675 16.4784 28.8894 16.0175 29.4174 15.3392C30.3319 14.1645 30.4105 14.0084 30.1896 13.8085C30.0771 13.7067 29.9014 13.6836 29.7934 13.7563ZM13.4588 16.8769L13.176 17.9329L13.274 18.7951C13.3302 19.2886 13.4015 19.676 13.4409 19.7007C13.8561 19.9621 15.9847 20.0509 16.8202 19.8417C17.0619 19.7812 17.2776 19.7153 17.2996 19.6952C17.3215 19.6752 17.3832 19.2731 17.4364 18.8018L17.5334 17.9448L17.2568 16.8975C17.1047 16.3215 16.9772 15.8463 16.9735 15.8416C16.9697 15.8368 16.7689 15.8862 16.5272 15.9511C15.8915 16.122 14.8427 16.1207 14.2268 15.9482C13.9766 15.8782 13.7652 15.8209 13.7568 15.8209C13.7485 15.8209 13.6144 16.2961 13.4588 16.8769ZM11.4397 18.7212C10.9135 18.8927 10.4725 19.0436 10.4597 19.0564C10.4468 19.0692 10.7126 19.5732 11.0502 20.1762C11.3877 20.7793 11.6639 21.3239 11.6639 21.3864C11.6639 21.4489 11.4703 21.7327 11.2336 22.0171L10.8033 22.5342L12.183 25.2398C12.9418 26.728 13.5668 27.94 13.5718 27.933C13.5769 27.9261 13.3424 25.7782 13.0509 23.1598C12.7146 20.1394 12.498 18.4009 12.4586 18.4042C12.4244 18.407 11.9659 18.5497 11.4397 18.7212ZM17.6598 23.1598C17.3683 25.7782 17.1338 27.9261 17.1389 27.933C17.1439 27.94 17.7689 26.728 18.5277 25.2398L19.9074 22.5342L19.4771 22.0171C19.2404 21.7327 19.0468 21.4478 19.0468 21.384C19.0468 21.3202 19.2803 20.8532 19.5657 20.3462C19.8511 19.8392 20.1282 19.3396 20.1815 19.2359L20.2783 19.0474L19.2655 18.7232C18.7085 18.5449 18.2386 18.399 18.2213 18.399C18.2041 18.399 17.9513 20.5414 17.6598 23.1598ZM8.08972 19.2599C6.00138 19.611 4.26865 21.2742 3.84642 23.3331C3.76937 23.7087 3.75378 24.2682 3.75378 26.6583V29.5318H8.65263C13.294 29.5318 13.5494 29.5264 13.5125 29.4293C13.4911 29.3729 12.6958 27.7982 11.7453 25.9299C10.5767 23.6329 10.0271 22.4946 10.048 22.4143C10.0649 22.3489 10.2624 22.0806 10.487 21.818L10.8951 21.3405L10.3052 20.2799L9.71523 19.2193L8.97572 19.2273C8.56896 19.2317 8.17029 19.2463 8.08972 19.2599ZM20.4051 20.2808L19.8146 21.3422L20.1616 21.7454C20.6246 22.2834 20.7045 22.413 20.6597 22.5542C20.639 22.6191 19.8606 24.1695 18.9297 25.9995C17.9989 27.8295 17.2197 29.3729 17.1982 29.4293C17.1613 29.5264 17.4168 29.5318 22.061 29.5318H26.9627L26.9427 26.4703C26.9233 23.5 26.9188 23.396 26.792 22.9798C26.5125 22.0628 25.9995 21.2425 25.2981 20.5907C24.2928 19.6566 23.1434 19.2193 21.6935 19.2193H20.9955L20.4051 20.2808ZM13.4802 20.5461C13.4799 20.6814 14.4058 29.0795 14.4498 29.3414L14.4818 29.5318H15.3553H16.2289L16.2609 29.3414C16.3026 29.0934 17.2308 20.6851 17.2305 20.5576C17.2303 20.4685 17.2022 20.4674 16.8934 20.5448C16.3336 20.6852 14.8937 20.7168 14.2286 20.6034C13.9168 20.5503 13.6208 20.4912 13.5709 20.472C13.5093 20.4484 13.4803 20.472 13.4802 20.5461Z" fill="#619E90"/>
</g>
<defs>
<clipPath id="clip0_106_716">
<rect width="30" height="30" fill="white" transform="translate(0.355347 0.234863)"/>
</clipPath>
</defs>
</svg>
