<svg width="31" height="31" viewBox="0 0 31 31" fill="none" xmlns="http://www.w3.org/2000/svg">
<g clip-path="url(#clip0_106_762)">
<path fill-rule="evenodd" clip-rule="evenodd" d="M15.819 2.9327C14.1688 3.15155 12.9757 4.6952 13.2045 6.31538C13.4168 7.81854 14.6741 8.92842 16.1621 8.92625C17.043 8.92497 17.7088 8.65368 18.3071 8.05233C18.9054 7.45081 19.1862 6.77604 19.1875 5.93633C19.1888 5.10413 18.9376 4.48034 18.3457 3.84541C17.7161 3.17018 16.7257 2.81241 15.819 2.9327ZM15.614 3.80141C14.9639 3.98047 14.3265 4.57426 14.1059 5.20625C14.041 5.39206 14.004 5.67073 14.0046 5.96797C14.0053 6.37045 14.0316 6.49221 14.1901 6.82936C14.4161 7.31018 14.7754 7.67997 15.2363 7.90631C15.5541 8.06235 15.6387 8.07735 16.1999 8.07735C16.7608 8.07735 16.8444 8.06252 17.1461 7.90965C17.557 7.70147 17.9574 7.2987 18.1736 6.87618C18.3236 6.58327 18.3386 6.4979 18.3386 5.93868C18.3386 5.38303 18.3226 5.29098 18.174 4.9884C17.7075 4.03819 16.6068 3.52789 15.614 3.80141ZM15.7312 10.0183C15.4175 10.079 14.9811 10.2393 14.5886 10.4382C14.215 10.6275 13.8724 10.9512 10.7517 14.0633L7.32512 17.4807L6.54448 17.0336C5.82823 16.6235 5.73108 16.5843 5.36686 16.5582C4.91007 16.5256 4.58944 16.6356 4.2353 16.9465C3.61251 17.4934 3.59844 18.5437 4.20612 19.1264C4.32137 19.2369 5.78932 20.1184 7.46821 21.0852L10.5208 22.843L6.84178 22.8723C3.20985 22.9012 3.15981 22.9032 2.92843 23.0282C2.2621 23.3885 1.94259 24.1306 2.15675 24.8205L2.24311 25.0988H1.95969C1.46059 25.0988 1.15684 25.2856 0.959089 25.7141C0.866863 25.9139 0.85075 26.1031 0.849636 26.9993C0.848113 28.2202 0.910046 28.4399 1.33456 28.7209L1.57221 28.8781L15.1116 28.896C24.7921 28.9087 28.7367 28.8955 28.9515 28.8494C29.3236 28.7697 29.6324 28.4831 29.7329 28.1241C29.7812 27.9515 29.7969 27.4221 29.7836 26.4133C29.7654 25.0317 29.7571 24.9376 29.6308 24.6812C29.4572 24.3289 29.1313 23.997 28.8264 23.8622L28.5834 23.7546L28.9285 23.3997C29.837 22.4656 30.0315 21.1659 29.4428 19.9648C28.5528 18.1491 26.1076 17.7399 24.67 19.1661C23.485 20.3416 23.451 22.1553 24.591 23.3741C24.7867 23.5832 24.9365 23.7602 24.9239 23.7674C24.9113 23.7746 24.7746 23.8441 24.6201 23.9219C24.2935 24.0862 24.0237 24.4017 23.8753 24.793L23.7705 25.0695L23.1199 25.0861C22.7622 25.0952 22.4694 25.0887 22.4694 25.0716C22.4694 25.0545 22.5632 24.9099 22.6779 24.7503C23.1001 24.1627 23.2658 23.3262 23.0933 22.6534C22.7697 21.3913 21.7622 20.5871 20.5045 20.5871H20.0734L20.052 16.8225C20.0282 12.6449 20.0453 12.8374 19.6209 11.9782C19.4672 11.667 19.2791 11.4154 18.9602 11.0947C18.2156 10.3457 17.5302 10.0445 16.4929 10.0102C16.1545 9.99911 15.8117 10.0027 15.7312 10.0183ZM15.6295 10.8923C15.1671 11.0168 14.7503 11.2497 14.4047 11.5766C14.0216 11.9389 13.7888 12.2974 13.6142 12.7941C13.4849 13.1618 13.4795 13.2568 13.458 15.5334C13.4458 16.8305 13.4539 17.8918 13.476 17.8918C13.4982 17.8918 13.9421 17.6372 14.4626 17.3258C14.983 17.0146 15.4132 16.7575 15.4184 16.7546C15.4237 16.7516 15.6186 16.0373 15.8515 15.1672C16.0844 14.2971 16.3161 13.5378 16.3663 13.4798C16.5006 13.3247 16.8317 13.3684 16.9741 13.56L17.086 13.7107L16.6429 15.3764C16.3991 16.2926 16.1755 17.098 16.146 17.1662C16.1131 17.2421 15.3453 17.7402 14.1686 18.449C13.1105 19.0863 12.1704 19.6789 12.0794 19.766C11.7567 20.0745 11.8281 20.6505 12.2136 20.8498C12.5882 21.0435 12.6773 21.006 14.597 19.8477C16.9974 18.3992 17.1549 18.2944 17.3104 18.0428C17.3834 17.9247 17.5523 17.4296 17.6858 16.9428C17.8917 16.1914 17.9528 16.0394 18.0894 15.9379C18.2892 15.7896 18.5353 15.8537 18.6451 16.0827C18.7078 16.2136 18.6838 16.3583 18.4649 17.1654C18.3259 17.6777 18.1653 18.1867 18.108 18.2965C17.8782 18.7368 17.4947 19.0471 16.2409 19.8068L15.0013 20.5578L17.0505 20.5732C18.1775 20.5817 19.1328 20.576 19.1732 20.5605C19.2713 20.5228 19.2801 13.6991 19.1828 13.1725C18.9284 11.7964 17.729 10.7959 16.3464 10.8065C16.1208 10.8082 15.7982 10.8468 15.6295 10.8923ZM10.3472 15.6291L8.03938 17.9376L8.01178 18.225C7.988 18.4726 8.00563 18.5378 8.13888 18.6962C8.34038 18.9357 8.63487 19.0357 8.89046 18.9513C9.01971 18.9086 9.66061 18.3086 10.8841 17.0846L12.6872 15.2807L12.6711 14.3007L12.655 13.3207L10.3472 15.6291ZM11.3681 17.7724C10.6609 18.4802 10.0942 19.0699 10.1089 19.0828C10.1235 19.0957 10.3575 19.2335 10.6289 19.3889L11.1222 19.6714L11.2148 19.5311C11.4325 19.2009 11.6139 19.0435 12.1336 18.7334L12.6843 18.4047V17.4451C12.6843 16.9174 12.6775 16.4856 12.6691 16.4856C12.6608 16.4856 12.0753 17.0646 11.3681 17.7724ZM4.8411 17.5129C4.51315 17.7888 4.47413 18.2994 4.76171 18.5516C4.81684 18.6 6.52315 19.5963 8.55342 20.7656C10.5837 21.9349 12.2909 22.9309 12.3474 22.9789C12.4509 23.0671 12.4852 23.3732 12.4051 23.4934C12.2765 23.6858 12.12 23.6926 7.76335 23.6926C2.99774 23.6926 3.17557 23.6796 2.98801 24.0422C2.80971 24.387 2.90751 24.7374 3.24553 24.9652L3.44382 25.0988H8.3794H13.315L13.2366 24.8791C12.9888 24.1848 13.3417 23.3474 14.0256 23.0068C14.2199 22.9101 14.4929 22.9003 17.385 22.8855C20.4788 22.8696 20.535 22.8714 20.6516 22.988C20.8215 23.1579 20.8053 23.4221 20.6158 23.5711C20.4642 23.6904 20.4075 23.6926 17.4781 23.6926C14.2054 23.6926 14.2452 23.6885 14.0622 24.0422C13.9103 24.336 13.9473 24.6033 14.174 24.8507L14.3745 25.0695H17.6749H20.9753L21.3562 24.8598C22.5021 24.2289 22.6878 22.7553 21.7314 21.8812C21.1937 21.3898 21.3602 21.4074 17.2494 21.4074H13.6323L13.2608 21.5831C12.4332 21.9747 11.5382 21.6533 11.1722 20.8331C11.0699 20.6037 10.9865 20.5387 10.2461 20.1104C9.44534 19.6472 9.42905 19.6408 9.20663 19.7074C8.68362 19.8642 8.01073 19.7298 7.65501 19.3977C7.44952 19.2059 7.24602 18.8308 7.20366 18.5656C7.16675 18.3349 7.15298 18.3236 6.32798 17.8479C5.37272 17.297 5.15581 17.2481 4.8411 17.5129ZM26.1004 19.2089C25.7071 19.3351 25.226 19.698 24.9744 20.0581C24.2882 21.0404 24.5046 22.3711 25.4657 23.0786C26.5917 23.9076 28.1796 23.4859 28.7801 22.1984C28.9214 21.8953 28.944 21.7742 28.944 21.3195C28.944 20.8483 28.9242 20.7503 28.7574 20.3981C28.5323 19.9229 28.155 19.5393 27.697 19.3202C27.2863 19.1237 26.5303 19.071 26.1004 19.2089ZM25.0105 24.6253C24.8339 24.733 24.6374 24.9584 24.6374 25.0533C24.6374 25.0783 25.5998 25.0988 26.7761 25.0988C27.9524 25.0988 28.9148 25.0831 28.9148 25.0639C28.9148 25.0448 28.8581 24.9495 28.7888 24.8522C28.5632 24.5354 28.4267 24.5129 26.734 24.5131C25.3214 24.5133 25.1789 24.5226 25.0105 24.6253ZM1.73897 25.9895C1.64042 26.088 1.64042 27.9182 1.73897 28.0168C1.79323 28.0711 4.88516 28.0871 15.2993 28.0871C27.4847 28.0871 28.7981 28.0782 28.8813 27.9951C28.9572 27.9191 28.9733 27.7411 28.9733 26.9814C28.9733 26.3427 28.9518 26.0382 28.903 25.9895C28.8007 25.8871 1.84134 25.8871 1.73897 25.9895Z" fill="#619E90"/>
</g>
<defs>
<clipPath id="clip0_106_762">
<rect width="30" height="30" fill="white" transform="translate(0.321045 0.899658)"/>
</clipPath>
</defs>
</svg>
