<svg width="30" height="31" viewBox="0 0 30 31" fill="none" xmlns="http://www.w3.org/2000/svg">
<g clip-path="url(#clip0_106_725)">
<path fill-rule="evenodd" clip-rule="evenodd" d="M14.0645 0.766646C13.4422 1.00553 12.8906 1.76051 12.8906 2.37323C12.8906 2.51672 12.8679 2.57151 12.8173 2.5503C12.7771 2.53342 12.601 2.47524 12.426 2.42104C11.5991 2.16469 10.664 2.58036 10.2721 3.3784L10.1074 3.71379L10.0899 5.71067C10.0733 7.60659 10.0781 7.71458 10.1849 7.84641C10.3401 8.03801 10.6935 8.03983 10.8474 7.84987C10.9493 7.72401 10.957 7.58491 10.957 5.87338C10.957 3.83702 10.9648 3.78551 11.3223 3.47168C11.5658 3.25782 11.8645 3.18739 12.174 3.27071C12.422 3.3375 12.7334 3.62684 12.8284 3.87874C12.8705 3.99036 12.8906 5.66291 12.8906 9.05233V14.0609L13.0344 14.2047C13.2177 14.3881 13.4424 14.3881 13.6256 14.2047L13.7695 14.0609V8.17881V2.2967L13.9044 2.04153C14.0574 1.75219 14.4308 1.51653 14.7363 1.51653C15.0417 1.51653 15.4151 1.75219 15.5681 2.04153L15.7031 2.2967V8.48737C15.7031 14.6364 15.7039 14.6789 15.8226 14.8062C15.9798 14.975 16.3099 14.9798 16.4507 14.8154C16.5456 14.7046 16.5547 14.3085 16.582 9.10682C16.6111 3.54991 16.612 3.51627 16.7339 3.35186C17.1651 2.77002 17.9325 2.77002 18.3637 3.3518C18.4843 3.51452 18.4868 3.57768 18.5156 7.23159C18.5483 11.379 18.5226 11.1493 18.955 11.1493C19.3745 11.1493 19.3618 11.2246 19.3945 8.55575L19.4238 6.16542L19.588 5.95026C19.8019 5.66989 20.0254 5.5595 20.379 5.5595C20.7469 5.5595 21.0192 5.73458 21.1962 6.08508L21.3281 6.34606L21.3278 11.4459C21.3277 14.3246 21.3017 16.9031 21.268 17.3661C21.0451 20.4336 20.453 22.9618 19.6285 24.367C19.5052 24.577 19.2307 24.941 19.0185 25.1757C18.2551 26.0201 18.164 26.3541 18.164 28.3062V29.7587H14.4772H10.7905L10.7678 28.0448C10.7468 26.4461 10.7361 26.3034 10.6099 25.9208C10.4037 25.2957 10.0653 24.6679 9.65902 24.1566C9.22495 23.6103 8.7354 22.8831 8.35636 22.2213C8.03714 21.6641 7.86072 21.5458 7.57167 21.6953C7.20218 21.8864 7.23417 22.0863 7.77986 22.9945C8.23894 23.7585 8.5356 24.1866 9.01531 24.7772C9.1588 24.9539 9.37759 25.3099 9.50152 25.5682C9.86093 26.3178 9.90013 26.6155 9.9013 28.6041L9.9023 30.35L10.0461 30.4938L10.1899 30.6376H14.489H18.7881L18.9117 30.5058C19.0311 30.3785 19.036 30.3117 19.0538 28.5575L19.0722 26.7411L19.2283 26.4081C19.3142 26.225 19.5391 25.9086 19.7282 25.705C20.8123 24.5377 21.5688 22.393 21.9669 19.3583C22.1913 17.6476 22.2151 16.8103 22.196 11.3017L22.1777 5.99895L22.0422 5.72397C21.8531 5.34006 21.4924 4.98868 21.1055 4.81155C20.6746 4.61426 20.0825 4.60331 19.6728 4.78495L19.3945 4.9084V4.24846C19.3945 3.46038 19.3076 3.1251 18.9977 2.7177C18.8367 2.506 18.6642 2.36831 18.376 2.22129C18.029 2.04428 17.9227 2.01803 17.5579 2.01956C17.262 2.02079 17.0589 2.05717 16.8676 2.14325L16.5966 2.26518L16.5256 2.02272C16.2098 0.943833 15.0907 0.37272 14.0645 0.766646ZM3.39839 2.04475C1.61773 2.84168 1.71681 2.7879 1.64368 2.9976C1.58808 3.15715 1.6745 3.3852 2.61195 5.55264C3.17808 6.86163 3.69499 7.97866 3.76068 8.03508C3.93435 8.1842 4.08054 8.16124 4.55234 7.91075L4.97386 7.68698L5.71671 8.80588C6.12529 9.42124 6.5137 9.98409 6.57986 10.0566C6.73407 10.2257 7.04521 10.233 7.20698 10.0712C7.31656 9.96165 7.32376 9.88055 7.31779 8.8261C7.31427 8.20571 7.29452 6.95092 7.27384 6.03762C7.23646 4.38405 7.2357 4.37661 7.09794 4.26516C6.89714 4.10268 6.72781 4.12506 6.16636 4.38815C5.89062 4.51735 5.65296 4.61098 5.6382 4.59622C5.62343 4.58145 5.57304 3.9286 5.52616 3.14549C5.45562 1.967 5.42298 1.69635 5.33667 1.57512C5.14226 1.30196 4.95857 1.34643 3.39839 2.04475ZM25.2094 2.35149C25.0248 2.54872 23.2422 6.25922 23.2422 6.44631C23.2422 6.67512 23.3431 6.77063 23.737 6.91424C23.9267 6.98344 24.082 7.06952 24.082 7.10549C24.082 7.14153 23.9501 7.63231 23.789 8.19622C23.6279 8.76012 23.496 9.30528 23.496 9.4077C23.496 9.62333 23.7192 9.83684 23.9446 9.83684C24.0443 9.83684 24.552 9.42182 25.7093 8.39444C26.6028 7.60114 27.3932 6.88776 27.4658 6.80919C27.6272 6.63417 27.641 6.32004 27.4931 6.18616C27.4356 6.13418 27.2312 6.02215 27.039 5.93731C26.8467 5.85247 26.6775 5.77137 26.6629 5.75708C26.6483 5.74278 27.0285 5.33842 27.5077 4.85848C28.245 4.11991 28.3788 3.9586 28.3788 3.80895C28.3788 3.71174 28.3474 3.59432 28.3091 3.54809C28.2067 3.42469 25.6316 2.21965 25.4702 2.21965C25.3947 2.21965 25.2774 2.27895 25.2094 2.35149ZM3.63277 2.9236C3.13325 3.14702 2.70493 3.33709 2.68091 3.346C2.64148 3.36065 4.16228 6.92889 4.24179 7.0084C4.26019 7.02674 4.43099 6.95877 4.62136 6.85729C5.03392 6.63739 5.26577 6.62227 5.43113 6.80461C5.49687 6.87709 5.74091 7.22215 5.97341 7.57137C6.20585 7.92059 6.40056 8.19745 6.40601 8.18661C6.4499 8.09965 6.37109 5.32512 6.32474 5.32512C6.29292 5.32512 6.05714 5.43059 5.80073 5.5595C5.27972 5.82147 5.1146 5.84456 4.91538 5.68325C4.78396 5.57684 4.77575 5.52065 4.70005 4.20375C4.65675 3.45088 4.60325 2.76346 4.58116 2.67616L4.54097 2.51743L3.63277 2.9236ZM25.004 4.69553C24.6249 5.47688 24.3151 6.13377 24.3155 6.1554C24.316 6.17696 24.4482 6.23842 24.6093 6.29192C24.929 6.39809 25.0781 6.55694 25.0781 6.79137C25.0781 6.87446 25.0127 7.16526 24.9328 7.43749C24.853 7.70977 24.787 7.95317 24.7863 7.97842C24.7856 8.00362 25.1279 7.71633 25.5468 7.33993C25.9658 6.96358 26.3085 6.63891 26.3085 6.61852C26.3085 6.59807 26.1718 6.52946 26.0047 6.46594C25.5739 6.30229 25.3714 6.11907 25.3695 5.8912C25.3681 5.72866 25.4756 5.60145 26.2484 4.85163C26.7326 4.38176 27.1289 3.98198 27.1289 3.96329C27.1289 3.92907 25.7985 3.27411 25.7301 3.27463C25.7098 3.27481 25.3831 3.91418 25.004 4.69553ZM10.1976 9.0276C10.0801 9.1537 10.0781 9.21446 10.0781 12.6618V16.1679L9.92779 16.225C9.72488 16.3021 9.2795 16.2973 9.12206 16.2162C8.86413 16.0834 8.70605 15.8785 7.99249 14.752C7.039 13.2469 6.71193 12.9325 5.83402 12.6773C5.40323 12.552 4.57654 12.5784 4.29499 12.7265C4.02511 12.8684 3.79888 13.1929 3.76642 13.4847C3.74439 13.683 3.80632 13.9231 4.0721 14.6708C4.94515 17.1268 6.4687 20.707 6.72148 20.8964C6.86491 21.0039 7.05324 20.986 7.22837 20.8482C7.45613 20.6691 7.42847 20.4393 7.09366 19.7295C6.46056 18.3874 5.53103 16.0956 4.86019 14.2229L4.63302 13.5887L4.75782 13.522C4.93208 13.4287 5.5465 13.4879 5.8629 13.6286C6.00599 13.6921 6.20562 13.8139 6.30657 13.8993C6.40753 13.9846 6.85033 14.6202 7.29054 15.3117C7.7307 16.0032 8.17548 16.6405 8.27884 16.7279C8.3822 16.8153 8.61177 16.9542 8.78902 17.0365C9.42634 17.3326 10.3335 17.1905 10.7959 16.7223L10.957 16.5591V12.8575C10.957 9.21323 10.9551 9.15381 10.8375 9.0276C10.7596 8.94393 10.6484 8.89934 10.5175 8.89934C10.3867 8.89934 10.2755 8.94393 10.1976 9.0276ZM18.6351 12.1917C18.5213 12.3137 18.5156 12.3914 18.5156 13.8056V15.2914L18.6594 15.4352C18.7385 15.5143 18.8715 15.579 18.955 15.579C19.0385 15.579 19.1715 15.5143 19.2506 15.4352L19.3945 15.2914V13.8048C19.3945 12.3267 19.3937 12.3175 19.2589 12.1908C19.0805 12.0232 18.7916 12.0236 18.6351 12.1917Z" fill="#619E90"/>
</g>
<defs>
<clipPath id="clip0_106_725">
<rect width="30" height="30" fill="white" transform="translate(0 0.636719)"/>
</clipPath>
</defs>
</svg>
