<svg width="30" height="31" viewBox="0 0 30 31" fill="none" xmlns="http://www.w3.org/2000/svg">
<path fill-rule="evenodd" clip-rule="evenodd" d="M3.75611 4.52652C2.12557 4.95355 0.920586 6.22662 0.609863 7.85055C0.486816 8.49355 0.486816 21.648 0.609863 22.291C0.898379 23.799 1.99256 25.0373 3.48588 25.5459L3.95463 25.7055L14.8238 25.7219C27.0333 25.7402 26.1114 25.7722 27.0992 25.2955C28.3912 24.6719 29.2627 23.4647 29.4703 22.0113C29.5177 21.6788 29.5315 19.598 29.5184 14.7485C29.498 7.18973 29.5274 7.74191 29.0977 6.83834C28.5445 5.67525 27.5335 4.8448 26.2807 4.52436C25.828 4.40857 25.649 4.40676 15.0048 4.40992C4.50424 4.41309 4.17641 4.41648 3.75611 4.52652ZM3.96998 6.10252C3.09137 6.38336 2.37629 7.15598 2.17109 8.04607C2.13295 8.21131 2.11127 10.7216 2.11033 15.0731C2.1091 21.0057 2.12018 21.8862 2.19986 22.1922C2.36451 22.8245 2.76535 23.3648 3.35234 23.7456C4.03631 24.1894 3.15945 24.16 15.1753 24.1407L25.9273 24.1235L26.252 23.992C26.9101 23.7256 27.4969 23.119 27.7837 22.409L27.9195 22.0727L27.9353 15.247C27.946 10.635 27.9311 8.32475 27.8895 8.124C27.6944 7.18428 27.0121 6.42203 26.0871 6.11043C25.7265 5.98896 25.7069 5.98873 15.0161 5.99189C4.79481 5.99488 4.29084 5.99992 3.96998 6.10252ZM4.54057 9.23271C4.23559 9.37129 4.13041 9.53969 4.13041 9.88967C4.13041 10.1978 4.13809 10.2119 4.51127 10.5921C4.99303 11.083 6.39728 12.3733 8.05619 13.8494C8.76518 14.4802 9.39102 15.0477 9.44703 15.1105C9.54576 15.2213 9.47973 15.2935 7.20014 17.5645C5.90844 18.8513 4.82773 19.9487 4.79861 20.0032C4.76949 20.0576 4.74564 20.1988 4.74564 20.3169C4.74564 20.4831 4.79076 20.5768 4.94486 20.7309C5.16834 20.9544 5.35285 20.9828 5.63475 20.837C5.73383 20.7858 6.5433 20.0276 7.43357 19.1523C8.32385 18.277 9.38732 17.2337 9.79684 16.834L10.5413 16.1072L10.7929 16.3186C10.9313 16.4348 11.3213 16.7698 11.6597 17.0629C12.6087 17.8852 13.3544 18.2151 14.5701 18.3507C15.6638 18.4728 16.7911 18.1672 17.812 17.472C17.9893 17.3513 18.418 16.999 18.7647 16.689C19.1114 16.379 19.4146 16.1258 19.4386 16.1262C19.4624 16.1266 20.5498 17.1718 21.855 18.4487C23.2296 19.7937 24.3103 20.8053 24.4235 20.8533C24.932 21.0684 25.455 20.4787 25.1919 19.987C25.158 19.9237 24.0766 18.8271 22.7888 17.55C20.5021 15.2824 20.4498 15.2253 20.5506 15.1118C20.6074 15.0478 21.2339 14.48 21.9429 13.8499C23.4209 12.5364 25.0804 11.0093 25.5362 10.5432C25.7785 10.2955 25.8553 10.1719 25.8796 9.99092C25.9152 9.72561 25.7991 9.4477 25.5923 9.30285C25.3762 9.15139 24.957 9.18473 24.7156 9.37252C24.6017 9.46117 23.0611 10.8392 21.2921 12.4349C17.2007 16.1255 17.0485 16.257 16.586 16.4995C15.9903 16.8117 15.5489 16.9047 14.8238 16.8707C13.8558 16.8253 13.364 16.5994 12.4112 15.7628C12.1429 15.5273 10.4763 14.0294 8.7077 12.4341C6.9391 10.8388 5.39662 9.46158 5.27996 9.37346C5.01775 9.17535 4.77037 9.12824 4.54057 9.23271Z" fill="#619E90"/>
</svg>
