<svg width="32" height="32" viewBox="0 0 32 32" fill="none" xmlns="http://www.w3.org/2000/svg">
<g clip-path="url(#clip0_106_355)">
<path fill-rule="evenodd" clip-rule="evenodd" d="M25.8927 0.811876C25.8224 0.839384 24.5908 2.30385 24.3545 2.64099C24.1268 2.96589 24.3348 3.3665 24.7314 3.3665C24.9889 3.3665 25.0608 3.29858 25.9066 2.25535C26.5639 1.44461 26.6326 1.33687 26.5992 1.16953C26.5374 0.860557 26.2021 0.690808 25.8927 0.811876ZM26.908 3.78755C26.1183 4.18255 25.4363 4.55318 25.3924 4.61121C25.253 4.79507 25.2937 5.09289 25.4771 5.23211C25.5677 5.30088 25.6989 5.35716 25.7687 5.35716C25.9299 5.35716 28.8171 3.93426 28.9218 3.80324C29.0421 3.65255 29.0171 3.32277 28.8749 3.18553C28.6437 2.96233 28.4226 3.03002 26.908 3.78755ZM10.0624 3.82544C9.90776 3.83738 9.27495 3.87617 8.6562 3.91158C6.99201 4.00689 5.11832 4.1738 3.5312 4.36816C2.93951 4.44061 2.75151 4.48688 2.64057 4.58732C2.4522 4.75785 2.45407 5.05325 2.64457 5.22602C2.80751 5.37369 3.07632 5.39149 3.74995 5.29901C3.97339 5.26837 4.73276 5.18747 5.43745 5.11931C14.2933 4.2623 20.5429 4.78252 22.3481 6.52695C22.6593 6.82778 22.7648 6.98426 22.9225 7.37949C23.2883 8.29616 23.3438 8.74171 23.3431 10.7561C23.3428 11.8384 23.3104 12.8325 23.2625 13.2293C23.0223 15.22 22.6272 17.4538 22.1501 19.5198C21.8819 20.6809 21.8719 20.7563 21.9677 20.8974C22.1311 21.138 22.3396 21.2004 22.5923 21.0841C22.8468 20.967 22.8291 21.0205 23.2597 19.0548C23.9397 15.9503 24.2964 13.4145 24.3549 11.2688C24.4138 9.10841 24.2114 7.74071 23.6788 6.69941C22.9048 5.18609 20.9203 4.3485 17.1249 3.93342C16.4374 3.85819 15.5099 3.83056 13.2812 3.81898C11.6656 3.8106 10.2171 3.81349 10.0624 3.82544ZM27.5955 6.33319C26.7691 6.38042 26.6432 6.40172 26.5174 6.51579C26.3325 6.68349 26.3225 7.04205 26.4985 7.19575C26.6481 7.32647 26.7456 7.33093 28.0937 7.26838C29.2222 7.21602 29.3795 7.17458 29.5116 6.89492C29.602 6.70327 29.4839 6.42247 29.274 6.33017C29.103 6.25495 28.9595 6.25519 27.5955 6.33319ZM18.7954 11.441C17.3373 12.7242 13.2273 14.1084 9.81245 14.4662C9.0827 14.5426 8.87495 14.6508 8.87495 14.9541C8.87495 15.3946 9.08926 15.5019 9.81451 15.4245C11.7084 15.2226 13.7852 14.7505 15.6964 14.0873L16.2991 13.8782L16.242 14.0665C16.0836 14.5879 15.874 15.9361 15.8183 16.7919C15.7018 18.5824 15.8968 20.4106 16.4163 22.3984C16.6753 23.3895 16.6041 23.5959 15.5268 24.9783C14.4931 26.3046 14.2521 26.8315 14.2507 27.7685C14.2494 28.6382 14.5536 29.3828 15.1258 29.9103C16.0642 30.7755 17.4396 30.8677 19.1592 30.1807C19.4626 30.0594 19.9228 29.9313 20.1901 29.8938C21.2947 29.7384 22.8358 30.1933 24.719 31.2308C25.3176 31.5606 25.8271 31.6788 26.4976 31.6434C27.2166 31.6055 27.6527 31.437 28.126 31.014C28.5756 30.6123 28.8448 30.1153 28.9391 29.5131C29.0815 28.6044 28.7033 27.9211 27.8825 27.6043C27.5778 27.4866 27.4099 27.4678 26.6158 27.4626L25.7003 27.4566L25.3907 27.0991C24.5101 26.0823 23.3429 25.2328 22.3605 24.8936C21.9318 24.7456 21.8166 24.682 21.8407 24.6066C21.8912 24.4484 22.2887 23.0275 22.3784 22.6846C22.4554 22.3901 22.4522 22.3558 22.3338 22.202C22.1676 21.9865 21.7688 21.9403 21.6028 22.1173C21.5062 22.2203 20.6874 24.9446 20.6874 25.1629C20.6874 25.2094 20.7423 25.3148 20.8094 25.3971C20.9046 25.514 21.0287 25.5623 21.3764 25.6177C22.5462 25.8042 23.7138 26.5865 24.8233 27.9272C25.0609 28.2142 25.3173 28.4641 25.3933 28.4824C25.4691 28.5007 25.6437 28.4904 25.7812 28.4596C26.1324 28.3807 27.1574 28.3871 27.4436 28.4698C27.9413 28.6138 28.0976 29.0089 27.9076 29.6437C27.8259 29.9169 27.7338 30.0622 27.5095 30.2717C27.1706 30.5884 26.8395 30.7045 26.2864 30.7004C25.8316 30.697 25.4857 30.5881 24.9374 30.2755C23.8993 29.6836 22.7354 29.2261 21.7868 29.037C21.2031 28.9206 20.0911 28.9174 19.5936 29.0307C19.3873 29.0777 19.0265 29.1992 18.7919 29.3008C16.9248 30.1094 15.4399 29.5996 15.2606 28.0885C15.1627 27.2634 15.3715 26.7438 16.25 25.6257C16.9888 24.6855 17.2284 24.3235 17.3713 23.9311C17.5981 23.3083 17.5956 23.0866 17.3512 22.0965C16.565 18.9121 16.5741 16.0616 17.3778 13.7072C17.4993 13.3515 17.5144 13.3353 17.8868 13.1643C18.3699 12.9424 19.095 12.4642 19.4656 12.123C19.8016 11.8136 19.8396 11.5912 19.5965 11.3566C19.3656 11.1337 19.1146 11.1602 18.7954 11.441ZM2.73514 14.1381C2.44314 14.291 2.42514 14.7402 2.70407 14.9126C3.07576 15.1424 5.13064 15.4617 6.66907 15.5287L7.61201 15.5697L7.7747 15.4127C8.06107 15.1363 7.93557 14.698 7.54839 14.6221C7.4702 14.6068 7.01245 14.5793 6.5312 14.5609C5.57782 14.5246 4.33551 14.3638 3.49995 14.1686C2.87714 14.0231 2.94914 14.026 2.73514 14.1381ZM17.3953 25.2327C17.2169 25.3533 17.1003 25.8495 17.1431 26.3057C17.2061 26.9764 17.703 27.4177 18.4292 27.4482C18.7265 27.4607 18.7804 27.4436 18.9131 27.2947C18.9953 27.2025 19.0624 27.0595 19.0624 26.9769C19.0624 26.7837 18.8004 26.5306 18.6006 26.5306C18.5153 26.5306 18.3695 26.5026 18.2765 26.4685L18.1073 26.4064L18.1481 25.9346C18.1844 25.5131 18.1749 25.4457 18.0586 25.3029C17.9086 25.1189 17.6103 25.0873 17.3953 25.2327Z" fill="white"/>
</g>
<defs>
<clipPath id="clip0_106_355">
<rect width="32" height="30.8854" fill="white" transform="translate(0 0.772583)"/>
</clipPath>
</defs>
</svg>
