<svg width="135" height="23" viewBox="0 0 135 23" fill="none" xmlns="http://www.w3.org/2000/svg">
<g clip-path="url(#clip0_109_2610)">
<path d="M0.27333 13.1976C1.53041 14.1833 2.84215 15.1143 4.20854 15.9357L5.35632 14.019C4.04459 13.2524 2.84215 12.3762 1.63972 11.5L0.27333 13.1976ZM8.8543 18.2905C10.3847 19.0024 12.0243 19.6048 13.7187 20.0976L14.3745 18.0167C12.7895 17.5238 11.2045 16.9214 9.7288 16.2643L8.8543 18.2905ZM18.747 21.4119C20.4413 21.7405 22.1357 21.9595 23.8847 22.1786L24.1033 19.9881C22.4636 19.769 20.7693 19.55 19.1843 19.2214L18.747 21.4119ZM29.0223 22.5071C29.5689 22.5436 30.1337 22.5619 30.7166 22.5619C31.8826 22.5619 33.0486 22.5254 34.2146 22.4524L34.1053 20.2619C32.9758 20.2984 31.8462 20.3167 30.7166 20.3167C30.1701 20.3167 29.6235 20.3167 29.077 20.3167L29.0223 22.5071ZM39.079 19.8238L39.3523 22.0143C40.992 21.7952 42.7409 21.5762 44.4353 21.2476L44.0527 19.1119C42.3584 19.3857 40.7187 19.6048 39.079 19.8238ZM48.9717 18.0714L49.4636 20.2619C51.1033 19.8968 52.7612 19.4952 54.4373 19.0571L53.8361 16.9214C52.2328 17.323 50.6114 17.7063 48.9717 18.0714ZM58.7005 15.5524L59.3563 17.6881C60.9596 17.2135 62.581 16.7206 64.2207 16.2095L63.5648 14.0738C61.9616 14.5849 60.3401 15.0778 58.7005 15.5524ZM68.4292 12.5952L69.0851 14.6762L73.8948 13.1976L73.2389 11.0619L68.4292 12.5952ZM78.158 9.58332L78.8138 11.719C80.4171 11.2444 82.0385 10.7881 83.6782 10.35L83.077 8.21427C81.4373 8.65237 79.7976 9.10871 78.158 9.58332ZM88.0507 6.95475L88.5426 9.09046C89.1256 8.98094 89.6903 8.85316 90.2369 8.70713C91.2936 8.48808 92.3685 8.26903 93.4616 8.04998L93.079 5.85951C91.9495 6.07855 90.8381 6.31585 89.745 6.57141C89.1984 6.68094 88.6337 6.80871 88.0507 6.95475ZM98.162 5.09284L98.4353 7.28332C100.13 7.06427 101.769 6.89998 103.409 6.79046L103.3 4.59998C101.605 4.70951 99.8563 4.87379 98.162 5.09284ZM108.437 6.62617C110.132 6.68093 111.771 6.7357 113.411 6.84522L113.575 4.65474C111.935 4.49046 110.186 4.43569 108.437 4.43569L108.437 6.62617ZM118.33 7.50236C120.024 7.77617 121.664 8.15951 123.194 8.5976L123.796 6.46189C122.156 6.02379 120.462 5.5857 118.713 5.31189L118.33 7.50236ZM127.84 10.2405C129.425 10.8428 130.901 11.6095 132.322 12.3762L133.415 10.4595C131.885 9.63808 130.354 8.87141 128.715 8.15951L127.84 10.2405Z" fill="#619E90"/>
<path d="M122.101 16.4286L121.445 14.2929L131.939 11.281L128.113 1.04049L130.19 0.273823L134.836 12.7048L122.101 16.4286Z" fill="#619E90"/>
</g>
<defs>
<clipPath id="clip0_109_2610">
<rect width="23" height="135" fill="white" transform="matrix(-4.37114e-08 -1 -1 4.37114e-08 135 23)"/>
</clipPath>
</defs>
</svg>
