<svg width="32" height="32" viewBox="0 0 32 32" fill="none" xmlns="http://www.w3.org/2000/svg">
<g clip-path="url(#clip0_106_348)">
<path fill-rule="evenodd" clip-rule="evenodd" d="M5.67526 1.6243C5.62924 1.6702 5.58962 2.86955 5.58724 4.28938C5.58235 7.20553 5.48982 7.876 4.72099 10.5706C4.4266 11.6021 4.16869 12.8154 4.12494 13.374C4.05284 14.2963 4.06312 14.3561 4.28693 14.3131C4.48239 14.2756 4.5407 14.1175 4.6074 13.4447C4.68325 12.6792 4.87734 11.8824 5.68955 9.00286C5.98269 7.96354 6.01228 7.62317 6.06306 4.70739C6.10995 2.0161 6.09114 1.54065 5.93843 1.54065C5.83963 1.54065 5.72115 1.57827 5.67526 1.6243ZM13.92 1.75611C13.8217 1.85444 13.7413 2.10013 13.7413 2.30205V2.66939H12.7291C11.8327 2.66939 11.7217 2.69447 11.7588 2.88886C11.7935 3.07122 11.9634 3.11449 12.7625 3.14484L13.7244 3.18133L13.7641 4.39899C13.8301 6.41216 13.8881 6.30643 12.7148 6.30643C11.832 6.30643 11.7217 6.33176 11.7588 6.52591C11.7935 6.70826 11.9634 6.75153 12.763 6.78188L13.7254 6.81838L13.7646 8.16145C13.7863 8.90014 13.7841 9.68524 13.7596 9.90598C13.7167 10.294 13.6937 10.3088 13.0713 10.3449C12.5757 10.3738 12.4175 10.433 12.3855 10.6019C12.3497 10.7897 12.4448 10.8214 13.0426 10.8214H13.7413V11.5892V12.357L13.4592 12.1494C12.7007 11.5912 12.0596 11.3895 11.0456 11.3898C10.2486 11.39 9.9339 11.4477 9.51325 11.6708C8.7265 12.0881 8.19238 12.6062 7.779 13.3524C7.45577 13.9363 7.40988 14.1446 7.41151 15.0228C7.41402 16.3778 7.69211 16.9551 8.9172 18.1491C9.44442 18.663 9.85692 19.1659 9.83385 19.2666C9.81078 19.3672 9.34048 19.9611 8.78881 20.5862C8.08367 21.3852 7.70014 21.7242 7.49765 21.7276C7.12515 21.7339 6.66074 22.2408 6.3987 22.9271C6.20574 23.4325 6.20574 23.7262 6.3992 27.1477C6.51342 29.1703 6.63065 30.8957 6.65961 30.9819C6.68845 31.0682 6.79853 31.1387 6.90423 31.1387C7.14634 31.1387 7.14634 31.0598 6.90147 26.8784C6.72343 23.8401 6.72406 23.514 6.90824 23.0317C7.21229 22.2352 7.35208 22.1742 7.92382 22.589C9.16056 23.4861 10.4202 25.8351 9.85278 26.1859C9.78282 26.2292 9.61356 26.4841 9.47664 26.7526C9.27503 27.1479 9.23002 27.4744 9.24005 28.4686C9.25873 30.3151 9.3712 31.0648 9.63713 31.1156C9.84388 31.155 9.85328 31.0297 9.77831 29.2356L9.69794 27.3135L10.1242 26.6864C10.3588 26.3415 10.6199 25.7898 10.7045 25.4604C10.8577 24.8639 11.4287 23.8646 11.6162 23.8646C11.6704 23.8646 11.8358 24.2284 11.9837 24.673C12.3159 25.6714 12.6327 26.0861 13.2926 26.3859C14.2223 26.8082 15.1798 26.6133 15.8848 25.8583L16.252 25.4651L16.5227 25.8094C16.8562 26.2334 17.6716 26.6173 18.2467 26.6209C18.7883 26.6245 19.6805 26.1993 20.0094 25.7812C20.1473 25.6058 20.3756 25.0746 20.5167 24.6008C20.6578 24.1268 20.7894 23.7392 20.8093 23.7392C20.9778 23.7392 21.6742 24.986 21.8214 25.5515C21.9232 25.9425 22.1498 26.4326 22.3249 26.6408C22.7769 27.178 22.8149 27.4463 22.7177 29.4102C22.6365 31.0519 22.645 31.1567 22.8567 31.1163C23.1265 31.0649 23.2403 30.3182 23.255 28.5049C23.2646 27.3201 23.0331 26.4257 22.6563 26.1928C22.0783 25.8355 23.3228 23.4965 24.574 22.589C25.1458 22.1742 25.2855 22.2352 25.5898 23.0324C25.7744 23.5155 25.7749 23.833 25.5965 26.7995C25.349 30.915 25.3488 31.1387 25.5936 31.1387C25.6993 31.1387 25.8088 31.0682 25.8373 30.9819C25.8658 30.8957 25.9826 29.1532 26.097 27.1097C26.3026 23.4349 26.3021 23.388 26.054 22.8268C25.7493 22.1379 25.3649 21.7325 25.0162 21.7325C24.859 21.7325 24.4999 21.4487 24.1072 21.014C23.7502 20.6188 23.2411 20.0562 22.9756 19.7637L22.4931 19.2319L23.5203 18.2139C24.6804 17.0644 25.0285 16.4251 25.117 15.2813C25.2268 13.8608 24.4546 12.4935 23.1271 11.758C22.5379 11.4315 22.3317 11.386 21.4522 11.3876C20.439 11.3895 19.7951 11.5927 19.0386 12.1494L18.7565 12.357V11.5957V10.8345L19.4147 10.7965C19.8995 10.7687 20.073 10.709 20.073 10.5706C20.073 10.4326 19.9011 10.3724 19.4278 10.3449C18.8039 10.3088 18.7811 10.2941 18.7382 9.90598C18.7137 9.68524 18.7115 8.90014 18.7332 8.16145L18.7724 6.81838L19.7348 6.78188C20.5344 6.75153 20.7043 6.70826 20.739 6.52591C20.7761 6.33176 20.6658 6.30643 19.783 6.30643C18.6097 6.30643 18.6677 6.41216 18.7337 4.39899L18.7734 3.18133L19.7353 3.14484C20.5344 3.11449 20.7043 3.07122 20.739 2.88886C20.7761 2.69447 20.6651 2.66939 19.7687 2.66939H18.7565L18.7546 2.3245C18.7506 1.61778 18.7062 1.60449 16.3068 1.59031C14.5496 1.58003 14.0622 1.61377 13.92 1.75611ZM26.4346 4.69572C26.4855 7.62379 26.515 7.96304 26.8083 9.00286C27.6014 11.815 27.7853 12.5713 27.8755 13.3908C27.9546 14.1098 28.0148 14.2753 28.2109 14.3129C28.4347 14.3561 28.445 14.2964 28.3729 13.374C28.33 12.8264 28.071 11.5954 27.7895 10.6017C26.9922 7.78671 26.9918 7.78357 26.9157 4.61483C26.8486 1.81832 26.8272 1.60323 26.6114 1.56185C26.3894 1.51933 26.3817 1.65428 26.4346 4.69572ZM14.2428 3.69955V5.30311H16.2489H18.255V3.69955V2.09611H16.2489H14.2428V3.69955ZM14.3296 5.88529C14.2818 5.93294 14.2428 6.69622 14.2428 7.58153V9.19098H16.2525H18.2622L18.2273 7.52923L18.1923 5.86748L16.3043 5.83299C15.2659 5.81405 14.3772 5.8375 14.3296 5.88529ZM14.2428 11.4485V13.0789H16.2489H18.255V11.4485V9.81806H16.2489H14.2428V11.4485ZM10.2299 11.9353C8.41505 12.5255 7.45765 14.3454 8.03979 16.0985C8.21745 16.6339 8.47147 16.9789 9.29635 17.8059L10.3302 18.8423L11.212 21.0713C11.6971 22.2971 12.2172 23.7128 12.3679 24.2171C12.6941 25.3086 13.0832 25.8142 13.7506 26.0142C14.4171 26.214 15.0837 26.0052 15.6037 25.4336C16.107 24.8804 16.3897 24.8792 16.889 25.4279C17.9518 26.5962 19.5211 26.1923 19.9589 24.6375C20.069 24.247 20.6114 22.7806 21.1644 21.379L22.1698 18.8307L23.2115 17.7957C24.1157 16.8974 24.2812 16.6642 24.4662 16.0276C24.9248 14.4498 24.2839 12.9348 22.8313 12.1635C22.1157 11.7836 20.7802 11.7853 20.0103 12.1673C19.4507 12.445 18.9054 12.9098 18.5732 13.3924C18.4119 13.6268 18.2595 13.6432 16.2489 13.6432C14.2383 13.6432 14.0859 13.6268 13.9246 13.3924C13.5905 12.907 13.046 12.4444 12.4893 12.1732C11.8915 11.8819 10.7604 11.7627 10.2299 11.9353ZM3.27511 15.6812C2.05066 17.3456 1.91186 19.5253 2.91302 21.3653C3.35172 22.1716 3.9133 22.709 4.11064 22.5116C4.22361 22.3986 4.16882 22.253 3.87631 21.889C2.42868 20.0869 2.36498 17.7679 3.71457 15.988C3.99191 15.6222 4.18587 15.2694 4.14562 15.2041C3.9884 14.9497 3.69501 15.1105 3.27511 15.6812ZM28.3522 15.2041C28.3119 15.2694 28.5059 15.6222 28.7832 15.988C30.1328 17.7679 30.0691 20.0869 28.6215 21.889C28.329 22.253 28.2742 22.3986 28.3872 22.5116C28.5845 22.709 29.1461 22.1716 29.5848 21.3653C30.5859 19.5253 30.4471 17.3456 29.2227 15.6812C28.8028 15.1105 28.5094 14.9497 28.3522 15.2041ZM15.1745 16.3168C13.5872 16.8658 12.7775 18.2287 13.1609 19.7068C13.3786 20.5462 13.8179 21.0948 14.6353 21.5475C15.2141 21.8683 15.4405 21.9206 16.2489 21.9206C17.0573 21.9206 17.2837 21.8683 17.8625 21.5475C20.2446 20.2279 19.8462 17.0592 17.1994 16.2729C16.4019 16.036 15.9586 16.0457 15.1745 16.3168ZM4.81528 16.5583C3.774 17.6714 3.68172 19.5824 4.6074 20.8606C4.97275 21.3652 5.34087 21.5153 5.34087 21.1597C5.34087 21.0518 5.20759 20.7836 5.04472 20.564C4.21082 19.4399 4.26586 18.2188 5.21662 16.7504C5.51427 16.2907 5.20433 16.1424 4.81528 16.5583ZM27.2166 16.3651C27.1769 16.4687 27.3196 16.8355 27.5338 17.1804C28.2074 18.2642 28.1763 19.5974 27.4548 20.564C27.1159 21.0183 27.0687 21.3563 27.3442 21.3563C27.6133 21.3563 28.2222 20.4624 28.4099 19.7916C28.7279 18.6552 28.375 17.1907 27.6112 16.4776C27.3471 16.231 27.2758 16.2107 27.2166 16.3651ZM15.512 16.7101C14.9113 16.8605 14.1221 17.4555 13.8407 17.9701C13.4803 18.6296 13.5737 19.796 14.0357 20.4017C14.5561 21.0842 15.2707 21.4097 16.2489 21.4097C17.2299 21.4097 17.9419 21.0841 18.4671 20.3952C18.7763 19.9897 18.8192 19.8254 18.8192 19.0459C18.8192 18.3187 18.7666 18.0846 18.5289 17.7511C17.9374 16.9215 16.5628 16.4473 15.512 16.7101ZM5.96639 17.876C5.50725 18.6292 5.75914 20.1021 6.34717 20.1021C6.63842 20.1021 6.65999 19.8854 6.40258 19.5451C6.15997 19.2242 6.168 18.4743 6.41776 18.1175C6.62137 17.8268 6.58175 17.4684 6.34604 17.4684C6.27382 17.4684 6.10305 17.6517 5.96639 17.876ZM25.9507 17.6507C25.9123 17.751 25.9705 17.961 26.08 18.1175C26.3298 18.4743 26.3378 19.2242 26.0952 19.5451C25.8378 19.8854 25.8594 20.1021 26.1506 20.1021C26.7387 20.1021 26.9906 18.6292 26.5314 17.876C26.2641 17.4375 26.0625 17.3593 25.9507 17.6507ZM9.18037 20.9043C8.65465 21.4836 8.2246 21.9905 8.2246 22.0309C8.2246 22.0713 8.48313 22.3734 8.79922 22.7022C9.11517 23.0312 9.5787 23.6314 9.82921 24.0363L10.2847 24.7722L10.477 24.4763C10.5829 24.3136 10.8613 23.9662 11.0957 23.7044L11.5218 23.2285L10.8558 21.5399C10.4895 20.6112 10.1776 19.8513 10.163 19.8513C10.1482 19.8513 9.70596 20.3251 9.18037 20.9043ZM21.6483 21.5239L20.976 23.2285L21.4021 23.7044C21.6365 23.9662 21.9189 24.3197 22.0298 24.4899L22.2313 24.7994L22.4531 24.3633C22.7337 23.812 23.9935 22.2342 24.1532 22.2342C24.4417 22.2342 24.2 21.851 23.2925 20.87L22.3205 19.8196L21.6483 21.5239ZM3.27925 23.8959C3.19111 24.6853 2.7079 30.6346 2.7079 30.9307C2.7079 31.1476 3.01946 31.2193 3.13669 31.0295C3.23662 30.8678 3.83845 23.4679 3.76184 23.3437C3.72573 23.2853 3.6189 23.2375 3.52449 23.2375C3.4104 23.2375 3.32815 23.4581 3.27925 23.8959ZM28.736 23.3437C28.6594 23.4679 29.2612 30.8678 29.3611 31.0295C29.4783 31.2193 29.7899 31.1476 29.7899 30.9307C29.7899 30.6346 29.3067 24.6853 29.2185 23.8959C29.1697 23.4581 29.0874 23.2375 28.9733 23.2375C28.8789 23.2375 28.7721 23.2853 28.736 23.3437Z" fill="white"/>
</g>
<defs>
<clipPath id="clip0_106_348">
<rect width="32" height="30.8854" fill="white" transform="translate(0 0.931152)"/>
</clipPath>
</defs>
</svg>
