<svg width="35" height="35" viewBox="0 0 35 35" fill="none" xmlns="http://www.w3.org/2000/svg">
<g clip-path="url(#clip0_107_1790)">
<path fill-rule="evenodd" clip-rule="evenodd" d="M20.2974 0.410957C19.2425 0.555458 17.5942 0.997457 17.2368 1.23167C17.0356 1.36342 16.9824 1.6244 17.1073 1.86592C17.2673 2.17537 17.4601 2.18175 18.3222 1.90603C21.6718 0.834696 25.291 1.3528 28.2408 3.32593C30.4132 4.77889 32.0012 6.84924 32.8082 9.28038C33.2869 10.7225 33.4488 11.8763 33.3891 13.421C33.2551 16.8891 31.6494 19.9914 28.8371 22.2161C27.9942 22.8828 27.8828 23.4652 28.424 24.3762C28.8256 25.0522 29.5833 26.0351 30.2555 26.7521C30.5723 27.0899 30.8057 27.3663 30.7744 27.3663C30.6349 27.3663 29.0643 26.9579 28.4626 26.7652C28.0976 26.6483 27.4851 26.4198 27.1016 26.2575C26.3034 25.9196 25.043 25.2409 25.043 25.1489C25.043 25.1148 25.1145 24.9648 25.2019 24.8155C25.2892 24.6662 25.4988 24.2206 25.6676 23.8252C27.0991 20.4714 27.0064 16.6726 25.4127 13.3899C23.7615 9.98873 20.4929 7.38647 16.875 6.59285C15.5421 6.30046 14.1819 6.19939 13.0617 6.30949C12.6626 6.34867 12.3256 6.37019 12.3127 6.35731C12.2997 6.34436 12.4305 6.14295 12.6032 5.90966C13.0908 5.25118 14.3852 4.00373 15.0762 3.52647C15.4199 3.28907 15.756 3.0425 15.8232 2.97862C15.9805 2.82894 15.9795 2.52088 15.8211 2.32525C15.6031 2.05604 15.3231 2.11687 14.6479 2.58005C13.3668 3.45887 12.187 4.66674 11.2662 6.04214L10.8492 6.66523L10.071 6.92063C5.80778 8.31988 2.61178 11.914 1.6969 16.338C1.2982 18.2659 1.37443 20.4501 1.90515 22.3027C2.6489 24.899 4.19676 27.2069 6.29805 28.8524C6.5253 29.0304 6.7291 29.2322 6.75088 29.3008C6.83448 29.5643 5.83055 30.9775 4.82297 32.0148C3.98579 32.8766 3.92576 32.9654 3.92609 33.3411C3.92655 33.8937 4.35627 34.3388 4.88871 34.3381C5.1912 34.3377 6.3286 34.0903 7.21293 33.8325C8.63575 33.4177 10.3484 32.6473 11.4635 31.9205C12.2957 31.378 12.1811 31.4069 13.1924 31.4837C14.7876 31.6048 16.3948 31.4034 18.0065 30.8805C19.0414 30.5447 19.4729 30.3192 19.5609 30.0679C19.7022 29.6649 19.2714 29.3123 18.8482 29.4844C18.0524 29.8081 17.0751 30.1163 16.3545 30.2709C15.5605 30.4413 15.414 30.4514 13.7207 30.4544C11.7095 30.458 11.9147 30.415 10.9788 31.0283C10.3127 31.4648 8.78444 32.2146 7.9434 32.5176C7.28678 32.7542 5.35562 33.2765 5.13747 33.2765C5.06496 33.2765 5.20448 33.0927 5.52827 32.7618C6.36207 31.9098 7.24288 30.7448 7.63495 29.9754C7.95562 29.346 7.75574 28.6881 7.09028 28.1829C6.49448 27.7306 5.43584 26.6833 4.95346 26.0688C3.01466 23.5993 2.15796 20.4843 2.5645 17.3829C3.05916 13.6095 5.38311 10.3181 8.78743 8.56943C9.94748 7.97357 11.1087 7.60913 12.4922 7.40672C13.5154 7.25704 15.3463 7.30685 16.3106 7.51065C20.9865 8.49864 24.4302 11.9509 25.4523 16.6749C25.5846 17.2864 25.6032 17.5601 25.6032 18.8995C25.6032 20.2388 25.5847 20.5117 25.4529 21.1162C25.0497 22.9655 24.3241 24.5586 23.2269 26.0036C22.7496 26.6321 21.7781 27.6114 21.2214 28.0253C20.7032 28.4105 20.5938 28.5387 20.5938 28.7608C20.5938 29.0407 20.7993 29.2523 21.0711 29.2523C21.2419 29.2523 21.408 29.1704 21.7271 28.9292C22.3037 28.4932 23.744 27.0389 24.1423 26.4906L24.4648 26.0466L24.8037 26.2448C26.3974 27.1771 28.5979 27.993 30.4353 28.3328C31.0592 28.4482 31.088 28.4481 31.3523 28.3289C31.6822 28.1801 31.8844 27.9137 31.931 27.5665C31.9893 27.1318 31.9004 26.9715 31.1963 26.2424C30.8233 25.8562 30.3942 25.3893 30.2426 25.2048C29.83 24.7029 29.0938 23.5707 29.0938 23.4383C29.0938 23.3744 29.2332 23.2086 29.4036 23.0698C31.1594 21.6397 32.1936 20.3927 33.0826 18.634C35.6437 13.5676 34.4738 7.3285 30.2592 3.57741C28.4644 1.98 26.3537 0.959207 23.8809 0.492704C23.2405 0.371911 20.962 0.319915 20.2974 0.410957ZM9.07231 13.3154C8.69579 13.4087 8.24648 13.6267 7.92242 13.8734C7.38227 14.2848 6.91411 15.2472 6.91411 15.9466C6.91411 16.2135 6.94326 16.2898 7.08909 16.4044C7.18531 16.4801 7.33605 16.5421 7.42411 16.5421C7.64497 16.5421 7.9102 16.2605 7.9102 16.0259C7.9102 15.6819 8.10245 15.1796 8.34051 14.9015C8.68423 14.4999 9.1603 14.2843 9.70317 14.2843C10.6564 14.2843 11.3565 14.9412 11.4756 15.9472C11.5408 16.4974 11.9858 16.7226 12.3292 16.3791C12.5236 16.1848 12.5408 15.8932 12.3919 15.3216C12.1286 14.3106 11.2286 13.4851 10.1756 13.2885C9.729 13.2052 9.49379 13.2109 9.07231 13.3154ZM17.8828 13.2928C16.8533 13.4954 15.9898 14.3277 15.7151 15.3823C15.5684 15.9456 15.5832 16.186 15.7764 16.3791C16.1523 16.7551 16.5795 16.493 16.6734 15.8287C16.7426 15.3391 16.8707 15.0833 17.213 14.7511C17.7037 14.2749 18.5305 14.1442 19.1698 14.4419C19.7455 14.71 20.1954 15.3901 20.1954 15.9925C20.1954 16.468 20.7419 16.7132 21.0562 16.3787C21.1944 16.2316 21.2064 16.1694 21.1767 15.7545C21.0627 14.1612 19.4801 12.9785 17.8828 13.2928ZM6.85573 20.6041C6.44767 20.8061 6.18364 21.2349 6.18364 21.6956C6.18364 21.9786 6.2446 22.1635 6.51733 22.7084C7.9529 25.5759 10.7767 27.3117 14.0196 27.32C17.3204 27.3285 20.1077 25.6409 21.5658 22.7511C21.9139 22.0611 21.9329 21.998 21.9089 21.6135C21.8781 21.121 21.6517 20.7776 21.2324 20.5871C20.971 20.4684 20.6545 20.4629 14.0528 20.4616L7.14653 20.4602L6.85573 20.6041ZM7.2806 21.5466C7.16054 21.6344 7.16127 21.6479 7.30584 22.0041C7.52073 22.5335 8.15066 23.4784 8.6313 23.9922C10.0119 25.4681 11.9717 26.3043 14.0479 26.3036C16.8865 26.3024 19.3557 24.819 20.6454 22.3401C20.9604 21.7346 20.9812 21.6233 20.7974 21.5249C20.7113 21.4788 18.4815 21.4562 14.0366 21.4562C8.54385 21.4562 7.38307 21.4717 7.2806 21.5466Z" fill="#619E90"/>
</g>
<defs>
<clipPath id="clip0_107_1790">
<rect width="34" height="34" fill="white" transform="translate(0.9375 0.338867)"/>
</clipPath>
</defs>
</svg>
