<svg width="34" height="35" viewBox="0 0 34 35" fill="none" xmlns="http://www.w3.org/2000/svg">
<g clip-path="url(#clip0_107_1801)">
<path fill-rule="evenodd" clip-rule="evenodd" d="M19.9514 0.726234C19.0731 0.977715 18.2502 1.59841 17.7321 2.4002C17.0401 3.4708 16.9486 4.95751 17.5035 6.1153C17.6283 6.37581 17.7305 6.59927 17.7305 6.61189C17.7305 6.6245 17.5587 6.73301 17.3486 6.85307C16.5607 7.30357 15.9888 8.01027 15.7194 8.86638C15.579 9.31263 15.5723 9.44225 15.5723 11.7009C15.5723 13.9352 15.5794 14.0756 15.6988 14.2077C15.8465 14.3712 16.1809 14.3939 16.3731 14.2535C16.4955 14.1641 16.5036 14.0373 16.5352 11.7135L16.5684 9.2676L16.7592 8.85442C16.9823 8.37132 17.4759 7.87101 17.9827 7.61422C18.403 7.40126 18.4288 7.40112 18.7037 7.61084C19.8195 8.46196 21.4049 8.60467 22.7564 7.9756L23.1671 7.78449L23.4537 7.96956C24.0684 8.3666 24.4445 8.95204 24.566 9.70137C24.6044 9.93758 24.6359 10.9107 24.6362 11.8638C24.6367 13.4339 24.6477 13.6066 24.7537 13.7025C24.8181 13.7608 26.1255 14.155 27.659 14.5785C29.1925 15.0021 30.5844 15.3932 30.752 15.4476C31.487 15.6863 31.7979 16.4832 31.4068 17.1263C31.2952 17.3097 30.9261 17.6006 30.8039 17.6013C30.7809 17.6015 30.7494 17.4298 30.7339 17.2198C30.6843 16.5449 30.2931 15.9058 29.6836 15.5032C29.1304 15.1378 29.2915 15.1446 21.1696 15.1446C17.0501 15.1446 13.6797 15.1292 13.6797 15.1104C13.6797 15.0916 13.767 14.9197 13.8737 14.7285C14.2296 14.091 14.3766 13.4753 14.3768 12.6211C14.377 11.9559 14.3519 11.781 14.1826 11.2644C13.8217 10.1633 13.0371 9.23433 12.0288 8.71431C11.2456 8.31042 10.8428 8.21267 9.96094 8.21267C9.12389 8.21267 8.69802 8.3073 8.00899 8.64617C5.59586 9.83305 4.78098 12.8555 6.26948 15.0981C6.40966 15.3093 6.51319 15.4929 6.49951 15.5061C6.48583 15.5192 6.08613 15.7182 5.61133 15.9481C4.90762 16.2889 4.67288 16.4409 4.34118 16.7703C3.66616 17.4408 3.64225 17.5109 2.42516 22.3776C1.44161 26.3104 1.32812 26.8218 1.32812 27.3223C1.32812 28.0321 1.50364 28.6175 1.88275 29.1722C2.42721 29.969 2.57258 30.0503 6.43005 31.7173C8.35377 32.5486 10.0771 33.2707 10.2598 33.3218C10.6669 33.4358 11.2562 33.39 11.6556 33.2134C12.0488 33.0394 12.5268 32.5834 12.7384 32.1804C12.8922 31.8873 12.9142 31.7674 12.915 31.2149C12.9161 30.485 12.7778 30.1138 12.3423 29.6783C12.009 29.3449 11.8838 29.2861 8.83203 28.0282C7.38936 27.4335 6.14172 26.886 6.05957 26.8115C5.96554 26.7263 5.91016 26.5994 5.91016 26.4691C5.91016 26.3552 6.20898 25.2873 6.57422 24.0959C6.93945 22.9046 7.23828 21.8397 7.23828 21.7295C7.23828 21.5129 6.98428 21.2539 6.77184 21.2539C6.46046 21.2539 6.37772 21.4408 5.66824 23.7466C5.28654 24.9871 4.9567 26.1285 4.93525 26.2833C4.85197 26.8843 5.19323 27.501 5.76745 27.7875C5.93725 27.8722 7.25654 28.428 8.69922 29.0227C10.1419 29.6173 11.4194 30.1761 11.5382 30.2643C11.8432 30.4911 11.9791 30.7844 11.9818 31.2214C11.9847 31.6812 11.7516 32.0753 11.3581 32.276C10.8268 32.5471 10.7883 32.5351 7.09179 30.9445C5.21834 30.1384 3.56349 29.4079 3.41434 29.3212C2.80268 28.9657 2.34919 28.2302 2.28285 27.486C2.24838 27.0988 2.33259 26.7157 3.31673 22.7813C3.90602 20.4255 4.43713 18.3676 4.4971 18.2081C4.557 18.0486 4.75475 17.7553 4.93657 17.5564C5.22119 17.245 5.40972 17.1259 6.29166 16.7004L7.31611 16.2061L7.50822 16.3429C7.83813 16.5779 8.51142 16.8511 9.05861 16.9722C10.1873 17.2219 11.607 16.9409 12.4647 16.298L12.6775 16.1386L20.7323 16.1397L28.7871 16.1409L29.0859 16.2941C29.4217 16.4663 29.6485 16.76 29.7571 17.1632C29.9134 17.7435 29.4577 18.4882 28.8416 18.6593C28.6816 18.7037 27.5681 18.7299 25.8257 18.7301C23.1422 18.7305 23.0601 18.7343 22.9426 18.8642C22.7875 19.0356 22.7875 19.3551 22.9426 19.5265C23.0604 19.6567 23.1416 19.6602 26.0058 19.6602C28.8593 19.6602 28.9598 19.6559 29.332 19.5165C29.606 19.414 29.8267 19.2621 30.1035 18.9853C30.3967 18.692 30.5377 18.5977 30.6825 18.5977C31.0498 18.5977 31.6013 18.3338 31.9382 17.9968C32.8917 17.0434 32.6788 15.3845 31.5173 14.7169C31.2863 14.5842 30.0154 14.2152 26.1807 13.1679L25.5664 13.0002L25.5654 11.3331C25.5643 9.46755 25.5111 9.09329 25.1497 8.4105C24.9416 8.01731 24.4379 7.44137 24.1097 7.22123L23.9478 7.11266L24.1507 6.82884C24.6887 6.07612 24.9232 5.34997 24.9179 4.45315C24.9075 2.6724 23.7189 1.13596 22.0163 0.702394C21.4851 0.567125 20.4659 0.578879 19.9514 0.726234ZM20.3535 1.62498C19.5246 1.8307 18.7796 2.43028 18.4071 3.19143C17.5402 4.96309 18.642 7.0592 20.605 7.37277C22.0457 7.60293 23.4984 6.64469 23.8696 5.21948C24.1322 4.21117 23.871 3.23028 23.1342 2.45784C22.395 1.68295 21.3642 1.37416 20.3535 1.62498ZM9.07714 9.26767C7.95394 9.57646 6.9783 10.5142 6.63963 11.6106C6.47514 12.1433 6.46319 13.0427 6.61373 13.5553C7.04796 15.0335 8.3907 16.0761 9.87946 16.0911C10.5333 16.0977 11.0063 15.9858 11.5774 15.6894C12.3924 15.2666 13.0401 14.4679 13.3081 13.5553C13.4587 13.0427 13.4467 12.1433 13.2822 11.6106C12.9437 10.5146 11.9482 9.55455 10.8551 9.2698C10.3859 9.14761 9.51768 9.14655 9.07714 9.26767ZM18.4803 10.7962C18.371 10.8422 18.2622 10.9304 18.2385 10.9922C18.2147 11.0541 18.1953 11.7556 18.1953 12.5512C18.1953 13.9141 18.2033 14.0079 18.333 14.1727C18.5076 14.3948 18.847 14.412 19.0317 14.208C19.1467 14.0811 19.16 13.9344 19.1783 12.5944C19.1973 11.1979 19.1912 11.1114 19.0636 10.9493C18.8934 10.7328 18.7319 10.6904 18.4803 10.7962ZM17.8078 17.9387C17.5557 18.0646 17.3069 18.2554 17.1584 18.4367L16.9176 18.7305H15.4695H14.0213L13.8825 18.907C13.744 19.083 13.7437 19.0977 13.7615 24.1258L13.7793 29.168L13.9361 29.295C14.1492 29.4676 14.3837 29.4544 14.5792 29.2589L14.7422 29.0959V24.378V19.6602H15.7277H16.7133L16.7935 20.0191C16.892 20.459 17.184 20.9137 17.5152 21.1429C17.9719 21.459 18.2637 21.5196 19.3301 21.5196C20.1597 21.5196 20.3726 21.4981 20.678 21.3838C22.2062 20.8121 22.3174 18.7055 20.8593 17.9507L20.4415 17.7344H19.329C18.2197 17.7344 18.2154 17.735 17.8078 17.9387ZM18.3708 18.7292C17.8218 18.9029 17.5593 19.611 17.8606 20.1052C18.0826 20.4692 18.2744 20.5235 19.3375 20.5232C20.1622 20.523 20.3151 20.5059 20.4997 20.3933C21.062 20.0505 21.0491 19.1929 20.476 18.8171C20.3269 18.7193 20.1338 18.6947 19.4269 18.6832C18.9504 18.6755 18.4751 18.6962 18.3708 18.7292Z" fill="#619E90"/>
</g>
<defs>
<clipPath id="clip0_107_1801">
<rect width="34" height="34" fill="white" transform="translate(0 0.0703125)"/>
</clipPath>
</defs>
</svg>
