<svg width="20" height="20" viewBox="0 0 20 20" fill="none" xmlns="http://www.w3.org/2000/svg">
<g clip-path="url(#clip0_239_806)">
<path fill-rule="evenodd" clip-rule="evenodd" d="M10.7905 0.0777914C10.4318 0.296502 10.4165 0.812518 10.7621 1.03892C10.8181 1.07564 11.087 1.15611 11.3596 1.21775C13.2244 1.63931 14.7178 2.44197 16.0678 3.74818C17.4509 5.08627 18.4546 6.92349 18.7896 8.73033C18.8559 9.08775 18.9168 9.22685 19.0596 9.34701C19.3402 9.58314 19.7624 9.48928 19.9243 9.15475L20.0097 8.97842L19.9244 8.55033C19.5046 6.44314 18.5108 4.58303 16.9856 3.04959C15.477 1.53283 13.6821 0.54701 11.6081 0.0960726C11.073 -0.0202555 10.9556 -0.0228727 10.7905 0.0777914ZM3.59363 1.1749C3.34679 1.20478 3.05058 1.31181 2.78327 1.46775C2.57488 1.58928 1.32538 2.80072 0.853078 3.33908C0.481281 3.76291 0.229641 4.22846 0.110617 4.71267C0.00194539 5.1549 -0.00641399 6.03971 0.0927657 6.60142C0.693156 10.0019 3.62066 14.2561 7.20691 16.9396C8.72402 18.0748 10.5307 19.0576 12.0003 19.547C12.9861 19.8753 13.5617 19.9785 14.3944 19.9763C14.961 19.9749 15.0523 19.9647 15.371 19.8678C15.763 19.7486 16.1353 19.5586 16.4192 19.3327C16.523 19.2501 17.0093 18.7697 17.4996 18.2652C18.2954 17.4466 18.408 17.3145 18.5468 17.0372C18.8471 16.4372 18.8527 15.9042 18.5648 15.3124C18.4317 15.0385 18.3266 14.9234 16.9553 13.5492C15.5794 12.1706 15.4699 12.0702 15.1952 11.9368C14.6371 11.6658 14.0966 11.6676 13.5475 11.9423C13.3201 12.0561 13.1255 12.2206 12.4239 12.8919L11.5755 13.7039L11.1617 13.4781C9.44245 12.5397 7.34659 10.4258 6.42452 8.70006L6.25378 8.38049L7.00714 7.61791C8.00816 6.60471 8.18816 6.3226 8.23171 5.69869C8.25738 5.33119 8.1996 5.06822 8.01378 4.70689C7.89503 4.47599 7.72406 4.28181 6.91503 3.45908C5.08113 1.59404 4.83835 1.38326 4.35534 1.23635C4.10831 1.16123 3.86722 1.14178 3.59363 1.1749ZM3.49148 2.40201C3.34972 2.47267 3.0539 2.7442 2.41691 3.38834C1.23839 4.58006 1.19023 4.67045 1.193 5.68346C1.19452 6.22584 1.20909 6.36963 1.30323 6.77127C1.68355 8.39334 2.67777 10.3725 3.96511 12.0702C5.9264 14.6567 8.16288 16.5212 10.8788 17.8342C12.1818 18.464 13.1843 18.7735 14.1605 18.8472C14.6429 18.8836 14.9873 18.8229 15.371 18.6338C15.6599 18.4915 15.75 18.4126 16.5646 17.5895C17.1621 16.9857 17.4734 16.6417 17.5314 16.5207C17.6319 16.3115 17.6412 16.071 17.5567 15.8678C17.4817 15.6875 14.8931 13.0769 14.6792 12.9658C14.5043 12.875 14.2673 12.8691 14.072 12.9507C13.9804 12.989 13.6066 13.3302 13.0474 13.886C11.8275 15.0983 11.8014 15.1075 10.9071 14.6435C9.73906 14.0374 8.71867 13.2561 7.61679 12.124C6.5423 11.0201 5.79464 10.0257 5.33589 9.09056C5.07027 8.54912 5.01777 8.33783 5.08171 8.06799C5.12554 7.88318 5.18695 7.81162 6.07226 6.91392C6.84718 6.12814 7.02441 5.9281 7.06265 5.79611C7.19054 5.35471 7.15671 5.30678 5.65171 3.79732C4.29741 2.43908 4.13308 2.30455 3.828 2.30455C3.7505 2.30455 3.59906 2.34842 3.49148 2.40201ZM10.6813 3.67014C10.6372 3.68803 10.5449 3.76662 10.4762 3.84478C10.3689 3.96705 10.3514 4.01642 10.3514 4.19744C10.3514 4.36752 10.3711 4.43127 10.4537 4.52951C10.588 4.68912 10.6979 4.74119 11.0741 4.82361C12.078 5.04353 12.9576 5.53119 13.7131 6.28666C14.4876 7.06127 14.9423 7.90865 15.2116 9.07971C15.2996 9.46244 15.4949 9.64846 15.8085 9.64814C16.0896 9.64787 16.3666 9.38279 16.3669 9.11373C16.3671 8.91924 16.2601 8.45814 16.1116 8.01459C15.3944 5.87111 13.5857 4.22678 11.3753 3.70857C11.0337 3.62849 10.8142 3.61635 10.6813 3.67014Z" fill="white"/>
</g>
<defs>
<clipPath id="clip0_239_806">
<rect width="20" height="20" fill="white"/>
</clipPath>
</defs>
</svg>
