<svg width="32" height="32" viewBox="0 0 32 32" fill="none" xmlns="http://www.w3.org/2000/svg">
<g clip-path="url(#clip0_106_377)">
<path fill-rule="evenodd" clip-rule="evenodd" d="M25.7188 0.415483C25.3083 0.546987 24.9587 0.742253 24.6869 0.991749L24.4306 1.22707L24.0492 1.03717C23.7232 0.874783 23.5877 0.844139 23.1159 0.826162C22.6117 0.806919 22.53 0.820371 22.1726 0.981856C21.9574 1.07904 21.6729 1.25729 21.5404 1.37794L21.2995 1.59727L21.0621 1.48037C20.5262 1.21645 19.7041 1.22755 19.134 1.50643C18.828 1.65609 18.299 2.15538 18.1805 2.40657C18.1169 2.54133 18.0932 2.54821 17.8839 2.49241C17.5159 2.39432 16.8635 2.46792 16.475 2.65136C16.0458 2.85404 15.5395 3.37825 15.3958 3.76872L15.2889 4.05918L14.8789 4.09616C14.0961 4.16667 13.4012 4.63605 13.0537 5.32898C12.9558 5.52413 12.9062 5.75335 12.8884 6.09285C12.8522 6.78271 13.0128 7.17366 13.5421 7.68496L13.9388 8.06813L13.7151 8.60784C13.3492 9.49049 13.0626 10.747 13.0626 11.4684C13.0626 11.7998 13.222 11.9768 13.5205 11.9768C13.8671 11.9768 13.9692 11.8031 14.0538 11.0695C14.1427 10.2989 14.3618 9.48367 14.6604 8.81282L14.8828 8.31322L15.2503 8.28101C16.1223 8.2047 16.8493 7.62699 17.1468 6.77396C17.172 6.70175 17.2492 6.66839 17.3913 6.66839C17.7073 6.66839 18.3178 6.49871 18.5626 6.34283C18.8585 6.15432 19.2282 5.77923 19.3132 5.58107L19.3829 5.4188L19.9571 5.44655C20.6682 5.48093 21.0894 5.34834 21.5563 4.94315L21.8687 4.67212L22.1375 4.8064C22.4805 4.97766 23.3445 5.03111 23.7141 4.90394L23.9593 4.81961L24.2556 5.24718C24.7557 5.96877 25.4055 6.35912 26.198 6.41383L26.6265 6.44339L26.7333 6.7821C27.0222 7.69793 26.7428 9.34312 25.6882 12.9363C25.4487 13.7523 25.205 14.6778 25.1466 14.993C25.0002 15.7833 25.0003 17.3882 25.1469 18.3108C25.3143 19.3641 25.6939 20.8794 25.87 21.197C26.022 21.4711 26.527 21.4279 26.6759 21.1281C26.7478 20.9834 26.7387 20.8954 26.6041 20.4358C26.1705 18.9551 25.9938 17.8524 25.9919 16.617C25.9902 15.4725 26.0905 14.928 26.6575 13.0026C27.1072 11.4752 27.5175 9.80351 27.7237 8.65906C27.853 7.94055 27.8155 7.04566 27.6326 6.48869C27.5124 6.12253 27.5111 6.09436 27.6116 6.04296C27.8457 5.92322 28.3787 5.33097 28.554 4.99582C28.8435 4.44217 28.949 4.01116 28.949 3.38079C28.949 2.43812 28.6303 1.65693 27.996 1.04477C27.513 0.578536 27.064 0.37947 26.4388 0.354315C26.1617 0.343155 25.8663 0.36825 25.7188 0.415483ZM25.9228 1.29584C25.4238 1.45117 25.0663 1.82704 24.8281 2.44686C24.6348 2.94984 24.6008 3.37228 24.7122 3.88485C24.974 5.08932 25.7611 5.7031 26.7046 5.43835C27.6978 5.15965 28.2735 3.75967 27.8795 2.58102C27.6166 1.79453 27.0867 1.31593 26.4249 1.26706C26.2428 1.25367 26.0169 1.26658 25.9228 1.29584ZM22.5313 1.82216C22.088 2.04777 21.8153 2.45748 21.8153 2.8982C21.8153 3.18377 21.9865 3.56923 22.1958 3.75491C22.5228 4.045 23.0658 4.15123 23.4908 4.00827L23.6876 3.94203L23.6912 3.42012C23.6933 3.1138 23.7428 2.72381 23.8111 2.47594C23.9195 2.08239 23.9203 2.04813 23.8231 1.97182C23.4995 1.7178 22.878 1.64577 22.5313 1.82216ZM19.5821 2.32181C19.431 2.38805 19.2407 2.54266 19.132 2.68743C18.5452 3.46934 19.1177 4.55099 20.121 4.55576C20.4428 4.55733 20.884 4.37045 21.0555 4.15998C21.1723 4.01671 21.1719 4.01008 21.026 3.66762C20.9155 3.40829 20.8777 3.2038 20.8766 2.85953L20.8751 2.39854L20.6238 2.30154C20.2916 2.17324 19.904 2.18078 19.5821 2.32181ZM17.0429 3.41197C16.7542 3.49558 16.4593 3.75177 16.3108 4.0479C16.0365 4.59473 16.261 5.27614 16.8143 5.57624C17.298 5.83865 18.0402 5.70829 18.3705 5.30298C18.5887 5.03527 18.5967 4.885 18.4041 4.66416C18.1959 4.42534 18.0308 4.06636 17.9703 3.72095C17.9358 3.52417 17.8891 3.45046 17.7712 3.40721C17.5873 3.33971 17.2854 3.3417 17.0429 3.41197ZM14.8117 5.03497C14.0307 5.18221 13.602 5.98041 13.9252 6.68553C14.1634 7.20539 14.8222 7.49892 15.3852 7.33617C15.7241 7.23815 16.1073 6.89038 16.1979 6.59866C16.2704 6.36509 16.2678 6.35827 16.0418 6.17839C15.7682 5.96068 15.4873 5.57848 15.3714 5.26588C15.3252 5.1415 15.2673 5.03967 15.2427 5.03967C15.218 5.03967 15.1603 5.02929 15.1146 5.01663C15.0688 5.00396 14.9325 5.01216 14.8117 5.03497ZM18.2876 11.9316C18.166 12.0367 18.0852 12.2407 17.9287 12.837L17.7267 13.6068L17.854 13.772C18.0793 14.0643 18.5167 14.0279 18.6564 13.7052C18.7035 13.5965 18.8157 13.2268 18.9058 12.8836C19.0883 12.1889 19.0628 11.9909 18.7742 11.864C18.552 11.7663 18.4647 11.7784 18.2876 11.9316ZM8.48385 12.1889C5.53404 12.728 3.34691 15.0334 3.0676 17.898C2.82397 20.3972 4.18404 22.8397 6.5001 24.0621C7.04066 24.3475 8.0946 24.6796 8.74522 24.7697C10.2368 24.9762 11.9985 24.5856 13.2933 23.7611C13.8483 23.4078 14.7222 22.5623 15.1022 22.0111C15.4587 21.4939 15.812 20.7723 15.9468 20.2856C15.9904 20.1284 16.0421 19.9998 16.0617 19.9998C16.1284 19.9998 17.0062 21.4144 17.3158 22.0206C17.7126 22.7978 17.8854 23.3988 18.1914 25.0663C18.5836 27.2029 18.8003 27.9151 19.3117 28.7467C19.9797 29.8331 21.1828 30.6921 22.5347 31.0479C23.2728 31.2421 24.7047 31.2434 25.4063 31.0505C26.303 30.804 26.9022 30.4738 27.5038 29.8948C28.528 28.9092 28.913 27.7325 28.6635 26.3499C28.5415 25.6742 27.4328 22.7423 27.2373 22.5786C26.9871 22.3691 26.5135 22.5226 26.4927 22.8199C26.479 23.0152 26.5076 23.1024 27.0342 24.4695C27.6757 26.1351 27.7515 26.4062 27.7573 27.0576C27.7653 27.9567 27.4871 28.6487 26.8838 29.2298C25.0966 30.9513 21.6813 30.5374 20.2272 28.423C19.7297 27.6996 19.4978 26.9582 19.1302 24.9161C18.6789 22.409 18.4601 21.8828 16.8713 19.4836C16.3059 18.6298 16.2672 18.551 16.2267 18.1691L16.1836 17.7629L17.0272 16.7364C17.9623 15.5985 18.0453 15.427 17.8375 15.061C17.6107 14.6614 17.5248 14.6344 16.0573 14.4991L14.7188 14.3758L14.2037 13.8993C13.3395 13.0999 12.3829 12.5799 11.2575 12.2977C10.4902 12.1053 9.21516 12.0553 8.48385 12.1889ZM8.67816 13.0967C5.94072 13.5748 4.0001 15.8003 4.0001 18.4616C4.0001 21.324 6.22172 23.6186 9.2566 23.8907C10.9245 24.0402 12.7973 23.2778 13.9143 21.9945C14.857 20.9113 15.2501 19.8218 15.2501 18.2916C15.2501 17.3531 15.1737 17.5176 16.177 16.2966C16.5284 15.8689 16.8082 15.5119 16.7987 15.5034C16.7892 15.4948 16.262 15.4414 15.6273 15.3848C14.9927 15.3281 14.4085 15.258 14.3291 15.2288C14.2497 15.1998 13.9384 14.938 13.6372 14.6471C12.3122 13.3676 10.4538 12.7865 8.67816 13.0967ZM20.2238 13.2791C19.7189 13.5408 19.1034 13.9117 18.9532 14.0448C18.8139 14.1683 18.7765 14.3495 18.8514 14.5378C18.9074 14.6786 19.2332 14.8253 19.3861 14.7785C19.6017 14.7124 20.8945 13.9647 20.9794 13.8569C21.0928 13.713 21.0805 13.4584 20.9532 13.3132C20.776 13.111 20.567 13.1012 20.2238 13.2791ZM10.447 15.1589C10.2702 15.3032 8.24429 18.0011 8.1676 18.1946C8.02104 18.5641 8.30897 18.9404 8.7891 19.0068C8.95672 19.0299 9.26685 19.0796 9.47835 19.1172L9.86285 19.1854L8.93304 20.4221C8.42166 21.1022 8.00254 21.7176 8.00166 21.7895C7.99916 22.0007 8.06622 22.1098 8.25716 22.2051C8.64147 22.3969 8.62579 22.4132 10.5751 19.7983C11.1358 19.0462 11.1817 18.8636 10.8897 18.5482C10.7321 18.3779 10.6578 18.3529 10.046 18.2647C9.67697 18.2115 9.3751 18.1494 9.3751 18.1269C9.3751 18.1043 9.78229 17.546 10.28 16.8863C11.2574 15.5905 11.3117 15.4692 11.0342 15.2014C10.854 15.0274 10.6282 15.0111 10.447 15.1589ZM19.1535 15.322C18.8554 15.6097 18.9767 15.9624 19.4213 16.1012C19.8712 16.2416 20.7225 16.4407 20.8727 16.4407C21.0565 16.4407 21.3126 16.1773 21.3126 15.9883C21.3126 15.7017 21.0882 15.5721 20.2346 15.3658C19.798 15.2603 19.4107 15.174 19.3739 15.174C19.337 15.174 19.2379 15.2406 19.1535 15.322Z" fill="white"/>
</g>
<defs>
<clipPath id="clip0_106_377">
<rect width="32" height="30.8854" fill="white" transform="translate(0 0.334473)"/>
</clipPath>
</defs>
</svg>
