<svg width="31" height="31" viewBox="0 0 31 31" fill="none" xmlns="http://www.w3.org/2000/svg">
<g clip-path="url(#clip0_106_307)">
<path fill-rule="evenodd" clip-rule="evenodd" d="M15.3358 0.882599C15.283 0.922911 13.894 2.64334 12.2492 4.70584C9.98917 7.53984 9.2585 8.49416 9.25792 8.61281C9.25634 8.94451 9.30233 8.95389 10.9312 8.95389H12.4212V11.2464V13.5388L12.2308 13.4996C11.5115 13.3517 10.8097 13.2905 9.82845 13.2902L8.72981 13.2898V11.8069C8.72981 10.7093 8.71077 10.2997 8.65657 10.2308C8.53704 10.0787 8.3622 10.0599 8.173 10.1786C7.87089 10.3682 0.687352 16.1263 0.622254 16.2311C0.581297 16.297 0.579422 16.3802 0.616805 16.4781C0.699246 16.6941 8.20382 22.6648 8.39284 22.6648C8.47147 22.6648 8.57952 22.6166 8.63284 22.5577C8.71768 22.4639 8.72981 22.2655 8.72981 20.9712V19.4918L9.85774 19.511C10.9481 19.5295 10.9955 19.5353 11.2813 19.6862C11.6811 19.8972 12.0562 20.2831 12.2399 20.6726L12.3919 20.9949L12.4212 25.3502C12.4496 29.5761 12.4539 29.708 12.5642 29.7887C12.7335 29.9124 18.3199 29.9124 18.4891 29.7887C18.5995 29.708 18.6037 29.5761 18.6322 25.3502L18.6615 20.9949L18.8134 20.6726C18.9972 20.2831 19.3723 19.8972 19.772 19.6862C20.0579 19.5353 20.1053 19.5295 21.1956 19.511L22.3236 19.4918V20.9814C22.3236 22.3499 22.3322 22.4787 22.4307 22.5679C22.4897 22.6212 22.5977 22.6648 22.6707 22.6648C22.8422 22.6648 30.3576 16.6846 30.4331 16.4881C30.4621 16.4123 30.4701 16.3093 30.4509 16.2591C30.4191 16.1763 23.3853 10.5227 22.9146 10.2017C22.701 10.056 22.5265 10.0658 22.3968 10.2308C22.3426 10.2997 22.3236 10.7093 22.3236 11.8069V13.2898L21.2249 13.2902C20.2437 13.2905 19.5419 13.3517 18.8226 13.4996L18.6322 13.5388V11.2464V8.95389H20.1172C21.4815 8.95389 21.6102 8.94516 21.6992 8.84672C21.7526 8.78778 21.7959 8.67574 21.7956 8.5977C21.7951 8.49902 20.8853 7.31508 18.8047 4.70584C17.1601 2.64334 15.7711 0.922911 15.718 0.882599C15.6649 0.842345 15.5788 0.809357 15.5267 0.809357C15.4745 0.809357 15.3886 0.842345 15.3358 0.882599ZM12.9063 4.99998L10.3153 8.25076H11.6026C12.8119 8.25076 12.8971 8.25785 13.0072 8.36795C13.1209 8.48168 13.1243 8.56324 13.1243 11.1223V13.7595L13.3734 13.8582C13.8968 14.0658 14.6549 14.4756 15.0821 14.7821L15.5268 15.1012L16.098 14.7129C16.5888 14.3794 17.1058 14.1056 17.7679 13.8285L17.929 13.7611V11.1231C17.929 8.56324 17.9325 8.48168 18.0462 8.36795C18.1563 8.25785 18.2415 8.25076 19.4509 8.25076H20.7385L18.1573 5.01346C16.7375 3.23291 15.5583 1.77012 15.5366 1.76268C15.5151 1.75529 14.3314 3.21205 12.9063 4.99998ZM4.77684 13.7557C3.00555 15.1682 1.55009 16.3465 1.54247 16.3743C1.53057 16.4174 7.84563 21.4877 7.9787 21.5418C8.00507 21.5525 8.02669 20.9981 8.02669 20.3097C8.02669 19.2717 8.04227 19.0359 8.11792 18.9279C8.20751 18.7999 8.23182 18.7976 9.51895 18.7976C10.9829 18.7976 11.2772 18.8497 11.8345 19.2073C12.203 19.4438 12.6628 19.9436 12.8305 20.29C13.1222 20.8927 13.1229 20.9036 13.1236 25.1697L13.1243 29.1687H15.5298H17.9352L17.9136 24.8474C17.8926 20.6854 17.8873 20.5067 17.7672 19.9988C17.4002 18.4458 16.7483 17.257 15.677 16.187C14.7177 15.2289 13.5587 14.573 12.1868 14.2121C11.5369 14.0411 11.4546 14.0335 9.8605 13.9992C8.62329 13.9726 8.18893 13.9446 8.13198 13.8876C8.07614 13.8317 8.04825 13.464 8.02669 12.4995L7.99739 11.1875L4.77684 13.7557ZM23.0267 12.455C23.0267 13.468 23.0093 13.76 22.9437 13.8499C22.866 13.9562 22.7556 13.9659 21.2591 13.9972C19.2147 14.0399 18.5566 14.1724 17.3284 14.7882C16.8306 15.0378 16.1126 15.4876 16.1126 15.5498C16.1126 15.5658 16.3393 15.8483 16.6165 16.1775C17.4213 17.1338 17.9918 18.1852 18.2867 19.2554C18.3549 19.5032 18.4213 19.7415 18.434 19.785C18.4491 19.8362 18.5828 19.7479 18.8129 19.5348C19.5172 18.8828 19.8323 18.7976 21.5399 18.7976C22.8214 18.7976 22.8459 18.7999 22.9355 18.9279C23.0111 19.0359 23.0267 19.2717 23.0267 20.3097C23.0267 20.9981 23.0483 21.5525 23.0746 21.5418C23.1631 21.5057 29.5253 16.4251 29.528 16.3883C29.5301 16.3589 23.5038 11.5171 23.1331 11.2504C23.0312 11.1771 23.0267 11.228 23.0267 12.455Z" fill="#619E90"/>
</g>
<defs>
<clipPath id="clip0_106_307">
<rect width="30" height="30" fill="white" transform="translate(0.526733 0.340607)"/>
</clipPath>
</defs>
</svg>
