<svg width="30" height="31" viewBox="0 0 30 31" fill="none" xmlns="http://www.w3.org/2000/svg">
<path fill-rule="evenodd" clip-rule="evenodd" d="M15.0677 2.61711C14.0843 7.94926 13.2536 10.1235 11.5467 11.8324C9.79103 13.5901 7.11142 14.6216 2.19763 15.4312C1.48865 15.5479 0.882262 15.6508 0.850094 15.6597C0.817926 15.6686 1.10796 15.7225 1.49463 15.7794C7.99261 16.737 11.1464 18.2079 12.8364 21.0693C13.7023 22.5352 14.2422 24.2444 14.9693 27.8209C15.1491 28.7052 15.3036 29.4362 15.3128 29.4454C15.322 29.4546 15.3631 29.2585 15.404 29.0095C15.602 27.8043 16.0834 25.3519 16.2866 24.5132C17.3408 20.1603 18.929 18.4298 23.1449 17.0403C24.5748 16.569 27.0096 15.9904 28.9457 15.6617C29.206 15.6175 29.2071 15.6163 29.0336 15.5698C28.9369 15.544 28.2909 15.4148 27.598 15.2829C21.3846 14.1001 18.6985 12.6595 17.2831 9.75055C16.5752 8.29567 16.0986 6.50909 15.4381 2.83414C15.3512 2.35075 15.2632 1.93666 15.2425 1.91399C15.2219 1.89131 15.1432 2.20772 15.0677 2.61711ZM24.0887 4.12321C23.7655 5.72358 23.3753 6.11926 21.8112 6.43303L21.2992 6.53575L21.5629 6.57998C22.0137 6.65551 22.577 6.80375 22.8451 6.91731C23.484 7.18801 23.7693 7.60127 24.0194 8.61846L24.179 9.26762L24.2845 8.7169C24.4283 7.9662 24.583 7.57766 24.8407 7.31996C25.1353 7.02541 25.4806 6.86903 26.2636 6.67549L26.9242 6.51225L26.5726 6.44194C25.9646 6.32036 25.5878 6.19889 25.2306 6.00934C24.6792 5.71678 24.4788 5.35959 24.2626 4.2837L24.1597 3.77164L24.0887 4.12321ZM6.98949 21.2768C6.68791 22.6694 6.18459 23.1296 4.62927 23.4348C4.08207 23.5422 4.08599 23.548 4.80453 23.6929C6.1741 23.9691 6.68744 24.4439 6.97584 25.7013C7.04041 25.9828 7.10861 26.279 7.12736 26.3595C7.15127 26.4622 7.20213 26.3066 7.29746 25.8389C7.45402 25.0711 7.71002 24.4955 7.98974 24.2821C8.3682 23.9934 8.75867 23.851 9.93201 23.5736C10.0848 23.5375 10.0427 23.5179 9.60974 23.4235C8.73365 23.2326 8.27468 23.0348 7.93543 22.7018C7.58849 22.3613 7.43837 22.0172 7.27929 21.1977C7.22363 20.911 7.16492 20.6764 7.1488 20.6764C7.13269 20.6764 7.06103 20.9465 6.98949 21.2768Z" fill="#619E90"/>
</svg>
