<svg width="34" height="34" viewBox="0 0 34 34" fill="none" xmlns="http://www.w3.org/2000/svg">
<path fill-rule="evenodd" clip-rule="evenodd" d="M16.2696 1.03293C15.6816 1.15924 14.8534 1.58205 14.4004 1.98726C14.0556 2.29565 13.987 2.32819 13.5513 2.39001C11.7515 2.64528 10.5126 3.74888 10.0469 5.5117C9.74577 6.65137 10.0559 8.49972 10.7757 9.8552L11.003 10.2831L10.8298 10.4112C10.7346 10.4815 10.5685 10.7004 10.4607 10.8974C10.291 11.2078 10.2613 11.3405 10.2394 11.8867C10.2186 12.4057 10.2386 12.5824 10.3519 12.8828C10.5389 13.3789 10.8231 13.7032 11.2567 13.9154C11.5787 14.0729 11.6279 14.1245 11.6889 14.3678C11.9816 15.5366 12.5229 16.5533 13.2647 17.3276C13.6273 17.7061 13.7461 17.8758 13.7461 18.0155C13.7461 18.2922 13.555 19.165 13.4086 19.5562L13.28 19.9L11.71 20.3746C10.8464 20.6357 10.0848 20.8992 10.0173 20.9603C9.94983 21.0213 9.89458 21.137 9.89458 21.2171C9.89458 21.353 9.85494 21.3657 9.31353 21.4043C6.62806 21.5958 4.44236 23.4654 3.7702 26.1459C3.63048 26.7029 3.62397 26.8616 3.62165 29.7646C3.61926 32.7313 3.62225 32.8037 3.75433 32.936C3.88946 33.0712 3.89677 33.0713 17.0001 33.0713C30.1031 33.0713 30.1107 33.0712 30.2458 32.936C30.3778 32.8037 30.3808 32.7312 30.3785 29.7646C30.3761 26.8616 30.3696 26.7029 30.2299 26.1459C29.7327 24.1628 28.4147 22.6091 26.583 21.8466C25.9836 21.5971 25.0293 21.3849 24.5007 21.3837C24.1415 21.3828 24.1301 21.377 24.0497 21.1548C23.9513 20.8824 23.9315 20.874 22.0805 20.3216C21.2427 20.0715 20.7212 19.8822 20.6672 19.8083C20.5406 19.6351 20.3246 18.8948 20.2372 18.3338L20.1603 17.8415L20.4628 17.5701C21.2081 16.9015 21.8744 15.7709 22.2004 14.6219C22.357 14.0701 22.357 14.07 22.6871 13.9171C23.083 13.7337 23.4626 13.3111 23.6039 12.8964C23.6692 12.7047 23.7068 12.3602 23.7064 11.9579C23.7059 11.4301 23.6792 11.2651 23.549 10.9855C23.3943 10.6533 22.9666 10.2265 22.7884 10.2265C22.7273 10.2265 22.7126 10.1878 22.7443 10.1103C22.9226 9.67405 23.2529 8.61002 23.3525 8.15122C23.519 7.3837 23.5179 5.71809 23.3503 5.11327C23.0946 4.19002 22.7219 3.51759 22.1234 2.89948C21.2592 2.00705 19.9551 1.32612 18.5323 1.0245C17.9809 0.907626 16.833 0.911942 16.2696 1.03293ZM16.4151 1.99383C15.7575 2.16609 15.3588 2.39632 14.8499 2.89782L14.4212 3.3203H13.998C12.5356 3.3203 11.369 4.24009 10.9959 5.68728C10.8055 6.42539 10.8977 7.55881 11.2286 8.54906L11.3786 8.99803L11.4652 8.48896C11.62 7.5778 11.9912 6.74593 12.5766 5.99766C13.0019 5.45406 13.7599 4.84924 14.017 4.84831C14.1233 4.84791 14.3625 4.98271 14.6479 5.20378C15.2376 5.66065 15.7228 5.93166 16.3817 6.17218C17.1517 6.45315 17.6408 6.52659 18.793 6.53423C19.808 6.54093 19.8286 6.54399 20.2733 6.75463C20.5213 6.8721 20.8577 7.07756 21.0208 7.21124C21.3489 7.48012 21.8379 8.17367 22.0194 8.62755L22.1368 8.92107L22.2241 8.66892C22.5276 7.79236 22.6235 6.18247 22.4216 5.35319C22.022 3.71203 20.6839 2.56234 18.5404 2.0186C17.7757 1.82463 17.0914 1.81666 16.4151 1.99383ZM13.6056 6.27113C12.9137 6.97483 12.5049 7.885 12.3466 9.0734C12.3035 9.3972 12.2858 9.89113 12.3074 10.171C12.3418 10.6177 12.3301 10.7009 12.2114 10.8516C12.1368 10.9466 12.0087 11.0234 11.9251 11.0234C11.3993 11.0234 11.1878 11.3114 11.1921 12.0216C11.1963 12.7508 11.3691 12.9999 11.9762 13.1527C12.3679 13.2514 12.4701 13.3748 12.5544 13.8511C12.7552 14.9848 13.2387 15.9657 13.9434 16.6686C14.7949 17.518 15.7185 17.8918 16.9668 17.8926C17.7897 17.893 18.308 17.7804 18.9601 17.4594C20.1931 16.8524 21.0984 15.5323 21.3859 13.9222C21.4831 13.3783 21.5901 13.2257 21.9103 13.1745C22.2782 13.1157 22.5705 12.9173 22.6818 12.651C22.7953 12.3794 22.8071 11.7263 22.704 11.4304C22.6146 11.1737 22.4606 11.0846 22.0599 11.0576C21.6591 11.0306 21.5473 10.8874 21.4899 10.3271C21.3594 9.05322 20.7687 8.04318 19.9241 7.64998C19.5871 7.49307 19.4991 7.48198 18.6956 7.49473C17.0417 7.52109 15.6328 7.10047 14.3668 6.20239L13.958 5.91253L13.6056 6.27113ZM14.6758 18.4234C14.6758 18.6429 14.4244 19.589 14.2624 19.9794L14.0593 20.4687L14.2795 21.9517L14.4998 23.4348L14.87 23.4874C15.352 23.5561 18.5834 23.5558 19.0663 23.4871L19.4392 23.4341L19.5431 22.7571C19.6003 22.3847 19.6994 21.7196 19.7633 21.279L19.8796 20.4779L19.6951 20.0173C19.5936 19.7639 19.4562 19.3075 19.3895 19.003C19.3229 18.6985 19.2587 18.44 19.2466 18.4284C19.2346 18.417 18.9557 18.5008 18.627 18.6149C18.057 18.8127 17.9818 18.8223 17.0001 18.8217C16.0785 18.8211 15.9151 18.8032 15.4395 18.6506C15.1473 18.5569 14.856 18.4578 14.792 18.4303C14.7281 18.4028 14.6758 18.3997 14.6758 18.4234ZM12.086 21.2582C11.5199 21.4319 11.0491 21.5758 11.0398 21.578C11.0304 21.5802 11.2919 22.1196 11.6208 22.7766C11.9497 23.4337 12.2188 24.0455 12.2188 24.1363C12.2188 24.2424 12.0754 24.4679 11.8168 24.7684C11.5692 25.056 11.4333 25.2672 11.4631 25.3179C11.7283 25.7702 14.5107 30.2644 14.5565 30.3144C14.5951 30.3565 14.6051 30.3444 14.5839 30.2812C14.5656 30.2264 14.248 28.1496 13.8782 25.666C13.5084 23.1824 13.1854 21.1036 13.1605 21.0464C13.1215 20.9565 12.9752 20.9854 12.086 21.2582ZM20.7594 21.1394C20.6438 21.7717 19.392 30.1857 19.4069 30.2304C19.4251 30.2848 22.4652 25.4052 22.495 25.2737C22.5041 25.2338 22.3323 24.9978 22.1132 24.7491C21.8941 24.5004 21.7149 24.2387 21.7149 24.1674C21.7149 24.0962 21.9823 23.4838 22.3092 22.8065C22.6903 22.017 22.8749 21.5661 22.8238 21.5496C22.7801 21.5355 22.3856 21.4159 21.9473 21.2839C21.509 21.1519 21.0711 21.0181 20.9741 20.9866C20.8122 20.934 20.7948 20.9464 20.7594 21.1394ZM9.24918 22.3604C8.99983 22.3914 8.63167 22.7735 8.34692 23.2967C8.123 23.7081 7.92305 24.47 7.86189 25.1448C7.8162 25.6487 7.8172 25.6532 7.96468 25.6146C8.20395 25.552 8.88534 25.6903 9.25097 25.8756C9.68693 26.0965 10.2907 26.6742 10.5136 27.0836C10.7597 27.5359 10.9115 28.2347 10.8689 28.72C10.8403 29.0458 10.8016 29.1456 10.6543 29.2721C10.4709 29.43 10.391 29.4332 9.74291 29.309C9.30191 29.2245 9.25157 28.6375 9.66834 28.4387C9.92354 28.3171 9.93815 28.2413 9.78999 27.8065C9.56395 27.1432 8.80831 26.5641 8.16802 26.5635C7.69833 26.5631 7.4078 26.6752 7.05346 26.9938C6.59041 27.4102 6.41569 27.8382 6.45799 28.4524C6.47572 28.7095 6.52732 28.9987 6.57261 29.0949C6.642 29.2422 6.68271 29.2622 6.83047 29.2217C7.25679 29.1046 7.63385 29.5126 7.43184 29.8724C7.30168 30.1043 6.56212 30.3923 6.31761 30.3064C5.99634 30.1934 5.57884 29.3646 5.48142 28.6466C5.36063 27.7559 5.84964 26.649 6.60296 26.108L6.88757 25.9037L6.92536 25.1539C6.96554 24.3576 7.09244 23.764 7.34598 23.1867L7.50163 22.8325L7.18733 23.0149C6.04076 23.6804 5.21898 24.7185 4.77353 26.0644C4.62412 26.5158 4.619 26.6107 4.59696 29.3349L4.57425 32.1406H9.56255C13.5358 32.1406 14.5406 32.1237 14.5005 32.0576C14.4728 32.012 13.5297 30.4864 12.4047 28.6676C10.9226 26.271 10.3594 25.3061 10.3594 25.1631C10.3594 25.0252 10.4436 24.8712 10.639 24.6518C10.7928 24.4791 10.9782 24.2697 11.051 24.1864L11.1834 24.0349L10.7568 23.1737L10.3303 22.3125L9.89664 22.3231C9.65811 22.329 9.36679 22.3458 9.24918 22.3604ZM23.2057 23.1824L22.7698 24.0523L23.1831 24.5173C23.4751 24.8458 23.5964 25.0355 23.5964 25.1633C23.5964 25.3202 22.2926 27.4887 19.7109 31.626L19.3897 32.1406H24.4078H29.4259L29.4031 29.3349C29.3811 26.604 29.3763 26.5169 29.2256 26.0644C28.8645 24.981 28.2845 24.1152 27.5043 23.4952C27.0475 23.1322 26.4649 22.7905 26.1211 22.684C25.9794 22.6402 25.9796 22.6427 26.1478 23.0572C26.3897 23.6531 26.5479 24.3021 26.6421 25.0845L26.7241 25.7648L26.9398 25.836C27.0585 25.8752 27.3044 26.041 27.4862 26.2044C28.4373 27.0596 28.2304 28.5739 27.0841 29.1467C26.1838 29.5966 25.1476 29.2838 24.67 28.4178C24.4949 28.1003 24.4709 27.9923 24.4719 27.5254C24.4728 27.1102 24.5042 26.9361 24.6157 26.7285C24.8026 26.3805 25.2042 25.9977 25.5211 25.8657L25.7746 25.7601L25.7298 25.3811C25.581 24.1201 25.1897 22.9715 24.7465 22.4951C24.5923 22.3293 24.5338 22.3125 24.1092 22.3125H23.6416L23.2057 23.1824ZM14.6758 24.5169C14.6758 24.5423 14.9298 26.2415 15.2403 28.293C15.5507 30.3443 15.8047 32.0492 15.8047 32.0817C15.8047 32.1141 16.3244 32.1406 16.9595 32.1406H18.1142L18.1531 31.9248C18.228 31.5086 19.2579 24.6387 19.2579 24.5552C19.2579 24.4884 18.7764 24.4707 16.9668 24.4707C15.7068 24.4707 14.6758 24.4915 14.6758 24.5169ZM25.6647 26.9158C25.376 27.2045 25.3113 27.5329 25.4766 27.8702C25.6266 28.1764 25.977 28.4219 26.2637 28.4219C26.5483 28.4219 26.9004 28.177 27.0477 27.8768C27.2102 27.5456 27.1412 27.1951 26.8577 26.9111C26.665 26.7181 26.6023 26.6953 26.2637 26.6953C25.9236 26.6953 25.8629 26.7176 25.6647 26.9158Z" fill="#619E90"/>
</svg>
