<svg width="34" height="31" viewBox="0 0 34 31" fill="none" xmlns="http://www.w3.org/2000/svg">
<g clip-path="url(#clip0_106_372)">
<path fill-rule="evenodd" clip-rule="evenodd" d="M15.9399 0.132786C15.2347 0.377614 14.6094 1.15137 14.6094 1.77932C14.6094 1.92639 14.5837 1.98254 14.5264 1.9608C14.4808 1.9435 14.2812 1.88387 14.083 1.82833C13.1457 1.5656 12.0859 1.9916 11.6418 2.8095L11.4551 3.15323L11.4354 5.19977C11.4166 7.14284 11.422 7.25351 11.543 7.38863C11.7188 7.58499 12.1195 7.58686 12.2938 7.39217C12.4093 7.26318 12.418 7.12062 12.418 5.36653C12.418 3.27952 12.4269 3.22673 12.832 2.9051C13.1081 2.68591 13.4465 2.61373 13.7973 2.69913C14.0784 2.76758 14.4313 3.06412 14.539 3.32227C14.5867 3.43667 14.6094 5.15083 14.6094 8.62454V13.7577L14.7725 13.9051C14.9802 14.093 15.2348 14.093 15.4425 13.9051L15.6055 13.7577V7.7293V1.7009L15.7585 1.43938C15.9319 1.14284 16.3551 0.901319 16.7012 0.901319C17.0474 0.901319 17.4706 1.14284 17.644 1.43938L17.7969 1.7009V8.04552C17.7969 14.3475 17.7979 14.3911 17.9323 14.5215C18.1105 14.6945 18.4847 14.6994 18.6443 14.531C18.7518 14.4174 18.7622 14.0115 18.793 8.68038C18.826 2.98527 18.827 2.9508 18.9652 2.7823C19.4538 2.18599 20.3236 2.18599 20.8123 2.78224C20.949 2.949 20.9518 3.01373 20.9844 6.75851C21.0215 11.009 20.9923 10.7737 21.4825 10.7737C21.9579 10.7737 21.9435 10.8508 21.9805 8.11561L22.0137 5.66582L22.1998 5.44532C22.4423 5.15797 22.6955 5.04484 23.0963 5.04484C23.5133 5.04484 23.8218 5.22427 24.0225 5.58349L24.1719 5.85096L24.1717 11.0777C24.1715 14.0279 24.142 16.6706 24.1039 17.1451C23.8512 20.2889 23.1802 22.8799 22.2457 24.3201C22.106 24.5353 21.7949 24.9083 21.5545 25.1489C20.6893 26.0143 20.586 26.3566 20.586 28.3572V29.8459H16.4077H12.2293L12.2037 28.0894C12.1798 26.4509 12.1677 26.3047 12.0247 25.9126C11.791 25.2719 11.4075 24.6284 10.947 24.1044C10.4551 23.5446 9.90024 22.7993 9.47066 22.1211C9.10887 21.55 8.90893 21.4287 8.58134 21.5819C8.16259 21.7777 8.19884 21.9827 8.81728 22.9134C9.33758 23.6965 9.67379 24.1352 10.2175 24.7405C10.3801 24.9216 10.6281 25.2864 10.7685 25.5512C11.1758 26.3194 11.2203 26.6245 11.2216 28.6626L11.2227 30.4519L11.3857 30.5992L11.5487 30.7467H16.421H21.2933L21.4334 30.6115C21.5687 30.4811 21.5743 30.4126 21.5944 28.6149L21.6153 26.7533L21.7922 26.412C21.8895 26.2243 22.1444 25.9001 22.3587 25.6914C23.5874 24.495 24.4448 22.2969 24.8959 19.1868C25.1502 17.4336 25.1772 16.5755 25.1556 10.9298L25.1348 5.49522L24.9813 5.2134C24.767 4.81995 24.3581 4.45982 23.9197 4.27829C23.4314 4.07609 22.7603 4.06487 22.296 4.25102L21.9805 4.37755V3.7012C21.9805 2.89351 21.8821 2.5499 21.5308 2.13236C21.3483 1.9154 21.1528 1.77428 20.8263 1.62361C20.4329 1.4422 20.3125 1.4153 19.899 1.41686C19.5637 1.41812 19.3335 1.45541 19.1168 1.54362L18.8096 1.66859L18.7291 1.4201C18.3712 0.314381 17.1029 -0.270936 15.9399 0.132786ZM3.85162 1.44268C1.83354 2.25943 1.94583 2.20431 1.86296 2.41923C1.79994 2.58275 1.89789 2.81647 2.96032 5.03781C3.60194 6.37935 4.18777 7.52416 4.26221 7.58199C4.45904 7.73482 4.62473 7.71128 5.15943 7.45456L5.63716 7.22523L6.47905 8.37196C6.94211 9.00262 7.38231 9.57947 7.45728 9.65375C7.63207 9.82712 7.98468 9.83456 8.16803 9.66876C8.29221 9.55647 8.30038 9.47336 8.29361 8.39268C8.28962 7.75686 8.26724 6.47087 8.2438 5.53485C8.20143 3.84015 8.20057 3.83253 8.04445 3.71831C7.81687 3.55179 7.62496 3.57473 6.98866 3.84436C6.67615 3.97677 6.4068 4.07273 6.39007 4.0576C6.37334 4.04247 6.31623 3.37338 6.2631 2.5708C6.18315 1.36299 6.14616 1.08562 6.04834 0.96137C5.82801 0.681412 5.61982 0.726991 3.85162 1.44268ZM28.5708 1.75705C28.3616 1.95918 26.3412 5.76197 26.3412 5.95371C26.3412 6.18821 26.4557 6.28609 26.902 6.43328C27.1171 6.5042 27.293 6.59241 27.293 6.62928C27.293 6.66621 27.1436 7.1692 26.961 7.74713C26.7784 8.32506 26.629 8.88378 26.629 8.98875C26.629 9.20973 26.8819 9.42856 27.1374 9.42856C27.2503 9.42856 27.8257 9.00322 29.1373 7.95028C30.15 7.13725 31.0458 6.40613 31.128 6.3256C31.3109 6.14623 31.3265 5.8243 31.1589 5.68708C31.0938 5.63382 30.8622 5.519 30.6443 5.43205C30.4264 5.34509 30.2346 5.26198 30.2181 5.24733C30.2016 5.23268 30.6324 4.81826 31.1755 4.32639C32.0111 3.56944 32.1628 3.40412 32.1628 3.25075C32.1628 3.15113 32.1272 3.03079 32.0837 2.98341C31.9677 2.85694 29.0492 1.62193 28.8664 1.62193C28.7808 1.62193 28.6478 1.6827 28.5708 1.75705ZM4.11725 2.34338C3.55114 2.57236 3.06571 2.76716 3.03848 2.77629C2.99379 2.7913 4.71736 6.44829 4.80748 6.52978C4.82833 6.54857 5.0219 6.47892 5.23766 6.37491C5.70522 6.14954 5.96799 6.13404 6.15539 6.32092C6.2299 6.3952 6.50648 6.74884 6.76998 7.10675C7.03341 7.46465 7.25408 7.74839 7.26026 7.73728C7.31 7.64817 7.22068 4.80463 7.16815 4.80463C7.13209 4.80463 6.86487 4.91272 6.57428 5.04484C5.9838 5.31333 5.79666 5.33699 5.57088 5.17167C5.42193 5.06261 5.41264 5.00502 5.32684 3.65538C5.27777 2.88378 5.21714 2.17926 5.1921 2.08979L5.14655 1.92711L4.11725 2.34338ZM28.338 4.15939C27.9084 4.96017 27.5572 5.6334 27.5577 5.65556C27.5583 5.67765 27.7081 5.74065 27.8906 5.79547C28.253 5.90429 28.4219 6.06709 28.4219 6.30735C28.4219 6.3925 28.3478 6.69054 28.2573 6.96953C28.1668 7.24859 28.0921 7.49804 28.0913 7.52392C28.0905 7.54974 28.4784 7.25531 28.9532 6.86955C29.428 6.48384 29.8165 6.1511 29.8165 6.1302C29.8165 6.10924 29.6615 6.03892 29.4721 5.97383C28.9839 5.8061 28.7544 5.61832 28.7522 5.38479C28.7506 5.2182 28.8725 5.08783 29.7483 4.31936C30.2971 3.83781 30.7462 3.42808 30.7462 3.40893C30.7462 3.37386 29.2384 2.70261 29.1608 2.70315C29.1379 2.70333 28.7677 3.35861 28.338 4.15939ZM11.5573 8.5992C11.4242 8.72843 11.4219 8.7907 11.4219 12.3238V15.9171L11.2516 15.9756C11.0216 16.0546 10.5169 16.0497 10.3385 15.9666C10.0461 15.8305 9.86697 15.6205 9.05827 14.466C7.97764 12.9234 7.60696 12.6012 6.612 12.3397C6.12378 12.2113 5.18686 12.2383 4.86777 12.3901C4.56191 12.5355 4.30551 12.8681 4.26872 13.1671C4.24375 13.3704 4.31395 13.6165 4.61516 14.3828C5.60462 16.8999 7.33131 20.569 7.61779 20.7632C7.78035 20.8733 7.99378 20.855 8.19227 20.7138C8.45039 20.5302 8.41905 20.2947 8.0396 19.5673C7.32208 18.1917 6.26861 15.843 5.50833 13.9237L5.25087 13.2737L5.39232 13.2053C5.58981 13.1097 6.28614 13.1705 6.64474 13.3146C6.8069 13.3797 7.03315 13.5045 7.14757 13.592C7.26198 13.6795 7.76382 14.3309 8.26273 15.0395C8.76157 15.7483 9.26566 16.4014 9.3828 16.491C9.49994 16.5806 9.76012 16.7229 9.961 16.8073C10.6833 17.1107 11.7115 16.9651 12.2354 16.4853L12.418 16.318V12.5243C12.418 8.78944 12.4159 8.72855 12.2826 8.5992C12.1943 8.51344 12.0683 8.46774 11.92 8.46774C11.7717 8.46774 11.6457 8.51344 11.5573 8.5992ZM21.1198 11.8419C20.9909 11.967 20.9844 12.0467 20.9844 13.4961V15.0188L21.1475 15.1661C21.2371 15.2472 21.3879 15.3136 21.4825 15.3136C21.5771 15.3136 21.7279 15.2472 21.8175 15.1661L21.9805 15.0188V13.4952C21.9805 11.9803 21.9797 11.9709 21.8269 11.841C21.6247 11.6693 21.2972 11.6697 21.1198 11.8419Z" fill="white"/>
</g>
<defs>
<clipPath id="clip0_106_372">
<rect width="34" height="30.7461" fill="white"/>
</clipPath>
</defs>
</svg>
