<svg width="31" height="31" viewBox="0 0 31 31" fill="none" xmlns="http://www.w3.org/2000/svg">
<g clip-path="url(#clip0_106_279)">
<path fill-rule="evenodd" clip-rule="evenodd" d="M19.5247 1.95927C17.3843 2.27363 15.355 3.54921 14.1713 5.32419C13.2712 6.67378 12.8359 8.09761 12.8366 9.68943C12.8372 11.3742 13.3324 12.9268 14.2959 14.265C14.9594 15.1865 16.1543 16.2056 17.1596 16.7076C18.9357 17.5942 21.1915 17.756 23.0583 17.1306C25.0016 16.4796 26.619 15.1106 27.5513 13.328C28.2112 12.066 28.4734 10.8829 28.4223 9.39804C28.3869 8.3713 28.2429 7.67116 27.8844 6.78206C27.7116 6.35345 27.6903 6.25507 27.7538 6.17802C28.0635 5.80202 28.6479 5.13652 28.9856 4.7754C29.4795 4.247 29.6181 3.95638 29.6181 3.44919C29.6181 2.99368 29.4821 2.65876 29.1734 2.35443C28.8296 2.01546 28.5962 1.92575 28.0581 1.92575C27.4063 1.92575 27.2151 2.0488 26.448 2.96198C26.1146 3.35884 25.8234 3.70501 25.8008 3.7312C25.7781 3.75745 25.5854 3.647 25.3724 3.48581C23.9608 2.41736 22.357 1.88714 20.5874 1.90384C20.1845 1.90765 19.7063 1.93261 19.5247 1.95927ZM19.9721 2.87087C18.3883 3.04208 16.935 3.73519 15.8106 4.85544C14.7651 5.89718 14.1109 7.15976 13.8804 8.58107C13.2016 12.7671 16.4109 16.5449 20.646 16.5449C25.1254 16.5449 28.3996 12.2989 27.2638 7.96273C27.1973 7.70878 27.1052 7.41066 27.059 7.30027L26.9751 7.09947L25.1783 9.2587C21.8455 13.2635 21.6669 13.4374 20.8871 13.4388C20.2211 13.4401 20.2523 13.4633 18.2221 11.4517C16.919 10.1605 16.3214 9.52788 16.2442 9.35784C15.9791 8.77425 16.068 8.15644 16.4853 7.68241C16.8022 7.32241 17.1705 7.14933 17.6247 7.14704C18.2622 7.14376 18.3386 7.19427 19.6292 8.47261L20.8097 9.64191L21.2494 9.12364C23.2522 6.76366 25.0984 4.55474 25.0987 4.51823C25.0994 4.43439 24.307 3.88829 23.8083 3.62902C23.2241 3.32527 22.5639 3.09353 21.9402 2.97341C21.4774 2.88429 20.3779 2.82698 19.9721 2.87087ZM27.7819 2.9338C27.6944 2.99169 26.1828 4.7529 24.4228 6.84763C22.6628 8.94236 21.1802 10.6892 21.1282 10.7295C21.0763 10.7698 20.9417 10.8027 20.8292 10.8027C20.6408 10.8027 20.5179 10.6965 19.269 9.45505C17.9265 8.12046 17.9109 8.1074 17.6638 8.1074C17.3109 8.1074 17.0717 8.3474 17.0717 8.70148V8.95302L18.8287 10.7128L20.5857 12.4726H20.847C21.0656 12.4726 21.1431 12.4392 21.3225 12.2676C21.6885 11.9174 22.891 10.5151 24.8648 8.13669C25.9079 6.87986 27.0794 5.48814 27.4683 5.04394C28.6861 3.65292 28.6733 3.66986 28.6733 3.4479C28.6733 3.01197 28.1338 2.70083 27.7819 2.9338ZM10.5472 16.0546C9.88774 16.1961 9.23952 16.5174 7.03428 17.7958C5.88034 18.4647 4.90136 19.0255 4.8587 19.0418C4.8096 19.0606 4.70501 18.9358 4.57376 18.7018C4.22348 18.0772 3.87555 17.834 3.3321 17.834C3.11366 17.834 2.92241 17.8757 2.75788 17.9591C2.11891 18.2833 1.14456 18.8658 0.973816 19.0256C0.715594 19.2674 0.585691 19.6284 0.617859 20.0151C0.641004 20.2938 0.866941 20.7189 2.9152 24.3379C4.16466 26.5454 5.24184 28.4107 5.30899 28.4828C5.53809 28.7293 5.91128 28.8657 6.28305 28.8388C6.57309 28.8178 6.73827 28.7487 7.45487 28.3485C7.91372 28.0924 8.38071 27.8077 8.49268 27.716C8.78389 27.4774 8.92721 27.1628 8.92721 26.7625C8.92721 26.474 8.88796 26.3557 8.63952 25.8949L8.35188 25.3612L8.7904 25.1055L9.22897 24.8499L10.4404 25.1771C13.7347 26.0671 15.6242 26.5706 16.0757 26.6787C16.9911 26.8979 17.9406 26.818 18.7266 26.4555C19.3036 26.1894 28.7907 20.3267 29.0723 20.062C29.2113 19.9316 29.3958 19.6736 29.4825 19.4886C29.6208 19.1935 29.64 19.0805 29.6397 18.5664C29.6391 17.8199 29.5099 17.5008 29.0284 17.057C28.2914 16.3776 27.2875 16.3165 25.9431 16.8692C25.4314 17.0795 25.4251 17.0831 22.0229 19.0639C19.531 20.5147 19.4477 20.561 19.1211 20.6762L18.8987 20.7547L19.0247 20.4809C19.2028 20.0937 19.2028 19.3242 19.0246 18.9369C18.8693 18.5993 18.4766 18.1654 18.1568 17.978C18.0214 17.8986 17.5728 17.7599 17.128 17.6599C16.1684 17.4441 15.1004 17.1147 13.4537 16.5267C11.7794 15.9288 11.4119 15.8691 10.5472 16.0546ZM10.5558 17.0415C10.0816 17.172 9.54796 17.4514 7.38802 18.7C5.803 19.6162 5.30032 19.9333 5.32581 20.0006C5.38136 20.1478 7.76612 24.3615 7.83661 24.4371C7.88641 24.4906 8.03331 24.4318 8.45846 24.1885C8.76462 24.0133 9.07253 23.8698 9.14272 23.8696C9.21292 23.8693 10.8457 24.2915 12.7712 24.8078C14.6967 25.324 16.4547 25.7766 16.6779 25.8134C17.1831 25.8969 17.8261 25.8097 18.2973 25.594C18.4753 25.5125 20.8322 24.0837 23.5349 22.4187C28.8709 19.1316 28.613 19.3156 28.7066 18.7304C28.7822 18.2576 28.5064 17.7294 28.0942 17.5571C27.6424 17.3684 26.7192 17.5171 25.9589 17.901C25.8244 17.969 24.4247 18.7763 22.8486 19.695C20.01 21.3495 19.5684 21.5815 19.0268 21.7029C18.5942 21.7999 17.694 21.7747 16.9839 21.6457C16.2028 21.5039 13.3458 20.7301 13.158 20.6095C12.9653 20.4857 12.8901 20.2539 12.9756 20.0475C13.1274 19.6811 13.278 19.6845 14.723 20.0879C16.7525 20.6545 17.1113 20.728 17.4634 20.6492C17.9994 20.5292 18.3244 19.9921 18.1816 19.462C18.0955 19.142 17.7556 18.8002 17.4505 18.7269C15.6251 18.2878 15.1581 18.1454 12.6186 17.2539C11.8572 16.9866 11.7204 16.9561 11.3003 16.9606C11.0424 16.9633 10.7074 16.9997 10.5558 17.0415ZM2.42659 19.2344C1.98526 19.4905 1.61471 19.7456 1.58395 19.8146C1.53796 19.9177 1.89227 20.5796 3.7603 23.8802C5.13866 26.3156 6.03655 27.8428 6.10915 27.8752C6.20155 27.9164 6.38073 27.8428 6.94704 27.5309C7.85091 27.033 7.98971 26.9352 7.98971 26.7965C7.98971 26.689 3.72438 19.0829 3.5469 18.874C3.49903 18.8176 3.40458 18.7728 3.33708 18.7744C3.26958 18.776 2.85983 18.983 2.42659 19.2344ZM2.74686 19.958C2.65634 20.0366 2.58122 20.1774 2.56059 20.3068C2.53077 20.4943 2.55034 20.5481 2.70456 20.7024C3.0004 20.9982 3.41471 20.9295 3.56952 20.5589C3.78491 20.0435 3.16745 19.5925 2.74686 19.958Z" fill="#619E90"/>
</g>
<defs>
<clipPath id="clip0_106_279">
<rect width="30" height="30" fill="white" transform="translate(0.138184 0.373016)"/>
</clipPath>
</defs>
</svg>
