<svg width="31" height="31" viewBox="0 0 31 31" fill="none" xmlns="http://www.w3.org/2000/svg">
<g clip-path="url(#clip0_106_288)">
<path fill-rule="evenodd" clip-rule="evenodd" d="M13.1197 1.05961C12.2375 1.30629 11.4429 1.96682 11.0778 2.75689C10.6653 3.64969 10.6694 4.60084 11.0894 5.47406C11.2844 5.87953 11.4594 6.075 13.4372 8.09654C14.6126 9.29795 15.6447 10.3055 15.7308 10.3355C15.8169 10.3655 15.94 10.3697 16.0043 10.3449C16.2035 10.2679 20.2229 6.18375 20.4419 5.83588C20.823 5.23031 20.9193 4.89023 20.9227 4.13666C20.9253 3.58377 20.9022 3.39445 20.7938 3.08197C20.4896 2.20435 19.7615 1.46801 18.8662 1.13221C18.5832 1.02609 18.4009 1.00371 17.8204 1.00371C17.0413 1.00371 16.6888 1.09588 16.153 1.43971L15.8742 1.61865L15.5289 1.4107C15.3391 1.29639 15.0518 1.16074 14.8907 1.1093C14.4818 0.978749 13.5067 0.951386 13.1197 1.05961ZM13.1771 1.81664C12.7016 1.97133 12.2015 2.36062 11.8872 2.82064C11.8202 2.91861 11.7076 3.1691 11.637 3.37728C11.5309 3.68988 11.5138 3.8417 11.5385 4.24904C11.5644 4.67607 11.5987 4.79988 11.794 5.1716C11.9924 5.54912 12.2523 5.83535 13.9477 7.54394L15.8758 9.48697L17.8197 7.52959C19.5616 5.7757 19.7844 5.52973 19.9639 5.16328C20.1551 4.77293 20.1641 4.725 20.1641 4.10736C20.1641 3.49652 20.1535 3.43887 19.9746 3.07553C19.7434 2.60572 19.272 2.14184 18.802 1.92158C18.5 1.78002 18.3979 1.76361 17.8204 1.76361C17.0878 1.76361 16.8352 1.84635 16.2945 2.26353C16.1288 2.39139 15.9341 2.49603 15.8619 2.49603C15.7898 2.49603 15.619 2.40445 15.4824 2.29254C15.0292 1.92117 14.6115 1.7707 13.9825 1.75213C13.6251 1.74158 13.3368 1.76467 13.1771 1.81664ZM10.9418 12.0186C9.51273 12.4198 8.61296 13.8463 8.9054 15.247C9.21765 16.7425 10.6143 17.741 12.06 17.5022C14.1695 17.1538 15.1554 14.7405 13.8784 13.0513C13.5746 12.6493 13.0804 12.2805 12.618 12.1106C12.1456 11.937 11.3817 11.8951 10.9418 12.0186ZM19.2852 12.0149C18.6471 12.1788 18.1102 12.5343 17.7188 13.0519C16.4424 14.7405 17.4288 17.154 19.5378 17.5022C20.0889 17.5932 20.5922 17.5116 21.1697 17.2373C22.4379 16.635 23.0506 15.156 22.5884 13.8126C22.1259 12.468 20.6493 11.6644 19.2852 12.0149ZM11.0437 12.7696C9.96396 13.1727 9.40491 14.1681 9.67134 15.213C10.0637 16.7521 11.8902 17.2922 13.059 16.2148C13.2005 16.0844 13.3936 15.8249 13.4882 15.6383C13.6426 15.3335 13.6602 15.2418 13.6602 14.7421C13.6601 14.0763 13.5518 13.7899 13.1297 13.3385C12.7354 12.9171 12.3269 12.7329 11.733 12.7088C11.43 12.6966 11.1803 12.7185 11.0437 12.7696ZM19.3335 12.7723C18.9853 12.886 18.7211 13.0622 18.4375 13.3699C18.0438 13.7971 17.9377 14.0883 17.9376 14.7421C17.9376 15.2418 17.9551 15.3335 18.1096 15.6383C18.5304 16.4688 19.4755 16.9259 20.3826 16.7377C20.8448 16.6417 21.3679 16.2898 21.6243 15.9023C22.3244 14.8447 21.9935 13.5151 20.883 12.9232C20.5697 12.7562 20.4468 12.7249 20.0469 12.7099C19.7622 12.6993 19.4822 12.7237 19.3335 12.7723ZM7.30281 16.4215C6.40204 16.5616 5.73279 16.9672 5.30165 17.6342C4.89255 18.2671 4.74261 19.0744 4.90404 19.7746C5.11978 20.7107 5.94407 21.5539 6.88152 21.7976C7.02038 21.8337 7.13658 21.876 7.13974 21.8916C7.1429 21.9072 7.12685 22.0847 7.10406 22.2861C7.072 22.5692 7.04089 22.6523 6.96671 22.6523C6.77001 22.6523 6.0895 22.8483 5.73911 23.0059C4.53847 23.5459 3.61398 24.6349 3.22697 25.9649C3.14294 26.2538 3.12085 26.6364 3.09976 28.1698C3.07468 29.9892 3.07656 30.0276 3.19632 30.1474L3.31843 30.2695H15.7989H28.2794L28.4015 30.1474C28.5212 30.0276 28.5231 29.9892 28.498 28.1698C28.4704 26.1592 28.4512 26.0169 28.1038 25.2509C27.5461 24.0208 26.4081 23.0688 25.1116 22.7476C24.9 22.6952 24.6844 22.6523 24.6324 22.6523C24.5617 22.6523 24.526 22.5672 24.4912 22.3154C24.4655 22.13 24.4439 21.9538 24.443 21.9237C24.4422 21.8936 24.5601 21.8381 24.7051 21.8005C25.6539 21.554 26.4768 20.7157 26.6938 19.7746C26.9953 18.4666 26.2688 17.0923 25.0155 16.5998C23.6056 16.0459 21.9283 16.8074 21.447 18.22C21.396 18.3697 21.3452 18.4921 21.3341 18.4921C21.3231 18.4921 21.1344 18.4503 20.9148 18.3992C20.3972 18.2787 19.4563 18.2783 18.9447 18.3984C18.4596 18.5123 18.4356 18.5129 18.4356 18.4121C18.4356 18.1935 18.0041 17.4935 17.6769 17.1814C16.6036 16.1576 14.9942 16.1576 13.9209 17.1814C13.5937 17.4935 13.1622 18.1935 13.1622 18.4121C13.1622 18.5149 13.0696 18.5129 12.6524 18.4011C12.2029 18.2808 11.0775 18.281 10.6426 18.4014C10.4654 18.4505 10.3031 18.4911 10.2819 18.4914C10.2608 18.4918 10.2018 18.3697 10.1508 18.22C9.84706 17.3286 8.96781 16.6015 8.00482 16.4453C7.61962 16.3828 7.56402 16.3809 7.30281 16.4215ZM7.09773 17.223C6.519 17.3721 6.11511 17.688 5.83749 18.2089C5.56855 18.7134 5.52583 19.3415 5.72464 19.8687C5.90593 20.3495 6.38294 20.8265 6.86376 21.0078C7.54878 21.2661 8.39534 21.1049 8.92116 20.6162C9.9445 19.6649 9.70286 17.9916 8.4537 17.3794C8.02702 17.1703 7.52652 17.1125 7.09773 17.223ZM15.2763 17.2341C14.87 17.3478 14.643 17.4899 14.3359 17.823C13.955 18.2364 13.8372 18.5463 13.8366 19.1379C13.8361 19.5847 13.8563 19.6784 14.0289 20.029C14.2387 20.4551 14.5384 20.7527 14.9741 20.9674C15.1954 21.0765 15.3396 21.0996 15.7989 21.0996C16.2582 21.0996 16.4024 21.0765 16.6237 20.9674C17.0594 20.7527 17.3591 20.4551 17.5689 20.029C17.7413 19.6788 17.7618 19.5841 17.7618 19.1379C17.7618 18.7099 17.7384 18.591 17.5981 18.3052C17.1746 17.4429 16.1762 16.9823 15.2763 17.2341ZM23.5291 17.2246C22.4656 17.5114 21.8286 18.5709 22.0943 19.6112C22.3244 20.5117 22.9954 21.0663 23.9141 21.1153C24.5602 21.1497 24.9637 20.9968 25.413 20.5476C25.8621 20.0984 26.015 19.6949 25.9807 19.0488C25.9319 18.1291 25.3921 17.4671 24.5018 17.2353C24.0922 17.1286 23.8933 17.1264 23.5291 17.2246ZM11.0821 19.0826C10.921 19.1098 10.6837 19.1687 10.5548 19.2135C10.33 19.2916 10.3186 19.3079 10.2763 19.6113C10.211 20.08 9.86898 20.7289 9.4914 21.1005C9.14593 21.4405 8.5887 21.7537 8.22648 21.8117C7.96175 21.854 7.89396 21.9555 7.87404 22.3393L7.85945 22.6198L8.21101 22.665C9.53534 22.8355 10.775 23.6779 11.4651 24.8766C11.5767 25.0705 11.6812 25.2294 11.6973 25.2297C11.7134 25.2299 11.8006 25.0885 11.8911 24.9154C12.2707 24.1888 13.0204 23.4771 13.8311 23.0737C14.2283 22.876 14.9704 22.6523 15.2291 22.6523H15.3941L15.3768 22.2646L15.3594 21.8769L15.0372 21.7764C14.044 21.4666 13.3471 20.7233 13.1285 19.7406C13.0172 19.2404 13.0115 19.2361 12.2833 19.1036C11.7935 19.0144 11.515 19.0096 11.0821 19.0826ZM19.3731 19.0822C19.1959 19.1088 18.9454 19.1676 18.8165 19.2128C18.5871 19.2932 18.5796 19.3048 18.4641 19.7583C18.209 20.7602 17.5915 21.4291 16.6206 21.7553L16.2384 21.8837L16.221 22.268L16.2037 22.6523H16.3687C16.6274 22.6523 17.3695 22.876 17.7667 23.0737C18.5774 23.4771 19.3271 24.1888 19.7067 24.9154C19.7972 25.0885 19.8843 25.2294 19.9005 25.2286C19.9166 25.2278 20.0433 25.0366 20.1819 24.8039C20.8759 23.6395 22.0858 22.8321 23.3868 22.6652L23.7383 22.6201L23.7194 22.3304C23.6936 21.935 23.6524 21.8827 23.2959 21.7914C22.8772 21.6843 22.4134 21.4096 22.0685 21.0647C21.7251 20.7213 21.3832 20.0541 21.3207 19.6054C21.2779 19.2983 21.2655 19.2797 21.0555 19.211C20.5225 19.0363 19.9632 18.9935 19.3731 19.0822ZM6.77546 23.4426C5.72347 23.6794 4.73482 24.4532 4.26402 25.4082C3.90167 26.1431 3.848 26.4916 3.84677 28.1162L3.84577 29.5078H7.56648H11.2872V28.0259C11.2872 26.3671 11.2535 26.1403 10.8999 25.416C10.6564 24.9175 10.0974 24.2919 9.60062 23.9622C8.84575 23.4611 7.66111 23.2433 6.77546 23.4426ZM15.0181 23.4507C13.7106 23.7313 12.6645 24.678 12.2424 25.9628C12.0955 26.4096 12.0871 26.5037 12.0623 27.9697L12.0363 29.5078H15.7989H19.5615L19.5368 27.9697C19.5127 26.4748 19.5075 26.4184 19.3504 25.9628C18.7071 24.0971 16.8971 23.0476 15.0181 23.4507ZM23.2696 23.4421C22.7892 23.5479 22.3453 23.7311 21.9767 23.9757C21.4988 24.2929 20.9377 24.9249 20.6979 25.416C20.3442 26.1403 20.3106 26.3671 20.3106 28.0259V29.5078H24.0313H27.752L27.751 28.1162C27.7498 26.4916 27.6961 26.1431 27.3338 25.4082C26.6053 23.9305 24.8683 23.0902 23.2696 23.4421Z" fill="#619E90"/>
</g>
<defs>
<clipPath id="clip0_106_288">
<rect width="30" height="30" fill="white" transform="translate(0.798828 0.621033)"/>
</clipPath>
</defs>
</svg>
