<svg width="32" height="32" viewBox="0 0 32 32" fill="none" xmlns="http://www.w3.org/2000/svg">
<g clip-path="url(#clip0_106_365)">
<path fill-rule="evenodd" clip-rule="evenodd" d="M13.7481 0.960119C13.0055 1.06568 12.4442 1.33877 12.1642 1.73051C11.6929 2.39002 11.4388 3.26983 11.3945 4.39504C11.3582 5.31792 11.4424 5.8414 11.7252 6.44958C12.0123 7.06717 12.9175 7.79346 13.8886 8.18544C14.2177 8.31833 14.3768 8.34409 14.8748 8.34505C15.5555 8.34638 15.8454 8.24401 16.332 7.83062C16.4923 7.69441 16.677 7.59216 16.7627 7.59216C16.8452 7.59216 17.1502 7.70316 17.4406 7.83876C18.2987 8.23961 18.8243 8.38601 19.4579 8.40073C19.9865 8.41298 20.0193 8.4216 20.0992 8.56873C20.3098 8.95655 20.4041 9.81567 20.5319 12.5085C20.6527 15.0526 20.7507 15.8876 21.1074 17.4091C21.139 17.5435 21.1372 17.5434 20.7413 17.371C20.1407 17.1094 19.044 16.7859 18.3435 16.6637C17.4266 16.5037 15.81 16.5166 14.962 16.6906C13.4713 16.9967 12.044 17.6251 10.911 18.4742L10.554 18.7418L10.105 18.4153C9.52165 17.9912 8.30546 17.4059 7.59353 17.2066C7.16103 17.0856 6.83896 17.042 6.20009 17.0179C5.3964 16.9877 5.36409 16.9912 5.21571 17.1257C5.01509 17.3077 5.01509 17.5657 5.21571 17.7593C5.35759 17.8963 5.41497 17.9075 5.98134 17.9078C7.06384 17.9086 8.09959 18.2364 9.20709 18.9289C9.53996 19.137 9.81228 19.3134 9.81228 19.321C9.81228 19.3285 9.50284 19.5723 9.12471 19.8625C8.68553 20.1997 8.42303 20.4447 8.39803 20.5408C8.31646 20.8545 8.62884 21.1629 8.94828 21.084C9.02815 21.0643 9.70578 20.5728 10.4541 19.9918C12.4647 18.4308 13.3956 17.9476 15.1248 17.5677C15.8475 17.4089 17.5848 17.4237 18.396 17.5956C19.5872 17.8481 20.6938 18.2721 21.6232 18.8323C22.136 19.1414 22.2163 19.1599 22.4273 19.0173C22.712 18.8248 22.7145 18.6613 22.4405 18.1476C21.8756 17.0886 21.6345 15.7954 21.5015 13.1117C21.3318 9.68489 21.256 8.96071 20.9973 8.29324C20.7762 7.72294 20.2818 7.40769 19.7337 7.48744C19.3135 7.54855 18.7364 7.41451 18.0012 7.08509C17.6051 6.90756 17.1123 6.7287 16.906 6.68762C16.6998 6.64648 16.3937 6.54592 16.2258 6.46406C15.6222 6.16968 14.9373 5.40605 14.9373 5.02746C14.9373 4.8217 15.0964 4.63633 15.273 4.63633C15.5221 4.63633 16.3953 4.84179 17.0843 5.06251C17.9122 5.32781 18.1208 5.35013 18.2713 5.18955C18.4127 5.03887 18.4049 4.68133 18.2576 4.55266C18.0898 4.40614 16.7729 3.99069 16.0007 3.84061C15.258 3.69631 14.8472 3.73396 14.4907 3.97905C14.0249 4.29912 13.862 5.1308 14.1544 5.69524C14.3667 6.10502 14.838 6.63821 15.2498 6.93458C15.4388 7.07061 15.6037 7.19131 15.6162 7.20284C15.6287 7.2143 15.5443 7.27939 15.4287 7.34737C14.9942 7.60308 14.2426 7.45119 13.4891 6.95533C12.5215 6.31868 12.3422 5.94546 12.3458 4.57601C12.3478 3.85665 12.373 3.61729 12.4879 3.22821C12.8498 2.0025 13.1435 1.82883 14.8435 1.8348C16.8235 1.8418 18.8668 2.32982 20.002 3.0669C20.4834 3.3795 21.892 4.727 22.6199 5.57134C22.906 5.90311 23.5155 6.66319 23.9743 7.26039C25.0295 8.6334 25.1262 8.7383 25.3375 8.7383C25.5472 8.7383 25.8123 8.49158 25.8123 8.29643C25.8123 7.94011 23.5088 5.07904 22.0951 3.67961C21.1295 2.72373 20.484 2.23644 19.7165 1.88409C18.1568 1.16811 15.3459 0.732942 13.7481 0.960119ZM26.0907 9.48962C26.0063 9.57106 25.9373 9.70474 25.9373 9.78666C25.9373 9.87044 26.1921 10.3269 26.5197 10.8299C29.5312 15.4538 31.3285 19.6396 31.0137 21.2956C30.7001 22.9446 28.5049 25.0839 24.9373 27.2173C23.6082 28.012 23.6873 27.9488 23.6873 28.2161C23.6873 28.49 23.8552 28.665 24.1178 28.665C24.3996 28.665 26.3793 27.4686 27.781 26.4512C29.6522 25.093 31.0605 23.6123 31.626 22.4087C31.927 21.7677 32.0192 21.2893 31.976 20.5918C31.8462 18.4936 30.1524 14.7481 27.413 10.5014C27.0447 9.93029 26.6903 9.43576 26.6257 9.40228C26.4333 9.30299 26.2537 9.33224 26.0907 9.48962ZM3.09353 17.7362C1.70034 18.5333 0.758903 19.8701 0.286403 21.7219C-0.541722 24.9674 0.523778 28.6738 2.71965 30.1862C3.52747 30.7425 4.59978 31.0919 6.31228 31.3565C9.77421 31.8916 15.6278 31.921 18.0837 31.4157C18.3876 31.3533 18.9642 31.1763 19.3649 31.0226C20.3115 30.6596 22.6121 29.5823 22.7952 29.4163C22.9843 29.2448 22.9796 28.9819 22.7838 28.793C22.6995 28.7116 22.5865 28.6449 22.5327 28.6449C22.4788 28.6449 21.9221 28.8866 21.2955 29.1819C18.6778 30.4155 18.1245 30.5861 16.156 30.7665C14.9974 30.8727 10.5025 30.8729 9.18728 30.7668C4.25409 30.3687 2.85897 29.7817 1.77822 27.6496C1.15415 26.4183 0.892653 25.1249 0.96109 23.6079C1.0719 21.1503 2.05815 19.2933 3.70147 18.4479C4.21803 18.1822 4.32665 17.9159 4.03384 17.6332C3.81634 17.4233 3.59865 17.4471 3.09353 17.7362Z" fill="white"/>
</g>
<defs>
<clipPath id="clip0_106_365">
<rect width="32" height="30.8854" fill="white" transform="translate(0 0.896301)"/>
</clipPath>
</defs>
</svg>
