<svg width="31" height="31" viewBox="0 0 31 31" fill="none" xmlns="http://www.w3.org/2000/svg">
<g clip-path="url(#clip0_106_744)">
<path fill-rule="evenodd" clip-rule="evenodd" d="M10.6558 3.50237C10.46 3.56794 10.3698 3.77015 10.3659 4.1527C10.3627 4.45071 10.3565 4.46149 10.0875 4.63335C9.71007 4.87446 9.49011 5.30612 9.49011 5.80552C9.49011 6.11765 9.46984 6.18462 9.33806 6.30772C8.88408 6.73182 8.73056 7.2863 8.72933 8.50669L8.72839 9.39175L8.33283 9.42491C7.82962 9.4671 7.37458 9.6386 6.99021 9.93093L6.68757 10.1611L6.46392 9.77864C5.47275 8.08382 3.19632 7.78622 1.80912 9.17009C1.21515 9.76265 0.939761 10.4215 0.936831 11.2568C0.93437 11.9705 1.17396 12.6343 1.62361 13.1597L1.82347 13.3931H1.53384C1.32953 13.3931 1.19869 13.4289 1.08982 13.5146L0.935425 13.636V15.5654C0.935425 17.4166 0.940171 17.4994 1.05261 17.6119C1.15972 17.719 1.24791 17.7291 2.078 17.7291H2.98621V22.0878C2.98621 26.2921 2.99019 26.4514 3.09824 26.5849L3.21021 26.7232H4.80261H6.39501L6.50699 26.5849C6.61328 26.4536 6.61902 26.3215 6.61902 23.9948V21.543L6.83875 21.5072C7.29718 21.4328 7.58482 21.2884 7.87878 20.9853C8.14046 20.7154 8.23972 20.5254 8.80832 19.2061L9.44488 17.7291H17.3484H25.2518V22.0878C25.2518 26.2921 25.2558 26.4514 25.3639 26.5849L25.4758 26.7232H27.0682H28.6606L28.7726 26.5849C28.8807 26.4514 28.8846 26.2921 28.8846 22.0878V17.7291H29.7957C30.7055 17.7291 30.7069 17.7289 30.8503 17.574L30.994 17.419V15.56C30.994 13.5194 30.9505 13.1691 30.6104 12.4741C30.379 12.001 29.8422 11.4568 29.354 11.2002C28.6622 10.8367 28.4684 10.8172 25.5436 10.816L22.9351 10.815L22.5846 10.5486C22.0997 10.1799 21.1594 9.72936 20.5643 9.58065C20.1713 9.48239 19.817 9.44958 18.8842 9.42515L17.702 9.39415L17.683 8.27354C17.6619 7.032 17.6363 6.93409 17.1881 6.38132C17.0233 6.178 16.9901 6.08893 16.9901 5.84975C16.9901 5.29352 16.7118 4.79442 16.2759 4.56901C16.1275 4.49225 16.1111 4.45364 16.1103 4.17772C16.1089 3.66034 15.8676 3.3802 15.526 3.49927C15.3224 3.57028 15.2331 3.76675 15.2291 4.1527C15.226 4.45071 15.2198 4.46149 14.9508 4.63335C14.5772 4.872 14.3534 5.30688 14.3534 5.79397C14.3534 6.1122 14.3349 6.163 14.1416 6.37704C14.0251 6.50595 13.8605 6.75966 13.7758 6.94077C13.6305 7.25161 13.6207 7.33013 13.6012 8.3394L13.5805 9.40874H13.2097H12.8389L12.8198 8.28081C12.8011 7.18141 12.7966 7.14515 12.6396 6.84743C12.5511 6.67944 12.3995 6.45181 12.3027 6.34165C12.1587 6.17765 12.1268 6.08952 12.1268 5.85567C12.1268 5.29821 11.9223 4.89614 11.5044 4.632C11.2665 4.48159 11.2605 4.46975 11.2373 4.10495C11.2043 3.58774 11.0081 3.38442 10.6558 3.50237ZM10.5582 5.28778C10.4913 5.31473 10.3104 5.60472 10.3104 5.68511C10.3104 5.70286 10.5214 5.71733 10.7792 5.71733C11.203 5.71733 11.2479 5.70649 11.2479 5.60442C11.2479 5.37227 10.8277 5.17938 10.5582 5.28778ZM15.4215 5.28778C15.3546 5.31473 15.1737 5.60472 15.1737 5.68511C15.1737 5.70286 15.3846 5.71733 15.6425 5.71733C16.0663 5.71733 16.1112 5.70649 16.1112 5.60442C16.1112 5.37227 15.691 5.17938 15.4215 5.28778ZM10.3708 6.60286C10.1024 6.70991 9.8296 6.96198 9.71939 7.20468C9.62658 7.40905 9.6097 7.59567 9.60859 8.42729L9.6073 9.40874H10.8085H12.0096V8.44862C12.0096 7.51224 12.0056 7.48083 11.8465 7.17626C11.7144 6.92343 11.6239 6.83284 11.371 6.70077C11.0416 6.52868 10.6521 6.49054 10.3708 6.60286ZM15.2724 6.59723C15.0064 6.67704 14.7261 6.92565 14.5937 7.19911C14.4836 7.42651 14.4706 7.55741 14.4706 8.43116V9.40874H15.6718H16.8729V8.44862C16.8729 7.51224 16.8689 7.48083 16.7098 7.17626C16.4445 6.66837 15.8428 6.42602 15.2724 6.59723ZM3.39636 9.19628C2.96927 9.31388 2.68111 9.47612 2.39775 9.7586C1.34025 10.8129 1.66375 12.5654 3.03455 13.208C3.31738 13.3406 3.44582 13.3638 3.89441 13.3638C4.34916 13.3638 4.47015 13.3413 4.77332 13.1998C5.23093 12.9862 5.63125 12.5879 5.83832 12.1398C5.98164 11.8297 6.00361 11.7112 6.00244 11.2544C6.00126 10.8126 5.9766 10.6744 5.85003 10.4021C5.56621 9.79159 5.06869 9.37464 4.42351 9.20659C4.01289 9.0996 3.75677 9.09708 3.39636 9.19628ZM7.74519 10.4387C7.40171 10.6099 7.18345 10.8418 7.00527 11.2251C6.88714 11.4792 6.88164 11.6 6.85339 14.5357L6.8241 17.5826L6.37 18.5966C5.79121 19.8891 5.7741 20.1961 6.2623 20.5251C6.62107 20.7669 7.19183 20.6508 7.39 20.2957C7.43136 20.2215 7.74203 19.5411 8.08029 18.7837L8.69529 17.4068L8.72652 15.5119L8.75769 13.6169L8.89603 13.505C9.03103 13.3958 9.28673 13.3931 19.5494 13.3931H30.0644L30.0265 13.2613C29.8589 12.6788 29.4494 12.1904 28.8753 11.888L28.5624 11.7232L25.5977 11.6939C23.5734 11.6739 22.6069 11.6441 22.5508 11.6002C22.5056 11.5648 22.3109 11.409 22.1181 11.254C21.6818 10.9033 20.9717 10.5598 20.3645 10.4054C19.9153 10.2913 19.7182 10.2876 13.9746 10.2876H8.0483L7.74519 10.4387ZM0.961675 15.5611C0.961675 16.6407 0.969585 17.0823 0.979253 16.5425C0.988921 16.0028 0.988921 15.1194 0.979253 14.5796C0.969585 14.0398 0.961675 14.4815 0.961675 15.5611ZM1.75574 15.5904V16.9087H3.89441H6.03308V15.5904V14.272H3.89441H1.75574V15.5904ZM9.6073 15.5904V16.9087H19.8612H30.1151V15.5904V14.272H19.8612H9.6073V15.5904ZM3.80652 21.8013V25.8736H4.80261H5.79871V23.571V21.2685L5.56591 21.0412C5.22378 20.7071 5.07923 20.3614 5.07525 19.8677C5.0722 19.4908 5.10138 19.3895 5.43531 18.6174C5.63517 18.1553 5.79871 17.7664 5.79871 17.7531C5.79871 17.7399 5.35046 17.7291 4.80261 17.7291H3.80652V21.8013ZM26.0721 21.8013V25.8736H27.0682H28.0643V21.8013V17.7291H27.0682H26.0721V21.8013Z" fill="#619E90"/>
</g>
<defs>
<clipPath id="clip0_106_744">
<rect width="30" height="30" fill="white" transform="translate(0.935425 0.0922852)"/>
</clipPath>
</defs>
</svg>
