<svg width="54" height="49" viewBox="0 0 54 49" fill="none" xmlns="http://www.w3.org/2000/svg">
<g clip-path="url(#clip0_48_2)">
<path d="M27.0443 47.7266C24.1195 47.7266 21.3055 46.5745 19.2449 44.4917L4.17806 29.447C3.92695 29.1959 3.6906 28.93 3.46903 28.6493C2.93726 28.0068 2.47196 27.2977 2.09529 26.5444C1.34194 24.9934 0.965271 23.3094 0.965271 21.6255C0.965271 18.8115 2.02881 15.9754 4.20022 13.8262C8.49871 9.50553 15.5004 9.50553 19.821 13.8262L27.0443 21.0716L34.2896 13.8262C38.6103 9.50553 45.612 9.50553 49.9104 13.8262C53.3448 17.2605 54.0538 22.4232 51.9932 26.5444C51.6387 27.2977 51.1734 28.0068 50.6195 28.6715C50.3979 28.9374 50.1616 29.1959 49.9104 29.447L49.3122 30.0452L34.8657 44.4917C32.783 46.5745 29.9912 47.7266 27.0443 47.7266Z" fill="#153C33"/>
<path d="M16.8741 48.6351C17.8269 44.8905 18.6467 27.4971 15.3453 21.271C12.8858 16.618 10.227 11.8542 8.6095 6.78018C8.07773 5.09624 7.25792 2.74758 8.1442 0.99716C9.25206 -1.1964 10.9138 1.21873 11.9774 2.50385C15.5447 6.80234 18.824 13.3165 24.6291 14.934C29.8804 16.4185 32.783 12.8069 38.0121 9.9265C39.5409 9.06237 44.0388 5.40644 45.9886 7.95451C47.7169 10.2589 41.4464 14.225 39.3415 17.7037C37.9234 20.0302 36.7269 22.7333 36.173 24.7275C33.8244 33.5904 38.0785 39.7722 39.2972 48.4357" fill="white"/>
<path d="M31.52 6.93514C31.52 10.3473 28.7504 13.0948 25.3603 13.0948C21.9703 13.0948 19.2228 10.3473 19.2228 6.93514C19.2228 3.5451 21.9703 0.797607 25.3603 0.797607C28.7504 0.797607 31.52 3.5451 31.52 6.93514Z" fill="white"/>
<path d="M28.0413 19.011C28.0413 20.3847 26.9335 21.4926 25.5597 21.4926C24.2081 21.4926 23.1003 20.3847 23.1003 19.011C23.1003 17.6594 24.2081 16.5515 25.5597 16.5515C26.9335 16.5515 28.0413 17.6594 28.0413 19.011Z" fill="#153C33"/>
<path d="M27.7754 26.633C27.7754 27.8517 26.7784 28.8487 25.5597 28.8487C24.3411 28.8487 23.344 27.8517 23.344 26.633C23.344 25.4144 24.3411 24.4395 25.5597 24.4395C26.7784 24.4395 27.7754 25.4144 27.7754 26.633Z" fill="#153C33"/>
<path d="M27.5096 33.6566C27.5096 34.7423 26.6455 35.6064 25.5598 35.6064C24.4962 35.6064 23.6099 34.7423 23.6099 33.6566C23.6099 32.5931 24.4962 31.7068 25.5598 31.7068C26.6455 31.7068 27.5096 32.5931 27.5096 33.6566Z" fill="#153C33"/>
<path d="M28.0635 40.1043C28.0635 40.9906 27.3545 41.6997 26.4682 41.6997C25.5819 41.6997 24.8729 40.9906 24.8729 40.1043C24.8729 39.2181 25.5819 38.509 26.4682 38.509C27.3545 38.509 28.0635 39.2181 28.0635 40.1043Z" fill="#153C33"/>
<path d="M30.0576 45.3558C30.0576 46.1313 29.4151 46.7739 28.6174 46.7739C27.8419 46.7739 27.1993 46.1313 27.1993 45.3558C27.1993 44.5581 27.8419 43.9377 28.6174 43.9377C29.4151 43.9377 30.0576 44.5581 30.0576 45.3558Z" fill="#153C33"/>
</g>
<defs>
<clipPath id="clip0_48_2">
<rect width="52.2909" height="48.7458" fill="white" transform="translate(0.854492)"/>
</clipPath>
</defs>
</svg>
