<svg width="226" height="59" viewBox="0 0 226 59" fill="none" xmlns="http://www.w3.org/2000/svg">
<path d="M67.7798 38.6567V18.2275H78.4113C79.8805 18.2275 81.1015 18.5055 82.0743 19.0614C83.067 19.5974 83.8115 20.3618 84.3078 21.3544C84.824 22.3273 85.0821 23.4887 85.0821 24.8387C85.0821 26.1888 84.8141 27.37 84.278 28.3826C83.7618 29.3752 82.9975 30.1495 81.9849 30.7054C80.9724 31.2613 79.7316 31.5393 78.2624 31.5393H72.217V38.6567H67.7798ZM72.217 27.9061H77.6668C78.5999 27.9061 79.3146 27.6381 79.811 27.102C80.3272 26.566 80.5853 25.8215 80.5853 24.8685C80.5853 24.2133 80.4761 23.6674 80.2577 23.2306C80.0393 22.7938 79.7117 22.4563 79.2749 22.2181C78.858 21.9798 78.322 21.8607 77.6668 21.8607H72.217V27.9061ZM87.6927 38.6567V17.1256H91.8322V24.7196H92.0407C92.3782 24.3027 92.7752 23.9453 93.2319 23.6475C93.7083 23.3299 94.2345 23.0817 94.8102 22.903C95.4058 22.7243 96.0511 22.635 96.7459 22.635C97.7783 22.635 98.6816 22.8236 99.4559 23.2008C100.23 23.578 100.826 24.1736 101.243 24.9876C101.68 25.8016 101.898 26.8638 101.898 28.1741V38.6567H97.7585V28.8293C97.7585 28.3329 97.6989 27.916 97.5798 27.5785C97.4607 27.2211 97.282 26.9333 97.0437 26.7149C96.8253 26.4766 96.5474 26.3079 96.2099 26.2086C95.8724 26.1093 95.4952 26.0597 95.0782 26.0597C94.4628 26.0597 93.9069 26.2086 93.4105 26.5064C92.9142 26.8042 92.5271 27.2112 92.2491 27.7274C91.9712 28.2436 91.8322 28.8392 91.8322 29.5142V38.6567H87.6927ZM107.871 44.2554C107.136 44.2554 106.521 44.1959 106.024 44.0767C105.548 43.9775 105.24 43.908 105.101 43.8683V41.0689H106.918C107.414 41.0689 107.861 40.9498 108.258 40.7116C108.655 40.4932 109.002 40.1954 109.3 39.8182C109.598 39.4608 109.816 39.0737 109.955 38.6567L103.821 22.9923H108.198L110.879 30.2289C110.998 30.5664 111.127 30.9933 111.266 31.5095C111.424 32.0058 111.583 32.5319 111.742 33.0878C111.901 33.6239 112.03 34.1004 112.129 34.5173H112.278C112.358 34.2393 112.447 33.9118 112.546 33.5345C112.645 33.1573 112.745 32.7702 112.844 32.3731C112.963 31.976 113.072 31.5988 113.172 31.2415C113.291 30.8642 113.39 30.5367 113.469 30.2587L115.703 22.9923H119.872L114.541 37.9122C114.244 38.7858 113.896 39.5998 113.499 40.3542C113.122 41.1285 112.675 41.8035 112.159 42.3793C111.643 42.9749 111.027 43.4315 110.313 43.7492C109.618 44.0867 108.804 44.2554 107.871 44.2554ZM128.237 39.0141C127.145 39.0141 126.162 38.895 125.288 38.6567C124.415 38.4185 123.67 38.0909 123.055 37.674C122.439 37.2372 121.963 36.721 121.625 36.1254C121.308 35.5298 121.149 34.8548 121.149 34.1004C121.149 34.021 121.149 33.9415 121.149 33.8621C121.149 33.7827 121.159 33.7231 121.179 33.6834H125.169C125.169 33.7231 125.169 33.7629 125.169 33.8026C125.169 33.8423 125.169 33.882 125.169 33.9217C125.189 34.418 125.348 34.825 125.646 35.1427C125.944 35.4405 126.331 35.6589 126.807 35.7978C127.304 35.9368 127.82 36.0063 128.356 36.0063C128.832 36.0063 129.289 35.9666 129.726 35.8872C130.182 35.7879 130.56 35.6192 130.857 35.3809C131.175 35.1427 131.334 34.8349 131.334 34.4577C131.334 33.9812 131.135 33.614 130.738 33.3559C130.361 33.0978 129.855 32.8893 129.219 32.7305C128.604 32.5716 127.929 32.393 127.194 32.1944C126.519 32.0356 125.844 31.8569 125.169 31.6584C124.494 31.44 123.879 31.162 123.323 30.8245C122.787 30.487 122.35 30.0503 122.013 29.5142C121.675 28.9583 121.506 28.2634 121.506 27.4296C121.506 26.6156 121.685 25.9108 122.042 25.3152C122.4 24.6997 122.886 24.1935 123.502 23.7964C124.137 23.3993 124.871 23.1115 125.705 22.9328C126.559 22.7342 127.472 22.635 128.445 22.635C129.358 22.635 130.212 22.7342 131.006 22.9328C131.8 23.1115 132.495 23.3894 133.091 23.7666C133.686 24.124 134.153 24.5806 134.49 25.1365C134.828 25.6726 134.997 26.2781 134.997 26.9531C134.997 27.0921 134.997 27.2211 134.997 27.3403C134.997 27.4594 134.987 27.5388 134.967 27.5785H131.006V27.3403C131.006 26.9829 130.897 26.6851 130.679 26.4468C130.46 26.1888 130.143 25.9902 129.726 25.8512C129.329 25.7123 128.842 25.6428 128.266 25.6428C127.869 25.6428 127.502 25.6726 127.165 25.7321C126.847 25.7917 126.569 25.881 126.331 26.0001C126.092 26.1193 125.904 26.2682 125.765 26.4468C125.646 26.6057 125.586 26.8042 125.586 27.0425C125.586 27.38 125.725 27.6579 126.003 27.8763C126.301 28.0748 126.688 28.2436 127.165 28.3826C127.641 28.5215 128.167 28.6704 128.743 28.8293C129.458 29.0278 130.202 29.2263 130.976 29.4249C131.771 29.6036 132.505 29.8517 133.18 30.1694C133.855 30.487 134.401 30.9437 134.818 31.5393C135.235 32.115 135.443 32.8992 135.443 33.8919C135.443 34.8449 135.255 35.6489 134.878 36.3041C134.52 36.9593 134.014 37.4854 133.359 37.8825C132.704 38.2795 131.939 38.5674 131.066 38.7461C130.192 38.9248 129.249 39.0141 128.237 39.0141ZM138.441 20.6993V17.1256H142.581V20.6993H138.441ZM138.441 38.6567V22.9923H142.581V38.6567H138.441ZM153.588 39.0141C151.88 39.0141 150.431 38.7262 149.24 38.1505C148.048 37.5549 147.145 36.6515 146.53 35.4405C145.914 34.2096 145.606 32.6709 145.606 30.8245C145.606 28.9385 145.914 27.3998 146.53 26.2086C147.145 24.9975 148.048 24.1041 149.24 23.5284C150.431 22.9328 151.88 22.635 153.588 22.635C155.335 22.635 156.794 22.9328 157.965 23.5284C159.156 24.1041 160.06 24.9975 160.675 26.2086C161.291 27.3998 161.598 28.9385 161.598 30.8245C161.598 32.6709 161.291 34.2096 160.675 35.4405C160.06 36.6515 159.156 37.5549 157.965 38.1505C156.794 38.7262 155.335 39.0141 153.588 39.0141ZM153.588 35.7978C154.501 35.7978 155.225 35.6291 155.761 35.2916C156.317 34.9541 156.724 34.4379 156.982 33.743C157.241 33.0481 157.37 32.1944 157.37 31.1819V30.4672C157.37 29.4547 157.241 28.601 156.982 27.9061C156.724 27.2112 156.317 26.695 155.761 26.3575C155.225 26.0001 154.501 25.8215 153.588 25.8215C152.694 25.8215 151.969 26.0001 151.414 26.3575C150.878 26.695 150.48 27.2112 150.222 27.9061C149.964 28.601 149.835 29.4547 149.835 30.4672V31.1819C149.835 32.1944 149.964 33.0481 150.222 33.743C150.48 34.4379 150.878 34.9541 151.414 35.2916C151.969 35.6291 152.694 35.7978 153.588 35.7978Z" fill="#153C33"/>
<path d="M171.524 39.0141C169.856 39.0141 168.456 38.7262 167.325 38.1505C166.193 37.5549 165.329 36.6515 164.734 35.4405C164.158 34.2096 163.87 32.6709 163.87 30.8245C163.87 28.9385 164.158 27.3998 164.734 26.2086C165.329 24.9975 166.193 24.0942 167.325 23.4986C168.476 22.903 169.876 22.6052 171.524 22.6052C172.596 22.6052 173.559 22.7342 174.412 22.9923C175.286 23.2504 176.04 23.6475 176.676 24.1836C177.311 24.7196 177.787 25.3847 178.105 26.1788C178.443 26.9531 178.611 27.8763 178.611 28.9484H174.472C174.472 28.2337 174.363 27.648 174.144 27.1914C173.926 26.7347 173.588 26.3873 173.132 26.149C172.695 25.9108 172.139 25.7917 171.464 25.7917C170.67 25.7917 170.025 25.9704 169.528 26.3277C169.032 26.6851 168.665 27.2112 168.426 27.9061C168.188 28.601 168.069 29.4646 168.069 30.497V31.1819C168.069 32.1944 168.188 33.0481 168.426 33.743C168.685 34.4379 169.072 34.964 169.588 35.3214C170.104 35.6589 170.779 35.8276 171.613 35.8276C172.288 35.8276 172.844 35.7085 173.281 35.4703C173.737 35.232 174.085 34.8747 174.323 34.3982C174.561 33.9217 174.68 33.3459 174.68 32.6709H178.611C178.611 33.6834 178.443 34.5868 178.105 35.3809C177.787 36.1751 177.311 36.8401 176.676 37.3762C176.06 37.9122 175.316 38.3192 174.442 38.5972C173.568 38.8751 172.596 39.0141 171.524 39.0141ZM185.855 39.0141C185.339 39.0141 184.783 38.9545 184.187 38.8354C183.612 38.7163 183.066 38.5078 182.549 38.21C182.033 37.8924 181.606 37.4457 181.269 36.8699C180.951 36.2743 180.792 35.5199 180.792 34.6066C180.792 33.5147 181.031 32.6114 181.507 31.8966C181.984 31.1819 182.659 30.626 183.532 30.2289C184.426 29.812 185.488 29.5241 186.719 29.3653C187.95 29.2065 189.31 29.1271 190.799 29.1271V27.9656C190.799 27.509 190.719 27.1119 190.56 26.7744C190.421 26.4369 190.163 26.1689 189.786 25.9704C189.429 25.7718 188.922 25.6726 188.267 25.6726C187.612 25.6726 187.076 25.752 186.659 25.9108C186.262 26.0696 185.974 26.2781 185.796 26.5362C185.637 26.7744 185.557 27.0425 185.557 27.3403V27.6976H181.537C181.517 27.5983 181.507 27.509 181.507 27.4296C181.507 27.3303 181.507 27.2112 181.507 27.0722C181.507 26.159 181.785 25.3748 182.341 24.7196C182.897 24.0446 183.681 23.5284 184.694 23.171C185.706 22.8137 186.887 22.635 188.238 22.635C189.687 22.635 190.898 22.8236 191.871 23.2008C192.863 23.578 193.618 24.1339 194.134 24.8685C194.67 25.6031 194.938 26.5263 194.938 27.6381V34.7555C194.938 35.1129 195.037 35.3809 195.236 35.5596C195.454 35.7184 195.692 35.7978 195.951 35.7978H196.933V38.5078C196.735 38.6071 196.427 38.7064 196.01 38.8056C195.593 38.9248 195.087 38.9843 194.491 38.9843C193.916 38.9843 193.399 38.895 192.943 38.7163C192.506 38.5575 192.139 38.3292 191.841 38.0314C191.543 37.7137 191.335 37.3365 191.216 36.8997H191.007C190.67 37.3166 190.253 37.6839 189.756 38.0016C189.28 38.3192 188.714 38.5674 188.059 38.7461C187.424 38.9248 186.689 39.0141 185.855 39.0141ZM187.255 35.8872C187.811 35.8872 188.307 35.8078 188.744 35.6489C189.181 35.4703 189.548 35.2419 189.846 34.964C190.143 34.6662 190.372 34.3088 190.531 33.8919C190.709 33.475 190.799 33.0283 190.799 32.5518V31.6882C189.687 31.6882 188.694 31.7676 187.821 31.9264C186.947 32.0654 186.252 32.3136 185.736 32.6709C185.24 33.0283 184.991 33.5246 184.991 34.1599C184.991 34.5173 185.081 34.825 185.259 35.0831C185.438 35.3412 185.696 35.5397 186.034 35.6787C186.371 35.8177 186.778 35.8872 187.255 35.8872ZM198.99 38.6567V22.9923H202.415L202.743 25.4343H202.951C203.15 24.9181 203.408 24.4516 203.726 24.0346C204.043 23.5979 204.44 23.2504 204.917 22.9923C205.393 22.7342 205.949 22.6052 206.584 22.6052C206.922 22.6052 207.23 22.6449 207.508 22.7243C207.786 22.7839 207.994 22.8434 208.133 22.903V26.6553H206.852C206.237 26.6553 205.691 26.7446 205.215 26.9233C204.758 27.0822 204.371 27.3403 204.053 27.6976C203.735 28.055 203.497 28.4918 203.338 29.0079C203.199 29.5241 203.13 30.1297 203.13 30.8245V38.6567H198.99ZM217.13 39.0141C215.403 39.0141 213.954 38.7262 212.782 38.1505C211.611 37.5549 210.727 36.6515 210.132 35.4405C209.536 34.2294 209.238 32.6908 209.238 30.8245C209.238 28.9385 209.536 27.3998 210.132 26.2086C210.727 24.9975 211.601 24.1041 212.752 23.5284C213.924 22.9328 215.353 22.635 217.041 22.635C218.629 22.635 219.969 22.9229 221.061 23.4986C222.153 24.0545 222.977 24.9281 223.533 26.1193C224.089 27.2906 224.367 28.8094 224.367 30.6756V31.7477H213.437C213.477 32.661 213.616 33.4353 213.854 34.0706C214.112 34.7059 214.5 35.1824 215.016 35.5C215.552 35.7978 216.257 35.9467 217.13 35.9467C217.607 35.9467 218.033 35.8872 218.411 35.7681C218.808 35.6489 219.145 35.4703 219.423 35.232C219.701 34.9938 219.92 34.696 220.078 34.3386C220.237 33.9812 220.317 33.5742 220.317 33.1176H224.367C224.367 34.1103 224.188 34.9739 223.831 35.7085C223.473 36.4431 222.977 37.0585 222.342 37.5549C221.706 38.0314 220.942 38.3986 220.049 38.6567C219.175 38.895 218.202 39.0141 217.13 39.0141ZM213.497 29.1271H220.108C220.108 28.5315 220.029 28.0153 219.87 27.5785C219.731 27.1417 219.532 26.7844 219.274 26.5064C219.016 26.2285 218.699 26.0299 218.321 25.9108C217.964 25.7718 217.557 25.7023 217.1 25.7023C216.346 25.7023 215.711 25.8314 215.194 26.0895C214.698 26.3277 214.311 26.7049 214.033 27.2211C213.775 27.7175 213.596 28.3528 213.497 29.1271Z" fill="#619E90"/>
<g clip-path="url(#clip0_106_34)">
<path d="M29.0443 52.7264C26.1196 52.7264 23.3056 51.5742 21.245 49.4914L6.17812 34.4467C5.92701 34.1956 5.69066 33.9297 5.46909 33.6491C4.93732 33.0065 4.47202 32.2975 4.09535 31.5441C3.342 29.9931 2.96533 28.3092 2.96533 26.6253C2.96533 23.8113 4.02888 20.9752 6.20028 18.8259C10.4988 14.5053 17.5004 14.5053 21.8211 18.8259L29.0443 26.0713L36.2897 18.8259C40.6104 14.5053 47.612 14.5053 51.9105 18.8259C55.3449 22.2603 56.0539 27.4229 53.9933 31.5441C53.6388 32.2975 53.1735 33.0065 52.6195 33.6712C52.398 33.9371 52.1616 34.1956 51.9105 34.4467L51.3123 35.045L36.8658 49.4914C34.783 51.5742 31.9912 52.7264 29.0443 52.7264Z" fill="#619E90"/>
<path d="M18.8741 53.6348C19.8268 49.8903 20.6466 32.4969 17.3452 26.2707C14.8858 21.6177 12.2269 16.8539 10.6094 11.7799C10.0777 10.096 9.25785 7.74733 10.1441 5.99692C11.252 3.80336 12.9138 6.21849 13.9773 7.5036C17.5446 11.8021 20.8239 18.3163 26.6291 19.9338C31.8803 21.4183 34.7829 17.8067 40.012 14.9263C41.5408 14.0621 46.0387 10.4062 47.9886 12.9543C49.7168 15.2586 43.4464 19.2247 41.3414 22.7034C39.9234 25.0299 38.7269 27.7331 38.173 29.7272C35.8243 38.5901 40.0785 44.772 41.2971 53.4354" fill="#153C33"/>
<path d="M33.52 11.9354C33.52 15.3476 30.7504 18.0951 27.3603 18.0951C23.9703 18.0951 21.2228 15.3476 21.2228 11.9354C21.2228 8.54534 23.9703 5.79785 27.3603 5.79785C30.7504 5.79785 33.52 8.54534 33.52 11.9354Z" fill="#153C33"/>
<path d="M30.0414 24.0107C30.0414 25.3845 28.9335 26.4923 27.5598 26.4923C26.2082 26.4923 25.1003 25.3845 25.1003 24.0107C25.1003 22.6591 26.2082 21.5513 27.5598 21.5513C28.9335 21.5513 30.0414 22.6591 30.0414 24.0107Z" fill="#619E90"/>
<path d="M29.7754 31.633C29.7754 32.8517 28.7784 33.8487 27.5597 33.8487C26.3411 33.8487 25.344 32.8517 25.344 31.633C25.344 30.4144 26.3411 29.4395 27.5597 29.4395C28.7784 29.4395 29.7754 30.4144 29.7754 31.633Z" fill="#619E90"/>
<path d="M29.5095 38.6569C29.5095 39.7426 28.6454 40.6067 27.5597 40.6067C26.4962 40.6067 25.6099 39.7426 25.6099 38.6569C25.6099 37.5933 26.4962 36.707 27.5597 36.707C28.6454 36.707 29.5095 37.5933 29.5095 38.6569Z" fill="#619E90"/>
<path d="M30.0634 45.1046C30.0634 45.9909 29.3544 46.6999 28.4681 46.6999C27.5818 46.6999 26.8728 45.9909 26.8728 45.1046C26.8728 44.2183 27.5818 43.5093 28.4681 43.5093C29.3544 43.5093 30.0634 44.2183 30.0634 45.1046Z" fill="#619E90"/>
<path d="M32.0576 50.3556C32.0576 51.1311 31.4151 51.7736 30.6174 51.7736C29.8419 51.7736 29.1993 51.1311 29.1993 50.3556C29.1993 49.5579 29.8419 48.9375 30.6174 48.9375C31.4151 48.9375 32.0576 49.5579 32.0576 50.3556Z" fill="#619E90"/>
</g>
<defs>
<clipPath id="clip0_106_34">
<rect width="52.2909" height="48.7458" fill="white" transform="translate(2.85449 5)"/>
</clipPath>
</defs>
</svg>
