<svg id="Layer_1" data-name="Layer 1" xmlns="http://www.w3.org/2000/svg" viewBox="0 0 850.96 621.78"><defs><style>.cls-1{fill:#0179c7;}.cls-2{fill:#99d4c0;}</style></defs><path class="cls-1" d="M506.77,718.76h45.68A19.71,19.71,0,0,1,568.27,726a18.54,18.54,0,0,1,4.05,16.62Q570,753,566.92,766.24a19.69,19.69,0,0,1-7.16,11,20,20,0,0,1-12.7,4.32H498.67v-.2a.2.2,0,0,1,.06-.14.45.45,0,0,0-.1.24c0,.11-.06.27-.1.45s-.11.43-.18.73-.15.65-.24,1.07-.21.91-.34,1.49-.31,1.22-.49,1.94-.38,1.52-.59,2.42-.44,1.9-.69,3-.53,2.32-.83,3.63-.64,2.76-1,4.33-.77,3.27-1.18,5.09-.88,3.77-1.39,5.85H468.27a1.93,1.93,0,0,1,0-.24,4.78,4.78,0,0,1,.14-.52c.07-.23.16-.58.27-1s.26-1,.42-1.73.36-1.55.59-2.56.52-2.22.86-3.6.74-3,1.18-4.78.92-3.84,1.45-6.13,1.15-4.83,1.84-7.65,1.44-5.91,2.25-9.31,1.69-7.11,2.66-11.18,2-8.48,3.19-13.25,2.4-9.91,3.74-15.41Q492.36,718.76,506.77,718.76Zm-3,41.25H542.9a2.69,2.69,0,0,0,2.77-1.93l3.67-14.82a2.77,2.77,0,0,0-2.77-3.25h-36a2.79,2.79,0,0,0-1.66.62,3,3,0,0,0-1.11,1.66Z" transform="translate(-468.27 -189.74)"/><path class="cls-1" d="M589.22,734.12q5.68-15.36,19.39-15.36h5.88l-6.16,28.31-1.66,7.27H641.9a5.05,5.05,0,0,0,3.15-1.08,4.47,4.47,0,0,0,1.77-2.8l.83-3.53h.07l6.16-28.17h22.57l-18.28,77.39q-5.19,15.38-19.38,15.37H632.9l6.17-27.28,2-8.3H605.84a5.16,5.16,0,0,0-5.27,3.87l-.55,2.63-6.64,29.08H571.29Z" transform="translate(-468.27 -189.74)"/><path class="cls-1" d="M777.77,718.76l-44.93,51.92L724,808.31a4.16,4.16,0,0,1-4,3.21H699.82L710,768.88l-25.55-50.12h25.9l14.33,28.38,23.13-26.06a6.91,6.91,0,0,1,5.17-2.32Z" transform="translate(-468.27 -189.74)"/><path class="cls-1" d="M802.89,718.76q-13.78,0-19.66,15-.76,3-1.35,5.33c-.4,1.57-.73,3-1,4.19s-.53,2.27-.76,3.15-.41,1.61-.55,2.21l-.35,1.49q-.13.58-.24.93c-.07.24-.12.4-.14.49a1,1,0,0,0,0,.21q-2.16,9.62,3.46,16.71a18.07,18.07,0,0,0,15,7.1h34a2.32,2.32,0,0,1,2,1,2.23,2.23,0,0,1,.25,2.25c-.28,1.3-.53,2.43-.77,3.4s-.42,1.77-.58,2.42-.3,1.19-.42,1.63-.2.77-.24,1-.08.39-.11.48a1.26,1.26,0,0,0,0,.21,2.74,2.74,0,0,1-2.7,2H772.25a4.6,4.6,0,0,0-4.11,3.47c-1.42,6-4.07,17.07-4.12,17.26s-.12.44-.14.56a1,1,0,0,0,0,.24h67.78a19.57,19.57,0,0,0,12.53-4.29,20.5,20.5,0,0,0,7.2-11.08c.46-2,.88-3.76,1.28-5.33s.73-3,1-4.15.55-2.25.76-3.15.39-1.65.55-2.25.29-1.1.38-1.49l.21-.9c0-.21.08-.36.1-.45a.68.68,0,0,0,0-.21,19.08,19.08,0,0,0-3.43-16.65,17.87,17.87,0,0,0-14.92-7.23H803.65a2.43,2.43,0,0,1-2-1,2.82,2.82,0,0,1-.55-2.29c.32-1.29.6-2.42.83-3.39s.42-1.77.59-2.42.28-1.19.38-1.63.16-.77.2-1a3.2,3.2,0,0,1,.14-.49.47.47,0,0,0,.07-.2,3.24,3.24,0,0,1,1-1.35,2.45,2.45,0,0,1,1.66-.59h55c2.75,0,4.84-1.43,5.39-3.47,1.35-5,3.62-13.64,3.77-14.15.21-.72.37-1.3.49-1.77s.2-.81.27-1.07.12-.44.14-.55,0-.2,0-.24Z" transform="translate(-468.27 -189.74)"/><path class="cls-1" d="M919.36,734.12q6.1-15.36,21.26-15.36h48a21.27,21.27,0,0,1,16.65,7.19,18.08,18.08,0,0,1,4.4,16.62,1.54,1.54,0,0,1-.07.28c-.05.13-.11.33-.18.58s-.16.64-.27,1.15l-.45,1.9c-.19.76-.42,1.7-.69,2.8s-.6,2.43-1,4l-1.28,5.26c-.49,2-1,4.22-1.63,6.72s-1.28,5.28-2,8.37-1.6,6.52-2.5,10.28-1.9,7.86-3,12.29q-5.46,15.38-21.18,15.37H927.74q-10.51,0-16.89-7.2a18.42,18.42,0,0,1-4.5-16.62,2.57,2.57,0,0,1,0-.27c0-.14.07-.34.14-.59s.16-.63.28-1.14.28-1.14.48-1.91.44-1.69.7-2.8.56-2.42.93-4,.8-3.27,1.28-5.26,1-4.22,1.66-6.71,1.31-5.29,2-8.38,1.56-6.52,2.49-10.28S918.3,738.55,919.36,734.12Zm51.92,56.15a2.92,2.92,0,0,0,2.91-2.29.8.8,0,0,1,0-.21c0-.09,0-.25.1-.48s.13-.55.24-1,.25-.93.38-1.56.33-1.4.56-2.35.5-2,.83-3.29.68-2.7,1.07-4.36.84-3.54,1.35-5.64,1.09-4.44,1.73-7,1.35-5.43,2.11-8.55,1.61-6.54,2.53-10.28a2.69,2.69,0,0,0-2.91-3.25H944.7a2.84,2.84,0,0,0-2.91,2.28,1,1,0,0,1,0,.21c0,.09-.07.25-.14.48s-.15.56-.24,1-.22.94-.38,1.56-.36,1.41-.59,2.36-.5,2-.8,3.28-.64,2.7-1,4.36-.85,3.55-1.38,5.65-1.11,4.44-1.73,7-1.32,5.44-2.08,8.55-1.6,6.54-2.52,10.28a2.61,2.61,0,0,0,.69,2.29,2.93,2.93,0,0,0,2.21,1h37.52Z" transform="translate(-468.27 -189.74)"/><path class="cls-2" d="M1027,734.12q5.34-15.36,19.66-15.36h68.85l-3.41,14.9a8.07,8.07,0,0,1-7.87,6.28h-35.76V740h-17.93a2.57,2.57,0,0,0-1.56.62,3.45,3.45,0,0,0-1.14,1.66l-2.77,12.26h42.47l-3.29,15.27a7.5,7.5,0,0,1-7.32,5.91h-36.64l-6.74,30.06a7.33,7.33,0,0,1-7.16,5.73h-16.83Z" transform="translate(-468.27 -189.74)"/><path class="cls-2" d="M1125.28,734.12q5.88-15.36,19.59-15.36h5.88l-21.54,85.84a9.15,9.15,0,0,1-8.88,6.92h-14.94Z" transform="translate(-468.27 -189.74)"/><path class="cls-2" d="M1193.16,739.87h-33.05l3.78-15.39a7.52,7.52,0,0,1,7.31-5.72H1255l-3.57,14.52a8.66,8.66,0,0,1-8.41,6.59h-26.75l-16.55,67.85a5,5,0,0,1-4.84,3.8h-19.48Z" transform="translate(-468.27 -189.74)"/><path class="cls-1" d="M883,734.12q5.88-15.36,19.59-15.36h5.88L886.9,804.6a9.16,9.16,0,0,1-8.88,6.92H863.07Z" transform="translate(-468.27 -189.74)"/><path class="cls-1" d="M831.81,319.16l-83.94,352H854.22L919.4,397.83h186.82A19.83,19.83,0,0,0,1122,390l61.59-80.77L843,310.3A11.52,11.52,0,0,0,831.81,319.16Z" transform="translate(-468.27 -189.74)"/><path class="cls-2" d="M850.75,189.74A13.28,13.28,0,0,0,837.63,201l-12.25,79.38h325.41c45.81,0,71.24,51.09,61.1,87.35h0a72.33,72.33,0,0,1-70.35,55.54H958.42a10.82,10.82,0,0,0-10.53,8.32l-20.41,85.56h226.58c60.68,0,133.83-46,156.09-124.15,20.37-71.53,12.53-203-87.1-203.25Z" transform="translate(-468.27 -189.74)"/></svg>